<?xml version="1.0" encoding="UTF-8" standalone="no"?>
<svg
   xmlns:dc="http://purl.org/dc/elements/1.1/"
   xmlns:cc="http://creativecommons.org/ns#"
   xmlns:rdf="http://www.w3.org/1999/02/22-rdf-syntax-ns#"
   xmlns:svg="http://www.w3.org/2000/svg"
   xmlns="http://www.w3.org/2000/svg"
   xmlns:sodipodi="http://sodipodi.sourceforge.net/DTD/sodipodi-0.dtd"
   xmlns:inkscape="http://www.inkscape.org/namespaces/inkscape"
   viewBox="0 0 600 300.0000000000001"
   version="1.1"
   id="svg2"
   inkscape:version="0.48.4 r9939"
   width="100%"
   height="100%"
   sodipodi:docname="init_map.svg">
  <sodipodi:namedview
     pagecolor="#ffffff"
     bordercolor="#666666"
     borderopacity="1"
     objecttolerance="10"
     gridtolerance="10"
     guidetolerance="10"
     inkscape:pageopacity="0"
     inkscape:pageshadow="2"
     inkscape:window-width="1600"
     inkscape:window-height="834"
     id="namedview393"
     showgrid="true"
     inkscape:snap-global="true"
     inkscape:zoom="0.7759987117090219"
     inkscape:cx="220.7104460386314"
     inkscape:cy="116.93320531942"
     inkscape:window-x="0"
     inkscape:window-y="377"
     inkscape:window-maximized="1"
     inkscape:current-layer="g6904"
     fit-margin-top="0"
     fit-margin-left="0"
     fit-margin-right="0"
     fit-margin-bottom="0">
    <inkscape:grid
       id="grid3374"
       type="xygrid"
       empspacing="5"
       visible="true"
       enabled="true"
       snapvisiblegridlinesonly="true"
       originx="-150px"
       originy="1.67846682330719e-06px" />
  </sodipodi:namedview>
  <metadata
     id="metadata397">
    <rdf:RDF>
      <cc:Work
         rdf:about="">
        <dc:format>image/svg+xml</dc:format>
        <dc:type
           rdf:resource="http://purl.org/dc/dcmitype/StillImage" />
        <dc:title></dc:title>
      </cc:Work>
    </rdf:RDF>
  </metadata>
  <defs
     id="defs395">
    <marker
       style="overflow:visible"
       id="Arrow1Lend"
       refX="0"
       refY="0"
       orient="auto"
       inkscape:stockid="Arrow1Lend">
      <path
         transform="matrix(-0.8,0,0,-0.8,-10,0)"
         style="fill-rule:evenodd;stroke:#000000;stroke-width:1pt"
         d="M 0,0 L 5,-5 L -12.5,0 L 5,5 L 0,0 z"
         id="path5584"
         inkscape:connector-curvature="0" />
    </marker>
    <marker
       style="overflow:visible"
       id="Arrow1LendU"
       refX="0"
       refY="0"
       orient="auto"
       inkscape:stockid="Arrow1LendU">
      <path
         transform="matrix(-0.8,0,0,-0.8,-10,0)"
         style="fill:#505050;fill-rule:evenodd;stroke:#505050;stroke-width:1pt"
         d="M 0,0 L 5,-5 L -12.5,0 L 5,5 L 0,0 z"
         id="path6027"
         inkscape:connector-curvature="0" />
    </marker>
  </defs>
  <!-- svg generated using QGIS www.qgis.org -->
  <g
     inkscape:label="ne_110m_land"
     inkscape:groupmode="layer"
     id="ne_110m_land"
     transform="translate(-150,-389.0000016784668)">
    <g
       inkscape:label="qgisviewbox"
       inkscape:groupmode="layer"
       id="qgisviewbox"
       style="fill:none;stroke:#ff0000;stroke-width:1" />
    <g
       id="g6621"
       transform="translate(150,0)">
      <rect
         style="fill:#969696;fill-opacity:1;fill-rule:nonzero;stroke:none"
         id="rect3376"
         width="600"
         height="300"
         x="0"
         y="389"
         transform="matrix(1,0,0,-1,0,1078)" />
      <g
         id="g5"
         style="fill:#dcdcdc;fill-opacity:1;stroke:none"
         transform="matrix(0.9836065573770492,0,0,1.020408163265306,-61.96721311475409,317.5714285714287)">
        <g
           id="ne_110m_land_1"
           style="fill:#dcdcdc;fill-opacity:1">
          <path
             d="M 267,347 L 266,348 L 266,349 L 262,349 L 258,349 L 256,348 L 255,348 L 259,348 L 263,348 L 264,347 L 265,347 L 267,347"
             id="path8"
             style="fill:#dcdcdc;fill-opacity:1"
             inkscape:connector-curvature="0" />
        </g>
        <g
           id="ne_110m_land_2"
           style="fill:#dcdcdc;fill-opacity:1">
          <path
             d="M 98,346 L 95,347 L 93,346 L 92,345 L 91,345 L 90,345 L 91,344 L 95,344 L 96,345 L 98,346"
             id="path11"
             style="fill:#dcdcdc;fill-opacity:1"
             inkscape:connector-curvature="0" />
        </g>
        <g
           id="ne_110m_land_3"
           style="fill:#dcdcdc;fill-opacity:1">
          <path
             d="M 291,344 L 293,345 L 294,346 L 294,347 L 292,348 L 289,348 L 286,349 L 282,349 L 278,349 L 276,348 L 280,347 L 281,347 L 282,346 L 283,345 L 284,345 L 285,344 L 286,344 L 289,343 L 291,344"
             id="path14"
             style="fill:#dcdcdc;fill-opacity:1"
             inkscape:connector-curvature="0" />
        </g>
        <g
           id="ne_110m_land_4"
           style="fill:#dcdcdc;fill-opacity:1">
          <path
             d="M 162,336 L 165,336 L 167,336 L 166,337 L 164,337 L 162,337 L 160,336 L 162,336"
             id="path17"
             style="fill:#dcdcdc;fill-opacity:1"
             inkscape:connector-curvature="0" />
        </g>
        <g
           id="ne_110m_land_5"
           style="fill:#dcdcdc;fill-opacity:1">
          <path
             d="M 155,336 L 158,337 L 157,337 L 154,337 L 152,336 L 153,336 L 155,336"
             id="path20"
             style="fill:#dcdcdc;fill-opacity:1"
             inkscape:connector-curvature="0" />
        </g>
        <g
           id="ne_110m_land_6"
           style="fill:#dcdcdc;fill-opacity:1">
          <path
             d="M 200,334 L 202,334 L 204,334 L 205,334 L 203,334 L 201,334 L 199,334 L 197,334 L 195,334 L 194,333 L 195,333 L 198,333 L 200,334"
             id="path23"
             style="fill:#dcdcdc;fill-opacity:1"
             inkscape:connector-curvature="0" />
        </g>
        <g
           id="ne_110m_land_7"
           style="fill:#dcdcdc;fill-opacity:1">
          <path
             d="M 252,332 L 252,333 L 251,334 L 249,334 L 247,334 L 245,334 L 246,334 L 244,334 L 242,334 L 241,334 L 241,333 L 243,332 L 244,332 L 246,332 L 246,331 L 246,329 L 247,329 L 249,328 L 250,329 L 250,330 L 251,330 L 251,331 L 252,332"
             id="path26"
             style="fill:#dcdcdc;fill-opacity:1"
             inkscape:connector-curvature="0" />
        </g>
        <g
           id="ne_110m_land_8"
           style="fill:#dcdcdc;fill-opacity:1">
          <path
             d="M 268,320 L 268,321 L 266,320 L 265,321 L 264,321 L 263,321 L 262,322 L 262,323 L 262,324 L 261,324 L 260,324 L 259,325 L 258,325 L 257,326 L 256,327 L 257,327 L 258,328 L 259,328 L 261,329 L 261,330 L 262,330 L 262,331 L 263,331 L 264,332 L 264,334 L 264,335 L 265,336 L 264,337 L 263,338 L 260,338 L 260,339 L 259,339 L 256,340 L 254,340 L 252,340 L 249,341 L 248,341 L 245,342 L 242,341 L 240,342 L 237,342 L 240,343 L 242,343 L 243,344 L 241,344 L 238,344 L 236,344 L 236,345 L 236,346 L 238,346 L 238,347 L 240,348 L 244,348 L 247,348 L 249,349 L 252,349 L 256,350 L 261,350 L 263,351 L 267,351 L 268,352 L 269,353 L 271,352 L 274,352 L 277,351 L 280,351 L 283,350 L 288,350 L 292,350 L 295,351 L 296,350 L 299,349 L 303,349 L 306,349 L 309,349 L 313,348 L 317,348 L 319,348 L 318,347 L 317,347 L 317,346 L 314,346 L 311,346 L 307,346 L 307,344 L 308,344 L 310,344 L 313,343 L 315,343 L 317,342 L 319,342 L 321,341 L 323,341 L 325,341 L 327,341 L 330,341 L 332,340 L 334,340 L 336,339 L 338,339 L 340,338 L 341,338 L 342,337 L 340,337 L 340,336 L 342,336 L 343,335 L 345,335 L 347,334 L 348,334 L 349,333 L 350,332 L 352,332 L 353,333 L 355,333 L 355,332 L 356,332 L 358,332 L 358,333 L 360,333 L 363,332 L 365,332 L 367,332 L 367,333 L 369,332 L 371,332 L 373,332 L 375,332 L 376,331 L 378,331 L 380,331 L 381,330 L 382,330 L 384,330 L 385,331 L 386,332 L 388,331 L 389,331 L 390,330 L 393,330 L 393,331 L 395,330 L 397,330 L 399,330 L 400,330 L 402,330 L 404,330 L 405,331 L 406,331 L 408,331 L 410,331 L 412,331 L 414,331 L 415,331 L 417,331 L 419,330 L 420,330 L 422,330 L 423,329 L 424,328 L 425,328 L 427,328 L 428,329 L 429,329 L 431,329 L 432,329 L 433,330 L 435,329 L 436,329 L 437,328 L 439,328 L 441,328 L 442,327 L 444,327 L 445,327 L 447,326 L 448,326 L 450,326 L 451,325 L 452,325 L 454,325 L 454,324 L 456,324 L 457,324 L 459,323 L 460,323 L 462,323 L 463,323 L 465,324 L 465,325 L 466,325 L 467,326 L 469,326 L 470,326 L 472,327 L 473,327 L 475,327 L 476,326 L 478,326 L 480,326 L 481,327 L 483,327 L 484,327 L 486,328 L 486,329 L 486,330 L 484,330 L 483,331 L 485,331 L 485,332 L 484,333 L 483,333 L 484,334 L 486,334 L 488,334 L 489,333 L 490,332 L 491,332 L 492,331 L 493,330 L 494,330 L 496,330 L 498,330 L 499,329 L 500,329 L 501,328 L 502,327 L 503,327 L 505,327 L 506,326 L 507,326 L 508,325 L 510,326 L 511,325 L 513,325 L 515,325 L 516,325 L 517,324 L 518,325 L 520,325 L 521,326 L 523,325 L 525,325 L 526,325 L 527,325 L 529,325 L 530,326 L 532,326 L 533,326 L 535,325 L 537,326 L 538,325 L 539,324 L 540,324 L 542,323 L 543,323 L 544,323 L 546,324 L 548,325 L 549,325 L 551,325 L 553,325 L 555,325 L 556,324 L 557,324 L 559,324 L 560,323 L 562,324 L 564,325 L 565,325 L 567,325 L 569,325 L 571,326 L 573,325 L 574,325 L 575,324 L 577,324 L 578,325 L 580,325 L 581,324 L 583,324 L 584,325 L 586,325 L 588,324 L 589,324 L 591,324 L 593,324 L 595,324 L 596,324 L 597,323 L 597,322 L 598,323 L 598,324 L 599,324 L 599,325 L 601,325 L 603,325 L 605,325 L 606,325 L 609,325 L 610,325 L 612,325 L 614,325 L 615,326 L 616,327 L 618,327 L 620,327 L 622,328 L 624,328 L 626,328 L 628,328 L 629,328 L 631,328 L 632,329 L 633,329 L 636,329 L 637,330 L 638,330 L 640,331 L 642,331 L 643,331 L 645,331 L 647,332 L 649,332 L 651,332 L 653,332 L 655,332 L 657,333 L 658,333 L 658,334 L 657,334 L 656,335 L 655,336 L 652,337 L 651,337 L 649,338 L 648,338 L 647,339 L 646,339 L 645,340 L 645,341 L 645,342 L 646,343 L 647,344 L 650,344 L 651,345 L 648,345 L 645,346 L 642,346 L 640,347 L 640,348 L 639,348 L 639,349 L 641,349 L 642,350 L 643,351 L 645,351 L 647,352 L 650,352 L 654,353 L 655,354 L 660,354 L 661,355 L 666,354 L 670,355 L 673,355 L 673,364 L 63,364 L 63,355 L 64,354 L 67,355 L 68,355 L 69,354 L 70,354 L 72,355 L 74,354 L 75,354 L 80,354 L 81,354 L 82,354 L 85,355 L 90,355 L 93,356 L 100,356 L 105,356 L 112,356 L 116,357 L 121,356 L 125,356 L 126,355 L 119,355 L 113,354 L 112,354 L 108,353 L 108,352 L 109,351 L 106,350 L 105,350 L 102,349 L 106,349 L 110,349 L 112,349 L 116,349 L 118,348 L 120,348 L 119,347 L 117,347 L 114,346 L 111,346 L 108,346 L 105,346 L 103,345 L 101,344 L 100,344 L 99,342 L 100,342 L 102,343 L 105,342 L 107,342 L 109,343 L 111,343 L 114,342 L 116,342 L 118,341 L 120,341 L 120,340 L 120,339 L 122,339 L 123,340 L 126,339 L 128,339 L 130,339 L 132,339 L 135,338 L 137,338 L 139,338 L 140,338 L 141,338 L 144,338 L 146,338 L 148,338 L 150,338 L 153,338 L 155,338 L 158,338 L 160,338 L 163,338 L 165,338 L 167,337 L 169,337 L 171,337 L 173,337 L 175,337 L 176,337 L 176,338 L 177,338 L 179,338 L 181,338 L 184,339 L 185,339 L 188,339 L 190,339 L 193,339 L 195,339 L 197,339 L 198,338 L 197,338 L 196,337 L 194,337 L 193,337 L 193,336 L 192,335 L 193,335 L 196,335 L 198,335 L 200,335 L 201,336 L 202,336 L 205,336 L 207,336 L 209,336 L 211,336 L 213,336 L 215,336 L 217,335 L 218,335 L 220,336 L 222,335 L 223,336 L 226,336 L 228,336 L 230,337 L 231,336 L 232,336 L 233,336 L 236,336 L 237,336 L 239,337 L 241,337 L 243,336 L 244,336 L 246,336 L 249,336 L 251,335 L 253,335 L 254,334 L 254,333 L 253,332 L 252,331 L 252,330 L 252,329 L 253,328 L 253,327 L 253,326 L 254,325 L 255,324 L 256,324 L 257,323 L 258,323 L 259,322 L 260,322 L 261,321 L 263,321 L 264,321 L 265,320 L 266,320 L 268,320 L 268,319 L 270,319 L 271,319 L 270,320 L 268,320"
             id="path29"
             style="fill:#dcdcdc;fill-opacity:1"
             inkscape:connector-curvature="0" />
        </g>
        <g
           id="ne_110m_land_9"
           style="fill:#dcdcdc;fill-opacity:1">
          <path
             d="M 253,303 L 255,304 L 258,304 L 257,305 L 255,305 L 254,305 L 252,306 L 250,306 L 249,305 L 247,305 L 245,304 L 244,303 L 241,301 L 243,302 L 245,303 L 247,303 L 248,302 L 249,301 L 250,301 L 251,301 L 252,302 L 253,303"
             id="path32"
             style="fill:#dcdcdc;fill-opacity:1"
             inkscape:connector-curvature="0" />
        </g>
        <g
           id="ne_110m_land_10"
           style="fill:#dcdcdc;fill-opacity:1">
          <path
             d="M 269,298 L 270,299 L 269,300 L 267,300 L 266,299 L 265,300 L 264,299 L 266,298 L 268,299 L 269,298"
             id="path35"
             style="fill:#dcdcdc;fill-opacity:1"
             inkscape:connector-curvature="0" />
        </g>
        <g
           id="ne_110m_land_11"
           style="fill:#dcdcdc;fill-opacity:1">
          <path
             d="M 487,296 L 484,296 L 484,295 L 484,294 L 485,294 L 486,295 L 487,295 L 487,296"
             id="path38"
             style="fill:#dcdcdc;fill-opacity:1"
             inkscape:connector-curvature="0" />
        </g>
        <g
           id="ne_110m_land_12"
           style="fill:#dcdcdc;fill-opacity:1">
          <path
             d="M 614,281 L 616,281 L 617,281 L 618,281 L 619,281 L 619,283 L 618,285 L 618,284 L 617,286 L 616,285 L 615,285 L 614,284 L 614,283 L 613,281 L 614,281"
             id="path41"
             style="fill:#dcdcdc;fill-opacity:1"
             inkscape:connector-curvature="0" />
        </g>
        <g
           id="ne_110m_land_13"
           style="fill:#dcdcdc;fill-opacity:1">
          <path
             d="M 661,281 L 661,282 L 663,281 L 663,282 L 662,283 L 661,284 L 660,285 L 661,286 L 660,286 L 658,287 L 658,288 L 657,289 L 656,290 L 655,291 L 653,291 L 652,290 L 650,290 L 650,289 L 651,288 L 653,286 L 654,286 L 655,285 L 657,285 L 658,284 L 658,282 L 659,282 L 659,281 L 661,280 L 661,281"
             id="path44"
             style="fill:#dcdcdc;fill-opacity:1"
             inkscape:connector-curvature="0" />
        </g>
        <g
           id="ne_110m_land_14"
           style="fill:#dcdcdc;fill-opacity:1">
          <path
             d="M 664,273 L 665,275 L 665,274 L 666,274 L 666,275 L 667,276 L 668,276 L 669,275 L 670,275 L 670,277 L 669,278 L 668,278 L 668,279 L 667,280 L 666,282 L 665,282 L 664,282 L 665,280 L 664,279 L 662,279 L 662,278 L 664,277 L 664,276 L 664,275 L 663,274 L 662,273 L 661,271 L 660,270 L 661,270 L 662,271 L 663,271 L 664,273"
             id="path47"
             style="fill:#dcdcdc;fill-opacity:1"
             inkscape:connector-curvature="0" />
        </g>
        <g
           id="ne_110m_land_15"
           style="fill:#dcdcdc;fill-opacity:1">
          <path
             d="M 651,249 L 650,250 L 649,249 L 648,248 L 647,247 L 646,246 L 647,246 L 648,247 L 649,247 L 650,248 L 651,249"
             id="path50"
             style="fill:#dcdcdc;fill-opacity:1"
             inkscape:connector-curvature="0" />
        </g>
        <g
           id="ne_110m_land_16"
           style="fill:#dcdcdc;fill-opacity:1">
          <path
             d="M 670,241 L 671,241 L 670,242 L 669,243 L 668,242 L 669,241 L 670,241"
             id="path53"
             style="fill:#dcdcdc;fill-opacity:1"
             inkscape:connector-curvature="0" />
        </g>
        <g
           id="ne_110m_land_17"
           style="fill:#dcdcdc;fill-opacity:1">
          <path
             d="M 672,240 L 671,240 L 670,240 L 671,239 L 672,239 L 673,239 L 673,240 L 672,240"
             id="path56"
             style="fill:#dcdcdc;fill-opacity:1"
             inkscape:connector-curvature="0" />
        </g>
        <g
           id="ne_110m_land_18"
           style="fill:#dcdcdc;fill-opacity:1">
          <path
             d="M 63,240 L 63,239 L 63,240"
             id="path59"
             style="fill:#dcdcdc;fill-opacity:1"
             inkscape:connector-curvature="0" />
        </g>
        <g
           id="ne_110m_land_19"
           style="fill:#dcdcdc;fill-opacity:1">
          <path
             d="M 652,240 L 651,239 L 652,240"
             id="path62"
             style="fill:#dcdcdc;fill-opacity:1"
             inkscape:connector-curvature="0" />
        </g>
        <g
           id="ne_110m_land_20"
           style="fill:#dcdcdc;fill-opacity:1">
          <path
             d="M 651,237 L 651,238 L 650,238 L 650,236 L 651,237"
             id="path65"
             style="fill:#dcdcdc;fill-opacity:1"
             inkscape:connector-curvature="0" />
        </g>
        <g
           id="ne_110m_land_21"
           style="fill:#dcdcdc;fill-opacity:1">
          <path
             d="M 453,235 L 453,237 L 453,238 L 453,239 L 452,238 L 452,239 L 452,240 L 452,241 L 452,242 L 451,244 L 450,246 L 449,250 L 448,252 L 448,254 L 446,254 L 445,255 L 444,255 L 442,254 L 442,253 L 442,252 L 441,250 L 441,249 L 441,248 L 442,247 L 443,246 L 443,245 L 443,244 L 442,243 L 442,241 L 443,240 L 443,239 L 444,239 L 445,239 L 445,238 L 446,238 L 447,237 L 449,236 L 449,235 L 450,235 L 451,234 L 451,233 L 451,232 L 452,233 L 453,235"
             id="path68"
             style="fill:#dcdcdc;fill-opacity:1"
             inkscape:connector-curvature="0" />
        </g>
        <g
           id="ne_110m_land_22"
           style="fill:#dcdcdc;fill-opacity:1">
          <path
             d="M 611,235 L 612,236 L 613,236 L 614,237 L 614,238 L 614,239 L 615,240 L 615,242 L 615,243 L 616,244 L 618,245 L 619,245 L 620,246 L 620,247 L 621,248 L 621,249 L 622,249 L 623,250 L 623,251 L 625,252 L 625,253 L 627,254 L 627,256 L 627,257 L 627,258 L 628,259 L 628,261 L 628,262 L 627,263 L 627,264 L 627,265 L 626,267 L 625,268 L 624,269 L 624,270 L 623,271 L 622,272 L 622,273 L 622,274 L 622,275 L 621,276 L 619,276 L 617,276 L 617,277 L 616,278 L 614,277 L 613,277 L 613,276 L 611,277 L 610,277 L 609,277 L 608,277 L 606,276 L 605,275 L 605,274 L 604,273 L 603,272 L 602,272 L 602,271 L 602,270 L 601,271 L 600,271 L 600,270 L 601,269 L 601,267 L 600,269 L 599,269 L 598,271 L 597,270 L 597,269 L 596,268 L 595,267 L 593,266 L 592,266 L 590,265 L 587,265 L 585,266 L 583,266 L 582,266 L 580,267 L 578,267 L 578,268 L 577,269 L 576,269 L 575,269 L 573,269 L 572,269 L 571,269 L 570,270 L 569,270 L 568,271 L 567,271 L 565,271 L 564,270 L 563,270 L 563,269 L 564,268 L 564,267 L 564,266 L 564,265 L 563,263 L 563,262 L 562,260 L 561,259 L 561,258 L 560,257 L 560,256 L 561,257 L 560,255 L 561,256 L 561,255 L 560,254 L 560,253 L 560,252 L 561,251 L 560,250 L 561,248 L 561,250 L 562,249 L 563,248 L 564,247 L 566,247 L 567,247 L 568,246 L 569,246 L 570,245 L 571,245 L 573,245 L 573,244 L 574,243 L 575,242 L 575,241 L 576,239 L 577,241 L 578,241 L 577,240 L 578,239 L 579,238 L 579,237 L 580,236 L 581,236 L 582,235 L 583,235 L 584,236 L 585,237 L 586,237 L 587,237 L 587,236 L 588,235 L 589,234 L 588,234 L 589,233 L 590,232 L 591,232 L 592,232 L 592,231 L 591,231 L 592,230 L 593,231 L 594,232 L 595,232 L 596,232 L 597,232 L 598,232 L 599,232 L 600,233 L 599,233 L 599,234 L 598,234 L 598,235 L 598,236 L 597,237 L 599,238 L 600,239 L 601,239 L 602,240 L 603,240 L 603,241 L 604,241 L 605,242 L 606,241 L 607,240 L 607,239 L 607,238 L 608,237 L 608,236 L 608,235 L 608,234 L 608,233 L 608,232 L 609,231 L 609,230 L 610,231 L 610,232 L 610,233 L 611,233 L 611,234 L 611,235"
             id="path71"
             style="fill:#dcdcdc;fill-opacity:1"
             inkscape:connector-curvature="0" />
        </g>
        <g
           id="ne_110m_land_23"
           style="fill:#dcdcdc;fill-opacity:1">
          <path
             d="M 642,229 L 643,230 L 642,230 L 641,229 L 642,229"
             id="path74"
             style="fill:#dcdcdc;fill-opacity:1"
             inkscape:connector-curvature="0" />
        </g>
        <g
           id="ne_110m_land_24"
           style="fill:#dcdcdc;fill-opacity:1">
          <path
             d="M 572,229 L 569,228 L 571,227 L 572,228 L 572,229"
             id="path77"
             style="fill:#dcdcdc;fill-opacity:1"
             inkscape:connector-curvature="0" />
        </g>
        <g
           id="ne_110m_land_25"
           style="fill:#dcdcdc;fill-opacity:1">
          <path
             d="M 640,228 L 639,228 L 638,228 L 638,227 L 639,228 L 640,228"
             id="path80"
             style="fill:#dcdcdc;fill-opacity:1"
             inkscape:connector-curvature="0" />
        </g>
        <g
           id="ne_110m_land_26"
           style="fill:#dcdcdc;fill-opacity:1">
          <path
             d="M 642,228 L 641,228 L 640,227 L 640,226 L 641,227 L 642,228"
             id="path83"
             style="fill:#dcdcdc;fill-opacity:1"
             inkscape:connector-curvature="0" />
        </g>
        <g
           id="ne_110m_land_27"
           style="fill:#dcdcdc;fill-opacity:1">
          <path
             d="M 579,229 L 577,229 L 577,228 L 578,227 L 580,227 L 580,226 L 581,226 L 582,226 L 583,226 L 584,226 L 583,226 L 581,227 L 580,228 L 579,229"
             id="path86"
             style="fill:#dcdcdc;fill-opacity:1"
             inkscape:connector-curvature="0" />
        </g>
        <g
           id="ne_110m_land_28"
           style="fill:#dcdcdc;fill-opacity:1">
          <path
             d="M 568,225 L 568,226 L 569,226 L 570,226 L 568,227 L 566,227 L 566,226 L 567,226 L 568,225"
             id="path89"
             style="fill:#dcdcdc;fill-opacity:1"
             inkscape:connector-curvature="0" />
        </g>
        <g
           id="ne_110m_land_29"
           style="fill:#dcdcdc;fill-opacity:1">
          <path
             d="M 576,225 L 576,226 L 573,227 L 571,227 L 571,226 L 572,226 L 573,226 L 574,226 L 576,225"
             id="path92"
             style="fill:#dcdcdc;fill-opacity:1"
             inkscape:connector-curvature="0" />
        </g>
        <g
           id="ne_110m_land_30"
           style="fill:#dcdcdc;fill-opacity:1">
          <path
             d="M 639,226 L 637,225 L 636,225 L 636,224 L 637,224 L 638,225 L 639,226"
             id="path95"
             style="fill:#dcdcdc;fill-opacity:1"
             inkscape:connector-curvature="0" />
        </g>
        <g
           id="ne_110m_land_31"
           style="fill:#dcdcdc;fill-opacity:1">
          <path
             d="M 635,224 L 634,224 L 633,223 L 634,224 L 635,224"
             id="path98"
             style="fill:#dcdcdc;fill-opacity:1"
             inkscape:connector-curvature="0" />
        </g>
        <g
           id="ne_110m_land_32"
           style="fill:#dcdcdc;fill-opacity:1">
          <path
             d="M 552,223 L 555,223 L 559,223 L 559,224 L 562,225 L 564,226 L 562,226 L 560,226 L 558,226 L 557,226 L 555,225 L 553,225 L 552,225 L 551,225 L 548,224 L 548,223 L 546,223 L 547,222 L 550,222 L 551,222 L 552,222 L 552,223"
             id="path101"
             style="fill:#dcdcdc;fill-opacity:1"
             inkscape:connector-curvature="0" />
        </g>
        <g
           id="ne_110m_land_33"
           style="fill:#dcdcdc;fill-opacity:1">
          <path
             d="M 596,222 L 595,223 L 595,222 L 595,221 L 596,221 L 596,222"
             id="path104"
             style="fill:#dcdcdc;fill-opacity:1"
             inkscape:connector-curvature="0" />
        </g>
        <g
           id="ne_110m_land_34"
           style="fill:#dcdcdc;fill-opacity:1">
          <path
             d="M 632,223 L 631,223 L 630,222 L 630,220 L 630,221 L 631,222 L 632,223"
             id="path107"
             style="fill:#dcdcdc;fill-opacity:1"
             inkscape:connector-curvature="0" />
        </g>
        <g
           id="ne_110m_land_35"
           style="fill:#dcdcdc;fill-opacity:1">
          <path
             d="M 625,221 L 624,221 L 624,222 L 623,222 L 622,222 L 621,222 L 620,222 L 619,221 L 621,221 L 622,221 L 622,220 L 622,221 L 623,221 L 624,220 L 625,220 L 625,219 L 626,219 L 626,220 L 625,221"
             id="path110"
             style="fill:#dcdcdc;fill-opacity:1"
             inkscape:connector-curvature="0" />
        </g>
        <g
           id="ne_110m_land_36"
           style="fill:#dcdcdc;fill-opacity:1">
          <path
             d="M 583,217 L 583,218 L 582,218 L 581,217 L 583,217"
             id="path113"
             style="fill:#dcdcdc;fill-opacity:1"
             inkscape:connector-curvature="0" />
        </g>
        <g
           id="ne_110m_land_37"
           style="fill:#dcdcdc;fill-opacity:1">
          <path
             d="M 589,217 L 589,218 L 588,217 L 587,217 L 586,217 L 584,217 L 585,216 L 587,216 L 589,217"
             id="path116"
             style="fill:#dcdcdc;fill-opacity:1"
             inkscape:connector-curvature="0" />
        </g>
        <g
           id="ne_110m_land_38"
           style="fill:#dcdcdc;fill-opacity:1">
          <path
             d="M 627,219 L 627,220 L 626,219 L 626,218 L 625,217 L 624,217 L 623,216 L 624,216 L 625,217 L 626,217 L 626,218 L 627,218 L 627,219"
             id="path119"
             style="fill:#dcdcdc;fill-opacity:1"
             inkscape:connector-curvature="0" />
        </g>
        <g
           id="ne_110m_land_39"
           style="fill:#dcdcdc;fill-opacity:1">
          <path
             d="M 595,214 L 596,216 L 597,217 L 599,216 L 601,215 L 602,215 L 604,215 L 605,216 L 607,216 L 610,217 L 613,218 L 614,219 L 615,220 L 615,221 L 618,222 L 618,223 L 617,223 L 617,224 L 619,225 L 620,227 L 621,227 L 621,228 L 622,228 L 621,228 L 623,229 L 623,230 L 622,230 L 622,229 L 620,229 L 618,229 L 617,228 L 616,227 L 615,225 L 613,225 L 612,225 L 611,226 L 611,227 L 609,227 L 608,227 L 607,227 L 605,226 L 603,225 L 603,226 L 601,226 L 602,224 L 603,224 L 602,222 L 601,221 L 598,219 L 597,219 L 594,218 L 593,219 L 593,218 L 593,217 L 591,216 L 593,216 L 594,216 L 594,215 L 592,215 L 591,214 L 590,214 L 589,213 L 591,213 L 592,212 L 595,213 L 595,214"
             id="path122"
             style="fill:#dcdcdc;fill-opacity:1"
             inkscape:connector-curvature="0" />
        </g>
        <g
           id="ne_110m_land_40"
           style="fill:#dcdcdc;fill-opacity:1">
          <path
             d="M 580,209 L 579,211 L 577,211 L 576,211 L 573,211 L 571,211 L 571,212 L 573,214 L 574,213 L 577,213 L 576,213 L 575,214 L 574,215 L 575,217 L 575,218 L 576,220 L 576,221 L 575,221 L 576,219 L 574,220 L 574,219 L 573,218 L 573,216 L 572,217 L 572,219 L 572,221 L 571,221 L 570,221 L 570,219 L 570,218 L 569,216 L 570,215 L 570,214 L 571,211 L 573,209 L 574,210 L 576,210 L 578,210 L 580,209"
             id="path125"
             style="fill:#dcdcdc;fill-opacity:1"
             inkscape:connector-curvature="0" />
        </g>
        <g
           id="ne_110m_land_41"
           style="fill:#dcdcdc;fill-opacity:1">
          <path
             d="M 586,210 L 586,211 L 585,211 L 585,212 L 585,213 L 584,212 L 584,210 L 584,209 L 585,208 L 585,209 L 586,209 L 586,210"
             id="path128"
             style="fill:#dcdcdc;fill-opacity:1"
             inkscape:connector-curvature="0" />
        </g>
        <g
           id="ne_110m_land_42"
           style="fill:#dcdcdc;fill-opacity:1">
          <path
             d="M 547,222 L 545,222 L 544,220 L 542,219 L 541,218 L 540,216 L 539,215 L 537,213 L 536,211 L 535,210 L 535,209 L 533,207 L 532,206 L 531,205 L 529,203 L 529,202 L 530,202 L 533,203 L 534,204 L 536,206 L 537,206 L 538,208 L 540,208 L 541,209 L 542,211 L 544,211 L 543,213 L 544,213 L 545,213 L 545,215 L 545,216 L 547,216 L 548,217 L 547,219 L 547,222"
             id="path131"
             style="fill:#dcdcdc;fill-opacity:1"
             inkscape:connector-curvature="0" />
        </g>
        <g
           id="ne_110m_land_43"
           style="fill:#dcdcdc;fill-opacity:1">
          <path
             d="M 567,209 L 569,210 L 567,210 L 567,211 L 567,213 L 565,214 L 565,216 L 565,218 L 564,218 L 562,219 L 562,218 L 561,217 L 560,217 L 558,218 L 557,217 L 556,217 L 555,217 L 554,214 L 553,214 L 553,212 L 552,211 L 553,209 L 554,208 L 555,209 L 556,208 L 556,207 L 557,207 L 559,206 L 560,205 L 561,204 L 562,203 L 563,202 L 565,201 L 566,200 L 567,201 L 568,202 L 570,202 L 570,203 L 568,203 L 569,204 L 567,205 L 567,206 L 568,208 L 567,209"
             id="path134"
             style="fill:#dcdcdc;fill-opacity:1"
             inkscape:connector-curvature="0" />
        </g>
        <g
           id="ne_110m_land_44"
           style="fill:#dcdcdc;fill-opacity:1">
          <path
             d="M 582,197 L 582,198 L 582,199 L 582,201 L 581,199 L 580,200 L 581,201 L 580,202 L 578,201 L 578,200 L 578,199 L 577,198 L 577,199 L 576,199 L 575,200 L 574,199 L 575,198 L 576,198 L 577,197 L 578,198 L 579,197 L 579,196 L 580,196 L 580,195 L 582,196 L 582,197"
             id="path137"
             style="fill:#dcdcdc;fill-opacity:1"
             inkscape:connector-curvature="0" />
        </g>
        <g
           id="ne_110m_land_45"
           style="fill:#dcdcdc;fill-opacity:1">
          <path
             d="M 505,201 L 504,202 L 503,200 L 503,198 L 504,195 L 505,196 L 506,197 L 506,199 L 506,201 L 505,201"
             id="path140"
             style="fill:#dcdcdc;fill-opacity:1"
             inkscape:connector-curvature="0" />
        </g>
        <g
           id="ne_110m_land_46"
           style="fill:#dcdcdc;fill-opacity:1">
          <path
             d="M 264,194 L 263,195 L 263,194 L 263,193 L 264,193 L 265,193 L 264,194"
             id="path143"
             style="fill:#dcdcdc;fill-opacity:1"
             inkscape:connector-curvature="0" />
        </g>
        <g
           id="ne_110m_land_47"
           style="fill:#dcdcdc;fill-opacity:1">
          <path
             d="M 578,194 L 577,195 L 577,196 L 576,196 L 575,195 L 576,194 L 576,193 L 577,193 L 577,194 L 578,193 L 578,194"
             id="path146"
             style="fill:#dcdcdc;fill-opacity:1"
             inkscape:connector-curvature="0" />
        </g>
        <g
           id="ne_110m_land_48"
           style="fill:#dcdcdc;fill-opacity:1">
          <path
             d="M 569,196 L 566,197 L 567,196 L 568,195 L 569,194 L 570,192 L 571,194 L 569,195 L 569,196"
             id="path149"
             style="fill:#dcdcdc;fill-opacity:1"
             inkscape:connector-curvature="0" />
        </g>
        <g
           id="ne_110m_land_49"
           style="fill:#dcdcdc;fill-opacity:1">
          <path
             d="M 574,191 L 575,192 L 576,192 L 576,193 L 574,194 L 574,193 L 575,192 L 574,191"
             id="path152"
             style="fill:#dcdcdc;fill-opacity:1"
             inkscape:connector-curvature="0" />
        </g>
        <g
           id="ne_110m_land_50"
           style="fill:#dcdcdc;fill-opacity:1">
          <path
             d="M 580,191 L 581,193 L 580,192 L 580,193 L 580,194 L 579,194 L 579,193 L 578,192 L 579,192 L 578,190 L 580,190 L 580,191"
             id="path155"
             style="fill:#dcdcdc;fill-opacity:1"
             inkscape:connector-curvature="0" />
        </g>
        <g
           id="ne_110m_land_51"
           style="fill:#dcdcdc;fill-opacity:1">
          <path
             d="M 574,189 L 573,191 L 572,190 L 572,189 L 573,189 L 574,189"
             id="path158"
             style="fill:#dcdcdc;fill-opacity:1"
             inkscape:connector-curvature="0" />
        </g>
        <g
           id="ne_110m_land_52"
           style="fill:#dcdcdc;fill-opacity:1">
          <path
             d="M 573,180 L 574,181 L 575,180 L 575,181 L 575,183 L 575,184 L 574,185 L 574,186 L 574,187 L 575,188 L 576,187 L 578,188 L 578,189 L 578,190 L 577,190 L 576,189 L 575,188 L 573,189 L 572,188 L 572,187 L 573,187 L 572,187 L 571,186 L 571,184 L 572,184 L 572,182 L 572,180 L 573,180"
             id="path161"
             style="fill:#dcdcdc;fill-opacity:1"
             inkscape:connector-curvature="0" />
        </g>
        <g
           id="ne_110m_land_53"
           style="fill:#dcdcdc;fill-opacity:1">
          <path
             d="M 257,181 L 256,181 L 255,181 L 254,181 L 254,180 L 255,180 L 256,180 L 257,181"
             id="path164"
             style="fill:#dcdcdc;fill-opacity:1"
             inkscape:connector-curvature="0" />
        </g>
        <g
           id="ne_110m_land_54"
           style="fill:#dcdcdc;fill-opacity:1">
          <path
             d="M 237,181 L 237,182 L 236,181 L 235,181 L 235,180 L 236,180 L 237,180 L 238,181 L 239,181 L 237,181"
             id="path167"
             style="fill:#dcdcdc;fill-opacity:1"
             inkscape:connector-curvature="0" />
        </g>
        <g
           id="ne_110m_land_55"
           style="fill:#dcdcdc;fill-opacity:1">
          <path
             d="M 245,178 L 246,178 L 248,178 L 249,178 L 250,179 L 251,179 L 252,180 L 251,181 L 251,180 L 250,180 L 249,180 L 249,181 L 248,181 L 248,180 L 247,181 L 247,182 L 246,182 L 246,181 L 245,181 L 244,181 L 243,181 L 242,181 L 242,180 L 243,180 L 245,180 L 244,179 L 243,178 L 244,178 L 245,178"
             id="path170"
             style="fill:#dcdcdc;fill-opacity:1"
             inkscape:connector-curvature="0" />
        </g>
        <g
           id="ne_110m_land_56"
           style="fill:#dcdcdc;fill-opacity:1">
          <path
             d="M 555,180 L 553,181 L 552,180 L 552,179 L 553,178 L 554,178 L 555,178 L 556,178 L 555,179 L 555,180"
             id="path173"
             style="fill:#dcdcdc;fill-opacity:1"
             inkscape:connector-curvature="0" />
        </g>
        <g
           id="ne_110m_land_57"
           style="fill:#dcdcdc;fill-opacity:1">
          <path
             d="M 104,179 L 104,180 L 104,179 L 103,178 L 104,178 L 104,177 L 104,178 L 105,178 L 105,179 L 104,179"
             id="path176"
             style="fill:#dcdcdc;fill-opacity:1"
             inkscape:connector-curvature="0" />
        </g>
        <g
           id="ne_110m_land_58"
           style="fill:#dcdcdc;fill-opacity:1">
          <path
             d="M 103,177 L 102,176 L 103,176 L 103,177"
             id="path179"
             style="fill:#dcdcdc;fill-opacity:1"
             inkscape:connector-curvature="0" />
        </g>
        <g
           id="ne_110m_land_59"
           style="fill:#dcdcdc;fill-opacity:1">
          <path
             d="M 102,176 L 101,176 L 102,176"
             id="path182"
             style="fill:#dcdcdc;fill-opacity:1"
             inkscape:connector-curvature="0" />
        </g>
        <g
           id="ne_110m_land_60"
           style="fill:#dcdcdc;fill-opacity:1">
          <path
             d="M 101,175 L 101,176 L 100,176 L 100,175 L 101,175"
             id="path185"
             style="fill:#dcdcdc;fill-opacity:1"
             inkscape:connector-curvature="0" />
        </g>
        <g
           id="ne_110m_land_61"
           style="fill:#dcdcdc;fill-opacity:1">
          <path
             d="M 98,174 L 98,175 L 97,174 L 98,174"
             id="path188"
             style="fill:#dcdcdc;fill-opacity:1"
             inkscape:connector-curvature="0" />
        </g>
        <g
           id="ne_110m_land_62"
           style="fill:#dcdcdc;fill-opacity:1">
          <path
             d="M 233,173 L 233,174 L 235,173 L 236,174 L 237,175 L 238,176 L 239,176 L 240,176 L 241,177 L 242,177 L 242,178 L 241,178 L 240,178 L 238,178 L 236,178 L 237,177 L 236,177 L 235,176 L 234,175 L 233,175 L 232,175 L 231,174 L 229,174 L 229,173 L 227,173 L 226,174 L 225,174 L 224,175 L 225,174 L 225,173 L 226,173 L 227,173 L 228,173 L 228,172 L 230,172 L 231,172 L 233,173"
             id="path191"
             style="fill:#dcdcdc;fill-opacity:1"
             inkscape:connector-curvature="0" />
        </g>
        <g
           id="ne_110m_land_63"
           style="fill:#dcdcdc;fill-opacity:1">
          <path
             d="M 236,171 L 236,170 L 235,170 L 235,169 L 236,169 L 236,170 L 236,171"
             id="path194"
             style="fill:#dcdcdc;fill-opacity:1"
             inkscape:connector-curvature="0" />
        </g>
        <g
           id="ne_110m_land_64"
           style="fill:#dcdcdc;fill-opacity:1">
          <path
             d="M 573,173 L 572,174 L 571,173 L 571,172 L 572,170 L 574,169 L 574,170 L 573,173"
             id="path197"
             style="fill:#dcdcdc;fill-opacity:1"
             inkscape:connector-curvature="0" />
        </g>
        <g
           id="ne_110m_land_65"
           style="fill:#dcdcdc;fill-opacity:1">
          <path
             d="M 236,167 L 234,167 L 234,166 L 235,166 L 236,166 L 236,167"
             id="path200"
             style="fill:#dcdcdc;fill-opacity:1"
             inkscape:connector-curvature="0" />
        </g>
        <g
           id="ne_110m_land_66"
           style="fill:#dcdcdc;fill-opacity:1">
          <path
             d="M 237,167 L 237,168 L 237,167 L 236,166 L 237,167"
             id="path203"
             style="fill:#dcdcdc;fill-opacity:1"
             inkscape:connector-curvature="0" />
        </g>
        <g
           id="ne_110m_land_67"
           style="fill:#dcdcdc;fill-opacity:1">
          <path
             d="M 596,154 L 595,155 L 594,155 L 593,156 L 592,156 L 592,155 L 593,154 L 594,154 L 595,153 L 596,154"
             id="path206"
             style="fill:#dcdcdc;fill-opacity:1"
             inkscape:connector-curvature="0" />
        </g>
        <g
           id="ne_110m_land_68"
           style="fill:#dcdcdc;fill-opacity:1">
          <path
             d="M 426,151 L 425,152 L 424,153 L 423,153 L 422,152 L 423,152 L 424,152 L 425,152 L 426,151"
             id="path209"
             style="fill:#dcdcdc;fill-opacity:1"
             inkscape:connector-curvature="0" />
        </g>
        <g
           id="ne_110m_land_69"
           style="fill:#dcdcdc;fill-opacity:1">
          <path
             d="M 408,151 L 409,152 L 410,152 L 411,152 L 412,152 L 410,152 L 408,152 L 408,151"
             id="path212"
             style="fill:#dcdcdc;fill-opacity:1"
             inkscape:connector-curvature="0" />
        </g>
        <g
           id="ne_110m_land_70"
           style="fill:#dcdcdc;fill-opacity:1">
          <path
             d="M 394,147 L 393,148 L 394,149 L 393,150 L 392,149 L 391,149 L 389,148 L 389,147 L 391,147 L 393,147 L 394,147"
             id="path215"
             style="fill:#dcdcdc;fill-opacity:1"
             inkscape:connector-curvature="0" />
        </g>
        <g
           id="ne_110m_land_71"
           style="fill:#dcdcdc;fill-opacity:1">
          <path
             d="M 383,142 L 384,143 L 384,145 L 383,145 L 383,146 L 382,145 L 382,143 L 382,142 L 383,142"
             id="path218"
             style="fill:#dcdcdc;fill-opacity:1"
             inkscape:connector-curvature="0" />
        </g>
        <g
           id="ne_110m_land_72"
           style="fill:#dcdcdc;fill-opacity:1">
          <path
             d="M 607,149 L 606,150 L 606,151 L 605,152 L 603,153 L 600,153 L 598,155 L 597,154 L 597,153 L 594,153 L 592,154 L 590,154 L 591,155 L 590,158 L 589,159 L 588,158 L 589,157 L 588,156 L 587,155 L 589,155 L 590,154 L 591,153 L 592,152 L 596,151 L 598,151 L 599,148 L 601,149 L 603,148 L 604,147 L 605,145 L 605,143 L 605,142 L 607,142 L 608,144 L 608,145 L 607,147 L 607,149"
             id="path221"
             style="fill:#dcdcdc;fill-opacity:1"
             inkscape:connector-curvature="0" />
        </g>
        <g
           id="ne_110m_land_73"
           style="fill:#dcdcdc;fill-opacity:1">
          <path
             d="M 384,140 L 383,141 L 382,140 L 383,139 L 384,139 L 384,140"
             id="path224"
             style="fill:#dcdcdc;fill-opacity:1"
             inkscape:connector-curvature="0" />
        </g>
        <g
           id="ne_110m_land_74"
           style="fill:#dcdcdc;fill-opacity:1">
          <path
             d="M 612,137 L 613,137 L 614,136 L 614,138 L 612,139 L 610,140 L 608,139 L 607,141 L 605,141 L 605,139 L 606,138 L 607,138 L 608,136 L 608,134 L 610,136 L 612,137"
             id="path227"
             style="fill:#dcdcdc;fill-opacity:1"
             inkscape:connector-curvature="0" />
        </g>
        <g
           id="ne_110m_land_75"
           style="fill:#dcdcdc;fill-opacity:1">
          <path
             d="M 260,133 L 261,133 L 263,133 L 262,134 L 261,134 L 259,133 L 259,132 L 260,133"
             id="path230"
             style="fill:#dcdcdc;fill-opacity:1"
             inkscape:connector-curvature="0" />
        </g>
        <g
           id="ne_110m_land_76"
           style="fill:#dcdcdc;fill-opacity:1">
          <path
             d="M 263,128 L 262,128 L 260,128 L 258,127 L 259,127 L 261,127 L 263,128"
             id="path233"
             style="fill:#dcdcdc;fill-opacity:1"
             inkscape:connector-curvature="0" />
        </g>
        <g
           id="ne_110m_land_77"
           style="fill:#dcdcdc;fill-opacity:1">
          <path
             d="M 158,129 L 158,130 L 155,129 L 154,128 L 153,128 L 153,127 L 151,127 L 150,126 L 152,126 L 153,126 L 155,126 L 155,127 L 156,128 L 158,128 L 158,129"
             id="path236"
             style="fill:#dcdcdc;fill-opacity:1"
             inkscape:connector-curvature="0" />
        </g>
        <g
           id="ne_110m_land_78"
           style="fill:#dcdcdc;fill-opacity:1">
          <path
             d="M 273,126 L 272,127 L 273,127 L 274,127 L 273,128 L 275,128 L 277,128 L 277,129 L 278,129 L 278,130 L 279,131 L 278,133 L 277,133 L 276,132 L 276,131 L 274,132 L 273,132 L 274,131 L 272,131 L 271,131 L 267,131 L 267,130 L 268,130 L 267,129 L 269,128 L 271,126 L 272,125 L 273,124 L 274,124 L 274,125 L 273,126"
             id="path239"
             style="fill:#dcdcdc;fill-opacity:1"
             inkscape:connector-curvature="0" />
        </g>
        <g
           id="ne_110m_land_79"
           style="fill:#dcdcdc;fill-opacity:1">
          <path
             d="M 143,120 L 145,120 L 144,122 L 145,123 L 144,122 L 143,122 L 142,121 L 142,120 L 143,120"
             id="path242"
             style="fill:#dcdcdc;fill-opacity:1"
             inkscape:connector-curvature="0" />
        </g>
        <g
           id="ne_110m_land_80"
           style="fill:#dcdcdc;fill-opacity:1">
          <path
             d="M 611,126 L 613,129 L 610,128 L 609,131 L 611,132 L 611,133 L 610,132 L 609,134 L 608,132 L 608,131 L 608,129 L 609,128 L 609,125 L 608,124 L 608,121 L 609,121 L 609,120 L 609,119 L 610,121 L 610,122 L 610,124 L 611,126"
             id="path245"
             style="fill:#dcdcdc;fill-opacity:1"
             inkscape:connector-curvature="0" />
        </g>
        <g
           id="ne_110m_land_81"
           style="fill:#dcdcdc;fill-opacity:1">
          <path
             d="M 356,123 L 353,124 L 351,124 L 352,122 L 351,120 L 354,119 L 355,118 L 356,118 L 358,119 L 357,120 L 358,122 L 356,123"
             id="path248"
             style="fill:#dcdcdc;fill-opacity:1"
             inkscape:connector-curvature="0" />
        </g>
        <g
           id="ne_110m_land_82"
           style="fill:#dcdcdc;fill-opacity:1">
          <path
             d="M 389,117 L 388,119 L 386,118 L 386,117 L 389,117"
             id="path251"
             style="fill:#dcdcdc;fill-opacity:1"
             inkscape:connector-curvature="0" />
        </g>
        <g
           id="ne_110m_land_83"
           style="fill:#dcdcdc;fill-opacity:1">
          <path
             d="M 108,115 L 107,115 L 106,115 L 106,114 L 107,114 L 108,113 L 109,114 L 110,114 L 108,115"
             id="path254"
             style="fill:#dcdcdc;fill-opacity:1"
             inkscape:connector-curvature="0" />
        </g>
        <g
           id="ne_110m_land_84"
           style="fill:#dcdcdc;fill-opacity:1">
          <path
             d="M 363,112 L 361,114 L 363,114 L 364,114 L 364,115 L 362,117 L 364,117 L 366,119 L 367,119 L 368,121 L 369,122 L 371,122 L 370,123 L 370,124 L 370,125 L 369,126 L 366,126 L 364,126 L 363,126 L 362,127 L 360,126 L 359,127 L 358,127 L 360,125 L 362,124 L 359,124 L 361,123 L 360,122 L 360,121 L 363,121 L 363,120 L 362,119 L 360,119 L 359,118 L 360,118 L 359,117 L 358,118 L 358,116 L 357,115 L 358,114 L 359,112 L 361,112 L 363,112"
             id="path257"
             style="fill:#dcdcdc;fill-opacity:1"
             inkscape:connector-curvature="0" />
        </g>
        <g
           id="ne_110m_land_85"
           style="fill:#dcdcdc;fill-opacity:1">
          <path
             d="M 87,110 L 86,110 L 85,110 L 84,110 L 86,109 L 87,109 L 87,110"
             id="path260"
             style="fill:#dcdcdc;fill-opacity:1"
             inkscape:connector-curvature="0" />
        </g>
        <g
           id="ne_110m_land_86"
           style="fill:#dcdcdc;fill-opacity:1">
          <path
             d="M 233,106 L 233,107 L 232,107 L 232,106 L 233,106"
             id="path263"
             style="fill:#dcdcdc;fill-opacity:1"
             inkscape:connector-curvature="0" />
        </g>
        <g
           id="ne_110m_land_87"
           style="fill:#dcdcdc;fill-opacity:1">
          <path
             d="M 229,105 L 227,106 L 226,106 L 225,106 L 227,105 L 229,105"
             id="path266"
             style="fill:#dcdcdc;fill-opacity:1"
             inkscape:connector-curvature="0" />
        </g>
        <g
           id="ne_110m_land_88"
           style="fill:#dcdcdc;fill-opacity:1">
          <path
             d="M 77,104 L 78,104 L 79,104 L 80,104 L 82,104 L 82,105 L 80,105 L 79,105 L 79,104 L 77,104"
             id="path269"
             style="fill:#dcdcdc;fill-opacity:1"
             inkscape:connector-curvature="0" />
        </g>
        <g
           id="ne_110m_land_89"
           style="fill:#dcdcdc;fill-opacity:1">
          <path
             d="M 223,100 L 224,101 L 225,101 L 226,101 L 227,102 L 229,102 L 230,103 L 231,103 L 232,104 L 231,104 L 228,104 L 227,103 L 225,104 L 223,105 L 222,104 L 220,104 L 221,103 L 222,102 L 222,100 L 223,100"
             id="path272"
             style="fill:#dcdcdc;fill-opacity:1"
             inkscape:connector-curvature="0" />
        </g>
        <g
           id="ne_110m_land_90"
           style="fill:#dcdcdc;fill-opacity:1">
          <path
             d="M 343,99 L 343,100 L 345,101 L 342,103 L 338,104 L 336,104 L 334,104 L 329,103 L 331,102 L 327,102 L 330,101 L 327,100 L 328,99 L 330,99 L 333,100 L 335,99 L 338,100 L 340,99 L 343,99"
             id="path275"
             style="fill:#dcdcdc;fill-opacity:1"
             inkscape:connector-curvature="0" />
        </g>
        <g
           id="ne_110m_land_91"
           style="fill:#dcdcdc;fill-opacity:1">
          <path
             d="M 239,98 L 237,98 L 237,97 L 238,96 L 239,96 L 240,96 L 240,97 L 239,98"
             id="path278"
             style="fill:#dcdcdc;fill-opacity:1"
             inkscape:connector-curvature="0" />
        </g>
        <g
           id="ne_110m_land_92"
           style="fill:#dcdcdc;fill-opacity:1">
          <path
             d="M 71,99 L 72,99 L 72,98 L 77,98 L 80,100 L 78,101 L 75,101 L 75,102 L 75,103 L 73,103 L 72,102 L 70,102 L 69,101 L 67,101 L 66,101 L 65,100 L 63,100 L 64,101 L 63,102 L 63,95 L 67,96 L 71,98 L 71,99"
             id="path281"
             style="fill:#dcdcdc;fill-opacity:1"
             inkscape:connector-curvature="0" />
        </g>
        <g
           id="ne_110m_land_93"
           style="fill:#dcdcdc;fill-opacity:1">
          <path
             d="M 206,95 L 205,95 L 202,95 L 201,95 L 199,94 L 200,93 L 201,93 L 203,93 L 204,94 L 205,94 L 206,95"
             id="path284"
             style="fill:#dcdcdc;fill-opacity:1"
             inkscape:connector-curvature="0" />
        </g>
        <g
           id="ne_110m_land_94"
           style="fill:#dcdcdc;fill-opacity:1">
          <path
             d="M 673,92 L 671,92 L 671,91 L 673,90 L 673,92"
             id="path287"
             style="fill:#dcdcdc;fill-opacity:1"
             inkscape:connector-curvature="0" />
        </g>
        <g
           id="ne_110m_land_95"
           style="fill:#dcdcdc;fill-opacity:1">
          <path
             d="M 65,91 L 63,92 L 63,90 L 64,90 L 67,91 L 65,91"
             id="path290"
             style="fill:#dcdcdc;fill-opacity:1"
             inkscape:connector-curvature="0" />
        </g>
        <g
           id="ne_110m_land_96"
           style="fill:#dcdcdc;fill-opacity:1">
          <path
             d="M 214,94 L 214,96 L 217,94 L 219,95 L 218,97 L 220,98 L 222,97 L 223,95 L 223,93 L 225,93 L 228,94 L 230,94 L 230,95 L 229,96 L 230,97 L 230,98 L 227,99 L 224,99 L 222,99 L 222,100 L 220,101 L 220,102 L 218,103 L 215,103 L 214,104 L 214,105 L 212,105 L 210,107 L 208,108 L 207,110 L 207,112 L 210,112 L 211,114 L 211,115 L 214,115 L 217,115 L 219,116 L 220,117 L 222,117 L 224,118 L 227,118 L 228,118 L 228,120 L 229,121 L 230,123 L 232,125 L 234,124 L 235,123 L 234,120 L 232,119 L 235,118 L 237,117 L 238,116 L 238,115 L 237,113 L 235,112 L 237,110 L 236,109 L 235,106 L 237,106 L 239,106 L 241,106 L 243,106 L 244,106 L 246,107 L 247,108 L 250,108 L 250,110 L 250,112 L 252,112 L 253,113 L 256,112 L 257,110 L 258,109 L 260,111 L 262,113 L 264,115 L 263,116 L 265,117 L 267,118 L 270,119 L 271,119 L 271,120 L 273,121 L 273,123 L 272,124 L 271,124 L 268,125 L 266,126 L 263,127 L 260,126 L 257,126 L 255,127 L 254,128 L 252,128 L 249,131 L 247,132 L 249,132 L 251,130 L 255,128 L 258,128 L 259,129 L 257,130 L 258,132 L 259,133 L 261,134 L 264,134 L 265,132 L 265,133 L 266,134 L 264,135 L 261,136 L 259,137 L 257,138 L 256,138 L 256,136 L 259,135 L 256,135 L 254,135 L 254,136 L 252,137 L 251,137 L 249,138 L 248,139 L 248,140 L 248,141 L 249,141 L 249,140 L 249,141 L 248,141 L 247,141 L 246,142 L 245,142 L 244,142 L 243,142 L 245,142 L 246,142 L 243,143 L 242,143 L 242,144 L 241,146 L 241,145 L 240,145 L 240,146 L 241,146 L 241,147 L 240,147 L 239,149 L 239,148 L 239,147 L 238,145 L 238,146 L 238,147 L 237,147 L 238,147 L 239,149 L 239,150 L 239,151 L 238,153 L 237,153 L 235,154 L 234,155 L 232,157 L 231,157 L 230,158 L 230,160 L 230,161 L 231,162 L 231,163 L 231,164 L 232,166 L 232,167 L 232,168 L 232,169 L 231,169 L 230,169 L 230,168 L 229,168 L 228,166 L 228,165 L 227,164 L 228,163 L 227,162 L 226,161 L 225,161 L 224,161 L 223,161 L 222,161 L 221,160 L 219,160 L 218,160 L 217,160 L 216,160 L 216,161 L 216,162 L 217,162 L 216,162 L 215,162 L 214,162 L 212,161 L 211,162 L 210,161 L 209,161 L 207,162 L 206,163 L 204,164 L 203,164 L 203,165 L 203,166 L 203,167 L 203,168 L 202,169 L 202,170 L 202,173 L 202,174 L 202,175 L 203,175 L 203,177 L 204,178 L 205,179 L 205,180 L 207,180 L 208,181 L 209,180 L 211,180 L 212,180 L 213,180 L 214,179 L 214,178 L 214,177 L 215,176 L 216,176 L 218,175 L 219,175 L 220,175 L 221,175 L 221,176 L 220,177 L 219,178 L 220,179 L 219,179 L 219,181 L 218,180 L 218,181 L 218,182 L 218,183 L 218,184 L 217,184 L 217,185 L 218,185 L 219,185 L 220,185 L 221,185 L 222,185 L 222,184 L 223,185 L 224,185 L 225,185 L 226,185 L 226,186 L 227,186 L 227,187 L 226,188 L 226,189 L 226,190 L 226,191 L 226,192 L 226,193 L 226,194 L 227,195 L 228,195 L 228,196 L 229,196 L 230,197 L 231,197 L 231,196 L 232,196 L 233,195 L 234,195 L 234,196 L 235,196 L 236,196 L 237,197 L 238,197 L 239,196 L 240,196 L 240,195 L 240,194 L 241,193 L 242,193 L 242,192 L 243,193 L 245,192 L 245,191 L 246,191 L 247,191 L 247,192 L 246,192 L 246,193 L 246,194 L 246,195 L 246,196 L 247,196 L 247,195 L 247,194 L 247,193 L 249,192 L 249,191 L 250,192 L 251,192 L 252,193 L 252,194 L 254,194 L 256,194 L 257,194 L 258,195 L 259,194 L 261,193 L 263,193 L 261,194 L 262,195 L 263,195 L 265,196 L 265,197 L 266,197 L 268,198 L 269,199 L 269,200 L 270,201 L 271,201 L 273,202 L 274,201 L 276,202 L 277,202 L 278,202 L 280,204 L 280,205 L 281,204 L 281,205 L 282,208 L 283,209 L 283,210 L 282,211 L 282,212 L 285,212 L 285,214 L 287,213 L 289,213 L 292,214 L 292,215 L 292,216 L 294,216 L 297,217 L 300,216 L 303,218 L 305,220 L 306,220 L 307,220 L 308,221 L 309,223 L 309,224 L 308,227 L 307,228 L 305,230 L 304,232 L 303,234 L 302,234 L 302,235 L 302,238 L 301,241 L 301,242 L 301,243 L 300,245 L 299,247 L 298,249 L 297,250 L 297,251 L 295,251 L 292,251 L 291,252 L 289,252 L 287,254 L 286,255 L 285,257 L 286,258 L 285,259 L 285,260 L 284,261 L 282,264 L 280,265 L 279,266 L 278,268 L 277,269 L 277,270 L 275,271 L 273,271 L 272,271 L 271,270 L 270,270 L 269,269 L 269,270 L 271,271 L 271,273 L 272,273 L 272,274 L 270,276 L 267,277 L 264,278 L 262,277 L 262,278 L 262,280 L 262,281 L 261,281 L 260,281 L 258,281 L 257,281 L 258,283 L 259,283 L 260,283 L 260,284 L 259,284 L 257,285 L 257,287 L 257,288 L 255,288 L 254,289 L 253,290 L 255,291 L 257,292 L 256,293 L 254,294 L 253,296 L 251,297 L 251,298 L 251,299 L 252,300 L 250,300 L 249,301 L 248,301 L 247,303 L 245,302 L 243,301 L 241,300 L 240,299 L 241,298 L 240,297 L 240,294 L 240,292 L 242,291 L 240,291 L 241,289 L 242,286 L 244,287 L 245,283 L 243,283 L 243,285 L 242,285 L 242,282 L 243,279 L 244,278 L 243,276 L 243,275 L 244,275 L 245,272 L 246,269 L 247,267 L 246,264 L 247,263 L 247,261 L 248,258 L 248,255 L 248,252 L 249,248 L 249,245 L 249,243 L 247,242 L 247,241 L 243,239 L 240,237 L 239,236 L 238,235 L 239,235 L 237,232 L 235,229 L 234,226 L 233,225 L 233,224 L 231,223 L 230,222 L 231,221 L 230,220 L 230,218 L 232,217 L 233,216 L 232,215 L 232,216 L 231,215 L 231,213 L 232,212 L 232,211 L 232,210 L 233,210 L 234,209 L 235,209 L 234,208 L 235,207 L 236,207 L 236,206 L 237,205 L 236,205 L 237,204 L 236,202 L 237,202 L 236,200 L 236,199 L 235,199 L 235,198 L 235,197 L 234,196 L 233,196 L 233,197 L 232,197 L 232,198 L 231,198 L 232,199 L 231,199 L 230,198 L 230,199 L 229,198 L 228,198 L 227,198 L 226,197 L 226,196 L 225,196 L 224,195 L 223,195 L 222,194 L 223,193 L 222,193 L 223,193 L 222,192 L 221,192 L 221,191 L 220,191 L 219,190 L 219,189 L 220,190 L 220,189 L 219,189 L 218,189 L 217,189 L 216,189 L 215,188 L 214,188 L 213,188 L 212,188 L 211,187 L 210,185 L 209,185 L 207,184 L 206,184 L 205,185 L 204,185 L 203,185 L 202,184 L 200,184 L 199,183 L 197,183 L 195,182 L 195,181 L 194,181 L 192,181 L 192,180 L 190,179 L 189,178 L 189,177 L 189,176 L 189,175 L 189,174 L 188,173 L 187,171 L 185,170 L 184,169 L 183,168 L 182,168 L 183,167 L 182,166 L 181,166 L 180,164 L 179,164 L 178,163 L 178,162 L 177,161 L 176,159 L 175,158 L 174,158 L 173,158 L 173,159 L 173,161 L 174,161 L 175,162 L 176,163 L 177,165 L 178,166 L 179,166 L 179,168 L 180,169 L 180,170 L 181,170 L 182,171 L 182,172 L 182,173 L 181,173 L 181,172 L 180,171 L 179,170 L 178,170 L 178,168 L 177,168 L 177,167 L 175,166 L 174,166 L 173,165 L 174,165 L 174,164 L 174,163 L 173,162 L 172,162 L 171,160 L 171,159 L 170,158 L 169,156 L 168,155 L 167,154 L 166,154 L 165,153 L 164,153 L 163,153 L 163,152 L 162,150 L 160,148 L 159,147 L 158,146 L 158,144 L 157,143 L 157,142 L 157,140 L 157,139 L 157,138 L 158,134 L 158,132 L 157,131 L 156,130 L 157,130 L 159,130 L 160,132 L 160,131 L 160,130 L 160,129 L 159,129 L 156,127 L 155,126 L 152,125 L 151,124 L 151,123 L 149,122 L 149,121 L 147,120 L 147,119 L 146,118 L 144,118 L 144,116 L 141,115 L 141,113 L 139,113 L 136,113 L 134,112 L 131,111 L 129,110 L 126,110 L 124,110 L 120,109 L 118,108 L 117,109 L 117,110 L 116,110 L 114,110 L 113,111 L 111,111 L 110,110 L 111,109 L 113,108 L 110,109 L 109,110 L 107,111 L 108,112 L 106,113 L 105,114 L 103,114 L 102,115 L 100,116 L 99,117 L 97,117 L 96,117 L 95,118 L 93,118 L 91,119 L 89,119 L 88,119 L 90,118 L 92,118 L 94,117 L 96,117 L 97,116 L 99,115 L 100,114 L 101,113 L 102,112 L 100,112 L 99,112 L 98,113 L 97,112 L 96,112 L 94,112 L 93,112 L 93,111 L 92,110 L 90,110 L 89,109 L 88,109 L 88,108 L 86,107 L 87,106 L 88,105 L 89,105 L 90,104 L 91,105 L 93,104 L 94,104 L 95,104 L 95,103 L 94,102 L 95,102 L 94,102 L 92,102 L 92,103 L 91,102 L 88,102 L 86,102 L 85,101 L 83,100 L 85,100 L 89,99 L 90,99 L 90,100 L 94,100 L 92,99 L 90,98 L 89,97 L 88,96 L 85,96 L 86,95 L 89,95 L 91,94 L 92,93 L 93,92 L 95,92 L 98,91 L 100,92 L 102,91 L 105,91 L 106,92 L 107,91 L 110,92 L 112,92 L 114,92 L 118,93 L 121,93 L 122,93 L 124,93 L 127,93 L 129,93 L 132,94 L 135,95 L 136,95 L 138,94 L 140,94 L 143,94 L 145,93 L 148,93 L 149,93 L 150,93 L 151,92 L 152,92 L 155,94 L 157,93 L 157,94 L 159,94 L 160,93 L 162,93 L 165,94 L 168,95 L 171,95 L 172,95 L 175,96 L 172,97 L 175,97 L 180,97 L 181,96 L 183,97 L 185,97 L 183,96 L 184,95 L 187,95 L 188,95 L 189,95 L 191,96 L 193,96 L 196,97 L 198,97 L 201,97 L 201,96 L 202,95 L 205,96 L 205,98 L 206,96 L 207,96 L 208,95 L 206,94 L 204,93 L 204,91 L 206,90 L 209,90 L 210,91 L 213,93 L 211,94 L 214,94"
             id="path293"
             style="fill:#dcdcdc;fill-opacity:1"
             inkscape:connector-curvature="0" />
        </g>
        <g
           id="ne_110m_land_97"
           style="fill:#dcdcdc;fill-opacity:1">
          <path
             d="M 174,88 L 173,89 L 177,88 L 180,89 L 181,88 L 183,89 L 184,90 L 185,90 L 184,88 L 186,88 L 187,88 L 189,88 L 190,90 L 191,91 L 194,92 L 197,93 L 196,94 L 194,94 L 195,94 L 194,95 L 191,95 L 188,94 L 186,94 L 183,95 L 178,95 L 176,95 L 175,95 L 173,94 L 171,94 L 169,93 L 170,93 L 173,93 L 175,93 L 177,92 L 174,92 L 170,92 L 168,92 L 167,91 L 171,91 L 168,91 L 165,90 L 167,89 L 168,88 L 173,87 L 174,88"
             id="path296"
             style="fill:#dcdcdc;fill-opacity:1"
             inkscape:connector-curvature="0" />
        </g>
        <g
           id="ne_110m_land_98"
           style="fill:#dcdcdc;fill-opacity:1">
          <path
             d="M 191,87 L 189,88 L 187,87 L 189,87 L 191,87"
             id="path299"
             style="fill:#dcdcdc;fill-opacity:1"
             inkscape:connector-curvature="0" />
        </g>
        <g
           id="ne_110m_land_99"
           style="fill:#dcdcdc;fill-opacity:1">
          <path
             d="M 238,88 L 239,88 L 237,88 L 235,88 L 233,88 L 231,87 L 232,87 L 235,87 L 238,88"
             id="path302"
             style="fill:#dcdcdc;fill-opacity:1"
             inkscape:connector-curvature="0" />
        </g>
        <g
           id="ne_110m_land_100"
           style="fill:#dcdcdc;fill-opacity:1">
          <path
             d="M 221,88 L 222,89 L 224,87 L 228,87 L 231,88 L 231,90 L 234,89 L 236,88 L 240,89 L 242,90 L 242,91 L 245,90 L 247,91 L 251,92 L 253,93 L 254,94 L 251,95 L 255,96 L 258,97 L 260,98 L 263,98 L 262,100 L 259,101 L 257,101 L 255,99 L 253,99 L 252,100 L 254,101 L 256,102 L 257,103 L 258,104 L 258,105 L 255,105 L 251,104 L 254,105 L 255,106 L 256,107 L 251,106 L 247,105 L 245,104 L 246,104 L 243,103 L 241,102 L 241,103 L 236,103 L 235,102 L 236,101 L 239,101 L 242,101 L 242,100 L 242,99 L 245,98 L 244,97 L 244,96 L 241,95 L 237,95 L 239,94 L 237,93 L 235,93 L 234,93 L 233,93 L 230,93 L 224,93 L 220,93 L 217,92 L 216,92 L 218,91 L 215,91 L 215,89 L 216,88 L 218,87 L 222,87 L 221,88"
             id="path305"
             style="fill:#dcdcdc;fill-opacity:1"
             inkscape:connector-curvature="0" />
        </g>
        <g
           id="ne_110m_land_101"
           style="fill:#dcdcdc;fill-opacity:1">
          <path
             d="M 198,86 L 200,87 L 203,87 L 202,88 L 204,89 L 204,90 L 201,91 L 199,91 L 198,90 L 194,89 L 194,88 L 198,88 L 196,87 L 198,86"
             id="path308"
             style="fill:#dcdcdc;fill-opacity:1"
             inkscape:connector-curvature="0" />
        </g>
        <g
           id="ne_110m_land_102"
           style="fill:#dcdcdc;fill-opacity:1">
          <path
             d="M 611,88 L 609,88 L 605,87 L 606,87 L 608,86 L 611,87 L 611,88"
             id="path311"
             style="fill:#dcdcdc;fill-opacity:1"
             inkscape:connector-curvature="0" />
        </g>
        <g
           id="ne_110m_land_103"
           style="fill:#dcdcdc;fill-opacity:1">
          <path
             d="M 210,88 L 208,90 L 206,90 L 205,88 L 205,87 L 206,86 L 208,86 L 211,86 L 214,86 L 212,88 L 210,88"
             id="path314"
             style="fill:#dcdcdc;fill-opacity:1"
             inkscape:connector-curvature="0" />
        </g>
        <g
           id="ne_110m_land_104"
           style="fill:#dcdcdc;fill-opacity:1">
          <path
             d="M 164,91 L 159,91 L 158,91 L 154,90 L 155,89 L 156,88 L 158,87 L 156,86 L 162,85 L 164,86 L 169,86 L 170,86 L 172,87 L 170,88 L 166,89 L 164,90 L 164,91"
             id="path317"
             style="fill:#dcdcdc;fill-opacity:1"
             inkscape:connector-curvature="0" />
        </g>
        <g
           id="ne_110m_land_105"
           style="fill:#dcdcdc;fill-opacity:1">
          <path
             d="M 623,84 L 621,85 L 618,85 L 615,84 L 616,84 L 619,84 L 623,84"
             id="path320"
             style="fill:#dcdcdc;fill-opacity:1"
             inkscape:connector-curvature="0" />
        </g>
        <g
           id="ne_110m_land_106"
           style="fill:#dcdcdc;fill-opacity:1">
          <path
             d="M 209,85 L 208,85 L 206,85 L 204,85 L 205,84 L 207,83 L 209,84 L 209,85"
             id="path323"
             style="fill:#dcdcdc;fill-opacity:1"
             inkscape:connector-curvature="0" />
        </g>
        <g
           id="ne_110m_land_107"
           style="fill:#dcdcdc;fill-opacity:1">
          <path
             d="M 614,84 L 612,85 L 606,85 L 603,85 L 600,84 L 601,83 L 603,83 L 607,83 L 614,84"
             id="path326"
             style="fill:#dcdcdc;fill-opacity:1"
             inkscape:connector-curvature="0" />
        </g>
        <g
           id="ne_110m_land_108"
           style="fill:#dcdcdc;fill-opacity:1">
          <path
             d="M 201,82 L 202,82 L 202,83 L 201,85 L 199,85 L 197,84 L 197,83 L 194,84 L 194,82 L 196,82 L 198,82 L 201,82"
             id="path329"
             style="fill:#dcdcdc;fill-opacity:1"
             inkscape:connector-curvature="0" />
        </g>
        <g
           id="ne_110m_land_109"
           style="fill:#dcdcdc;fill-opacity:1">
          <path
             d="M 184,82 L 185,83 L 187,83 L 188,83 L 189,84 L 188,85 L 182,85 L 178,86 L 175,86 L 175,85 L 178,84 L 171,84 L 168,84 L 171,83 L 172,82 L 177,83 L 180,84 L 183,84 L 181,82 L 182,81 L 184,82"
             id="path332"
             style="fill:#dcdcdc;fill-opacity:1"
             inkscape:connector-curvature="0" />
        </g>
        <g
           id="ne_110m_land_110"
           style="fill:#dcdcdc;fill-opacity:1">
          <path
             d="M 465,92 L 464,92 L 459,92 L 458,91 L 455,91 L 455,90 L 457,89 L 457,88 L 460,87 L 458,87 L 462,85 L 462,84 L 466,84 L 471,82 L 477,82 L 480,81 L 483,81 L 484,82 L 483,82 L 477,83 L 472,84 L 467,86 L 464,87 L 462,89 L 462,90 L 465,92"
             id="path335"
             style="fill:#dcdcdc;fill-opacity:1"
             inkscape:connector-curvature="0" />
        </g>
        <g
           id="ne_110m_land_111"
           style="fill:#dcdcdc;fill-opacity:1">
          <path
             d="M 207,81 L 209,82 L 213,82 L 214,82 L 214,83 L 216,83 L 217,83 L 219,84 L 221,84 L 224,83 L 228,83 L 230,83 L 232,84 L 232,85 L 231,85 L 229,85 L 227,85 L 222,86 L 218,86 L 216,85 L 211,85 L 211,84 L 210,83 L 209,82 L 205,82 L 203,82 L 204,81 L 207,81"
             id="path338"
             style="fill:#dcdcdc;fill-opacity:1"
             inkscape:connector-curvature="0" />
        </g>
        <g
           id="ne_110m_land_112"
           style="fill:#dcdcdc;fill-opacity:1">
          <path
             d="M 171,80 L 171,81 L 169,82 L 168,82 L 165,83 L 162,83 L 160,83 L 162,81 L 166,80 L 169,80 L 171,80"
             id="path341"
             style="fill:#dcdcdc;fill-opacity:1"
             inkscape:connector-curvature="0" />
        </g>
        <g
           id="ne_110m_land_113"
           style="fill:#dcdcdc;fill-opacity:1">
          <path
             d="M 549,81 L 549,82 L 551,82 L 556,82 L 560,82 L 561,83 L 561,84 L 559,84 L 554,85 L 553,86 L 555,86 L 558,87 L 559,86 L 560,87 L 561,87 L 564,87 L 569,87 L 569,88 L 577,88 L 577,87 L 580,87 L 583,87 L 586,88 L 586,89 L 585,90 L 588,91 L 590,92 L 592,90 L 595,91 L 597,90 L 601,91 L 602,90 L 605,90 L 604,89 L 606,88 L 621,89 L 623,90 L 627,92 L 634,91 L 637,92 L 639,92 L 638,93 L 640,94 L 643,94 L 646,94 L 649,94 L 652,94 L 655,95 L 657,95 L 656,94 L 657,93 L 662,93 L 666,93 L 670,94 L 673,95 L 673,102 L 671,102 L 668,102 L 670,103 L 671,104 L 672,105 L 672,106 L 671,106 L 668,106 L 664,107 L 662,107 L 659,108 L 657,109 L 656,110 L 654,109 L 650,110 L 649,110 L 647,110 L 645,110 L 644,111 L 642,113 L 642,114 L 644,114 L 644,116 L 642,117 L 642,118 L 642,119 L 639,120 L 639,121 L 636,122 L 636,124 L 633,125 L 633,124 L 632,122 L 631,118 L 632,115 L 633,114 L 636,113 L 639,111 L 642,109 L 645,108 L 646,106 L 644,106 L 643,107 L 639,109 L 638,107 L 633,108 L 629,110 L 630,111 L 627,112 L 624,112 L 624,111 L 622,111 L 619,111 L 614,111 L 609,112 L 603,115 L 597,119 L 599,119 L 600,120 L 602,121 L 603,120 L 605,120 L 607,122 L 607,123 L 606,125 L 606,127 L 605,130 L 603,132 L 602,133 L 600,135 L 597,137 L 596,138 L 594,139 L 593,139 L 592,138 L 590,140 L 589,140 L 588,141 L 587,141 L 588,142 L 587,143 L 586,143 L 586,144 L 585,144 L 584,144 L 584,145 L 585,146 L 587,148 L 587,149 L 587,151 L 586,152 L 585,152 L 584,153 L 582,153 L 582,152 L 582,151 L 581,149 L 583,149 L 582,148 L 581,147 L 581,148 L 580,148 L 580,147 L 579,147 L 580,146 L 580,145 L 579,144 L 578,144 L 576,144 L 575,145 L 573,146 L 574,145 L 573,144 L 575,143 L 574,142 L 572,143 L 570,144 L 569,145 L 568,145 L 567,146 L 568,147 L 569,147 L 569,148 L 571,149 L 572,147 L 574,148 L 575,148 L 575,149 L 573,150 L 572,150 L 571,151 L 570,152 L 571,153 L 572,155 L 573,157 L 574,158 L 574,159 L 573,160 L 574,161 L 575,161 L 574,162 L 574,164 L 573,164 L 572,166 L 570,168 L 569,170 L 566,172 L 564,173 L 562,173 L 561,174 L 561,173 L 560,174 L 557,175 L 555,175 L 555,177 L 554,177 L 554,176 L 554,175 L 552,175 L 551,175 L 549,177 L 547,178 L 547,179 L 548,181 L 550,183 L 551,184 L 552,186 L 553,189 L 553,192 L 551,193 L 549,194 L 548,195 L 546,197 L 545,196 L 546,195 L 545,194 L 543,194 L 542,193 L 542,191 L 540,190 L 539,190 L 539,189 L 537,189 L 537,191 L 536,193 L 536,195 L 536,196 L 537,196 L 538,198 L 538,199 L 539,200 L 540,200 L 541,201 L 542,202 L 543,203 L 543,205 L 543,206 L 543,207 L 544,207 L 544,209 L 543,210 L 542,208 L 540,207 L 539,206 L 538,205 L 538,204 L 538,203 L 538,201 L 537,201 L 537,200 L 536,199 L 535,198 L 535,197 L 534,198 L 534,197 L 534,196 L 535,195 L 535,194 L 535,192 L 535,191 L 535,189 L 534,189 L 533,186 L 533,184 L 532,183 L 531,184 L 529,185 L 528,185 L 527,184 L 528,182 L 528,181 L 526,179 L 526,178 L 525,178 L 524,177 L 524,176 L 524,175 L 523,174 L 523,173 L 521,173 L 521,174 L 521,175 L 520,174 L 520,175 L 519,174 L 518,175 L 517,175 L 515,175 L 515,176 L 514,177 L 512,179 L 510,181 L 509,182 L 507,183 L 507,184 L 506,184 L 505,185 L 504,185 L 503,186 L 504,188 L 504,190 L 503,191 L 503,194 L 502,194 L 501,195 L 502,196 L 500,196 L 500,198 L 499,198 L 498,197 L 497,194 L 496,192 L 495,190 L 494,188 L 494,187 L 492,185 L 492,181 L 491,179 L 491,177 L 491,175 L 488,176 L 487,176 L 485,174 L 486,174 L 485,173 L 483,171 L 482,171 L 482,170 L 480,169 L 477,169 L 474,169 L 472,169 L 469,169 L 467,168 L 465,168 L 464,166 L 463,166 L 462,166 L 460,167 L 458,166 L 457,165 L 455,164 L 454,163 L 453,161 L 452,161 L 451,160 L 450,161 L 449,161 L 449,162 L 450,163 L 450,165 L 451,165 L 452,166 L 453,166 L 453,167 L 453,168 L 453,169 L 454,169 L 454,170 L 454,168 L 455,167 L 455,168 L 455,169 L 455,170 L 455,171 L 455,170 L 456,171 L 457,171 L 458,171 L 459,171 L 460,170 L 462,169 L 463,167 L 463,168 L 463,169 L 464,171 L 465,171 L 466,171 L 467,172 L 468,173 L 469,173 L 469,174 L 468,175 L 467,176 L 467,177 L 466,177 L 465,178 L 466,179 L 466,180 L 465,180 L 464,180 L 464,181 L 463,181 L 462,181 L 461,182 L 461,183 L 460,183 L 459,183 L 458,183 L 457,184 L 456,185 L 454,186 L 452,187 L 450,188 L 449,188 L 448,189 L 447,189 L 445,189 L 445,190 L 444,190 L 443,190 L 441,190 L 441,189 L 441,188 L 440,187 L 440,186 L 440,185 L 440,184 L 440,183 L 439,182 L 439,181 L 438,180 L 437,179 L 436,177 L 435,177 L 434,176 L 434,174 L 434,173 L 433,171 L 432,171 L 431,170 L 431,169 L 430,168 L 429,167 L 428,165 L 427,164 L 426,164 L 427,163 L 427,162 L 426,162 L 426,164 L 425,165 L 425,164 L 424,163 L 423,161 L 423,163 L 424,165 L 426,167 L 426,168 L 427,169 L 428,171 L 428,172 L 430,174 L 431,176 L 430,176 L 431,178 L 431,180 L 432,180 L 433,181 L 434,183 L 434,185 L 435,185 L 438,187 L 438,188 L 439,189 L 440,190 L 441,190 L 441,191 L 440,192 L 441,192 L 441,193 L 442,193 L 443,194 L 445,193 L 447,193 L 448,193 L 449,193 L 450,192 L 451,192 L 452,192 L 453,192 L 454,191 L 454,192 L 454,193 L 454,194 L 453,196 L 453,198 L 452,200 L 450,203 L 449,204 L 447,207 L 445,208 L 442,210 L 441,211 L 439,213 L 439,214 L 438,214 L 437,215 L 437,216 L 436,216 L 436,217 L 435,218 L 435,219 L 434,220 L 433,222 L 433,223 L 435,223 L 435,224 L 434,225 L 434,226 L 435,227 L 435,229 L 436,229 L 436,230 L 436,232 L 436,233 L 437,236 L 437,237 L 436,238 L 436,239 L 435,240 L 433,241 L 431,241 L 429,243 L 429,244 L 427,245 L 427,246 L 427,248 L 428,249 L 428,251 L 428,252 L 427,253 L 426,254 L 424,255 L 423,255 L 423,256 L 424,256 L 423,257 L 423,258 L 423,260 L 422,260 L 421,261 L 420,262 L 420,263 L 419,264 L 417,266 L 416,267 L 414,268 L 413,269 L 412,269 L 411,269 L 410,269 L 408,269 L 407,269 L 406,269 L 404,270 L 403,270 L 402,271 L 401,271 L 400,270 L 399,269 L 399,268 L 398,267 L 399,267 L 399,265 L 398,264 L 397,262 L 395,260 L 394,259 L 394,258 L 393,256 L 393,255 L 392,252 L 392,250 L 392,249 L 391,248 L 390,247 L 389,245 L 389,244 L 388,242 L 388,241 L 387,240 L 388,238 L 388,237 L 388,236 L 389,235 L 389,234 L 390,233 L 391,232 L 391,231 L 391,230 L 390,229 L 390,228 L 390,227 L 390,226 L 390,224 L 389,223 L 388,222 L 389,222 L 388,221 L 388,220 L 387,218 L 385,217 L 384,215 L 383,213 L 383,212 L 383,211 L 384,210 L 384,208 L 384,206 L 384,205 L 383,205 L 383,204 L 382,204 L 380,204 L 379,204 L 378,204 L 377,203 L 376,202 L 375,201 L 374,201 L 372,201 L 371,201 L 370,202 L 367,203 L 366,203 L 364,204 L 363,203 L 362,203 L 361,203 L 360,203 L 358,203 L 357,204 L 355,204 L 354,204 L 352,203 L 351,202 L 350,201 L 348,200 L 347,199 L 346,198 L 345,197 L 345,196 L 344,195 L 343,195 L 343,194 L 343,193 L 342,193 L 341,192 L 340,192 L 340,191 L 339,191 L 339,189 L 339,187 L 338,187 L 339,186 L 339,185 L 340,184 L 340,183 L 340,181 L 340,179 L 340,178 L 340,177 L 339,176 L 339,175 L 340,174 L 340,173 L 341,171 L 342,170 L 343,169 L 343,168 L 343,167 L 344,167 L 345,165 L 346,164 L 348,164 L 349,163 L 350,162 L 352,161 L 351,159 L 352,157 L 352,156 L 353,155 L 355,155 L 356,154 L 357,152 L 358,151 L 359,151 L 360,152 L 362,152 L 363,152 L 364,152 L 366,151 L 368,151 L 369,150 L 370,150 L 373,149 L 376,149 L 377,149 L 378,149 L 380,149 L 381,149 L 382,149 L 384,148 L 385,149 L 386,149 L 387,149 L 386,150 L 386,151 L 386,153 L 385,153 L 385,154 L 386,154 L 387,155 L 389,156 L 390,156 L 391,156 L 394,157 L 394,158 L 396,159 L 398,159 L 400,160 L 401,160 L 402,159 L 401,158 L 402,157 L 403,156 L 404,156 L 407,156 L 407,157 L 408,157 L 410,158 L 413,158 L 414,159 L 416,159 L 417,159 L 418,159 L 419,158 L 420,158 L 421,158 L 422,159 L 424,159 L 425,159 L 426,159 L 426,158 L 427,157 L 427,156 L 428,154 L 429,153 L 429,152 L 429,151 L 428,150 L 429,150 L 428,150 L 427,149 L 425,150 L 423,150 L 421,150 L 420,149 L 419,150 L 418,150 L 416,149 L 415,149 L 414,148 L 412,147 L 413,146 L 412,145 L 414,143 L 417,143 L 417,142 L 421,142 L 423,141 L 425,140 L 427,140 L 430,142 L 433,142 L 435,142 L 436,142 L 438,141 L 438,139 L 437,139 L 436,139 L 435,138 L 433,137 L 431,136 L 430,135 L 431,135 L 433,133 L 432,133 L 434,132 L 433,132 L 431,132 L 430,132 L 428,133 L 427,133 L 427,134 L 428,135 L 430,135 L 429,135 L 427,135 L 425,136 L 424,136 L 425,135 L 423,135 L 423,134 L 425,134 L 424,134 L 422,133 L 421,132 L 420,133 L 419,134 L 418,135 L 417,136 L 416,138 L 415,138 L 415,139 L 415,140 L 415,141 L 417,142 L 415,142 L 414,143 L 412,144 L 412,143 L 412,142 L 411,142 L 410,142 L 408,143 L 409,144 L 408,144 L 407,144 L 406,143 L 406,144 L 407,145 L 407,146 L 408,146 L 408,147 L 408,148 L 407,147 L 407,148 L 406,148 L 407,150 L 406,150 L 404,149 L 404,148 L 404,147 L 403,146 L 402,145 L 402,144 L 401,143 L 400,143 L 401,141 L 400,141 L 400,140 L 399,140 L 397,139 L 396,138 L 395,138 L 393,137 L 394,137 L 393,136 L 393,135 L 392,135 L 391,136 L 391,135 L 391,134 L 390,134 L 389,135 L 389,136 L 389,137 L 391,138 L 392,139 L 393,141 L 395,141 L 396,142 L 397,142 L 399,143 L 399,144 L 398,143 L 396,143 L 396,144 L 397,145 L 397,146 L 396,146 L 395,147 L 394,147 L 395,146 L 394,145 L 394,144 L 393,144 L 393,143 L 392,143 L 391,142 L 390,142 L 388,141 L 387,140 L 386,139 L 385,137 L 384,137 L 383,136 L 382,137 L 381,137 L 380,138 L 379,139 L 375,138 L 373,139 L 373,140 L 373,141 L 371,142 L 369,142 L 369,143 L 368,144 L 367,145 L 368,146 L 367,147 L 367,148 L 365,148 L 364,149 L 362,149 L 360,149 L 359,150 L 359,151 L 358,151 L 357,150 L 357,149 L 355,149 L 354,149 L 353,149 L 353,148 L 353,147 L 352,147 L 352,146 L 352,145 L 352,144 L 353,144 L 353,143 L 353,142 L 353,141 L 352,141 L 353,139 L 352,139 L 354,137 L 356,138 L 359,138 L 360,138 L 362,138 L 365,138 L 365,137 L 366,134 L 364,132 L 363,131 L 360,130 L 360,129 L 362,129 L 365,129 L 364,127 L 366,128 L 370,127 L 371,125 L 372,125 L 373,125 L 374,124 L 376,122 L 378,121 L 379,121 L 380,121 L 381,121 L 382,121 L 383,120 L 382,119 L 382,118 L 381,116 L 382,115 L 384,115 L 384,114 L 386,114 L 386,115 L 385,115 L 385,116 L 386,116 L 386,117 L 385,116 L 384,118 L 385,118 L 385,119 L 386,119 L 386,120 L 388,120 L 389,119 L 391,120 L 392,121 L 393,120 L 395,119 L 398,119 L 399,119 L 401,119 L 404,118 L 403,117 L 403,115 L 404,114 L 406,114 L 407,115 L 409,115 L 409,114 L 409,113 L 407,112 L 407,111 L 409,111 L 412,111 L 413,111 L 415,111 L 417,110 L 415,109 L 412,109 L 409,110 L 407,110 L 406,109 L 404,109 L 404,107 L 403,106 L 404,105 L 406,103 L 410,102 L 411,101 L 408,100 L 405,100 L 404,101 L 404,102 L 401,104 L 398,105 L 397,108 L 398,109 L 400,110 L 398,112 L 396,112 L 396,115 L 395,117 L 393,116 L 392,118 L 390,118 L 389,116 L 388,114 L 386,112 L 385,111 L 382,113 L 380,113 L 377,112 L 377,111 L 376,107 L 378,106 L 382,104 L 386,102 L 389,100 L 393,97 L 396,95 L 400,93 L 404,93 L 407,93 L 409,91 L 412,91 L 415,91 L 421,92 L 419,93 L 420,94 L 422,93 L 425,94 L 430,95 L 436,97 L 437,97 L 437,98 L 436,99 L 433,100 L 425,98 L 424,99 L 427,100 L 427,102 L 429,103 L 430,103 L 431,103 L 430,102 L 431,101 L 435,102 L 436,102 L 435,101 L 439,99 L 441,99 L 442,100 L 443,99 L 442,97 L 443,96 L 441,95 L 446,96 L 447,97 L 445,97 L 445,98 L 446,99 L 449,98 L 449,97 L 453,96 L 459,95 L 460,95 L 458,96 L 460,96 L 462,96 L 465,96 L 467,95 L 469,96 L 471,95 L 469,94 L 470,93 L 475,94 L 478,94 L 484,96 L 485,95 L 483,94 L 481,94 L 482,93 L 481,92 L 481,91 L 484,90 L 485,88 L 486,88 L 491,88 L 491,89 L 489,91 L 491,91 L 491,92 L 491,95 L 493,96 L 492,97 L 489,99 L 490,99 L 491,99 L 493,98 L 495,97 L 494,96 L 495,95 L 493,95 L 492,94 L 494,92 L 492,91 L 495,89 L 494,88 L 495,88 L 496,89 L 495,91 L 497,91 L 496,90 L 499,89 L 503,89 L 506,90 L 504,89 L 504,87 L 507,86 L 511,87 L 515,86 L 513,85 L 515,84 L 517,84 L 521,83 L 525,83 L 526,83 L 530,83 L 532,83 L 535,82 L 538,82 L 539,81 L 541,81 L 545,80 L 547,81 L 545,81 L 549,81"
             id="path344"
             style="fill:#dcdcdc;fill-opacity:1"
             inkscape:connector-curvature="0" />
          <path
             d="M 451,142 L 452,143 L 453,143 L 452,144 L 451,145 L 451,146 L 451,147 L 451,148 L 453,148 L 454,149 L 456,149 L 459,149 L 459,147 L 459,146 L 458,145 L 458,144 L 457,144 L 457,142 L 459,143 L 460,142 L 459,141 L 459,140 L 457,141 L 457,142 L 457,141 L 457,140 L 457,139 L 455,139 L 454,137 L 453,137 L 453,136 L 455,136 L 455,135 L 456,135 L 458,135 L 458,133 L 458,132 L 456,132 L 454,132 L 453,133 L 451,133 L 450,134 L 449,134 L 447,136 L 448,138 L 448,139 L 450,141 L 451,142"
             id="path346"
             style="fill:#dcdcdc;fill-opacity:1"
             inkscape:connector-curvature="0" />
        </g>
        <g
           id="ne_110m_land_114"
           style="fill:#dcdcdc;fill-opacity:1">
          <path
             d="M 209,80 L 208,80 L 205,80 L 204,80 L 208,80 L 209,80"
             id="path349"
             style="fill:#dcdcdc;fill-opacity:1"
             inkscape:connector-curvature="0" />
        </g>
        <g
           id="ne_110m_land_115"
           style="fill:#dcdcdc;fill-opacity:1">
          <path
             d="M 181,80 L 178,80 L 175,80 L 177,79 L 179,79 L 182,79 L 181,80"
             id="path352"
             style="fill:#dcdcdc;fill-opacity:1"
             inkscape:connector-curvature="0" />
        </g>
        <g
           id="ne_110m_land_116"
           style="fill:#dcdcdc;fill-opacity:1">
          <path
             d="M 410,80 L 406,80 L 403,80 L 404,80 L 403,79 L 407,79 L 410,80"
             id="path355"
             style="fill:#dcdcdc;fill-opacity:1"
             inkscape:connector-curvature="0" />
        </g>
        <g
           id="ne_110m_land_117"
           style="fill:#dcdcdc;fill-opacity:1">
          <path
             d="M 182,78 L 180,79 L 177,79 L 179,78 L 180,78 L 182,78"
             id="path358"
             style="fill:#dcdcdc;fill-opacity:1"
             inkscape:connector-curvature="0" />
        </g>
        <g
           id="ne_110m_land_118"
           style="fill:#dcdcdc;fill-opacity:1">
          <path
             d="M 205,79 L 203,80 L 201,79 L 201,78 L 203,78 L 204,78 L 206,79 L 205,79"
             id="path361"
             style="fill:#dcdcdc;fill-opacity:1"
             inkscape:connector-curvature="0" />
        </g>
        <g
           id="ne_110m_land_119"
           style="fill:#dcdcdc;fill-opacity:1">
          <path
             d="M 198,79 L 199,80 L 196,79 L 193,79 L 190,79 L 191,78 L 189,78 L 189,77 L 192,77 L 197,78 L 198,79"
             id="path364"
             style="fill:#dcdcdc;fill-opacity:1"
             inkscape:connector-curvature="0" />
        </g>
        <g
           id="ne_110m_land_120"
           style="fill:#dcdcdc;fill-opacity:1">
          <path
             d="M 546,79 L 536,80 L 539,77 L 541,77 L 542,77 L 546,78 L 546,79"
             id="path367"
             style="fill:#dcdcdc;fill-opacity:1"
             inkscape:connector-curvature="0" />
        </g>
        <g
           id="ne_110m_land_121"
           style="fill:#dcdcdc;fill-opacity:1">
          <path
             d="M 399,77 L 404,78 L 400,78 L 399,80 L 398,80 L 397,81 L 395,82 L 391,80 L 393,80 L 390,79 L 387,78 L 385,77 L 390,76 L 391,77 L 393,77 L 394,76 L 397,76 L 399,77"
             id="path370"
             style="fill:#dcdcdc;fill-opacity:1"
             inkscape:connector-curvature="0" />
        </g>
        <g
           id="ne_110m_land_122"
           style="fill:#dcdcdc;fill-opacity:1">
          <path
             d="M 411,75 L 414,76 L 412,77 L 407,77 L 402,77 L 401,76 L 399,76 L 397,76 L 402,75 L 405,75 L 407,75 L 411,75"
             id="path373"
             style="fill:#dcdcdc;fill-opacity:1"
             inkscape:connector-curvature="0" />
        </g>
        <g
           id="ne_110m_land_123"
           style="fill:#dcdcdc;fill-opacity:1">
          <path
             d="M 454,75 L 452,75 L 451,75 L 450,76 L 448,76 L 447,76 L 448,75 L 444,75 L 447,75 L 450,75 L 451,75 L 453,75 L 455,75 L 454,75"
             id="path376"
             style="fill:#dcdcdc;fill-opacity:1"
             inkscape:connector-curvature="0" />
        </g>
        <g
           id="ne_110m_land_124"
           style="fill:#dcdcdc;fill-opacity:1">
          <path
             d="M 537,78 L 533,78 L 529,78 L 526,77 L 525,76 L 522,75 L 527,74 L 530,74 L 534,75 L 538,76 L 537,78"
             id="path379"
             style="fill:#dcdcdc;fill-opacity:1"
             inkscape:connector-curvature="0" />
        </g>
        <g
           id="ne_110m_land_125"
           style="fill:#dcdcdc;fill-opacity:1">
          <path
             d="M 220,77 L 222,77 L 220,78 L 217,79 L 214,79 L 210,79 L 209,78 L 210,77 L 207,77 L 205,77 L 204,76 L 205,75 L 206,75 L 208,74 L 207,74 L 211,74 L 213,75 L 216,75 L 219,76 L 220,77"
             id="path382"
             style="fill:#dcdcdc;fill-opacity:1"
             inkscape:connector-curvature="0" />
        </g>
        <g
           id="ne_110m_land_126"
           style="fill:#dcdcdc;fill-opacity:1">
          <path
             d="M 252,71 L 256,71 L 260,71 L 263,72 L 259,73 L 255,73 L 253,74 L 257,74 L 253,75 L 250,75 L 247,76 L 244,77 L 243,77 L 237,77 L 240,77 L 239,78 L 240,79 L 238,79 L 236,80 L 235,80 L 233,81 L 236,81 L 236,82 L 231,83 L 227,82 L 222,82 L 219,82 L 216,82 L 216,81 L 219,81 L 218,80 L 219,79 L 224,80 L 221,79 L 219,79 L 220,78 L 223,78 L 224,77 L 221,77 L 220,76 L 225,76 L 226,76 L 229,75 L 225,75 L 219,75 L 216,75 L 215,74 L 213,73 L 215,73 L 217,72 L 220,72 L 223,72 L 225,72 L 227,72 L 228,71 L 230,71 L 233,71 L 239,71 L 244,71 L 248,71 L 252,71"
             id="path385"
             style="fill:#dcdcdc;fill-opacity:1"
             inkscape:connector-curvature="0" />
        </g>
        <g
           id="ne_110m_land_127"
           style="fill:#dcdcdc;fill-opacity:1">
          <path
             d="M 322,70 L 332,71 L 329,72 L 323,72 L 314,72 L 315,73 L 321,72 L 326,73 L 329,73 L 330,73 L 328,74 L 333,73 L 341,73 L 346,73 L 347,74 L 340,75 L 339,75 L 334,76 L 338,76 L 336,77 L 334,78 L 334,80 L 336,81 L 334,81 L 331,82 L 334,83 L 335,84 L 333,84 L 335,86 L 331,86 L 333,87 L 330,87 L 328,87 L 330,89 L 327,89 L 326,89 L 328,89 L 330,91 L 331,92 L 328,92 L 327,92 L 324,91 L 325,92 L 323,93 L 328,93 L 330,93 L 325,94 L 321,96 L 316,96 L 314,96 L 312,97 L 310,99 L 306,100 L 305,100 L 303,100 L 300,101 L 299,102 L 299,103 L 298,104 L 295,105 L 296,107 L 295,108 L 294,110 L 292,110 L 289,109 L 286,108 L 284,108 L 283,106 L 280,104 L 279,103 L 279,101 L 277,100 L 277,98 L 276,98 L 278,96 L 281,95 L 281,94 L 282,93 L 280,94 L 279,94 L 277,94 L 275,94 L 275,93 L 276,92 L 277,92 L 281,92 L 278,91 L 276,90 L 275,91 L 273,90 L 275,89 L 274,88 L 273,87 L 271,85 L 268,84 L 264,83 L 260,83 L 256,83 L 252,83 L 250,82 L 247,81 L 251,81 L 255,81 L 247,80 L 244,79 L 250,78 L 256,77 L 257,76 L 252,76 L 254,75 L 260,74 L 262,74 L 262,73 L 266,73 L 271,72 L 276,72 L 278,73 L 282,72 L 286,73 L 289,73 L 292,73 L 288,72 L 289,72 L 294,71 L 300,71 L 302,70 L 308,70 L 322,70"
             id="path388"
             style="fill:#dcdcdc;fill-opacity:1"
             inkscape:connector-curvature="0" />
        </g>
      </g>
      <g
         style="fill:#1a1a1a"
         id="g5233"
         transform="translate(39.40714908244331,22.03595299961353)">
        <text
           xml:space="preserve"
           style="font-size:20px;font-style:normal;font-variant:normal;font-weight:normal;font-stretch:normal;text-indent:0;text-align:center;text-decoration:none;line-height:125%;letter-spacing:0px;word-spacing:0px;text-transform:none;direction:ltr;block-progression:tb;writing-mode:lr-tb;text-anchor:middle;baseline-shift:baseline;color:#000000;fill:#1a1a1a;fill-opacity:1;fill-rule:nonzero;stroke:none;stroke-width:1px;marker:none;visibility:visible;display:inline;overflow:visible;enable-background:accumulate;font-family:Latin Modern Roman Slanted;-inkscape-font-specification:Latin Modern Roman Slanted"
           x="328.44681"
           y="502.19958"
           id="text5193"
           sodipodi:linespacing="125%"
           transform="translate(-32.85395694377145,-5.235537960551028)"><tspan
             sodipodi:role="line"
             id="tspan5195"
             x="328.44681"
             y="502.19958"
             style="font-style:normal;font-variant:normal;font-weight:normal;font-stretch:normal;text-align:center;text-anchor:middle;fill:#1a1a1a;fill-opacity:1;font-family:Latin Modern Roman Slanted;-inkscape-font-specification:Latin Modern Roman Slanted"></tspan></text>
        <text
           transform="translate(82.14604305622856,-70.23553796055101)"
           sodipodi:linespacing="125%"
           id="text5197"
           y="502.19958"
           x="328.44681"
           style="font-size:20px;font-style:normal;font-variant:normal;font-weight:normal;font-stretch:normal;text-indent:0;text-align:center;text-decoration:none;line-height:125%;letter-spacing:0px;word-spacing:0px;text-transform:none;direction:ltr;block-progression:tb;writing-mode:lr-tb;text-anchor:middle;baseline-shift:baseline;color:#000000;fill:#1a1a1a;fill-opacity:1;fill-rule:nonzero;stroke:none;stroke-width:1px;marker:none;visibility:visible;display:inline;overflow:visible;enable-background:accumulate;font-family:Latin Modern Roman Slanted;-inkscape-font-specification:Latin Modern Roman Slanted"
           xml:space="preserve"><tspan
             style="font-style:normal;font-variant:normal;font-weight:normal;font-stretch:normal;text-align:center;text-anchor:middle;fill:#1a1a1a;fill-opacity:1;font-family:Latin Modern Roman Slanted;-inkscape-font-specification:Latin Modern Roman Slanted"
             y="502.19958"
             x="328.44681"
             id="tspan5199"
             sodipodi:role="line"></tspan></text>
        <text
           xml:space="preserve"
           style="font-size:20px;font-style:normal;font-variant:normal;font-weight:normal;font-stretch:normal;text-indent:0;text-align:center;text-decoration:none;line-height:125%;letter-spacing:0px;word-spacing:0px;text-transform:none;direction:ltr;block-progression:tb;writing-mode:lr-tb;text-anchor:middle;baseline-shift:baseline;color:#000000;fill:#1a1a1a;fill-opacity:1;fill-rule:nonzero;stroke:none;stroke-width:1px;marker:none;visibility:visible;display:inline;overflow:visible;enable-background:accumulate;font-family:Latin Modern Roman Slanted;-inkscape-font-specification:Latin Modern Roman Slanted"
           x="328.44681"
           y="502.19958"
           id="text5201"
           sodipodi:linespacing="125%"
           transform="translate(157.1460430562286,59.76446203944897)"><tspan
             sodipodi:role="line"
             id="tspan5203"
             x="328.44681"
             y="502.19958"
             style="font-style:normal;font-variant:normal;font-weight:normal;font-stretch:normal;text-align:center;text-anchor:middle;fill:#1a1a1a;fill-opacity:1;font-family:Latin Modern Roman Slanted;-inkscape-font-specification:Latin Modern Roman Slanted"></tspan></text>
        <text
           transform="translate(-53.43475208395219,156.8697179284221)"
           sodipodi:linespacing="125%"
           id="text5205"
           y="502.19958"
           x="328.44681"
           style="font-size:20px;font-style:normal;font-variant:normal;font-weight:normal;font-stretch:normal;text-indent:0;text-align:center;text-decoration:none;line-height:125%;letter-spacing:0px;word-spacing:0px;text-transform:none;direction:ltr;block-progression:tb;writing-mode:lr-tb;text-anchor:middle;baseline-shift:baseline;color:#000000;fill:#1a1a1a;fill-opacity:1;fill-rule:nonzero;stroke:none;stroke-width:1px;marker:none;visibility:visible;display:inline;overflow:visible;enable-background:accumulate;font-family:Latin Modern Roman Slanted;-inkscape-font-specification:Latin Modern Roman Slanted"
           xml:space="preserve"><tspan
             style="font-style:normal;font-variant:normal;font-weight:normal;font-stretch:normal;text-align:center;text-anchor:middle;fill:#1a1a1a;fill-opacity:1;font-family:Latin Modern Roman Slanted;-inkscape-font-specification:Latin Modern Roman Slanted"
             y="502.19958"
             x="328.44681"
             id="tspan5207"
             sodipodi:role="line"></tspan></text>
        <text
           xml:space="preserve"
           style="font-size:20px;font-style:normal;font-variant:normal;font-weight:normal;font-stretch:normal;text-indent:0;text-align:center;text-decoration:none;line-height:125%;letter-spacing:0px;word-spacing:0px;text-transform:none;direction:ltr;block-progression:tb;writing-mode:lr-tb;text-anchor:middle;baseline-shift:baseline;color:#000000;fill:#1a1a1a;fill-opacity:1;fill-rule:nonzero;stroke:none;stroke-width:1px;marker:none;visibility:visible;display:inline;overflow:visible;enable-background:accumulate;font-family:Latin Modern Roman Slanted;-inkscape-font-specification:Latin Modern Roman Slanted"
           x="328.44681"
           y="502.19958"
           id="text5209"
           sodipodi:linespacing="125%"
           transform="translate(-163.6925647003045,35.67724620962167)"><tspan
             sodipodi:role="line"
             id="tspan5211"
             x="328.44681"
             y="502.19958"
             style="font-style:normal;font-variant:normal;font-weight:normal;font-stretch:normal;text-align:center;text-anchor:middle;fill:#1a1a1a;fill-opacity:1;font-family:Latin Modern Roman Slanted;-inkscape-font-specification:Latin Modern Roman Slanted"></tspan></text>
        <text
           transform="translate(-240.2351784174417,-66.37957207989461)"
           sodipodi:linespacing="125%"
           id="text5213"
           y="502.19958"
           x="328.44681"
           style="font-size:20px;font-style:normal;font-variant:normal;font-weight:normal;font-stretch:normal;text-indent:0;text-align:center;text-decoration:none;line-height:125%;letter-spacing:0px;word-spacing:0px;text-transform:none;direction:ltr;block-progression:tb;writing-mode:lr-tb;text-anchor:middle;baseline-shift:baseline;color:#000000;fill:#1a1a1a;fill-opacity:1;fill-rule:nonzero;stroke:none;stroke-width:1px;marker:none;visibility:visible;display:inline;overflow:visible;enable-background:accumulate;font-family:Latin Modern Sans;-inkscape-font-specification:Latin Modern Sans"
           xml:space="preserve"><tspan
             style="text-align:center;text-anchor:middle;fill:#1a1a1a;fill-opacity:1;font-family:Latin Modern Roman;-inkscape-font-specification:Latin Modern Roman"
             y="502.19958"
             x="328.44681"
             id="tspan5215"
             sodipodi:role="line"></tspan></text>
        <text
           xml:space="preserve"
           style="font-size:20px;font-style:normal;font-variant:normal;font-weight:normal;font-stretch:normal;text-indent:0;text-align:center;text-decoration:none;line-height:125%;letter-spacing:0px;word-spacing:0px;text-transform:none;direction:ltr;block-progression:tb;writing-mode:lr-tb;text-anchor:middle;baseline-shift:baseline;color:#000000;fill:#1a1a1a;fill-opacity:1;fill-rule:nonzero;stroke:none;stroke-width:1px;marker:none;visibility:visible;display:inline;overflow:visible;enable-background:accumulate;font-family:Latin Modern Roman Slanted;-inkscape-font-specification:Latin Modern Roman Slanted"
           x="328.44681"
           y="502.19958"
           id="text5217"
           sodipodi:linespacing="125%"
           transform="translate(-137.2671385360548,-112.8518732652993)"><tspan
             sodipodi:role="line"
             id="tspan5219"
             x="328.44681"
             y="502.19958"
             style="font-style:normal;font-variant:normal;font-weight:normal;font-stretch:normal;text-align:center;text-anchor:middle;fill:#1a1a1a;fill-opacity:1;font-family:Latin Modern Roman Slanted;-inkscape-font-specification:Latin Modern Roman Slanted"></tspan></text>
      </g>
      <g
         style="fill:#1a1a1a"
         id="g5249"
         transform="translate(39.40714908244331,22.03595299961353)">
        <text
           xml:space="preserve"
           style="font-size:20px;font-style:normal;font-variant:normal;font-weight:normal;font-stretch:normal;text-indent:0;text-align:center;text-decoration:none;line-height:125%;letter-spacing:0px;word-spacing:0px;text-transform:none;direction:ltr;block-progression:tb;writing-mode:lr-tb;text-anchor:middle;baseline-shift:baseline;color:#000000;fill:#1a1a1a;fill-opacity:1;fill-rule:nonzero;stroke:none;stroke-width:1px;marker:none;visibility:visible;display:inline;overflow:visible;enable-background:accumulate;font-family:Latin Modern Roman;-inkscape-font-specification:Latin Modern Roman"
           x="68.845016"
           y="570.99683"
           id="text5189"
           sodipodi:linespacing="125%"
           transform="translate(-50.34180818633387,-43.4496604116996)"><tspan
             sodipodi:role="line"
             id="tspan5191"
             x="68.845016"
             y="570.99683"
             style="font-style:normal;font-variant:normal;font-weight:normal;font-stretch:normal;text-align:center;text-anchor:middle;fill:#1a1a1a;font-family:Latin Modern Roman Slanted;-inkscape-font-specification:Latin Modern Roman Slanted">W</tspan></text>
        <text
           transform="translate(128.7132347107308,-94.47806958338219)"
           sodipodi:linespacing="125%"
           id="text5221"
           y="570.99683"
           x="68.845016"
           style="font-size:20px;font-style:normal;font-variant:normal;font-weight:normal;font-stretch:normal;text-indent:0;text-align:center;text-decoration:none;line-height:125%;letter-spacing:0px;word-spacing:0px;text-transform:none;direction:ltr;block-progression:tb;writing-mode:lr-tb;text-anchor:middle;baseline-shift:baseline;color:#000000;fill:#1a1a1a;fill-opacity:1;fill-rule:nonzero;stroke:none;stroke-width:1px;marker:none;visibility:visible;display:inline;overflow:visible;enable-background:accumulate;font-family:Latin Modern Roman;-inkscape-font-specification:Latin Modern Roman"
           xml:space="preserve"><tspan
             style="font-style:normal;font-variant:normal;font-weight:normal;font-stretch:normal;text-align:center;text-anchor:middle;fill:#1a1a1a;font-family:Latin Modern Roman Slanted;-inkscape-font-specification:Latin Modern Roman Slanted"
             y="570.99683"
             x="68.845016"
             id="tspan5223"
             sodipodi:role="line">W</tspan></text>
        <text
           xml:space="preserve"
           style="font-size:20px;font-style:normal;font-variant:normal;font-weight:normal;font-stretch:normal;text-indent:0;text-align:center;text-decoration:none;line-height:125%;letter-spacing:0px;word-spacing:0px;text-transform:none;direction:ltr;block-progression:tb;writing-mode:lr-tb;text-anchor:middle;baseline-shift:baseline;color:#000000;fill:#1a1a1a;fill-opacity:1;fill-rule:nonzero;stroke:none;stroke-width:1px;marker:none;visibility:visible;display:inline;overflow:visible;enable-background:accumulate;font-family:Latin Modern Roman;-inkscape-font-specification:Latin Modern Roman"
           x="68.845016"
           y="570.99683"
           id="text5225"
           sodipodi:linespacing="125%"
           transform="translate(325.992709454825,-12.01251547557376)"><tspan
             sodipodi:role="line"
             id="tspan5227"
             x="68.845016"
             y="570.99683"
             style="font-style:normal;font-variant:normal;font-weight:normal;font-stretch:normal;text-align:center;text-anchor:middle;fill:#1a1a1a;font-family:Latin Modern Roman Slanted;-inkscape-font-specification:Latin Modern Roman Slanted">W</tspan></text>
        <text
           transform="translate(462.2203375113704,-93.11123719485499)"
           sodipodi:linespacing="125%"
           id="text5229"
           y="570.99683"
           x="68.845016"
           style="font-size:20px;font-style:normal;font-variant:normal;font-weight:normal;font-stretch:normal;text-indent:0;text-align:center;text-decoration:none;line-height:125%;letter-spacing:0px;word-spacing:0px;text-transform:none;direction:ltr;block-progression:tb;writing-mode:lr-tb;text-anchor:middle;baseline-shift:baseline;color:#000000;fill:#1a1a1a;fill-opacity:1;fill-rule:nonzero;stroke:none;stroke-width:1px;marker:none;visibility:visible;display:inline;overflow:visible;enable-background:accumulate;font-family:Latin Modern Roman;-inkscape-font-specification:Latin Modern Roman"
           xml:space="preserve"><tspan
             style="font-style:normal;font-variant:normal;font-weight:normal;font-stretch:normal;text-align:center;text-anchor:middle;fill:#1a1a1a;font-family:Latin Modern Roman Slanted;-inkscape-font-specification:Latin Modern Roman Slanted"
             y="570.99683"
             x="68.845016"
             id="tspan5231"
             sodipodi:role="line">W</tspan></text>
      </g>
    </g>
    <g
       id="g6904"
       transform="translate(150.9055006408692,-2.000001678466788)" />
  </g>
  <!-- QGIS extent for clipping, eg in Inkscape -->
</svg>
