<?xml version="1.0" encoding="UTF-8" standalone="no"?>
<!-- Created with Inkscape (http://www.inkscape.org/) -->

<svg
   xmlns:dc="http://purl.org/dc/elements/1.1/"
   xmlns:cc="http://creativecommons.org/ns#"
   xmlns:rdf="http://www.w3.org/1999/02/22-rdf-syntax-ns#"
   xmlns:svg="http://www.w3.org/2000/svg"
   xmlns="http://www.w3.org/2000/svg"
   xmlns:sodipodi="http://sodipodi.sourceforge.net/DTD/sodipodi-0.dtd"
   xmlns:inkscape="http://www.inkscape.org/namespaces/inkscape"
   width="710.7596435546875"
   height="713.4400024414062"
   id="svg2"
   version="1.1"
   inkscape:version="0.48.4 r9939"
   sodipodi:docname="accuracy_precision.svg">
  <defs
     id="defs4" />
  <sodipodi:namedview
     id="base"
     pagecolor="#ffffff"
     bordercolor="#666666"
     borderopacity="1.0"
     inkscape:pageopacity="0.0"
     inkscape:pageshadow="2"
     inkscape:zoom="0.699999999630644"
     inkscape:cx="186.3838191421725"
     inkscape:cy="354.9319835065149"
     inkscape:document-units="px"
     inkscape:current-layer="layer1"
     showgrid="true"
     inkscape:snap-global="true"
     inkscape:window-width="1920"
     inkscape:window-height="1041"
     inkscape:window-x="1600"
     inkscape:window-y="0"
     inkscape:window-maximized="1"
     fit-margin-top="0"
     fit-margin-left="0"
     fit-margin-right="0"
     fit-margin-bottom="0">
    <inkscape:grid
       type="xygrid"
       id="grid2998"
       empspacing="5"
       visible="true"
       enabled="true"
       snapvisiblegridlinesonly="true"
       originx="127.7596564199759px"
       originy="-319.5600054457925px" />
  </sodipodi:namedview>
  <metadata
     id="metadata7">
    <rdf:RDF>
      <cc:Work
         rdf:about="">
        <dc:format>image/svg+xml</dc:format>
        <dc:type
           rdf:resource="http://purl.org/dc/dcmitype/StillImage" />
        <dc:title></dc:title>
      </cc:Work>
    </rdf:RDF>
  </metadata>
  <g
     inkscape:label="Layer 1"
     inkscape:groupmode="layer"
     id="layer1"
     transform="translate(127.7596564199759,-19.3621826171875)">
    <g
       id="g3795"
       transform="translate(0,-11.5)">
      <path
         d="M 280,147.3621826171875 C 280,210.8749288477287 228.5127462305412,262.3621826171875 165,262.3621826171875 C 101.4872537694588,262.3621826171875 50,210.8749288477287 50,147.3621826171875 C 50,83.84943638664627 101.4872537694587,32.36218261718752 165,32.3621826171875 C 228.5127462305412,32.36218261718747 280,83.84943638664623 280,147.3621826171875 z"
         sodipodi:ry="115"
         sodipodi:rx="115"
         sodipodi:cy="147.3621826171875"
         sodipodi:cx="165"
         id="path3002"
         style="fill:none;stroke:#787878;stroke-width:3;stroke-miterlimit:4;stroke-opacity:1;stroke-dasharray:none"
         sodipodi:type="arc" />
      <path
         transform="matrix(0.1589382063450006,0,0,0.1589382063450015,138.775195953075,123.9407016289272)"
         sodipodi:type="arc"
         style="fill:#787878;fill-opacity:1;stroke:#787878;stroke-width:18.8752593994;stroke-miterlimit:4;stroke-opacity:1;stroke-dasharray:none"
         id="path3791"
         sodipodi:cx="165"
         sodipodi:cy="147.3621826171875"
         sodipodi:rx="115"
         sodipodi:ry="115"
         d="M 280,147.3621826171875 C 280,210.8749288477287 228.5127462305412,262.3621826171875 165,262.3621826171875 C 101.4872537694588,262.3621826171875 50,210.8749288477287 50,147.3621826171875 C 50,83.84943638664627 101.4872537694587,32.36218261718752 165,32.3621826171875 C 228.5127462305412,32.36218261718747 280,83.84943638664623 280,147.3621826171875 z" />
      <path
         transform="matrix(0.5959389818685878,0,0,0.5959389818685883,66.67006799168294,59.54331354236774)"
         sodipodi:type="arc"
         style="fill:none;stroke:#787878;stroke-width:5.0340723991;stroke-miterlimit:4;stroke-opacity:1;stroke-dasharray:none"
         id="path3793"
         sodipodi:cx="165"
         sodipodi:cy="147.3621826171875"
         sodipodi:rx="115"
         sodipodi:ry="115"
         d="M 280,147.3621826171875 C 280,210.8749288477287 228.5127462305412,262.3621826171875 165,262.3621826171875 C 101.4872537694588,262.3621826171875 50,210.8749288477287 50,147.3621826171875 C 50,83.84943638664627 101.4872537694587,32.36218261718752 165,32.3621826171875 C 228.5127462305412,32.36218261718747 280,83.84943638664623 280,147.3621826171875 z" />
    </g>
    <g
       id="g3800"
       transform="translate(301.5,-11.5)">
      <path
         sodipodi:type="arc"
         style="fill:none;stroke:#787878;stroke-width:3;stroke-miterlimit:4;stroke-opacity:1;stroke-dasharray:none"
         id="path3802"
         sodipodi:cx="165"
         sodipodi:cy="147.3621826171875"
         sodipodi:rx="115"
         sodipodi:ry="115"
         d="M 280,147.3621826171875 C 280,210.8749288477287 228.5127462305412,262.3621826171875 165,262.3621826171875 C 101.4872537694588,262.3621826171875 50,210.8749288477287 50,147.3621826171875 C 50,83.84943638664627 101.4872537694587,32.36218261718752 165,32.3621826171875 C 228.5127462305412,32.36218261718747 280,83.84943638664623 280,147.3621826171875 z" />
      <path
         d="M 280,147.3621826171875 C 280,210.8749288477287 228.5127462305412,262.3621826171875 165,262.3621826171875 C 101.4872537694588,262.3621826171875 50,210.8749288477287 50,147.3621826171875 C 50,83.84943638664627 101.4872537694587,32.36218261718752 165,32.3621826171875 C 228.5127462305412,32.36218261718747 280,83.84943638664623 280,147.3621826171875 z"
         sodipodi:ry="115"
         sodipodi:rx="115"
         sodipodi:cy="147.3621826171875"
         sodipodi:cx="165"
         id="path3804"
         style="fill:#787878;fill-opacity:1;stroke:#787878;stroke-width:18.8752593994;stroke-miterlimit:4;stroke-opacity:1;stroke-dasharray:none"
         sodipodi:type="arc"
         transform="matrix(0.1589382063450006,0,0,0.1589382063450015,138.775195953075,123.9407016289272)" />
      <path
         d="M 280,147.3621826171875 C 280,210.8749288477287 228.5127462305412,262.3621826171875 165,262.3621826171875 C 101.4872537694588,262.3621826171875 50,210.8749288477287 50,147.3621826171875 C 50,83.84943638664627 101.4872537694587,32.36218261718752 165,32.3621826171875 C 228.5127462305412,32.36218261718747 280,83.84943638664623 280,147.3621826171875 z"
         sodipodi:ry="115"
         sodipodi:rx="115"
         sodipodi:cy="147.3621826171875"
         sodipodi:cx="165"
         id="path3806"
         style="fill:none;stroke:#787878;stroke-width:5.0340723991;stroke-miterlimit:4;stroke-opacity:1;stroke-dasharray:none"
         sodipodi:type="arc"
         transform="matrix(0.5959389818685878,0,0,0.5959389818685883,66.67006799168294,59.54331354236774)" />
    </g>
    <g
       transform="translate(301.5,288.5)"
       id="g3808">
      <path
         d="M 280,147.3621826171875 C 280,210.8749288477287 228.5127462305412,262.3621826171875 165,262.3621826171875 C 101.4872537694588,262.3621826171875 50,210.8749288477287 50,147.3621826171875 C 50,83.84943638664627 101.4872537694587,32.36218261718752 165,32.3621826171875 C 228.5127462305412,32.36218261718747 280,83.84943638664623 280,147.3621826171875 z"
         sodipodi:ry="115"
         sodipodi:rx="115"
         sodipodi:cy="147.3621826171875"
         sodipodi:cx="165"
         id="path3810"
         style="fill:none;stroke:#787878;stroke-width:3;stroke-miterlimit:4;stroke-opacity:1;stroke-dasharray:none"
         sodipodi:type="arc" />
      <path
         transform="matrix(0.1589382063450006,0,0,0.1589382063450015,138.775195953075,123.9407016289272)"
         sodipodi:type="arc"
         style="fill:#787878;fill-opacity:1;stroke:#787878;stroke-width:18.8752593994;stroke-miterlimit:4;stroke-opacity:1;stroke-dasharray:none"
         id="path3812"
         sodipodi:cx="165"
         sodipodi:cy="147.3621826171875"
         sodipodi:rx="115"
         sodipodi:ry="115"
         d="M 280,147.3621826171875 C 280,210.8749288477287 228.5127462305412,262.3621826171875 165,262.3621826171875 C 101.4872537694588,262.3621826171875 50,210.8749288477287 50,147.3621826171875 C 50,83.84943638664627 101.4872537694587,32.36218261718752 165,32.3621826171875 C 228.5127462305412,32.36218261718747 280,83.84943638664623 280,147.3621826171875 z" />
      <path
         transform="matrix(0.5959389818685878,0,0,0.5959389818685883,66.67006799168294,59.54331354236774)"
         sodipodi:type="arc"
         style="fill:none;stroke:#787878;stroke-width:5.0340723991;stroke-miterlimit:4;stroke-opacity:1;stroke-dasharray:none"
         id="path3814"
         sodipodi:cx="165"
         sodipodi:cy="147.3621826171875"
         sodipodi:rx="115"
         sodipodi:ry="115"
         d="M 280,147.3621826171875 C 280,210.8749288477287 228.5127462305412,262.3621826171875 165,262.3621826171875 C 101.4872537694588,262.3621826171875 50,210.8749288477287 50,147.3621826171875 C 50,83.84943638664627 101.4872537694587,32.36218261718752 165,32.3621826171875 C 228.5127462305412,32.36218261718747 280,83.84943638664623 280,147.3621826171875 z" />
    </g>
    <g
       id="g3816"
       transform="translate(0,288.5)">
      <path
         sodipodi:type="arc"
         style="fill:none;stroke:#787878;stroke-width:3;stroke-miterlimit:4;stroke-opacity:1;stroke-dasharray:none"
         id="path3818"
         sodipodi:cx="165"
         sodipodi:cy="147.3621826171875"
         sodipodi:rx="115"
         sodipodi:ry="115"
         d="M 280,147.3621826171875 C 280,210.8749288477287 228.5127462305412,262.3621826171875 165,262.3621826171875 C 101.4872537694588,262.3621826171875 50,210.8749288477287 50,147.3621826171875 C 50,83.84943638664627 101.4872537694587,32.36218261718752 165,32.3621826171875 C 228.5127462305412,32.36218261718747 280,83.84943638664623 280,147.3621826171875 z" />
      <path
         d="M 280,147.3621826171875 C 280,210.8749288477287 228.5127462305412,262.3621826171875 165,262.3621826171875 C 101.4872537694588,262.3621826171875 50,210.8749288477287 50,147.3621826171875 C 50,83.84943638664627 101.4872537694587,32.36218261718752 165,32.3621826171875 C 228.5127462305412,32.36218261718747 280,83.84943638664623 280,147.3621826171875 z"
         sodipodi:ry="115"
         sodipodi:rx="115"
         sodipodi:cy="147.3621826171875"
         sodipodi:cx="165"
         id="path3820"
         style="fill:#787878;fill-opacity:1;stroke:#787878;stroke-width:18.8752593994;stroke-miterlimit:4;stroke-opacity:1;stroke-dasharray:none"
         sodipodi:type="arc"
         transform="matrix(0.1589382063450006,0,0,0.1589382063450015,138.775195953075,123.9407016289272)" />
      <path
         d="M 280,147.3621826171875 C 280,210.8749288477287 228.5127462305412,262.3621826171875 165,262.3621826171875 C 101.4872537694588,262.3621826171875 50,210.8749288477287 50,147.3621826171875 C 50,83.84943638664627 101.4872537694587,32.36218261718752 165,32.3621826171875 C 228.5127462305412,32.36218261718747 280,83.84943638664623 280,147.3621826171875 z"
         sodipodi:ry="115"
         sodipodi:rx="115"
         sodipodi:cy="147.3621826171875"
         sodipodi:cx="165"
         id="path3822"
         style="fill:none;stroke:#787878;stroke-width:5.0340723991;stroke-miterlimit:4;stroke-opacity:1;stroke-dasharray:none"
         sodipodi:type="arc"
         transform="matrix(0.5959389818685878,0,0,0.5959389818685883,66.67006799168294,59.54331354236774)" />
    </g>
    <path
       id="path3826"
       style="fill:none;stroke:#000000;stroke-width:5;stroke-linecap:butt;stroke-linejoin:miter;stroke-miterlimit:4;stroke-opacity:1;stroke-dasharray:none"
       d="M -180,212.3621826171875 L -160,192.3621826171875 M -180,192.3621826171875 L -160,212.3621826171875"
       inkscape:connector-curvature="0"
       transform="translate(267.8807206120217,176.6823851689139)" />
    <path
       transform="translate(426.4521492671196,190.9680994621659)"
       inkscape:connector-curvature="0"
       d="M -180,212.3621826171875 L -160,192.3621826171875 M -180,192.3621826171875 L -160,212.3621826171875"
       style="fill:none;stroke:#000000;stroke-width:5;stroke-linecap:butt;stroke-linejoin:miter;stroke-miterlimit:4;stroke-opacity:1;stroke-dasharray:none"
       id="path3829" />
    <path
       id="path3831"
       style="fill:none;stroke:#000000;stroke-width:5;stroke-linecap:butt;stroke-linejoin:miter;stroke-miterlimit:4;stroke-opacity:1;stroke-dasharray:none"
       d="M -180,212.3621826171875 L -160,192.3621826171875 M -180,192.3621826171875 L -160,212.3621826171875"
       inkscape:connector-curvature="0"
       transform="translate(405.0235778272415,368.1109566984914)" />
    <path
       transform="translate(316.4521492090788,312.3966709548084)"
       inkscape:connector-curvature="0"
       d="M -180,212.3621826171875 L -160,192.3621826171875 M -180,192.3621826171875 L -160,212.3621826171875"
       style="fill:none;stroke:#000000;stroke-width:5;stroke-linecap:butt;stroke-linejoin:miter;stroke-miterlimit:4;stroke-opacity:1;stroke-dasharray:none"
       id="path3833" />
    <path
       id="path3835"
       style="fill:none;stroke:#000000;stroke-width:5;stroke-linecap:butt;stroke-linejoin:miter;stroke-miterlimit:4;stroke-opacity:1;stroke-dasharray:none"
       d="M -180,212.3621826171875 L -160,192.3621826171875 M -180,192.3621826171875 L -160,212.3621826171875"
       inkscape:connector-curvature="0"
       transform="translate(387.8807206753391,282.3966709389791)" />
    <path
       transform="translate(239.3092920255177,273.8252423630279)"
       inkscape:connector-curvature="0"
       d="M -180,212.3621826171875 L -160,192.3621826171875 M -180,192.3621826171875 L -160,212.3621826171875"
       style="fill:none;stroke:#000000;stroke-width:5;stroke-linecap:butt;stroke-linejoin:miter;stroke-miterlimit:4;stroke-opacity:1;stroke-dasharray:none"
       id="path3837" />
    <path
       transform="translate(306.4521492038023,193.8252423208164)"
       inkscape:connector-curvature="0"
       d="M -180,212.3621826171875 L -160,192.3621826171875 M -180,192.3621826171875 L -160,212.3621826171875"
       style="fill:none;stroke:#000000;stroke-width:5;stroke-linecap:butt;stroke-linejoin:miter;stroke-miterlimit:4;stroke-opacity:1;stroke-dasharray:none"
       id="path3841" />
    <path
       id="path3843"
       style="fill:none;stroke:#000000;stroke-width:5;stroke-linecap:butt;stroke-linejoin:miter;stroke-miterlimit:4;stroke-opacity:1;stroke-dasharray:none"
       d="M -180,212.3621826171875 L -160,192.3621826171875 M -180,192.3621826171875 L -160,212.3621826171875"
       inkscape:connector-curvature="0"
       transform="translate(267.8807205464441,-39.03190065014725)" />
    <path
       transform="translate(303.5950062984184,-101.8890435736219)"
       inkscape:connector-curvature="0"
       d="M -180,212.3621826171875 L -160,192.3621826171875 M -180,192.3621826171875 L -160,212.3621826171875"
       style="fill:none;stroke:#000000;stroke-width:5;stroke-linecap:butt;stroke-linejoin:miter;stroke-miterlimit:4;stroke-opacity:1;stroke-dasharray:none"
       id="path3845" />
    <path
       id="path3847"
       style="fill:none;stroke:#000000;stroke-width:5;stroke-linecap:butt;stroke-linejoin:miter;stroke-miterlimit:4;stroke-opacity:1;stroke-dasharray:none"
       d="M -180,212.3621826171875 L -160,192.3621826171875 M -180,192.3621826171875 L -160,212.3621826171875"
       inkscape:connector-curvature="0"
       transform="translate(342.1664349105507,-21.88904348919959)" />
    <path
       transform="translate(379.309292092604,-64.03190067652917)"
       inkscape:connector-curvature="0"
       d="M -180,212.3621826171875 L -160,192.3621826171875 M -180,192.3621826171875 L -160,212.3621826171875"
       style="fill:none;stroke:#000000;stroke-width:5;stroke-linecap:butt;stroke-linejoin:miter;stroke-miterlimit:4;stroke-opacity:1;stroke-dasharray:none"
       id="path3849" />
    <path
       id="path3851"
       style="fill:none;stroke:#000000;stroke-width:5;stroke-linecap:butt;stroke-linejoin:miter;stroke-miterlimit:4;stroke-opacity:1;stroke-dasharray:none"
       d="M -180,212.3621826171875 L -160,192.3621826171875 M -180,192.3621826171875 L -160,212.3621826171875"
       inkscape:connector-curvature="0"
       transform="translate(338.5950063353533,-67.60332925172656)" />
    <path
       transform="translate(367.1664349369327,-100.460472143543)"
       inkscape:connector-curvature="0"
       d="M -180,212.3621826171875 L -160,192.3621826171875 M -180,192.3621826171875 L -160,212.3621826171875"
       style="fill:none;stroke:#000000;stroke-width:5;stroke-linecap:butt;stroke-linejoin:miter;stroke-miterlimit:4;stroke-opacity:1;stroke-dasharray:none"
       id="path3853" />
    <path
       transform="translate(314.3092920240106,-60.46047210133179)"
       inkscape:connector-curvature="0"
       d="M -180,212.3621826171875 L -160,192.3621826171875 M -180,192.3621826171875 L -160,212.3621826171875"
       style="fill:none;stroke:#000000;stroke-width:5;stroke-linecap:butt;stroke-linejoin:miter;stroke-miterlimit:4;stroke-opacity:1;stroke-dasharray:none"
       id="path3855" />
    <path
       id="path3857"
       style="fill:none;stroke:#000000;stroke-width:5;stroke-linecap:butt;stroke-linejoin:miter;stroke-miterlimit:4;stroke-opacity:1;stroke-dasharray:none"
       d="M -180,212.3621826171875 L -160,192.3621826171875 M -180,192.3621826171875 L -160,212.3621826171875"
       inkscape:connector-curvature="0"
       transform="translate(637.3166099081443,-59.57812826815166)" />
    <path
       transform="translate(653.8182461754718,-66.05220577895829)"
       inkscape:connector-curvature="0"
       d="M -180,212.3621826171875 L -160,192.3621826171875 M -180,192.3621826171875 L -160,212.3621826171875"
       style="fill:none;stroke:#000000;stroke-width:5;stroke-linecap:butt;stroke-linejoin:miter;stroke-miterlimit:4;stroke-opacity:1;stroke-dasharray:none"
       id="path3859" />
    <path
       id="path3861"
       style="fill:none;stroke:#000000;stroke-width:5;stroke-linecap:butt;stroke-linejoin:miter;stroke-miterlimit:4;stroke-opacity:1;stroke-dasharray:none"
       d="M -180,212.3621826171875 L -160,192.3621826171875 M -180,192.3621826171875 L -160,212.3621826171875"
       inkscape:connector-curvature="0"
       transform="translate(626.5716861576089,-61.60586738850248)" />
    <path
       transform="translate(643.969258847899,-81.96210838503702)"
       inkscape:connector-curvature="0"
       d="M -180,212.3621826171875 L -160,192.3621826171875 M -180,192.3621826171875 L -160,212.3621826171875"
       style="fill:none;stroke:#000000;stroke-width:5;stroke-linecap:butt;stroke-linejoin:miter;stroke-miterlimit:4;stroke-opacity:1;stroke-dasharray:none"
       id="path3863" />
    <path
       id="path3865"
       style="fill:none;stroke:#000000;stroke-width:5;stroke-linecap:butt;stroke-linejoin:miter;stroke-miterlimit:4;stroke-opacity:1;stroke-dasharray:none"
       d="M -180,212.3621826171875 L -160,192.3621826171875 M -180,192.3621826171875 L -160,212.3621826171875"
       inkscape:connector-curvature="0"
       transform="translate(618.7154451874564,-80.19434142880618)" />
    <path
       transform="translate(611.9043495266528,-53.60604775233287)"
       inkscape:connector-curvature="0"
       d="M -180,212.3621826171875 L -160,192.3621826171875 M -180,192.3621826171875 L -160,212.3621826171875"
       style="fill:none;stroke:#000000;stroke-width:5;stroke-linecap:butt;stroke-linejoin:miter;stroke-miterlimit:4;stroke-opacity:1;stroke-dasharray:none"
       id="path3867" />
    <path
       id="path3869"
       style="fill:none;stroke:#000000;stroke-width:5;stroke-linecap:butt;stroke-linejoin:miter;stroke-miterlimit:4;stroke-opacity:1;stroke-dasharray:none"
       d="M -180,212.3621826171875 L -160,192.3621826171875 M -180,192.3621826171875 L -160,212.3621826171875"
       inkscape:connector-curvature="0"
       transform="translate(643.969258847899,-41.80854466493384)" />
    <path
       transform="translate(693.2549731856237,158.9057412611625)"
       inkscape:connector-curvature="0"
       d="M -180,212.3621826171875 L -160,192.3621826171875 M -180,192.3621826171875 L -160,212.3621826171875"
       style="fill:none;stroke:#000000;stroke-width:5;stroke-linecap:butt;stroke-linejoin:miter;stroke-miterlimit:4;stroke-opacity:1;stroke-dasharray:none"
       id="path3871" />
    <path
       id="path3873"
       style="fill:none;stroke:#000000;stroke-width:5;stroke-linecap:butt;stroke-linejoin:miter;stroke-miterlimit:4;stroke-opacity:1;stroke-dasharray:none"
       d="M -180,212.3621826171875 L -160,192.3621826171875 M -180,192.3621826171875 L -160,212.3621826171875"
       inkscape:connector-curvature="0"
       transform="translate(706.8264017713737,163.9057412664388)" />
    <path
       transform="translate(685.3978303201894,166.0485984115574)"
       inkscape:connector-curvature="0"
       d="M -180,212.3621826171875 L -160,192.3621826171875 M -180,192.3621826171875 L -160,212.3621826171875"
       style="fill:none;stroke:#000000;stroke-width:5;stroke-linecap:butt;stroke-linejoin:miter;stroke-miterlimit:4;stroke-opacity:1;stroke-dasharray:none"
       id="path3875" />
    <path
       id="path3877"
       style="fill:none;stroke:#000000;stroke-width:5;stroke-linecap:butt;stroke-linejoin:miter;stroke-miterlimit:4;stroke-opacity:1;stroke-dasharray:none"
       d="M -180,212.3621826171875 L -160,192.3621826171875 M -180,192.3621826171875 L -160,212.3621826171875"
       inkscape:connector-curvature="0"
       transform="translate(694.6835446157025,181.0485984273867)" />
    <path
       transform="translate(724.6835446473611,180.3343127123471)"
       inkscape:connector-curvature="0"
       d="M -180,212.3621826171875 L -160,192.3621826171875 M -180,192.3621826171875 L -160,212.3621826171875"
       style="fill:none;stroke:#000000;stroke-width:5;stroke-linecap:butt;stroke-linejoin:miter;stroke-miterlimit:4;stroke-opacity:1;stroke-dasharray:none"
       id="path3879" />
    <path
       id="path3881"
       style="fill:none;stroke:#000000;stroke-width:5;stroke-linecap:butt;stroke-linejoin:miter;stroke-miterlimit:4;stroke-opacity:1;stroke-dasharray:none"
       d="M -180,212.3621826171875 L -160,192.3621826171875 M -180,192.3621826171875 L -160,212.3621826171875"
       inkscape:connector-curvature="0"
       transform="translate(710.3978303465712,183.9057412875446)" />
    <path
       transform="translate(724.0348897160148,167.238224280447)"
       inkscape:connector-curvature="0"
       d="M -180,212.3621826171875 L -160,192.3621826171875 M -180,192.3621826171875 L -160,212.3621826171875"
       style="fill:none;stroke:#000000;stroke-width:5;stroke-linecap:butt;stroke-linejoin:miter;stroke-miterlimit:4;stroke-opacity:1;stroke-dasharray:none"
       id="path3883" />
    <text
       xml:space="preserve"
       style="font-size:18px;font-style:normal;font-variant:normal;font-weight:normal;font-stretch:normal;text-align:center;line-height:125%;letter-spacing:0px;word-spacing:0px;writing-mode:lr-tb;text-anchor:middle;fill:#000000;fill-opacity:1;stroke:none;font-family:Latin Modern Sans;-inkscape-font-specification:Latin Modern Sans"
       x="3238.2903"
       y="2863.5764"
       id="text3855"
       sodipodi:linespacing="125%"
       transform="matrix(0,-0.8796585404932017,0.8796367825822443,0,-2618.907145262379,3134.713167051878)"><tspan
         id="tspan3139"
         sodipodi:role="line"
         x="3238.2903"
         y="2863.5764"
         style="font-size:45.4727516174px;font-style:normal;font-variant:normal;font-weight:bold;font-stretch:normal;text-align:center;text-anchor:middle;font-family:Latin Modern Sans;-inkscape-font-specification:Latin Modern Sans Bold">Accuracy</tspan></text>
    <text
       transform="matrix(0.8796585404932017,0,0,0.8796367825822443,-2533.108130039756,-1786.544962645191)"
       sodipodi:linespacing="125%"
       id="text3902"
       y="2863.5764"
       x="3238.2903"
       style="font-size:18px;font-style:normal;font-variant:normal;font-weight:normal;font-stretch:normal;text-align:center;line-height:125%;letter-spacing:0px;word-spacing:0px;writing-mode:lr-tb;text-anchor:middle;fill:#000000;fill-opacity:1;stroke:none;font-family:Latin Modern Sans;-inkscape-font-specification:Latin Modern Sans"
       xml:space="preserve"><tspan
         style="font-size:45.4727516174px;font-style:normal;font-variant:normal;font-weight:bold;font-stretch:normal;text-align:center;text-anchor:middle;font-family:Latin Modern Sans;-inkscape-font-specification:Latin Modern Sans Bold"
         y="2863.5764"
         x="3238.2903"
         sodipodi:role="line"
         id="tspan3904">Precision</tspan></text>
    <text
       transform="matrix(0,-0.8796585404932017,0.8796367825822443,0,-2558.907145262379,3284.713138780192)"
       sodipodi:linespacing="125%"
       id="text3906"
       y="2863.5764"
       x="3238.2903"
       style="font-size:18px;font-style:normal;font-variant:normal;font-weight:normal;font-stretch:normal;text-align:center;line-height:125%;letter-spacing:0px;word-spacing:0px;writing-mode:lr-tb;text-anchor:middle;fill:#000000;fill-opacity:1;stroke:none;font-family:Latin Modern Sans;-inkscape-font-specification:Latin Modern Sans"
       xml:space="preserve"><tspan
         style="font-size:45.4727516174px;font-style:normal;font-variant:normal;font-weight:normal;font-stretch:normal;text-align:center;text-anchor:middle;font-family:Latin Modern Sans;-inkscape-font-specification:Latin Modern Sans"
         y="2863.5764"
         x="3238.2903"
         sodipodi:role="line"
         id="tspan3908">Low</tspan></text>
    <text
       xml:space="preserve"
       style="font-size:18px;font-style:normal;font-variant:normal;font-weight:normal;font-stretch:normal;text-align:center;line-height:125%;letter-spacing:0px;word-spacing:0px;writing-mode:lr-tb;text-anchor:middle;fill:#000000;fill-opacity:1;stroke:none;font-family:Latin Modern Sans;-inkscape-font-specification:Latin Modern Sans"
       x="3238.2903"
       y="2863.5764"
       id="text3910"
       sodipodi:linespacing="125%"
       transform="matrix(0,-0.8796585404932017,0.8796367825822443,0,-2558.907145262379,2986.020032234273)"><tspan
         id="tspan3912"
         sodipodi:role="line"
         x="3238.2903"
         y="2863.5764"
         style="font-size:45.4727516174px;font-style:normal;font-variant:normal;font-weight:normal;font-stretch:normal;text-align:center;text-anchor:middle;font-family:Latin Modern Sans;-inkscape-font-specification:Latin Modern Sans">High</tspan></text>
    <g
       id="g3922"
       transform="matrix(0,1,-1,0,1094.574005126953,-77.63781738281318)">
      <text
         transform="matrix(0,-0.8796585404932017,0.8796367825822443,0,-1778.907145262379,3779.644994853526)"
         sodipodi:linespacing="125%"
         id="text3914"
         y="2863.5764"
         x="3238.2903"
         style="font-size:18px;font-style:normal;font-variant:normal;font-weight:normal;font-stretch:normal;text-align:center;line-height:125%;letter-spacing:0px;word-spacing:0px;writing-mode:lr-tb;text-anchor:middle;fill:#000000;fill-opacity:1;stroke:none;font-family:Latin Modern Sans;-inkscape-font-specification:Latin Modern Sans"
         xml:space="preserve"><tspan
           style="font-size:45.4727516174px;font-style:normal;font-variant:normal;font-weight:normal;font-stretch:normal;text-align:center;text-anchor:middle;font-family:Latin Modern Sans;-inkscape-font-specification:Latin Modern Sans"
           y="2863.5764"
           x="3238.2903"
           sodipodi:role="line"
           id="tspan3916">Low</tspan></text>
      <text
         xml:space="preserve"
         style="font-size:18px;font-style:normal;font-variant:normal;font-weight:normal;font-stretch:normal;text-align:center;line-height:125%;letter-spacing:0px;word-spacing:0px;writing-mode:lr-tb;text-anchor:middle;fill:#000000;fill-opacity:1;stroke:none;font-family:Latin Modern Sans;-inkscape-font-specification:Latin Modern Sans"
         x="3238.2903"
         y="2863.5764"
         id="text3918"
         sodipodi:linespacing="125%"
         transform="matrix(0,-0.8796585404932017,0.8796367825822443,0,-1778.907145262379,3480.951888307607)"><tspan
           id="tspan3920"
           sodipodi:role="line"
           x="3238.2903"
           y="2863.5764"
           style="font-size:45.4727516174px;font-style:normal;font-variant:normal;font-weight:normal;font-stretch:normal;text-align:center;text-anchor:middle;font-family:Latin Modern Sans;-inkscape-font-specification:Latin Modern Sans">High</tspan></text>
    </g>
  </g>
</svg>
