<?xml version="1.0" standalone="no"?>
<!DOCTYPE svg PUBLIC "-//W3C//DTD SVG 1.1//EN" "http://www.w3.org/Graphics/SVG/1.1/DTD/svg11.dtd">
<svg xmlns="http://www.w3.org/2000/svg" xmlns:inkscape="http://www.inkscape.org/namespaces/inkscape" xmlns:xlink="http://www.w3.org/1999/xlink" viewBox = "0 0 1283 689" version = "1.1">
<!-- svg generated using QGIS www.qgis.org -->
<g id="europe" inkscape:groupmode="layer" inkscape:label="europe">
<g stroke="none" fill="rgb(183,104,222)" stroke-linejoin="round" stroke-width="0.26">
<g id="europe_1" >
<path d="M 970,411 L 969,413 L 967,416 L 965,419 L 965,422 L 971,431 L 976,437 L 977,439 L 980,441 L 977,443 L 976,447 L 974,448 L 974,450 L 975,452 L 975,454 L 976,457 L 971,457 L 965,457 L 963,457 L 961,458 L 959,458 L 954,455 L 951,454 L 949,454 L 948,456 L 945,457 L 942,458 L 943,459 L 954,462 L 956,465 L 954,468 L 953,470 L 950,471 L 947,472 L 944,472 L 943,474 L 945,479 L 943,480 L 942,481 L 943,485 L 946,486 L 946,487 L 946,488 L 945,490 L 945,492 L 944,493 L 943,493 L 938,493 L 934,494 L 926,500 L 923,501 L 920,503 L 920,508 L 919,508 L 919,509 L 909,508 L 902,508 L 897,511 L 892,512 L 881,511 L 869,512 L 867,513 L 864,513 L 861,514 L 860,516 L 857,519 L 853,520 L 849,522 L 848,523 L 846,524 L 844,523 L 842,523 L 840,522 L 832,522 L 823,521 L 819,520 L 814,519 L 809,518 L 805,518 L 803,518 L 792,516 L 785,516 L 775,515 L 757,512 L 751,511 L 746,511 L 740,510 L 735,508 L 732,505 L 729,501 L 723,496 L 722,494 L 724,491 L 726,490 L 725,489 L 724,489 L 714,491 L 704,494 L 700,494 L 696,493 L 691,493 L 686,494 L 676,494 L 671,496 L 667,500 L 665,503 L 664,504 L 660,505 L 655,504 L 652,504 L 648,501 L 642,500 L 637,500 L 636,500 L 636,498 L 634,495 L 630,494 L 622,500 L 619,501 L 612,499 L 606,496 L 606,494 L 605,493 L 599,491 L 593,490 L 591,490 L 592,489 L 592,487 L 592,486 L 590,485 L 590,483 L 589,482 L 589,481 L 589,480 L 588,479 L 592,473 L 593,469 L 590,467 L 588,466 L 589,465 L 595,466 L 598,465 L 600,463 L 604,465 L 611,467 L 614,469 L 616,470 L 616,471 L 616,473 L 617,473 L 621,474 L 623,474 L 622,477 L 622,479 L 625,478 L 629,477 L 631,474 L 633,471 L 635,465 L 637,465 L 646,465 L 651,466 L 657,466 L 657,467 L 658,469 L 661,471 L 663,472 L 666,473 L 671,472 L 674,471 L 675,472 L 679,471 L 683,469 L 684,468 L 688,467 L 693,465 L 701,463 L 725,461 L 726,460 L 725,456 L 726,456 L 729,457 L 734,458 L 738,459 L 740,460 L 742,460 L 746,459 L 751,459 L 755,460 L 756,462 L 755,463 L 755,464 L 757,465 L 760,467 L 765,468 L 767,468 L 768,467 L 769,463 L 769,459 L 768,457 L 766,456 L 763,456 L 761,456 L 762,455 L 764,451 L 764,447 L 759,442 L 754,438 L 754,436 L 757,433 L 761,431 L 771,427 L 774,427 L 778,426 L 783,424 L 786,423 L 788,421 L 790,412 L 791,412 L 792,412 L 801,415 L 802,414 L 804,414 L 807,411 L 808,410 L 808,406 L 808,403 L 809,402 L 810,402 L 814,404 L 817,406 L 821,411 L 828,412 L 837,412 L 840,410 L 843,409 L 847,410 L 854,411 L 854,407 L 858,403 L 860,402 L 865,402 L 867,399 L 868,391 L 869,390 L 873,390 L 877,392 L 878,393 L 880,393 L 882,392 L 885,391 L 890,392 L 900,396 L 905,397 L 909,397 L 912,397 L 924,403 L 932,404 L 940,404 L 942,402 L 945,400 L 949,401 L 952,401 L 957,404 L 960,404 L 964,405 L 966,405 L 969,410 L 970,411 " />
</g>
<g id="europe_2" >
<path d="M 346,265 L 346,266 L 348,267 L 353,266 L 355,264 L 357,263 L 359,264 L 359,266 L 361,270 L 367,273 L 371,274 L 378,273 L 380,273 L 382,273 L 383,275 L 387,277 L 394,279 L 396,279 L 398,281 L 398,283 L 394,288 L 394,289 L 394,290 L 393,291 L 389,294 L 388,295 L 390,297 L 391,299 L 398,297 L 401,300 L 407,300 L 407,301 L 413,304 L 415,306 L 419,308 L 416,311 L 416,312 L 417,313 L 422,314 L 424,316 L 425,318 L 426,322 L 416,327 L 413,332 L 413,333 L 413,332 L 411,331 L 410,331 L 406,330 L 400,334 L 398,338 L 396,341 L 394,343 L 393,345 L 394,346 L 393,347 L 393,349 L 396,351 L 397,352 L 401,357 L 400,359 L 399,360 L 397,362 L 396,362 L 392,362 L 387,363 L 383,364 L 382,364 L 378,362 L 374,358 L 371,357 L 370,355 L 367,355 L 362,353 L 359,351 L 356,350 L 352,350 L 349,350 L 348,347 L 347,343 L 345,341 L 348,332 L 346,331 L 344,332 L 340,334 L 339,336 L 338,339 L 332,341 L 323,342 L 313,341 L 312,340 L 311,340 L 311,339 L 312,337 L 314,336 L 314,334 L 312,332 L 311,331 L 312,330 L 313,327 L 313,326 L 306,322 L 302,321 L 297,321 L 293,321 L 291,321 L 290,322 L 288,323 L 287,322 L 285,315 L 283,314 L 277,313 L 269,313 L 267,311 L 266,308 L 265,305 L 262,301 L 261,300 L 258,299 L 254,299 L 249,301 L 246,302 L 244,302 L 240,300 L 236,297 L 232,294 L 231,292 L 232,290 L 231,288 L 229,285 L 228,282 L 251,274 L 264,269 L 271,268 L 272,272 L 273,274 L 275,275 L 277,275 L 279,274 L 283,273 L 288,273 L 292,274 L 293,275 L 295,276 L 299,277 L 306,275 L 313,272 L 315,269 L 316,267 L 320,269 L 323,269 L 325,268 L 324,265 L 327,264 L 330,263 L 331,264 L 334,266 L 337,266 L 343,262 L 344,263 L 346,264 L 346,265 " />
</g>
<g id="europe_3" >
<path d="M 1568,660 L 1566,673 L 1561,678 L 1554,677 L 1544,678 L 1539,685 L 1536,687 L 1534,689 L 1532,697 L 1532,711 L 1528,713 L 1525,714 L 1511,726 L 1519,729 L 1523,732 L 1528,739 L 1537,747 L 1538,751 L 1531,751 L 1529,751 L 1527,752 L 1524,752 L 1520,752 L 1516,753 L 1514,754 L 1511,753 L 1505,749 L 1501,746 L 1499,745 L 1496,746 L 1487,747 L 1485,748 L 1480,750 L 1476,751 L 1470,752 L 1466,752 L 1465,753 L 1463,755 L 1462,758 L 1461,759 L 1453,760 L 1452,762 L 1451,763 L 1451,764 L 1445,763 L 1440,764 L 1439,765 L 1438,767 L 1439,768 L 1440,770 L 1442,774 L 1443,779 L 1442,781 L 1438,783 L 1431,785 L 1424,784 L 1421,785 L 1415,785 L 1410,786 L 1403,788 L 1396,789 L 1390,785 L 1383,783 L 1376,781 L 1373,782 L 1372,783 L 1365,780 L 1363,779 L 1361,777 L 1359,773 L 1357,773 L 1352,774 L 1347,774 L 1344,774 L 1335,774 L 1334,777 L 1333,778 L 1331,778 L 1326,778 L 1320,780 L 1313,781 L 1308,781 L 1303,781 L 1300,781 L 1293,781 L 1289,785 L 1282,785 L 1276,784 L 1277,783 L 1278,770 L 1281,764 L 1281,763 L 1280,762 L 1278,761 L 1276,758 L 1272,750 L 1270,749 L 1264,747 L 1259,744 L 1255,741 L 1247,734 L 1251,733 L 1252,731 L 1256,727 L 1257,725 L 1256,724 L 1253,722 L 1252,718 L 1253,713 L 1253,711 L 1252,709 L 1253,707 L 1256,705 L 1258,705 L 1265,704 L 1270,699 L 1273,698 L 1276,695 L 1278,693 L 1279,691 L 1279,689 L 1273,686 L 1271,683 L 1269,680 L 1265,678 L 1258,675 L 1255,672 L 1254,668 L 1252,664 L 1249,662 L 1249,660 L 1248,658 L 1248,654 L 1250,649 L 1251,647 L 1253,646 L 1260,643 L 1260,639 L 1261,637 L 1263,636 L 1265,635 L 1269,637 L 1278,641 L 1282,643 L 1282,645 L 1280,646 L 1276,648 L 1274,650 L 1273,652 L 1274,654 L 1276,656 L 1292,654 L 1308,655 L 1329,658 L 1344,659 L 1354,658 L 1374,661 L 1392,663 L 1409,664 L 1419,662 L 1425,659 L 1431,654 L 1446,647 L 1460,643 L 1478,640 L 1491,638 L 1492,640 L 1508,646 L 1515,646 L 1521,647 L 1523,649 L 1524,649 L 1532,648 L 1535,651 L 1540,656 L 1549,659 L 1557,660 L 1559,660 L 1568,660 " />
</g>
<g id="europe_4" >
<path d="M 968,581 L 979,587 L 983,588 L 986,587 L 989,587 L 996,589 L 998,590 L 1000,589 L 1006,587 L 1008,588 L 1014,592 L 1017,592 L 1021,590 L 1023,588 L 1031,590 L 1035,589 L 1038,589 L 1042,589 L 1045,590 L 1049,591 L 1058,592 L 1062,594 L 1064,597 L 1064,598 L 1064,600 L 1067,602 L 1072,603 L 1075,602 L 1077,602 L 1082,601 L 1087,600 L 1091,601 L 1093,602 L 1093,603 L 1092,607 L 1090,611 L 1086,616 L 1083,620 L 1082,622 L 1082,626 L 1081,629 L 1082,630 L 1083,632 L 1087,633 L 1092,635 L 1097,639 L 1103,643 L 1105,645 L 1105,647 L 1103,648 L 1098,648 L 1093,648 L 1091,647 L 1089,648 L 1088,649 L 1088,650 L 1094,655 L 1100,662 L 1100,665 L 1100,668 L 1098,670 L 1096,669 L 1094,668 L 1090,668 L 1088,668 L 1085,671 L 1083,671 L 1081,671 L 1079,672 L 1076,671 L 1074,671 L 1072,671 L 1072,673 L 1074,676 L 1077,680 L 1076,683 L 1074,684 L 1072,681 L 1070,681 L 1067,681 L 1062,684 L 1058,687 L 1057,689 L 1056,691 L 1056,692 L 1056,697 L 1049,698 L 1047,699 L 1046,700 L 1047,706 L 1048,710 L 1052,715 L 1052,717 L 1051,718 L 1048,720 L 1047,721 L 1046,721 L 1041,720 L 1039,719 L 1030,714 L 1026,712 L 1019,708 L 1015,706 L 1013,704 L 1010,703 L 1007,704 L 1002,702 L 1005,701 L 1006,700 L 1006,698 L 1004,696 L 993,688 L 987,683 L 986,681 L 986,676 L 985,674 L 977,672 L 967,665 L 958,658 L 956,657 L 951,652 L 945,647 L 940,644 L 936,641 L 932,636 L 930,629 L 928,623 L 926,620 L 923,619 L 915,612 L 907,608 L 907,603 L 909,595 L 910,586 L 912,585 L 915,585 L 919,585 L 922,586 L 929,592 L 933,594 L 936,595 L 940,593 L 944,587 L 948,585 L 961,586 L 968,581 " />
</g>
<g id="europe_5" >
<path d="M 588,466 L 590,467 L 593,469 L 592,473 L 588,479 L 586,484 L 586,488 L 586,490 L 587,490 L 591,490 L 593,490 L 599,491 L 605,493 L 606,494 L 606,496 L 612,499 L 619,501 L 622,500 L 630,494 L 634,495 L 636,498 L 636,500 L 633,507 L 633,510 L 635,512 L 635,514 L 635,516 L 631,516 L 626,515 L 623,512 L 620,513 L 617,513 L 616,516 L 614,519 L 615,521 L 617,523 L 618,526 L 619,529 L 620,531 L 619,532 L 617,533 L 615,532 L 611,527 L 609,526 L 607,525 L 602,527 L 594,529 L 591,529 L 588,529 L 586,526 L 584,522 L 583,520 L 582,520 L 577,519 L 574,520 L 574,524 L 574,530 L 572,533 L 565,539 L 562,542 L 561,544 L 561,545 L 562,548 L 563,551 L 562,552 L 559,553 L 556,551 L 555,548 L 550,544 L 552,541 L 552,540 L 543,539 L 539,536 L 533,532 L 532,530 L 532,524 L 532,522 L 531,521 L 529,521 L 525,524 L 522,527 L 515,530 L 514,531 L 516,535 L 516,536 L 510,542 L 509,543 L 502,547 L 499,548 L 489,546 L 486,545 L 481,547 L 475,549 L 465,550 L 461,549 L 459,548 L 458,546 L 456,543 L 453,542 L 451,540 L 448,538 L 447,536 L 449,530 L 447,528 L 446,525 L 447,523 L 446,523 L 437,522 L 429,522 L 423,524 L 419,527 L 418,528 L 419,528 L 421,531 L 417,534 L 411,537 L 407,537 L 405,537 L 405,533 L 409,532 L 412,530 L 413,527 L 413,525 L 410,522 L 410,521 L 412,518 L 414,515 L 415,513 L 422,509 L 428,505 L 429,502 L 429,497 L 430,496 L 439,493 L 441,492 L 442,490 L 449,485 L 456,479 L 457,477 L 458,476 L 458,475 L 457,475 L 454,474 L 453,473 L 457,470 L 461,468 L 465,468 L 467,469 L 467,470 L 469,471 L 472,471 L 476,471 L 480,470 L 482,467 L 484,465 L 490,462 L 494,464 L 506,464 L 515,463 L 520,462 L 527,462 L 531,463 L 532,462 L 533,462 L 534,461 L 538,461 L 539,460 L 539,459 L 538,459 L 533,459 L 531,459 L 530,458 L 532,455 L 536,453 L 539,453 L 541,454 L 547,457 L 548,457 L 549,456 L 550,456 L 552,457 L 555,459 L 568,458 L 570,458 L 579,462 L 588,466 " />
</g>
<g id="europe_6" >
<path d="M 860,295 L 864,294 L 869,293 L 869,291 L 869,287 L 876,288 L 883,289 L 884,293 L 886,295 L 888,297 L 890,298 L 893,298 L 903,300 L 907,301 L 912,302 L 915,304 L 918,304 L 919,306 L 921,307 L 924,306 L 935,305 L 939,307 L 942,309 L 941,311 L 940,312 L 939,313 L 935,314 L 933,315 L 932,317 L 933,318 L 936,320 L 938,320 L 939,321 L 946,326 L 951,332 L 954,333 L 956,334 L 958,333 L 961,331 L 964,329 L 967,328 L 972,327 L 972,325 L 968,321 L 966,317 L 971,317 L 980,319 L 994,326 L 996,326 L 1001,325 L 1006,324 L 1008,323 L 1009,323 L 1010,327 L 1009,329 L 1003,331 L 1003,332 L 1004,333 L 1007,334 L 1011,336 L 1013,338 L 1015,340 L 1017,340 L 1023,339 L 1024,338 L 1025,337 L 1026,337 L 1028,338 L 1029,339 L 1034,341 L 1037,342 L 1039,343 L 1042,342 L 1050,344 L 1053,345 L 1053,347 L 1053,348 L 1054,351 L 1065,359 L 1066,362 L 1066,364 L 1065,364 L 1062,365 L 1058,365 L 1054,365 L 1051,366 L 1048,368 L 1045,370 L 1043,371 L 1042,373 L 1032,377 L 1030,379 L 1029,381 L 1029,384 L 1028,387 L 1026,388 L 1021,390 L 1019,390 L 1018,392 L 1015,394 L 1011,396 L 1004,398 L 997,399 L 987,398 L 982,397 L 979,398 L 975,401 L 971,407 L 970,411 L 969,410 L 966,405 L 964,405 L 960,404 L 957,404 L 952,401 L 949,401 L 945,400 L 942,402 L 940,404 L 932,404 L 924,403 L 912,397 L 909,397 L 905,397 L 900,396 L 890,392 L 885,391 L 882,392 L 880,393 L 878,393 L 877,392 L 873,390 L 869,390 L 868,391 L 867,399 L 865,402 L 860,402 L 858,403 L 854,407 L 854,411 L 847,410 L 843,409 L 840,410 L 837,412 L 828,412 L 821,411 L 817,406 L 814,404 L 810,402 L 809,402 L 806,400 L 802,396 L 795,392 L 789,392 L 787,391 L 786,390 L 784,387 L 781,385 L 778,384 L 774,382 L 768,377 L 762,373 L 757,373 L 754,371 L 750,369 L 748,366 L 744,361 L 741,357 L 739,355 L 736,353 L 735,352 L 738,349 L 740,347 L 741,346 L 742,345 L 742,344 L 739,341 L 735,339 L 729,337 L 726,334 L 725,331 L 724,330 L 722,328 L 720,325 L 720,323 L 722,323 L 724,324 L 727,326 L 730,329 L 731,328 L 734,325 L 739,321 L 743,319 L 748,318 L 752,318 L 755,317 L 760,317 L 764,318 L 765,317 L 767,315 L 767,314 L 776,312 L 779,309 L 781,309 L 782,309 L 784,307 L 786,307 L 787,307 L 789,308 L 791,307 L 794,303 L 795,303 L 803,302 L 813,300 L 818,298 L 823,296 L 828,294 L 837,293 L 837,292 L 833,290 L 832,289 L 831,287 L 833,286 L 834,285 L 837,286 L 844,287 L 846,288 L 847,290 L 849,292 L 850,292 L 850,295 L 852,296 L 855,297 L 857,297 L 859,295 L 860,295 " />
</g>
<g id="europe_7" >
<path d="M 828,137 L 829,140 L 827,140 L 821,140 L 814,139 L 813,136 L 814,133 L 811,131 L 809,130 L 809,128 L 809,127 L 820,131 L 829,136 L 828,137 " />
<path d="M 678,112 L 671,112 L 667,110 L 664,109 L 666,107 L 668,106 L 676,107 L 678,111 L 678,112 " />
<path d="M 803,113 L 804,117 L 803,119 L 797,116 L 791,116 L 788,120 L 785,121 L 776,116 L 775,114 L 775,113 L 776,107 L 776,105 L 779,103 L 779,100 L 784,97 L 788,97 L 790,100 L 792,102 L 799,103 L 800,104 L 801,106 L 798,108 L 796,109 L 798,111 L 803,113 " />
<path d="M 540,97 L 538,98 L 533,98 L 530,96 L 531,95 L 534,94 L 536,94 L 539,95 L 540,97 " />
<path d="M 574,92 L 579,92 L 587,90 L 593,89 L 595,90 L 598,91 L 599,91 L 599,92 L 607,93 L 610,95 L 614,99 L 614,103 L 609,107 L 606,109 L 620,108 L 621,110 L 623,112 L 631,111 L 650,117 L 662,114 L 665,114 L 667,119 L 664,124 L 654,129 L 656,133 L 660,133 L 669,133 L 684,136 L 688,135 L 700,127 L 705,126 L 721,125 L 724,122 L 730,119 L 735,115 L 745,109 L 755,110 L 761,111 L 768,112 L 774,119 L 790,126 L 804,125 L 809,132 L 811,141 L 815,143 L 819,145 L 831,147 L 832,148 L 832,152 L 833,156 L 839,170 L 839,173 L 839,174 L 837,179 L 833,183 L 828,185 L 825,188 L 825,191 L 831,196 L 844,203 L 850,209 L 847,214 L 847,217 L 848,220 L 850,222 L 853,223 L 854,225 L 854,228 L 854,230 L 857,232 L 856,232 L 855,234 L 854,238 L 853,241 L 849,245 L 850,248 L 853,251 L 855,253 L 856,255 L 855,259 L 855,260 L 865,264 L 866,265 L 867,268 L 870,274 L 868,282 L 865,287 L 860,294 L 860,295 L 859,295 L 857,297 L 855,297 L 852,296 L 850,295 L 850,292 L 849,292 L 847,290 L 846,288 L 844,287 L 837,286 L 834,285 L 833,286 L 831,287 L 832,289 L 833,290 L 837,292 L 837,293 L 828,294 L 823,296 L 818,298 L 813,300 L 803,302 L 795,303 L 794,303 L 791,307 L 789,308 L 787,307 L 786,307 L 784,307 L 782,309 L 781,309 L 779,309 L 776,312 L 767,314 L 767,315 L 765,317 L 764,318 L 760,317 L 755,317 L 752,318 L 748,318 L 743,319 L 739,321 L 734,325 L 731,328 L 730,329 L 727,326 L 724,324 L 722,323 L 720,323 L 720,325 L 722,328 L 724,330 L 725,331 L 726,334 L 729,337 L 735,339 L 739,341 L 742,344 L 742,345 L 741,346 L 740,347 L 738,349 L 735,352 L 736,353 L 739,355 L 741,357 L 744,361 L 748,366 L 750,369 L 754,371 L 757,373 L 762,373 L 768,377 L 774,382 L 778,384 L 781,385 L 784,387 L 786,390 L 787,391 L 789,392 L 795,392 L 802,396 L 806,400 L 809,402 L 808,403 L 808,406 L 808,410 L 807,411 L 804,414 L 802,414 L 801,415 L 792,412 L 791,412 L 790,412 L 788,421 L 786,423 L 783,424 L 778,426 L 774,427 L 771,427 L 761,431 L 757,433 L 754,436 L 754,438 L 759,442 L 764,447 L 764,451 L 762,455 L 761,456 L 763,456 L 766,456 L 768,457 L 769,459 L 769,463 L 768,467 L 767,468 L 765,468 L 760,467 L 757,465 L 755,464 L 755,463 L 756,462 L 755,460 L 751,459 L 746,459 L 742,460 L 740,460 L 738,459 L 734,458 L 729,457 L 726,456 L 725,456 L 726,460 L 725,461 L 701,463 L 693,465 L 688,467 L 684,468 L 683,469 L 679,471 L 675,472 L 674,471 L 671,472 L 666,473 L 663,472 L 661,471 L 658,469 L 657,467 L 657,466 L 651,466 L 646,465 L 637,465 L 635,465 L 633,471 L 631,474 L 629,477 L 625,478 L 622,479 L 622,477 L 623,474 L 621,474 L 617,473 L 616,473 L 616,471 L 616,470 L 614,469 L 611,467 L 604,465 L 600,463 L 598,465 L 595,466 L 589,465 L 588,466 L 579,462 L 570,458 L 568,458 L 555,459 L 552,457 L 550,456 L 549,456 L 548,457 L 547,457 L 541,454 L 539,453 L 536,453 L 532,455 L 530,458 L 531,459 L 533,459 L 538,459 L 539,459 L 539,460 L 538,461 L 534,461 L 533,462 L 532,462 L 531,463 L 527,462 L 520,462 L 515,463 L 506,464 L 494,464 L 490,462 L 487,462 L 485,458 L 486,453 L 489,446 L 490,441 L 488,438 L 490,433 L 495,427 L 498,420 L 499,413 L 501,409 L 506,406 L 516,397 L 517,396 L 517,391 L 514,391 L 510,390 L 499,388 L 490,387 L 485,386 L 481,382 L 479,382 L 474,383 L 469,384 L 464,384 L 462,384 L 460,384 L 459,384 L 458,381 L 456,380 L 453,379 L 451,380 L 449,381 L 447,382 L 445,382 L 438,375 L 436,374 L 436,372 L 434,370 L 430,367 L 427,367 L 425,367 L 425,364 L 426,359 L 428,357 L 430,355 L 432,354 L 432,351 L 432,349 L 430,349 L 424,347 L 420,345 L 417,343 L 414,340 L 413,337 L 412,334 L 413,333 L 413,332 L 416,327 L 426,322 L 425,318 L 424,316 L 422,314 L 417,313 L 416,312 L 416,311 L 419,308 L 415,306 L 413,304 L 407,301 L 407,300 L 409,292 L 407,290 L 405,289 L 401,288 L 400,287 L 400,286 L 400,285 L 404,285 L 405,284 L 414,280 L 414,279 L 413,278 L 411,278 L 411,277 L 411,276 L 415,269 L 417,266 L 417,264 L 417,262 L 414,259 L 412,257 L 411,255 L 410,254 L 404,248 L 404,246 L 407,244 L 412,243 L 413,243 L 415,242 L 422,244 L 425,245 L 426,245 L 429,243 L 433,243 L 445,241 L 447,239 L 448,238 L 448,237 L 444,234 L 444,233 L 444,232 L 445,231 L 448,230 L 451,229 L 457,225 L 459,222 L 460,219 L 460,216 L 458,214 L 457,213 L 454,213 L 450,213 L 445,212 L 443,210 L 442,209 L 444,208 L 444,206 L 443,205 L 443,204 L 445,203 L 459,203 L 460,202 L 461,198 L 464,190 L 468,186 L 468,185 L 468,175 L 468,170 L 466,168 L 461,165 L 462,160 L 464,156 L 469,151 L 473,150 L 491,149 L 510,149 L 518,157 L 515,161 L 520,162 L 522,162 L 524,158 L 525,155 L 527,153 L 533,156 L 535,158 L 535,164 L 537,156 L 536,150 L 537,144 L 539,141 L 541,140 L 556,142 L 572,141 L 578,143 L 591,154 L 596,155 L 601,156 L 594,154 L 577,140 L 572,139 L 565,138 L 560,137 L 557,135 L 556,133 L 556,120 L 553,118 L 550,117 L 548,118 L 543,118 L 542,115 L 543,113 L 552,111 L 559,109 L 559,105 L 555,103 L 550,97 L 545,92 L 544,87 L 554,87 L 556,87 L 571,90 L 574,92 " />
<path d="M 525,93 L 524,94 L 525,86 L 531,79 L 533,79 L 530,81 L 530,82 L 529,85 L 529,87 L 542,87 L 541,89 L 528,90 L 525,93 " />
</g>
<g id="europe_8" >
<path d="M 682,87 L 692,91 L 698,90 L 702,92 L 703,94 L 703,98 L 699,100 L 694,99 L 687,101 L 666,93 L 666,87 L 667,85 L 677,84 L 682,87 " />
<path d="M 637,90 L 634,90 L 630,89 L 624,85 L 623,84 L 626,84 L 630,87 L 634,87 L 638,89 L 637,90 " />
<path d="M 743,84 L 742,84 L 734,84 L 725,87 L 721,86 L 723,84 L 724,83 L 727,82 L 729,81 L 729,78 L 731,80 L 737,80 L 739,81 L 742,82 L 743,84 " />
<path d="M 616,88 L 610,88 L 608,87 L 603,87 L 601,79 L 601,78 L 604,79 L 612,82 L 615,86 L 616,88 " />
<path d="M 650,95 L 648,95 L 645,91 L 644,89 L 648,87 L 650,84 L 657,79 L 660,74 L 661,74 L 660,79 L 652,92 L 650,95 " />
<path d="M 874,81 L 872,82 L 864,80 L 853,77 L 855,70 L 857,67 L 876,74 L 876,77 L 874,81 " />
<path d="M 646,50 L 648,53 L 650,59 L 655,65 L 653,68 L 654,71 L 653,75 L 645,79 L 635,79 L 626,77 L 612,73 L 611,71 L 609,70 L 605,63 L 605,55 L 612,54 L 627,50 L 631,51 L 634,53 L 638,53 L 644,50 L 646,50 " />
<path d="M 749,51 L 745,53 L 744,53 L 742,50 L 745,48 L 746,47 L 747,47 L 749,49 L 749,51 " />
<path d="M 644,42 L 643,42 L 640,41 L 639,38 L 640,35 L 639,32 L 641,31 L 645,35 L 646,37 L 645,39 L 644,42 " />
<path d="M 744,41 L 745,47 L 743,48 L 741,49 L 736,50 L 732,52 L 728,54 L 726,58 L 729,60 L 735,62 L 736,67 L 732,70 L 720,72 L 719,78 L 719,83 L 719,86 L 718,91 L 708,93 L 702,86 L 702,83 L 700,80 L 700,77 L 697,72 L 688,71 L 685,71 L 680,72 L 679,71 L 673,65 L 674,58 L 670,54 L 670,53 L 670,51 L 667,49 L 664,49 L 663,45 L 666,44 L 675,44 L 678,44 L 680,43 L 688,37 L 687,35 L 688,33 L 696,33 L 700,35 L 699,39 L 699,44 L 704,46 L 706,46 L 708,42 L 709,40 L 711,39 L 712,36 L 711,34 L 708,32 L 717,28 L 727,24 L 732,24 L 737,25 L 742,26 L 745,27 L 747,29 L 743,32 L 742,35 L 744,41 " />
<path d="M 635,-29 L 630,-21 L 628,-20 L 627,-11 L 628,-9 L 627,-1 L 632,2 L 638,4 L 656,4 L 658,5 L 660,8 L 658,12 L 656,15 L 651,18 L 644,20 L 640,20 L 634,16 L 632,17 L 629,19 L 624,30 L 622,37 L 621,38 L 618,37 L 613,37 L 608,38 L 611,40 L 614,43 L 612,44 L 607,45 L 603,48 L 601,51 L 595,53 L 591,56 L 593,61 L 594,64 L 596,68 L 594,71 L 587,76 L 584,80 L 590,80 L 594,81 L 596,82 L 599,83 L 597,85 L 599,91 L 598,91 L 595,90 L 593,89 L 587,90 L 579,92 L 574,92 L 571,90 L 556,87 L 554,87 L 544,87 L 544,82 L 542,79 L 539,75 L 544,74 L 543,65 L 541,60 L 527,56 L 516,51 L 519,35 L 520,31 L 516,23 L 516,14 L 518,0 L 522,0 L 524,0 L 534,1 L 538,2 L 541,4 L 544,5 L 547,2 L 548,-1 L 555,-6 L 561,-8 L 565,-9 L 568,-7 L 571,-5 L 572,-10 L 574,-21 L 567,-22 L 561,-21 L 555,-14 L 549,-6 L 541,-5 L 534,-3 L 528,-5 L 523,-7 L 523,-11 L 524,-12 L 532,-19 L 541,-26 L 551,-26 L 559,-28 L 563,-28 L 576,-28 L 583,-29 L 590,-32 L 603,-45 L 611,-50 L 626,-52 L 640,-58 L 644,-58 L 637,-53 L 636,-52 L 635,-49 L 640,-43 L 639,-40 L 639,-33 L 635,-29 " />
</g>
<g id="europe_9" >
<path d="M -296,659 L -291,661 L -286,660 L -281,663 L -274,668 L -263,670 L -255,668 L -241,668 L -233,669 L -220,667 L -213,668 L -201,665 L -192,669 L -174,670 L -163,673 L -133,677 L -122,677 L -107,675 L -100,673 L -94,674 L -86,672 L -82,672 L -76,675 L -57,679 L -52,676 L -48,675 L -34,677 L -21,682 L -13,682 L -3,681 L 5,678 L 6,678 L 6,679 L 8,682 L 11,683 L 15,684 L 18,684 L 23,685 L 26,686 L 26,688 L 25,691 L 24,693 L 22,695 L 23,696 L 25,697 L 27,697 L 28,697 L 29,695 L 31,693 L 32,693 L 32,694 L 32,695 L 38,697 L 51,701 L 55,701 L 59,702 L 60,703 L 68,709 L 70,709 L 74,709 L 78,708 L 81,707 L 83,707 L 85,709 L 88,710 L 91,711 L 94,714 L 96,714 L 109,713 L 112,714 L 115,714 L 118,714 L 125,715 L 131,714 L 132,714 L 132,709 L 133,707 L 134,706 L 138,707 L 150,710 L 156,712 L 161,713 L 165,713 L 168,714 L 172,719 L 171,722 L 172,723 L 172,724 L 172,726 L 173,727 L 175,728 L 177,727 L 180,726 L 185,724 L 186,724 L 194,726 L 198,728 L 199,730 L 201,731 L 203,732 L 206,730 L 212,728 L 221,730 L 231,732 L 235,732 L 235,731 L 236,730 L 237,729 L 240,729 L 243,728 L 247,726 L 251,726 L 255,727 L 261,728 L 264,728 L 265,731 L 268,732 L 268,735 L 264,736 L 261,737 L 260,742 L 262,743 L 264,744 L 265,746 L 265,753 L 260,757 L 253,762 L 217,777 L 209,785 L 206,786 L 179,791 L 161,796 L 152,798 L 141,807 L 135,810 L 139,811 L 144,816 L 143,817 L 136,820 L 132,821 L 131,821 L 129,821 L 117,836 L 107,847 L 101,852 L 95,859 L 82,877 L 82,883 L 88,901 L 92,906 L 97,910 L 106,913 L 109,916 L 106,920 L 96,925 L 79,933 L 72,939 L 70,945 L 65,948 L 63,956 L 60,961 L 60,963 L 57,967 L 56,970 L 61,974 L 59,976 L 56,977 L 50,977 L 30,978 L 14,987 L 6,995 L 0,1010 L -9,1018 L -13,1020 L -19,1016 L -27,1016 L -34,1017 L -38,1020 L -44,1022 L -50,1020 L -62,1019 L -68,1019 L -77,1022 L -84,1020 L -97,1019 L -125,1021 L -128,1022 L -132,1026 L -141,1032 L -154,1032 L -166,1036 L -169,1039 L -174,1046 L -176,1051 L -177,1051 L -178,1050 L -180,1050 L -181,1054 L -186,1056 L -190,1057 L -199,1054 L -207,1049 L -211,1049 L -218,1041 L -220,1036 L -222,1031 L -222,1029 L -223,1028 L -229,1025 L -230,1021 L -226,1015 L -222,1012 L -220,1011 L -225,1012 L -229,1015 L -234,1009 L -254,997 L -253,994 L -253,993 L -257,996 L -259,997 L -269,996 L -281,998 L -284,985 L -286,980 L -286,977 L -283,969 L -280,966 L -275,960 L -270,955 L -264,954 L -261,953 L -259,949 L -258,946 L -259,945 L -266,946 L -278,932 L -277,930 L -276,926 L -275,922 L -275,919 L -272,916 L -267,913 L -263,909 L -261,905 L -260,901 L -262,899 L -269,897 L -276,887 L -277,880 L -279,879 L -283,876 L -287,871 L -288,870 L -284,869 L -266,869 L -263,868 L -262,867 L -259,863 L -256,856 L -255,852 L -256,850 L -262,845 L -262,844 L -261,842 L -258,840 L -253,837 L -250,835 L -251,833 L -252,832 L -253,830 L -252,828 L -251,821 L -251,819 L -252,813 L -253,808 L -257,801 L -256,799 L -254,798 L -249,796 L -244,790 L -238,786 L -230,782 L -224,778 L -221,775 L -220,774 L -220,772 L -221,770 L -225,768 L -229,767 L -234,767 L -237,767 L -238,765 L -237,761 L -237,756 L -238,754 L -241,753 L -245,753 L -249,752 L -252,752 L -253,753 L -262,752 L -265,752 L -268,751 L -269,751 L -270,752 L -270,754 L -271,755 L -274,757 L -281,758 L -287,758 L -292,757 L -293,756 L -296,756 L -306,757 L -308,756 L -311,757 L -316,759 L -319,760 L -321,759 L -321,758 L -323,755 L -323,754 L -318,749 L -319,748 L -321,746 L -322,744 L -323,743 L -325,743 L -328,744 L -339,746 L -342,747 L -347,749 L -352,753 L -355,754 L -357,753 L -357,744 L -351,739 L -347,736 L -349,735 L -354,735 L -353,733 L -351,731 L -349,729 L -352,728 L -353,726 L -353,721 L -353,719 L -353,717 L -362,720 L -365,719 L -365,716 L -360,710 L -359,709 L -365,708 L -370,705 L -372,703 L -375,700 L -375,697 L -372,690 L -368,687 L -364,686 L -357,681 L -346,682 L -339,681 L -333,679 L -330,678 L -324,676 L -325,673 L -326,671 L -325,669 L -319,666 L -312,663 L -304,662 L -296,659 " />
</g>
<g id="europe_10" >
<path d="M 38,549 L 36,554 L 33,550 L 28,546 L 27,543 L 27,542 L 32,544 L 38,549 " />
<path d="M 240,300 L 244,302 L 246,302 L 249,301 L 254,299 L 258,299 L 261,300 L 262,301 L 265,305 L 266,308 L 267,311 L 269,313 L 277,313 L 283,314 L 285,315 L 287,322 L 288,323 L 290,322 L 291,321 L 293,321 L 297,321 L 302,321 L 306,322 L 313,326 L 313,327 L 312,330 L 311,331 L 312,332 L 314,334 L 314,336 L 312,337 L 311,339 L 311,340 L 312,340 L 313,341 L 323,342 L 332,341 L 338,339 L 339,336 L 340,334 L 344,332 L 346,331 L 348,332 L 345,341 L 347,343 L 348,347 L 349,350 L 352,350 L 356,350 L 359,351 L 362,353 L 367,355 L 370,355 L 371,357 L 374,358 L 378,362 L 382,364 L 383,364 L 387,363 L 392,362 L 396,362 L 398,364 L 402,365 L 403,366 L 405,367 L 407,367 L 411,367 L 413,365 L 416,364 L 419,365 L 421,366 L 425,367 L 427,367 L 430,367 L 434,370 L 436,372 L 436,374 L 438,375 L 445,382 L 447,382 L 449,381 L 451,380 L 453,379 L 456,380 L 458,381 L 459,384 L 460,384 L 462,384 L 464,384 L 469,384 L 474,383 L 479,382 L 481,382 L 485,386 L 490,387 L 499,388 L 510,390 L 514,391 L 517,391 L 517,396 L 516,397 L 506,406 L 501,409 L 499,413 L 498,420 L 495,427 L 490,433 L 488,438 L 490,441 L 489,446 L 486,453 L 485,458 L 487,462 L 490,462 L 484,465 L 482,467 L 480,470 L 476,471 L 472,471 L 469,471 L 467,470 L 467,469 L 465,468 L 461,468 L 457,470 L 453,473 L 454,474 L 457,475 L 458,475 L 458,476 L 457,477 L 456,479 L 449,485 L 442,490 L 441,492 L 439,493 L 430,496 L 429,497 L 429,502 L 428,505 L 422,509 L 415,513 L 414,515 L 412,518 L 410,521 L 410,522 L 413,525 L 413,527 L 412,530 L 409,532 L 405,533 L 405,537 L 407,537 L 411,537 L 417,534 L 421,531 L 419,528 L 418,528 L 419,527 L 423,524 L 429,522 L 437,522 L 446,523 L 447,523 L 446,525 L 447,528 L 449,530 L 447,536 L 448,538 L 451,540 L 453,542 L 456,543 L 458,546 L 459,548 L 455,551 L 448,554 L 447,556 L 448,558 L 448,559 L 452,561 L 456,566 L 459,570 L 465,574 L 466,575 L 466,576 L 464,578 L 462,583 L 460,584 L 457,585 L 450,589 L 447,588 L 442,588 L 439,590 L 440,592 L 442,595 L 444,597 L 445,600 L 448,602 L 453,603 L 455,603 L 457,604 L 458,605 L 460,610 L 459,612 L 456,612 L 455,615 L 452,618 L 450,621 L 452,623 L 453,625 L 452,627 L 453,630 L 457,633 L 466,637 L 475,640 L 477,641 L 489,638 L 491,639 L 492,641 L 493,643 L 492,645 L 489,649 L 485,652 L 483,654 L 483,656 L 484,659 L 481,660 L 481,659 L 480,659 L 479,659 L 478,660 L 478,661 L 472,663 L 468,665 L 451,676 L 444,679 L 442,681 L 441,685 L 436,688 L 432,690 L 423,691 L 413,695 L 408,693 L 397,693 L 390,689 L 376,687 L 372,681 L 366,680 L 362,681 L 359,680 L 359,678 L 359,676 L 354,677 L 351,677 L 349,677 L 347,678 L 346,678 L 345,678 L 345,679 L 341,679 L 336,679 L 325,675 L 323,675 L 316,674 L 312,673 L 310,670 L 308,669 L 307,668 L 300,670 L 297,672 L 293,675 L 266,689 L 261,694 L 255,703 L 255,707 L 257,720 L 263,726 L 264,728 L 261,728 L 255,727 L 251,726 L 247,726 L 243,728 L 240,729 L 237,729 L 236,730 L 235,731 L 235,732 L 231,732 L 221,730 L 212,728 L 206,730 L 203,732 L 201,731 L 199,730 L 198,728 L 194,726 L 186,724 L 187,723 L 188,721 L 188,720 L 186,719 L 179,717 L 176,717 L 174,718 L 172,719 L 168,714 L 165,713 L 161,713 L 156,712 L 150,710 L 138,707 L 134,706 L 133,707 L 132,709 L 132,714 L 131,714 L 125,715 L 118,714 L 115,714 L 112,714 L 109,713 L 96,714 L 94,714 L 91,711 L 88,710 L 85,709 L 83,707 L 81,707 L 78,708 L 74,709 L 70,709 L 68,709 L 60,703 L 59,702 L 55,701 L 51,701 L 38,697 L 32,695 L 32,694 L 32,693 L 31,693 L 29,695 L 28,697 L 27,697 L 25,697 L 23,696 L 22,695 L 24,693 L 25,691 L 26,688 L 26,686 L 23,685 L 18,684 L 15,684 L 11,683 L 8,682 L 6,679 L 6,678 L 15,676 L 22,670 L 29,646 L 35,618 L 38,613 L 43,612 L 39,608 L 37,610 L 36,612 L 35,613 L 37,587 L 39,578 L 43,568 L 50,572 L 56,576 L 59,580 L 63,591 L 66,593 L 70,596 L 69,593 L 66,591 L 61,576 L 58,572 L 53,568 L 38,560 L 37,559 L 36,556 L 41,556 L 46,558 L 45,556 L 44,554 L 42,548 L 40,534 L 40,531 L 40,528 L 35,528 L 31,527 L 27,526 L 7,518 L 0,509 L -6,503 L -8,500 L -8,497 L -4,491 L -7,487 L -11,486 L -13,485 L -11,481 L -9,479 L -5,479 L 0,480 L 5,481 L 9,482 L -2,477 L -21,479 L -26,478 L -29,477 L -30,473 L -28,472 L -25,469 L -28,467 L -32,466 L -37,466 L -43,466 L -44,465 L -41,462 L -44,461 L -47,461 L -53,462 L -58,461 L -63,457 L -66,457 L -68,458 L -72,456 L -75,456 L -77,456 L -81,454 L -101,450 L -110,449 L -118,451 L -122,451 L -125,448 L -128,443 L -141,439 L -138,437 L -132,437 L -125,435 L -123,433 L -128,430 L -132,430 L -134,429 L -136,427 L -133,426 L -132,426 L -127,426 L -118,426 L -122,424 L -125,423 L -126,423 L -133,422 L -136,423 L -143,423 L -145,420 L -145,418 L -143,414 L -133,410 L -109,405 L -99,406 L -91,405 L -83,402 L -79,400 L -67,398 L -55,401 L -44,411 L -39,414 L -26,408 L -7,408 L -3,412 L -2,409 L 1,406 L 3,407 L 5,409 L 25,409 L 28,408 L 22,406 L 18,400 L 17,380 L 12,374 L 5,365 L 2,360 L 2,358 L 3,355 L 11,355 L 17,356 L 28,354 L 34,355 L 34,359 L 35,365 L 37,367 L 40,370 L 49,370 L 59,372 L 72,372 L 90,375 L 98,373 L 106,369 L 120,367 L 121,366 L 113,366 L 105,364 L 104,361 L 105,359 L 108,354 L 130,346 L 146,343 L 163,339 L 171,334 L 176,328 L 178,327 L 180,326 L 178,324 L 180,301 L 181,297 L 184,293 L 189,291 L 197,288 L 224,284 L 228,282 L 229,285 L 231,288 L 232,290 L 231,292 L 232,294 L 236,297 L 240,300 " />
</g>
<g id="europe_11" >
<path d="M 44,303 L 39,305 L 38,307 L 37,308 L 34,308 L 31,308 L 21,304 L 18,304 L 21,303 L 27,301 L 31,299 L 40,301 L 44,303 " />
<path d="M -60,-98 L -60,-94 L -60,-92 L -62,-91 L -66,-88 L -76,-84 L -94,-74 L -106,-69 L -107,-67 L -108,-64 L -101,-63 L -99,-62 L -100,-60 L -110,-55 L -113,-50 L -105,-50 L -99,-51 L -87,-54 L -75,-56 L -70,-57 L -59,-55 L -56,-55 L -52,-55 L -47,-56 L -16,-55 L -7,-56 L -1,-55 L 3,-52 L 7,-45 L 7,-44 L 4,-42 L 0,-38 L -4,-33 L -6,-31 L -6,-28 L -8,-25 L -17,-13 L -25,-6 L -29,-1 L -34,2 L -38,4 L -43,6 L -57,7 L -61,9 L -66,11 L -71,12 L -65,12 L -59,10 L -49,10 L -37,14 L -38,17 L -43,20 L -54,20 L -64,26 L -68,28 L -73,29 L -79,29 L -90,27 L -95,25 L -91,28 L -86,30 L -57,33 L -55,32 L -46,29 L -34,29 L -11,35 L -4,40 L 4,47 L 10,50 L 13,52 L 16,56 L 20,68 L 25,80 L 32,93 L 35,97 L 39,100 L 60,105 L 64,107 L 72,113 L 79,119 L 87,123 L 94,127 L 91,129 L 88,132 L 90,136 L 93,140 L 99,146 L 104,153 L 102,152 L 100,152 L 98,152 L 95,151 L 90,149 L 85,147 L 75,148 L 69,147 L 65,147 L 74,149 L 83,149 L 105,160 L 112,167 L 117,176 L 114,180 L 109,183 L 105,186 L 101,189 L 113,194 L 116,194 L 118,194 L 121,192 L 125,188 L 127,186 L 135,186 L 141,186 L 147,187 L 153,187 L 164,188 L 170,190 L 184,197 L 187,201 L 188,206 L 188,212 L 186,217 L 183,222 L 182,228 L 180,230 L 179,231 L 171,236 L 166,238 L 164,237 L 162,237 L 162,239 L 164,241 L 164,244 L 160,246 L 155,247 L 148,246 L 137,250 L 145,252 L 146,254 L 144,258 L 140,260 L 134,260 L 129,261 L 125,262 L 120,263 L 126,262 L 129,263 L 132,267 L 134,267 L 144,269 L 151,269 L 163,268 L 169,268 L 171,269 L 171,271 L 170,278 L 169,279 L 152,285 L 149,289 L 148,291 L 138,291 L 134,293 L 126,295 L 120,297 L 114,299 L 109,300 L 88,297 L 75,297 L 58,299 L 54,299 L 47,297 L 40,295 L 32,295 L 26,293 L 30,297 L 21,300 L 16,301 L 12,301 L 3,302 L -5,301 L -4,304 L -1,306 L -3,307 L -5,308 L -21,306 L -24,306 L -26,308 L -31,307 L -37,304 L -43,302 L -50,302 L -55,302 L -75,306 L -80,311 L -82,317 L -85,322 L -90,326 L -95,327 L -101,324 L -111,321 L -115,319 L -116,319 L -117,319 L -121,320 L -126,320 L -132,321 L -143,324 L -148,326 L -158,330 L -160,332 L -164,337 L -169,338 L -174,334 L -180,333 L -186,334 L -189,336 L -191,335 L -191,332 L -187,329 L -175,326 L -165,320 L -160,316 L -158,313 L -155,312 L -152,311 L -150,309 L -136,299 L -135,297 L -134,292 L -133,288 L -121,286 L -116,278 L -114,277 L -98,275 L -86,276 L -74,277 L -68,277 L -62,277 L -57,275 L -49,266 L -44,263 L -39,260 L -34,256 L -26,249 L -31,252 L -38,255 L -41,257 L -54,260 L -59,262 L -68,267 L -70,267 L -84,266 L -94,260 L -100,257 L -103,257 L -106,257 L -112,258 L -118,258 L -115,255 L -111,253 L -120,252 L -123,251 L -126,249 L -133,249 L -137,249 L -143,252 L -152,255 L -164,251 L -166,249 L -166,246 L -168,243 L -171,242 L -167,239 L -162,236 L -151,234 L -135,228 L -126,226 L -117,222 L -114,219 L -111,216 L -109,212 L -105,208 L -109,207 L -110,205 L -110,202 L -108,200 L -110,197 L -112,194 L -112,191 L -111,189 L -118,189 L -124,190 L -130,192 L -136,194 L -141,195 L -141,193 L -139,190 L -133,187 L -127,184 L -125,182 L -123,179 L -120,177 L -112,173 L -96,169 L -94,169 L -88,169 L -82,169 L -77,167 L -71,167 L -60,171 L -63,164 L -58,163 L -50,169 L -48,170 L -42,169 L -44,168 L -47,167 L -50,167 L -53,165 L -58,158 L -58,154 L -54,150 L -51,147 L -54,146 L -56,145 L -57,141 L -56,138 L -50,135 L -48,131 L -47,126 L -48,124 L -54,124 L -57,125 L -60,127 L -63,127 L -71,121 L -76,117 L -84,109 L -85,104 L -79,93 L -68,87 L -57,84 L -59,84 L -77,84 L -83,84 L -88,87 L -92,88 L -95,88 L -98,90 L -101,92 L -104,93 L -110,93 L -113,93 L -115,92 L -117,90 L -119,90 L -122,90 L -127,93 L -133,94 L -139,93 L -148,90 L -150,91 L -152,93 L -153,98 L -159,94 L -164,89 L -166,86 L -166,82 L -163,81 L -160,82 L -156,74 L -146,63 L -143,60 L -141,56 L -141,53 L -143,51 L -152,46 L -152,42 L -151,37 L -148,34 L -148,33 L -136,34 L -141,32 L -149,28 L -149,26 L -147,22 L -148,23 L -150,24 L -154,29 L -156,30 L -162,31 L -163,33 L -164,34 L -168,34 L -168,36 L -169,36 L -170,34 L -170,30 L -169,27 L -167,24 L -157,18 L -162,20 L -172,26 L -177,29 L -179,31 L -179,32 L -179,33 L -177,39 L -177,42 L -186,62 L -188,64 L -189,65 L -191,65 L -195,65 L -197,63 L -197,61 L -196,59 L -192,50 L -191,47 L -189,45 L -183,41 L -183,40 L -187,41 L -188,41 L -189,40 L -189,28 L -186,23 L -185,17 L -183,12 L -180,9 L -178,4 L -174,2 L -174,0 L -170,-4 L -167,-8 L -169,-7 L -186,1 L -191,3 L -197,3 L -202,1 L -206,0 L -207,-4 L -212,-4 L -216,-5 L -216,-6 L -211,-8 L -203,-9 L -195,-12 L -202,-15 L -201,-16 L -195,-18 L -188,-25 L -186,-32 L -190,-35 L -191,-37 L -198,-39 L -199,-42 L -199,-44 L -196,-46 L -193,-47 L -187,-48 L -192,-49 L -194,-51 L -196,-53 L -196,-54 L -193,-60 L -192,-62 L -189,-65 L -175,-65 L -174,-66 L -172,-67 L -166,-65 L -167,-67 L -178,-74 L -179,-75 L -175,-79 L -175,-81 L -176,-82 L -175,-84 L -171,-84 L -161,-84 L -158,-85 L -159,-87 L -162,-89 L -162,-91 L -161,-93 L -161,-97 L -161,-98 L -158,-101 L -156,-101 L -154,-102 L -148,-101 L -145,-100 L -143,-98 L -141,-98 L -134,-100 L -131,-101 L -128,-98 L -116,-100 L -99,-101 L -89,-103 L -78,-103 L -68,-105 L -57,-104 L -57,-103 L -58,-102 L -60,-98 " />
</g>
<g id="europe_12" >
<path d="M 961,685 L 953,685 L 946,684 L 943,682 L 943,681 L 944,679 L 952,679 L 964,680 L 967,682 L 966,683 L 961,685 " />
<path d="M 889,648 L 892,652 L 889,651 L 885,649 L 883,647 L 889,648 " />
<path d="M 881,644 L 882,646 L 876,642 L 873,640 L 873,639 L 881,644 " />
<path d="M 879,651 L 880,652 L 877,652 L 876,652 L 864,641 L 863,638 L 867,641 L 879,651 " />
<path d="M 879,630 L 878,631 L 874,629 L 871,627 L 869,625 L 865,622 L 864,619 L 857,613 L 856,611 L 859,614 L 862,615 L 864,616 L 870,620 L 875,625 L 882,629 L 880,629 L 879,630 " />
<path d="M 861,608 L 862,610 L 857,608 L 853,608 L 852,606 L 853,605 L 854,603 L 857,604 L 857,605 L 861,608 " />
<path d="M 843,613 L 843,615 L 840,613 L 838,608 L 834,601 L 834,599 L 836,597 L 836,595 L 833,588 L 835,587 L 836,587 L 837,592 L 838,594 L 842,597 L 841,602 L 842,610 L 843,611 L 843,613 " />
<path d="M 860,597 L 853,598 L 850,596 L 850,594 L 844,594 L 841,592 L 841,591 L 845,588 L 847,584 L 850,587 L 854,591 L 856,592 L 860,597 " />
<path d="M 959,523 L 966,527 L 969,531 L 974,535 L 980,537 L 985,540 L 988,544 L 993,547 L 999,547 L 1003,549 L 1005,551 L 1009,553 L 1014,555 L 1022,556 L 1037,556 L 1039,556 L 1042,557 L 1046,556 L 1051,555 L 1053,554 L 1058,549 L 1061,549 L 1066,549 L 1070,548 L 1070,549 L 1070,551 L 1067,553 L 1070,556 L 1072,562 L 1071,565 L 1073,567 L 1078,569 L 1077,570 L 1075,572 L 1075,575 L 1080,578 L 1089,581 L 1092,582 L 1093,583 L 1095,584 L 1096,585 L 1096,586 L 1095,587 L 1091,587 L 1086,587 L 1082,586 L 1082,587 L 1082,588 L 1078,589 L 1080,597 L 1079,599 L 1078,600 L 1077,600 L 1076,600 L 1075,601 L 1075,602 L 1072,603 L 1067,602 L 1064,600 L 1064,598 L 1064,597 L 1062,594 L 1058,592 L 1049,591 L 1045,590 L 1042,589 L 1038,589 L 1035,589 L 1031,590 L 1023,588 L 1021,590 L 1017,592 L 1014,592 L 1008,588 L 1006,587 L 1000,589 L 998,590 L 996,589 L 989,587 L 986,587 L 983,588 L 979,587 L 968,581 L 961,586 L 948,585 L 944,587 L 940,593 L 936,595 L 933,594 L 929,592 L 922,586 L 919,585 L 915,585 L 912,585 L 910,586 L 909,595 L 907,603 L 907,608 L 915,612 L 923,619 L 926,620 L 928,623 L 930,629 L 932,636 L 936,641 L 940,644 L 945,647 L 951,652 L 956,657 L 958,658 L 967,665 L 977,672 L 985,674 L 986,676 L 986,681 L 987,683 L 993,688 L 1004,696 L 1006,698 L 1006,700 L 1005,701 L 1002,702 L 1000,700 L 989,693 L 979,688 L 967,678 L 952,675 L 941,671 L 935,671 L 928,672 L 923,673 L 920,672 L 918,669 L 918,667 L 918,665 L 912,661 L 903,657 L 895,652 L 879,638 L 876,634 L 879,633 L 881,633 L 884,632 L 888,632 L 894,633 L 889,630 L 883,627 L 868,616 L 864,611 L 864,605 L 865,597 L 862,592 L 851,584 L 846,580 L 838,578 L 834,578 L 832,581 L 830,587 L 823,596 L 820,599 L 816,604 L 813,604 L 811,604 L 805,596 L 799,590 L 798,587 L 798,584 L 793,571 L 796,569 L 798,571 L 812,574 L 815,573 L 817,571 L 817,570 L 818,570 L 822,571 L 826,571 L 833,571 L 837,571 L 840,570 L 844,565 L 845,563 L 847,562 L 848,562 L 849,564 L 851,566 L 856,570 L 859,571 L 862,572 L 864,570 L 867,570 L 875,573 L 882,573 L 887,572 L 886,570 L 884,568 L 884,566 L 884,564 L 888,563 L 888,562 L 883,559 L 884,558 L 893,555 L 902,553 L 903,551 L 904,549 L 904,545 L 904,542 L 900,539 L 900,537 L 901,535 L 902,534 L 906,533 L 910,532 L 913,531 L 917,530 L 921,529 L 924,525 L 926,525 L 933,525 L 934,524 L 933,519 L 934,518 L 936,518 L 937,517 L 943,517 L 947,519 L 950,519 L 959,523 " />
</g>
<g id="europe_13" >
<path d="M 1236,421 L 1241,420 L 1242,421 L 1243,423 L 1244,425 L 1245,427 L 1247,428 L 1251,429 L 1256,431 L 1259,435 L 1264,436 L 1265,436 L 1269,436 L 1269,437 L 1272,438 L 1273,440 L 1273,442 L 1273,444 L 1274,444 L 1273,445 L 1264,452 L 1260,454 L 1258,454 L 1254,453 L 1251,454 L 1247,455 L 1244,456 L 1242,457 L 1239,461 L 1235,464 L 1231,465 L 1229,467 L 1229,473 L 1227,474 L 1224,476 L 1222,477 L 1218,486 L 1215,489 L 1212,491 L 1211,493 L 1211,495 L 1208,499 L 1203,504 L 1202,506 L 1203,508 L 1199,511 L 1196,512 L 1194,513 L 1193,515 L 1191,519 L 1191,521 L 1191,523 L 1188,524 L 1187,526 L 1186,529 L 1184,530 L 1180,532 L 1169,531 L 1165,532 L 1164,533 L 1164,534 L 1163,535 L 1160,537 L 1158,537 L 1153,536 L 1141,537 L 1139,539 L 1137,538 L 1135,537 L 1123,536 L 1118,537 L 1112,536 L 1107,536 L 1102,536 L 1099,540 L 1097,541 L 1095,542 L 1092,543 L 1089,544 L 1086,545 L 1083,545 L 1080,543 L 1078,544 L 1077,545 L 1076,546 L 1071,548 L 1070,548 L 1066,549 L 1061,549 L 1058,549 L 1053,554 L 1051,555 L 1046,556 L 1042,557 L 1039,556 L 1037,556 L 1022,556 L 1014,555 L 1009,553 L 1005,551 L 1003,549 L 999,547 L 993,547 L 988,544 L 985,540 L 980,537 L 974,535 L 969,531 L 966,527 L 959,523 L 950,519 L 947,519 L 947,517 L 942,513 L 940,511 L 941,509 L 940,508 L 938,507 L 937,504 L 937,502 L 935,500 L 926,500 L 934,494 L 938,493 L 943,493 L 944,493 L 945,492 L 945,490 L 946,488 L 946,487 L 946,486 L 943,485 L 942,481 L 943,480 L 945,479 L 943,474 L 944,472 L 947,472 L 950,471 L 953,470 L 954,468 L 956,465 L 954,462 L 943,459 L 942,458 L 945,457 L 948,456 L 949,454 L 951,454 L 954,455 L 959,458 L 961,458 L 963,457 L 965,457 L 971,457 L 976,457 L 975,454 L 975,452 L 974,450 L 974,448 L 976,447 L 977,443 L 980,441 L 981,441 L 986,441 L 988,442 L 989,442 L 997,447 L 1005,451 L 1011,453 L 1021,453 L 1031,454 L 1048,453 L 1061,452 L 1062,451 L 1064,449 L 1062,447 L 1062,445 L 1064,441 L 1071,439 L 1089,438 L 1099,436 L 1101,433 L 1104,431 L 1107,430 L 1111,431 L 1117,434 L 1121,435 L 1124,434 L 1133,430 L 1144,426 L 1151,416 L 1152,414 L 1159,413 L 1171,413 L 1177,415 L 1181,416 L 1188,415 L 1197,413 L 1201,413 L 1204,415 L 1207,416 L 1209,418 L 1210,420 L 1211,421 L 1212,422 L 1215,424 L 1217,424 L 1235,421 L 1236,421 " />
</g>
<g id="europe_14" >
<path d="M 722,494 L 723,496 L 729,501 L 732,505 L 735,508 L 740,510 L 746,511 L 751,511 L 757,512 L 775,515 L 785,516 L 792,516 L 803,518 L 802,521 L 799,521 L 796,523 L 791,525 L 787,528 L 786,531 L 787,533 L 788,533 L 790,533 L 792,533 L 795,534 L 799,535 L 799,536 L 798,537 L 795,540 L 792,542 L 791,544 L 792,545 L 793,546 L 798,545 L 798,546 L 796,553 L 797,554 L 801,555 L 804,557 L 809,561 L 812,564 L 810,565 L 807,566 L 804,565 L 807,563 L 799,556 L 795,556 L 791,559 L 777,556 L 775,557 L 773,560 L 768,563 L 762,564 L 754,568 L 747,570 L 741,572 L 737,572 L 743,568 L 741,568 L 733,570 L 729,573 L 728,577 L 727,583 L 730,585 L 735,594 L 742,597 L 741,601 L 739,604 L 735,606 L 732,604 L 730,604 L 728,610 L 731,625 L 736,636 L 740,640 L 751,647 L 762,651 L 782,663 L 793,667 L 796,669 L 802,678 L 808,689 L 814,706 L 819,714 L 827,724 L 846,737 L 863,747 L 878,753 L 890,754 L 919,753 L 924,754 L 929,755 L 931,759 L 929,762 L 923,765 L 916,769 L 916,775 L 921,779 L 949,789 L 978,798 L 986,803 L 997,809 L 1021,819 L 1025,824 L 1040,834 L 1047,841 L 1049,847 L 1045,853 L 1044,858 L 1041,862 L 1035,860 L 1028,856 L 1017,838 L 997,836 L 993,835 L 985,832 L 985,830 L 983,828 L 981,827 L 974,826 L 969,829 L 962,836 L 955,846 L 948,860 L 948,866 L 952,871 L 963,874 L 972,879 L 978,884 L 979,897 L 981,904 L 977,908 L 970,907 L 960,910 L 953,914 L 950,919 L 950,930 L 949,934 L 935,943 L 928,951 L 926,954 L 924,958 L 907,959 L 903,954 L 902,946 L 905,942 L 912,940 L 916,931 L 915,924 L 917,921 L 919,919 L 924,918 L 931,916 L 932,907 L 926,903 L 925,897 L 922,886 L 913,872 L 909,859 L 905,853 L 900,850 L 890,850 L 885,849 L 867,840 L 866,839 L 866,837 L 869,833 L 867,829 L 865,824 L 861,820 L 857,818 L 849,820 L 847,820 L 842,820 L 838,822 L 836,822 L 842,815 L 840,814 L 834,811 L 826,810 L 823,810 L 822,812 L 820,811 L 820,808 L 811,795 L 804,789 L 801,788 L 795,789 L 785,787 L 779,786 L 776,787 L 771,789 L 769,788 L 768,786 L 759,780 L 748,777 L 726,760 L 719,753 L 705,746 L 697,735 L 689,731 L 679,728 L 677,729 L 674,730 L 671,730 L 669,728 L 671,727 L 673,726 L 672,722 L 661,712 L 654,709 L 652,706 L 650,704 L 649,702 L 646,701 L 643,701 L 639,700 L 639,695 L 640,691 L 639,688 L 635,679 L 629,672 L 625,655 L 622,650 L 615,646 L 599,642 L 576,631 L 571,630 L 557,626 L 549,625 L 538,629 L 525,640 L 514,651 L 510,653 L 496,657 L 484,659 L 483,656 L 483,654 L 485,652 L 489,649 L 492,645 L 493,643 L 492,641 L 491,639 L 489,638 L 477,641 L 475,640 L 466,637 L 457,633 L 453,630 L 452,627 L 453,625 L 452,623 L 450,621 L 452,618 L 455,615 L 456,612 L 459,612 L 460,610 L 458,605 L 457,604 L 455,603 L 453,603 L 448,602 L 445,600 L 444,597 L 442,595 L 440,592 L 439,590 L 442,588 L 447,588 L 450,589 L 457,585 L 460,584 L 462,583 L 464,578 L 466,576 L 466,575 L 465,574 L 459,570 L 456,566 L 452,561 L 448,559 L 448,558 L 447,556 L 448,554 L 455,551 L 459,548 L 461,549 L 465,550 L 475,549 L 481,547 L 486,545 L 489,546 L 499,548 L 502,547 L 509,543 L 510,542 L 516,536 L 516,535 L 514,531 L 515,530 L 522,527 L 525,524 L 529,521 L 531,521 L 532,522 L 532,524 L 532,530 L 533,532 L 539,536 L 543,539 L 552,540 L 552,541 L 550,544 L 555,548 L 556,551 L 559,553 L 562,552 L 563,551 L 562,548 L 561,545 L 561,544 L 562,542 L 565,539 L 572,533 L 574,530 L 574,524 L 574,520 L 577,519 L 582,520 L 583,520 L 584,522 L 586,526 L 588,529 L 591,529 L 594,529 L 602,527 L 607,525 L 609,526 L 611,527 L 615,532 L 617,533 L 619,532 L 620,531 L 619,529 L 618,526 L 617,523 L 615,521 L 614,519 L 616,516 L 617,513 L 620,513 L 623,512 L 626,515 L 631,516 L 635,516 L 635,514 L 635,512 L 633,510 L 633,507 L 636,500 L 637,500 L 642,500 L 648,501 L 652,504 L 655,504 L 660,505 L 664,504 L 665,503 L 667,500 L 671,496 L 676,494 L 686,494 L 691,493 L 696,493 L 700,494 L 704,494 L 714,491 L 724,489 L 725,489 L 726,490 L 724,491 L 722,494 " />
<path d="M 736,650 L 737,653 L 740,652 L 742,650 L 741,648 L 738,648 L 736,650 " />
</g>
<g id="europe_15" >
<path d="M 1207,737 L 1198,739 L 1195,740 L 1193,743 L 1193,745 L 1191,745 L 1188,743 L 1185,741 L 1181,741 L 1166,746 L 1165,749 L 1165,755 L 1164,756 L 1162,757 L 1156,757 L 1156,756 L 1156,754 L 1156,749 L 1153,741 L 1151,738 L 1147,736 L 1144,734 L 1139,732 L 1136,728 L 1132,723 L 1130,722 L 1130,721 L 1131,717 L 1130,715 L 1128,712 L 1129,711 L 1133,711 L 1136,711 L 1137,709 L 1144,707 L 1151,706 L 1151,705 L 1150,702 L 1151,701 L 1158,697 L 1160,695 L 1160,693 L 1159,692 L 1158,689 L 1158,688 L 1162,687 L 1166,685 L 1168,685 L 1169,686 L 1169,687 L 1170,690 L 1172,691 L 1176,693 L 1181,694 L 1184,696 L 1189,701 L 1190,703 L 1194,705 L 1199,707 L 1198,711 L 1212,715 L 1215,715 L 1216,715 L 1216,716 L 1215,719 L 1210,728 L 1209,730 L 1205,732 L 1204,733 L 1206,735 L 1207,737 " />
</g>
<g id="europe_16" >
<path d="M 591,490 L 587,490 L 586,490 L 586,488 L 586,484 L 588,479 L 589,480 L 589,481 L 589,482 L 590,483 L 590,485 L 592,486 L 592,487 L 592,489 L 591,490 " />
</g>
<g id="europe_17" >
<path d="M 1179,64 L 1176,67 L 1173,67 L 1179,61 L 1181,57 L 1182,52 L 1184,50 L 1184,53 L 1183,57 L 1179,64 " />
<path d="M 1380,14 L 1387,20 L 1394,21 L 1413,24 L 1417,25 L 1428,31 L 1435,33 L 1439,36 L 1446,40 L 1449,43 L 1455,46 L 1463,47 L 1465,47 L 1465,50 L 1464,54 L 1461,59 L 1459,63 L 1458,64 L 1460,65 L 1470,66 L 1474,67 L 1475,68 L 1473,69 L 1469,70 L 1468,71 L 1466,75 L 1450,75 L 1448,75 L 1447,77 L 1446,79 L 1444,82 L 1440,84 L 1433,84 L 1428,86 L 1424,90 L 1421,96 L 1421,100 L 1421,103 L 1421,104 L 1419,106 L 1415,109 L 1413,114 L 1412,116 L 1412,117 L 1415,117 L 1419,118 L 1422,120 L 1423,122 L 1423,124 L 1422,125 L 1418,126 L 1413,126 L 1410,125 L 1409,124 L 1410,122 L 1409,120 L 1407,118 L 1402,120 L 1398,120 L 1393,122 L 1389,125 L 1386,126 L 1377,126 L 1374,127 L 1373,133 L 1371,134 L 1364,134 L 1357,137 L 1348,139 L 1344,137 L 1342,136 L 1337,136 L 1332,137 L 1329,136 L 1325,136 L 1318,138 L 1309,137 L 1305,136 L 1305,135 L 1305,133 L 1305,129 L 1304,126 L 1300,123 L 1295,121 L 1289,119 L 1285,118 L 1283,118 L 1282,116 L 1281,115 L 1279,114 L 1275,113 L 1272,113 L 1269,115 L 1266,112 L 1264,108 L 1264,104 L 1266,101 L 1272,90 L 1272,88 L 1267,85 L 1261,83 L 1258,79 L 1247,78 L 1236,79 L 1233,78 L 1223,77 L 1213,74 L 1206,72 L 1201,70 L 1198,68 L 1193,68 L 1190,68 L 1188,64 L 1190,58 L 1187,50 L 1181,40 L 1181,29 L 1180,27 L 1194,21 L 1211,14 L 1215,14 L 1231,10 L 1234,9 L 1248,10 L 1259,11 L 1269,11 L 1274,10 L 1279,11 L 1283,14 L 1287,13 L 1291,11 L 1312,13 L 1317,13 L 1322,13 L 1332,15 L 1338,17 L 1351,16 L 1356,16 L 1359,15 L 1368,11 L 1372,10 L 1375,9 L 1378,10 L 1380,14 " />
</g>
<g id="europe_18" >
<path d="M 413,333 L 412,334 L 413,337 L 414,340 L 417,343 L 420,345 L 424,347 L 430,349 L 432,349 L 432,351 L 432,354 L 430,355 L 428,357 L 426,359 L 425,364 L 425,367 L 421,366 L 419,365 L 416,364 L 413,365 L 411,367 L 407,367 L 405,367 L 403,366 L 402,365 L 398,364 L 396,362 L 397,362 L 399,360 L 400,359 L 401,357 L 397,352 L 396,351 L 393,349 L 393,347 L 394,346 L 393,345 L 394,343 L 396,341 L 398,338 L 400,334 L 406,330 L 410,331 L 411,331 L 413,332 L 413,333 " />
</g>
<g id="europe_19" >
<path d="M 1504,-47 L 1510,-47 L 1512,-46 L 1514,-42 L 1521,-39 L 1527,-36 L 1529,-35 L 1529,-33 L 1529,-30 L 1528,-29 L 1525,-27 L 1523,-23 L 1523,-19 L 1519,-12 L 1520,-12 L 1528,-13 L 1530,-12 L 1531,-11 L 1532,-7 L 1535,-5 L 1537,-2 L 1538,0 L 1543,2 L 1543,4 L 1546,10 L 1547,14 L 1548,17 L 1546,21 L 1545,23 L 1544,23 L 1539,24 L 1532,26 L 1522,33 L 1519,35 L 1516,40 L 1516,41 L 1510,40 L 1508,40 L 1502,40 L 1489,39 L 1484,40 L 1477,45 L 1474,46 L 1467,47 L 1465,47 L 1463,47 L 1455,46 L 1449,43 L 1446,40 L 1439,36 L 1435,33 L 1428,31 L 1417,25 L 1413,24 L 1394,21 L 1387,20 L 1380,14 L 1378,10 L 1375,9 L 1372,10 L 1368,11 L 1359,15 L 1356,16 L 1351,16 L 1338,17 L 1332,15 L 1322,13 L 1317,13 L 1312,13 L 1291,11 L 1287,13 L 1283,14 L 1279,11 L 1274,10 L 1269,11 L 1259,11 L 1248,10 L 1234,9 L 1231,10 L 1215,14 L 1211,14 L 1194,21 L 1180,27 L 1179,17 L 1179,-1 L 1181,-11 L 1191,-17 L 1196,-21 L 1199,-27 L 1199,-32 L 1201,-37 L 1215,-49 L 1226,-51 L 1241,-54 L 1258,-57 L 1261,-53 L 1263,-51 L 1283,-40 L 1288,-37 L 1295,-25 L 1314,-19 L 1328,-20 L 1335,-23 L 1346,-29 L 1352,-33 L 1353,-37 L 1351,-53 L 1347,-60 L 1349,-65 L 1351,-65 L 1356,-67 L 1372,-71 L 1375,-71 L 1379,-72 L 1389,-75 L 1392,-73 L 1395,-71 L 1397,-71 L 1397,-72 L 1397,-73 L 1398,-74 L 1401,-73 L 1413,-68 L 1417,-67 L 1420,-67 L 1424,-65 L 1434,-63 L 1436,-62 L 1436,-60 L 1446,-54 L 1450,-51 L 1459,-48 L 1462,-47 L 1477,-50 L 1481,-51 L 1484,-51 L 1488,-50 L 1496,-48 L 1503,-47 L 1504,-47 " />
</g>
<g id="europe_20" >
<path d="M 481,660 L 478,661 L 478,660 L 479,659 L 480,659 L 481,659 L 481,660 " />
</g>
<g id="europe_21" >
<path d="M 1085,671 L 1085,672 L 1085,674 L 1086,675 L 1090,677 L 1096,681 L 1103,688 L 1107,690 L 1109,690 L 1115,693 L 1119,694 L 1124,694 L 1135,700 L 1140,702 L 1144,704 L 1144,706 L 1144,707 L 1137,709 L 1136,711 L 1133,711 L 1129,711 L 1128,712 L 1130,715 L 1131,717 L 1130,721 L 1130,722 L 1129,722 L 1123,724 L 1119,725 L 1116,725 L 1114,724 L 1113,723 L 1113,719 L 1112,717 L 1111,717 L 1109,718 L 1106,721 L 1103,725 L 1099,729 L 1096,732 L 1092,737 L 1089,741 L 1092,743 L 1094,746 L 1093,749 L 1094,750 L 1093,754 L 1093,757 L 1085,753 L 1081,747 L 1070,737 L 1056,730 L 1055,729 L 1056,728 L 1057,727 L 1054,727 L 1052,728 L 1050,728 L 1048,725 L 1046,723 L 1046,721 L 1047,721 L 1048,720 L 1051,718 L 1052,717 L 1052,715 L 1048,710 L 1047,706 L 1046,700 L 1047,699 L 1049,698 L 1056,697 L 1056,692 L 1056,691 L 1057,689 L 1058,687 L 1062,684 L 1067,681 L 1070,681 L 1072,681 L 1074,684 L 1076,683 L 1077,680 L 1074,676 L 1072,673 L 1072,671 L 1074,671 L 1076,671 L 1079,672 L 1081,671 L 1083,671 L 1085,671 " />
</g>
<g id="europe_22" >
<path d="M 316,267 L 315,269 L 313,272 L 306,275 L 299,277 L 295,276 L 293,275 L 292,274 L 288,273 L 283,273 L 279,274 L 277,275 L 275,275 L 273,274 L 272,272 L 271,268 L 275,267 L 283,267 L 290,268 L 298,269 L 305,267 L 310,269 L 316,267 " />
<path d="M 301,249 L 307,252 L 308,253 L 308,254 L 302,255 L 295,252 L 290,252 L 289,251 L 289,250 L 293,249 L 301,249 " />
<path d="M 350,181 L 345,185 L 341,184 L 341,183 L 342,180 L 350,175 L 350,181 " />
<path d="M 361,169 L 352,172 L 351,172 L 357,169 L 361,169 " />
<path d="M 316,267 L 311,267 L 304,265 L 295,266 L 288,264 L 283,264 L 279,262 L 276,260 L 278,258 L 281,257 L 291,257 L 298,258 L 311,264 L 315,264 L 318,263 L 316,261 L 313,261 L 308,259 L 304,257 L 313,256 L 312,255 L 311,253 L 301,246 L 303,244 L 305,240 L 308,236 L 311,235 L 315,233 L 323,226 L 329,220 L 333,213 L 339,194 L 341,191 L 344,188 L 347,188 L 350,189 L 359,187 L 374,180 L 378,174 L 383,171 L 400,165 L 410,164 L 425,163 L 436,162 L 449,162 L 454,165 L 457,168 L 461,169 L 468,170 L 468,175 L 468,185 L 468,186 L 464,190 L 461,198 L 460,202 L 459,203 L 445,203 L 443,204 L 443,205 L 444,206 L 444,208 L 442,209 L 443,210 L 445,212 L 450,213 L 454,213 L 457,213 L 458,214 L 460,216 L 460,219 L 459,222 L 457,225 L 451,229 L 448,230 L 445,231 L 444,232 L 444,233 L 444,234 L 448,237 L 448,238 L 447,239 L 445,241 L 433,243 L 429,243 L 426,245 L 425,245 L 422,244 L 415,242 L 413,243 L 412,243 L 407,244 L 404,246 L 404,248 L 410,254 L 411,255 L 412,257 L 414,259 L 417,262 L 417,264 L 417,266 L 415,269 L 411,276 L 411,277 L 411,278 L 413,278 L 414,279 L 414,280 L 405,284 L 404,285 L 400,285 L 400,286 L 400,287 L 401,288 L 405,289 L 407,290 L 409,292 L 407,300 L 396,300 L 394,300 L 391,299 L 390,297 L 388,295 L 389,294 L 393,291 L 394,290 L 394,289 L 394,288 L 398,283 L 398,281 L 396,279 L 394,279 L 387,277 L 383,275 L 382,273 L 380,273 L 378,273 L 371,274 L 367,273 L 361,270 L 359,266 L 359,264 L 357,263 L 355,264 L 353,266 L 348,267 L 346,266 L 346,265 L 346,264 L 344,263 L 343,262 L 337,266 L 334,266 L 331,264 L 330,263 L 327,264 L 324,265 L 325,268 L 323,269 L 320,269 L 316,267 " />
<path d="M 372,165 L 367,165 L 365,164 L 377,162 L 384,162 L 385,162 L 372,165 " />
<path d="M 403,161 L 393,162 L 390,161 L 389,161 L 392,160 L 401,160 L 403,161 " />
<path d="M 424,158 L 417,160 L 415,160 L 416,159 L 422,158 L 424,158 " />
<path d="M 445,155 L 440,155 L 441,153 L 446,152 L 448,152 L 445,155 " />
</g>
<g id="europe_23" >
<path d="M 1106,110 L 1108,110 L 1123,111 L 1137,112 L 1161,112 L 1185,113 L 1210,114 L 1238,115 L 1267,115 L 1269,115 L 1272,113 L 1275,113 L 1279,114 L 1281,115 L 1282,116 L 1283,118 L 1285,118 L 1289,119 L 1295,121 L 1300,123 L 1304,126 L 1305,129 L 1305,133 L 1305,135 L 1305,136 L 1311,154 L 1321,171 L 1325,179 L 1326,183 L 1327,189 L 1328,194 L 1328,196 L 1327,200 L 1324,202 L 1305,208 L 1302,209 L 1296,214 L 1291,219 L 1290,220 L 1290,221 L 1291,223 L 1297,225 L 1304,227 L 1306,229 L 1311,231 L 1313,232 L 1314,234 L 1314,237 L 1312,242 L 1313,246 L 1310,248 L 1309,251 L 1308,256 L 1312,261 L 1314,264 L 1316,267 L 1314,269 L 1315,271 L 1317,274 L 1325,281 L 1329,288 L 1331,290 L 1337,294 L 1337,295 L 1335,297 L 1333,297 L 1332,297 L 1331,298 L 1332,300 L 1334,302 L 1337,307 L 1337,311 L 1335,313 L 1332,315 L 1331,318 L 1317,319 L 1314,322 L 1307,327 L 1302,330 L 1294,335 L 1282,344 L 1278,348 L 1275,351 L 1265,359 L 1263,362 L 1263,365 L 1266,372 L 1267,375 L 1266,378 L 1265,380 L 1265,381 L 1268,383 L 1273,386 L 1273,387 L 1272,388 L 1271,389 L 1265,388 L 1259,386 L 1257,386 L 1254,386 L 1240,382 L 1230,379 L 1229,377 L 1228,375 L 1224,372 L 1214,370 L 1211,369 L 1196,368 L 1189,368 L 1185,369 L 1182,369 L 1178,373 L 1175,374 L 1171,374 L 1167,373 L 1164,371 L 1158,370 L 1154,371 L 1151,370 L 1148,370 L 1147,370 L 1145,370 L 1142,371 L 1139,373 L 1135,374 L 1132,376 L 1129,381 L 1122,379 L 1120,380 L 1116,380 L 1114,380 L 1114,378 L 1116,376 L 1115,374 L 1115,371 L 1113,370 L 1109,370 L 1107,369 L 1107,368 L 1105,367 L 1102,364 L 1100,360 L 1098,359 L 1095,361 L 1091,363 L 1088,364 L 1083,370 L 1073,370 L 1073,367 L 1072,365 L 1066,364 L 1066,362 L 1065,359 L 1054,351 L 1053,348 L 1053,347 L 1053,345 L 1050,344 L 1042,342 L 1039,343 L 1037,342 L 1034,341 L 1029,339 L 1028,338 L 1026,337 L 1025,337 L 1024,338 L 1023,339 L 1017,340 L 1015,340 L 1013,338 L 1011,336 L 1007,334 L 1004,333 L 1003,332 L 1003,331 L 1009,329 L 1010,327 L 1009,323 L 1008,323 L 1006,324 L 1001,325 L 996,326 L 994,326 L 980,319 L 971,317 L 966,317 L 968,321 L 972,325 L 972,327 L 967,328 L 964,329 L 961,331 L 958,333 L 956,334 L 954,333 L 951,332 L 946,326 L 939,321 L 938,320 L 936,320 L 933,318 L 932,317 L 933,315 L 935,314 L 939,313 L 940,312 L 941,311 L 942,309 L 939,307 L 935,305 L 924,306 L 921,307 L 919,306 L 918,304 L 915,304 L 912,302 L 907,301 L 903,300 L 893,298 L 890,298 L 888,297 L 886,295 L 884,293 L 883,289 L 876,288 L 869,287 L 869,291 L 869,293 L 864,294 L 860,295 L 860,294 L 865,287 L 868,282 L 870,274 L 867,268 L 866,265 L 865,264 L 855,260 L 855,259 L 856,255 L 855,253 L 853,251 L 850,248 L 849,245 L 853,241 L 854,238 L 855,234 L 856,232 L 857,232 L 854,230 L 854,228 L 854,225 L 853,223 L 850,222 L 848,220 L 847,217 L 847,214 L 850,209 L 844,203 L 831,196 L 825,191 L 825,188 L 828,185 L 833,183 L 837,179 L 839,174 L 839,173 L 839,170 L 833,156 L 832,152 L 832,148 L 831,147 L 843,150 L 848,152 L 847,150 L 846,148 L 847,146 L 847,142 L 836,140 L 829,140 L 828,137 L 829,136 L 831,137 L 838,137 L 855,132 L 884,126 L 916,120 L 923,119 L 930,118 L 933,116 L 936,115 L 940,111 L 950,105 L 966,102 L 973,100 L 986,96 L 1016,91 L 1028,90 L 1040,90 L 1051,94 L 1063,98 L 1065,101 L 1058,99 L 1049,95 L 1046,95 L 1054,107 L 1058,111 L 1067,114 L 1074,115 L 1096,113 L 1104,111 L 1106,110 " />
</g>
<g id="europe_24" >
<path d="M 1548,573 L 1554,578 L 1561,581 L 1577,584 L 1578,583 L 1577,582 L 1577,581 L 1578,580 L 1580,580 L 1584,581 L 1590,579 L 1600,575 L 1610,574 L 1618,577 L 1622,580 L 1625,582 L 1624,586 L 1624,588 L 1622,597 L 1620,600 L 1618,604 L 1591,608 L 1593,606 L 1593,602 L 1591,600 L 1594,597 L 1588,596 L 1585,597 L 1583,600 L 1585,605 L 1582,609 L 1581,610 L 1581,614 L 1579,616 L 1579,618 L 1583,618 L 1581,621 L 1573,628 L 1571,632 L 1571,648 L 1568,657 L 1568,660 L 1559,660 L 1557,660 L 1549,659 L 1540,656 L 1535,651 L 1532,648 L 1524,649 L 1523,649 L 1521,647 L 1515,646 L 1508,646 L 1492,640 L 1491,638 L 1478,640 L 1460,643 L 1446,647 L 1431,654 L 1425,659 L 1419,662 L 1409,664 L 1392,663 L 1374,661 L 1354,658 L 1344,659 L 1329,658 L 1308,655 L 1292,654 L 1276,656 L 1274,654 L 1273,652 L 1274,650 L 1276,648 L 1280,646 L 1282,645 L 1282,643 L 1278,641 L 1269,637 L 1265,635 L 1265,634 L 1264,632 L 1262,631 L 1259,630 L 1256,628 L 1255,625 L 1255,622 L 1258,619 L 1261,618 L 1265,619 L 1267,618 L 1266,616 L 1262,614 L 1255,611 L 1247,612 L 1240,618 L 1234,619 L 1231,615 L 1225,613 L 1216,612 L 1210,611 L 1208,608 L 1205,606 L 1196,605 L 1196,603 L 1198,602 L 1201,602 L 1205,602 L 1205,601 L 1205,600 L 1202,599 L 1199,598 L 1197,597 L 1196,596 L 1196,595 L 1197,595 L 1198,595 L 1199,594 L 1200,592 L 1202,590 L 1203,589 L 1203,588 L 1202,587 L 1200,586 L 1197,585 L 1189,583 L 1185,581 L 1183,581 L 1179,579 L 1175,577 L 1171,574 L 1167,572 L 1166,571 L 1166,570 L 1167,569 L 1167,568 L 1166,565 L 1166,562 L 1166,559 L 1166,557 L 1165,557 L 1164,558 L 1163,558 L 1160,556 L 1156,551 L 1154,549 L 1149,547 L 1145,546 L 1142,542 L 1139,539 L 1141,537 L 1153,536 L 1158,537 L 1160,537 L 1163,535 L 1164,534 L 1164,533 L 1165,532 L 1169,531 L 1180,532 L 1184,530 L 1186,529 L 1187,526 L 1188,524 L 1191,523 L 1191,521 L 1191,519 L 1193,515 L 1194,513 L 1196,512 L 1199,511 L 1203,508 L 1202,506 L 1203,504 L 1208,499 L 1211,495 L 1211,493 L 1212,491 L 1215,489 L 1218,486 L 1222,477 L 1224,476 L 1227,474 L 1229,473 L 1229,467 L 1231,465 L 1235,464 L 1239,461 L 1242,457 L 1244,456 L 1247,455 L 1251,454 L 1254,453 L 1258,454 L 1260,454 L 1264,452 L 1273,445 L 1274,444 L 1276,443 L 1283,441 L 1285,439 L 1288,437 L 1291,437 L 1302,442 L 1313,442 L 1315,442 L 1316,442 L 1317,442 L 1332,445 L 1334,445 L 1335,444 L 1341,446 L 1346,446 L 1352,445 L 1357,444 L 1362,445 L 1365,448 L 1375,454 L 1378,456 L 1382,456 L 1387,455 L 1392,451 L 1407,446 L 1419,445 L 1430,443 L 1443,442 L 1447,438 L 1449,436 L 1450,431 L 1458,430 L 1464,429 L 1467,428 L 1471,428 L 1475,428 L 1481,431 L 1485,434 L 1487,436 L 1490,439 L 1494,444 L 1498,450 L 1499,453 L 1500,456 L 1503,460 L 1509,464 L 1510,465 L 1513,468 L 1518,475 L 1522,478 L 1526,481 L 1527,484 L 1530,487 L 1536,491 L 1541,494 L 1545,504 L 1548,508 L 1550,511 L 1549,518 L 1550,521 L 1548,526 L 1544,537 L 1543,546 L 1543,550 L 1543,553 L 1544,555 L 1546,559 L 1546,562 L 1544,563 L 1542,564 L 1541,565 L 1543,566 L 1546,569 L 1548,573 " />
</g>
<g id="europe_25" >
<path d="M 740,652 L 737,653 L 736,650 L 738,648 L 741,648 L 742,650 L 740,652 " />
</g>
<g id="europe_26" >
<path d="M 1112,536 L 1118,537 L 1123,536 L 1135,537 L 1137,538 L 1139,539 L 1142,542 L 1145,546 L 1149,547 L 1154,549 L 1156,551 L 1160,556 L 1163,558 L 1164,558 L 1165,557 L 1166,557 L 1166,559 L 1166,562 L 1166,565 L 1167,568 L 1167,569 L 1166,570 L 1166,571 L 1167,572 L 1171,574 L 1175,577 L 1179,579 L 1183,581 L 1185,581 L 1189,583 L 1197,585 L 1200,586 L 1202,587 L 1203,588 L 1203,589 L 1202,590 L 1200,592 L 1199,594 L 1198,595 L 1197,595 L 1196,595 L 1196,596 L 1197,597 L 1199,598 L 1202,599 L 1205,600 L 1205,601 L 1205,602 L 1201,602 L 1198,602 L 1196,603 L 1196,605 L 1205,606 L 1208,608 L 1210,611 L 1216,612 L 1225,613 L 1231,615 L 1234,619 L 1240,618 L 1247,612 L 1255,611 L 1262,614 L 1266,616 L 1267,618 L 1265,619 L 1261,618 L 1258,619 L 1255,622 L 1255,625 L 1256,628 L 1259,630 L 1262,631 L 1264,632 L 1265,634 L 1265,635 L 1263,636 L 1261,637 L 1260,639 L 1260,643 L 1253,646 L 1251,647 L 1250,649 L 1248,654 L 1248,658 L 1249,660 L 1249,662 L 1252,664 L 1254,668 L 1255,672 L 1258,675 L 1265,678 L 1269,680 L 1271,683 L 1273,686 L 1279,689 L 1279,691 L 1278,693 L 1276,695 L 1273,698 L 1270,699 L 1265,704 L 1258,705 L 1256,705 L 1253,707 L 1252,709 L 1253,711 L 1253,713 L 1252,718 L 1253,722 L 1256,724 L 1257,725 L 1256,727 L 1252,731 L 1251,733 L 1247,734 L 1246,733 L 1243,732 L 1242,731 L 1237,733 L 1232,734 L 1228,733 L 1224,733 L 1222,734 L 1220,734 L 1216,736 L 1210,737 L 1207,737 L 1206,735 L 1204,733 L 1205,732 L 1209,730 L 1210,728 L 1215,719 L 1216,716 L 1216,715 L 1215,715 L 1212,715 L 1198,711 L 1199,707 L 1194,705 L 1190,703 L 1189,701 L 1184,696 L 1181,694 L 1176,693 L 1172,691 L 1170,690 L 1169,687 L 1169,686 L 1168,685 L 1166,685 L 1162,687 L 1158,688 L 1158,689 L 1159,692 L 1160,693 L 1160,695 L 1158,697 L 1151,701 L 1150,702 L 1151,705 L 1151,706 L 1144,707 L 1144,706 L 1144,704 L 1140,702 L 1135,700 L 1124,694 L 1119,694 L 1115,693 L 1109,690 L 1107,690 L 1103,688 L 1096,681 L 1090,677 L 1086,675 L 1085,674 L 1085,672 L 1085,671 L 1088,668 L 1090,668 L 1094,668 L 1096,669 L 1098,670 L 1100,668 L 1100,665 L 1100,662 L 1094,655 L 1088,650 L 1088,649 L 1089,648 L 1091,647 L 1093,648 L 1098,648 L 1103,648 L 1105,647 L 1105,645 L 1103,643 L 1097,639 L 1092,635 L 1087,633 L 1083,632 L 1082,630 L 1081,629 L 1082,626 L 1082,622 L 1083,620 L 1086,616 L 1090,611 L 1092,607 L 1093,603 L 1093,602 L 1091,601 L 1087,600 L 1082,601 L 1077,602 L 1075,602 L 1075,601 L 1076,600 L 1077,600 L 1078,600 L 1079,599 L 1080,597 L 1078,589 L 1082,588 L 1082,587 L 1082,586 L 1086,587 L 1091,587 L 1095,587 L 1096,586 L 1096,585 L 1095,584 L 1093,583 L 1092,582 L 1089,581 L 1080,578 L 1075,575 L 1075,572 L 1077,570 L 1078,569 L 1073,567 L 1071,565 L 1072,562 L 1070,556 L 1067,553 L 1070,551 L 1070,549 L 1070,548 L 1071,548 L 1076,546 L 1077,545 L 1078,544 L 1080,543 L 1083,545 L 1086,545 L 1089,544 L 1092,543 L 1095,542 L 1097,541 L 1099,540 L 1102,536 L 1107,536 L 1112,536 " />
</g>
<g id="europe_27" >
<path d="M 1257,386 L 1256,389 L 1254,391 L 1251,394 L 1249,397 L 1246,403 L 1244,406 L 1237,412 L 1236,421 L 1235,421 L 1217,424 L 1215,424 L 1212,422 L 1211,421 L 1210,420 L 1209,418 L 1207,416 L 1204,415 L 1201,413 L 1197,413 L 1188,415 L 1181,416 L 1177,415 L 1171,413 L 1159,413 L 1152,414 L 1151,416 L 1144,426 L 1133,430 L 1124,434 L 1121,435 L 1117,434 L 1111,431 L 1107,430 L 1104,431 L 1101,433 L 1099,436 L 1089,438 L 1071,439 L 1064,441 L 1062,445 L 1062,447 L 1064,449 L 1062,451 L 1061,452 L 1048,453 L 1031,454 L 1021,453 L 1011,453 L 1005,451 L 997,447 L 989,442 L 988,442 L 986,441 L 981,441 L 980,441 L 977,439 L 976,437 L 971,431 L 965,422 L 965,419 L 967,416 L 969,413 L 970,411 L 971,407 L 975,401 L 979,398 L 982,397 L 987,398 L 997,399 L 1004,398 L 1011,396 L 1015,394 L 1018,392 L 1019,390 L 1021,390 L 1026,388 L 1028,387 L 1029,384 L 1029,381 L 1030,379 L 1032,377 L 1042,373 L 1043,371 L 1045,370 L 1048,368 L 1051,366 L 1054,365 L 1058,365 L 1062,365 L 1065,364 L 1066,364 L 1072,365 L 1073,367 L 1073,370 L 1083,370 L 1088,364 L 1091,363 L 1095,361 L 1098,359 L 1100,360 L 1102,364 L 1105,367 L 1107,368 L 1107,369 L 1109,370 L 1113,370 L 1115,371 L 1115,374 L 1116,376 L 1114,378 L 1114,380 L 1116,380 L 1120,380 L 1122,379 L 1129,381 L 1132,376 L 1135,374 L 1139,373 L 1142,371 L 1145,370 L 1147,370 L 1148,370 L 1151,370 L 1154,371 L 1158,370 L 1164,371 L 1167,373 L 1171,374 L 1175,374 L 1178,373 L 1182,369 L 1185,369 L 1189,368 L 1196,368 L 1211,369 L 1214,370 L 1224,372 L 1228,375 L 1229,377 L 1230,379 L 1240,382 L 1254,386 L 1257,386 " />
</g>
<g id="europe_28" >
<path d="M 947,519 L 943,517 L 937,517 L 936,518 L 934,518 L 933,519 L 934,524 L 933,525 L 926,525 L 924,525 L 921,529 L 917,530 L 913,531 L 910,532 L 906,533 L 902,534 L 901,535 L 900,537 L 900,539 L 904,542 L 904,545 L 904,549 L 903,551 L 902,553 L 893,555 L 884,558 L 883,559 L 888,562 L 888,563 L 884,564 L 884,566 L 884,568 L 886,570 L 887,572 L 882,573 L 875,573 L 867,570 L 864,570 L 862,572 L 859,571 L 856,570 L 851,566 L 849,564 L 848,562 L 847,562 L 845,563 L 844,565 L 840,570 L 837,571 L 833,571 L 826,571 L 822,571 L 818,570 L 817,570 L 817,571 L 815,573 L 812,574 L 798,571 L 796,569 L 799,568 L 804,565 L 807,566 L 810,565 L 812,564 L 809,561 L 804,557 L 801,555 L 797,554 L 796,553 L 798,546 L 798,545 L 793,546 L 792,545 L 791,544 L 792,542 L 795,540 L 798,537 L 799,536 L 799,535 L 795,534 L 792,533 L 790,533 L 788,533 L 787,533 L 786,531 L 787,528 L 791,525 L 796,523 L 799,521 L 802,521 L 803,518 L 805,518 L 809,518 L 814,519 L 819,520 L 823,521 L 832,522 L 840,522 L 842,523 L 844,523 L 846,524 L 848,523 L 849,522 L 853,520 L 857,519 L 860,516 L 861,514 L 864,513 L 867,513 L 869,512 L 881,511 L 892,512 L 897,511 L 902,508 L 909,508 L 919,509 L 919,508 L 920,508 L 920,503 L 923,501 L 926,500 L 935,500 L 937,502 L 937,504 L 938,507 L 940,508 L 941,509 L 940,511 L 942,513 L 947,517 L 947,519 " />
</g>
<g id="europe_29" >
<path d="M 948,15 L 945,18 L 943,18 L 941,14 L 941,6 L 942,1 L 953,-14 L 958,-15 L 965,-25 L 967,-29 L 970,-33 L 972,-36 L 974,-38 L 977,-37 L 978,-36 L 975,-34 L 975,-32 L 975,-31 L 966,-19 L 964,-12 L 961,-10 L 948,15 " />
<path d="M 1273,-604 L 1279,-602 L 1286,-599 L 1290,-592 L 1297,-592 L 1299,-590 L 1305,-586 L 1313,-583 L 1313,-582 L 1306,-579 L 1306,-575 L 1306,-570 L 1308,-566 L 1308,-564 L 1307,-563 L 1305,-561 L 1304,-559 L 1304,-558 L 1305,-557 L 1308,-557 L 1315,-557 L 1318,-556 L 1320,-551 L 1320,-550 L 1314,-548 L 1313,-546 L 1313,-543 L 1314,-541 L 1315,-537 L 1320,-534 L 1325,-531 L 1329,-528 L 1331,-526 L 1331,-524 L 1329,-522 L 1327,-519 L 1326,-515 L 1325,-512 L 1320,-509 L 1317,-507 L 1316,-505 L 1315,-502 L 1316,-498 L 1317,-496 L 1318,-494 L 1319,-492 L 1327,-490 L 1332,-486 L 1335,-482 L 1340,-473 L 1326,-471 L 1316,-474 L 1311,-473 L 1302,-473 L 1292,-472 L 1289,-470 L 1286,-469 L 1276,-472 L 1268,-476 L 1261,-473 L 1257,-472 L 1253,-475 L 1250,-475 L 1248,-474 L 1246,-472 L 1244,-470 L 1243,-468 L 1243,-463 L 1242,-462 L 1234,-463 L 1234,-461 L 1236,-460 L 1237,-460 L 1234,-458 L 1225,-459 L 1224,-457 L 1227,-455 L 1225,-454 L 1223,-453 L 1213,-452 L 1207,-452 L 1205,-451 L 1205,-450 L 1206,-448 L 1208,-447 L 1209,-447 L 1209,-445 L 1207,-444 L 1201,-448 L 1199,-447 L 1200,-446 L 1204,-444 L 1206,-442 L 1208,-439 L 1207,-438 L 1200,-432 L 1193,-428 L 1188,-425 L 1185,-421 L 1188,-420 L 1192,-417 L 1195,-412 L 1198,-408 L 1205,-404 L 1203,-401 L 1202,-399 L 1191,-395 L 1179,-389 L 1166,-373 L 1161,-371 L 1150,-368 L 1145,-366 L 1137,-362 L 1122,-360 L 1115,-356 L 1112,-352 L 1109,-352 L 1105,-353 L 1101,-355 L 1100,-352 L 1100,-350 L 1093,-353 L 1090,-350 L 1087,-346 L 1077,-341 L 1066,-342 L 1064,-341 L 1067,-340 L 1068,-339 L 1066,-339 L 1063,-339 L 1058,-337 L 1055,-338 L 1053,-335 L 1051,-332 L 1045,-330 L 1041,-330 L 1040,-328 L 1049,-328 L 1049,-326 L 1048,-325 L 1047,-323 L 1036,-321 L 1035,-319 L 1032,-318 L 1027,-318 L 1028,-319 L 1028,-320 L 1021,-320 L 1019,-323 L 1017,-322 L 1018,-320 L 1020,-317 L 1022,-314 L 1021,-312 L 1019,-311 L 1020,-310 L 1024,-309 L 1026,-308 L 1021,-307 L 1015,-303 L 1009,-303 L 1005,-300 L 1002,-300 L 998,-302 L 993,-303 L 992,-301 L 991,-299 L 994,-294 L 1000,-291 L 1005,-289 L 1001,-288 L 998,-286 L 995,-278 L 993,-275 L 991,-270 L 993,-266 L 994,-264 L 996,-261 L 989,-261 L 982,-263 L 983,-259 L 979,-255 L 980,-252 L 981,-249 L 979,-245 L 981,-244 L 982,-242 L 981,-240 L 981,-238 L 982,-233 L 983,-225 L 983,-223 L 987,-216 L 986,-213 L 985,-210 L 991,-207 L 996,-207 L 1001,-207 L 1003,-206 L 1005,-204 L 1006,-202 L 1010,-202 L 1017,-204 L 1021,-205 L 1024,-200 L 1032,-195 L 1036,-193 L 1044,-192 L 1052,-187 L 1051,-182 L 1055,-180 L 1064,-178 L 1067,-176 L 1069,-173 L 1072,-171 L 1075,-165 L 1073,-162 L 1070,-160 L 1061,-157 L 1057,-154 L 1053,-152 L 1044,-148 L 1041,-147 L 1038,-145 L 1035,-144 L 1032,-145 L 1022,-141 L 1023,-140 L 1030,-139 L 1034,-140 L 1038,-142 L 1041,-142 L 1044,-142 L 1047,-143 L 1050,-144 L 1052,-143 L 1055,-140 L 1049,-138 L 1045,-138 L 1043,-132 L 1040,-130 L 1038,-128 L 1029,-126 L 1022,-123 L 1015,-120 L 1012,-121 L 1007,-119 L 996,-116 L 990,-112 L 978,-108 L 971,-105 L 954,-105 L 937,-106 L 932,-104 L 937,-104 L 941,-102 L 945,-103 L 956,-102 L 961,-102 L 968,-97 L 963,-95 L 954,-94 L 958,-87 L 960,-82 L 957,-80 L 957,-67 L 952,-67 L 949,-62 L 951,-59 L 951,-53 L 952,-49 L 954,-46 L 953,-42 L 945,-34 L 945,-30 L 947,-27 L 948,-24 L 944,-16 L 942,-10 L 939,-5 L 932,0 L 929,5 L 921,19 L 917,22 L 912,24 L 907,22 L 902,21 L 896,21 L 886,23 L 872,22 L 858,22 L 855,23 L 857,29 L 852,29 L 847,28 L 842,30 L 839,32 L 832,36 L 829,39 L 828,44 L 832,49 L 836,55 L 827,61 L 822,62 L 808,60 L 783,64 L 761,61 L 764,57 L 764,54 L 765,50 L 766,46 L 765,43 L 764,40 L 758,36 L 746,23 L 742,18 L 739,15 L 741,15 L 752,18 L 754,18 L 756,17 L 753,13 L 751,11 L 749,8 L 755,7 L 759,7 L 763,4 L 761,0 L 756,-2 L 752,-3 L 745,-11 L 737,-15 L 723,-32 L 718,-43 L 713,-42 L 711,-47 L 709,-52 L 709,-55 L 702,-57 L 701,-59 L 700,-70 L 692,-71 L 687,-78 L 686,-89 L 681,-91 L 677,-90 L 677,-93 L 678,-96 L 675,-106 L 675,-116 L 673,-119 L 671,-122 L 672,-125 L 674,-127 L 679,-127 L 684,-125 L 688,-118 L 692,-117 L 697,-119 L 700,-124 L 703,-131 L 705,-138 L 702,-145 L 699,-151 L 699,-153 L 707,-159 L 709,-163 L 712,-167 L 715,-169 L 719,-169 L 724,-170 L 730,-173 L 736,-176 L 740,-180 L 742,-186 L 742,-190 L 744,-192 L 746,-197 L 744,-202 L 738,-210 L 731,-220 L 730,-226 L 733,-227 L 739,-228 L 750,-228 L 752,-229 L 753,-231 L 755,-235 L 758,-237 L 760,-241 L 761,-244 L 754,-249 L 746,-253 L 740,-255 L 730,-259 L 723,-263 L 727,-276 L 730,-286 L 731,-288 L 731,-292 L 721,-307 L 722,-311 L 722,-314 L 721,-319 L 721,-324 L 723,-326 L 726,-328 L 723,-333 L 722,-333 L 715,-343 L 726,-354 L 724,-359 L 731,-363 L 743,-372 L 749,-377 L 751,-378 L 756,-380 L 766,-382 L 777,-384 L 782,-384 L 801,-382 L 816,-381 L 818,-382 L 821,-385 L 825,-389 L 826,-393 L 824,-400 L 822,-404 L 812,-406 L 800,-410 L 814,-421 L 824,-428 L 836,-440 L 840,-445 L 843,-447 L 846,-464 L 849,-469 L 851,-472 L 851,-475 L 849,-479 L 846,-489 L 865,-490 L 871,-491 L 877,-492 L 889,-496 L 894,-498 L 891,-508 L 898,-511 L 915,-522 L 933,-533 L 942,-537 L 942,-539 L 943,-542 L 939,-547 L 935,-550 L 927,-556 L 931,-560 L 937,-561 L 944,-562 L 950,-566 L 951,-566 L 961,-580 L 981,-587 L 989,-591 L 1001,-588 L 1019,-584 L 1027,-590 L 1030,-592 L 1033,-596 L 1032,-602 L 1031,-609 L 1032,-613 L 1039,-614 L 1043,-614 L 1063,-611 L 1068,-611 L 1078,-611 L 1088,-609 L 1111,-606 L 1120,-604 L 1125,-604 L 1129,-605 L 1139,-610 L 1125,-613 L 1134,-617 L 1139,-620 L 1143,-624 L 1144,-629 L 1144,-632 L 1141,-633 L 1132,-638 L 1152,-638 L 1158,-639 L 1172,-636 L 1173,-635 L 1173,-634 L 1174,-632 L 1187,-628 L 1191,-626 L 1200,-623 L 1202,-621 L 1209,-619 L 1215,-617 L 1221,-615 L 1229,-612 L 1239,-610 L 1248,-609 L 1269,-605 L 1273,-604 " />
</g>
<g id="europe_30" >
<path d="M 1818,219 L 1826,219 L 1832,218 L 1837,220 L 1842,223 L 1847,228 L 1852,237 L 1866,247 L 1867,249 L 1865,251 L 1858,252 L 1852,252 L 1852,254 L 1853,256 L 1856,259 L 1857,262 L 1857,266 L 1858,269 L 1860,270 L 1860,271 L 1858,273 L 1857,274 L 1858,275 L 1871,275 L 1878,277 L 1883,278 L 1885,279 L 1891,278 L 1897,277 L 1901,277 L 1902,278 L 1903,281 L 1905,284 L 1907,285 L 1911,285 L 1913,285 L 1915,286 L 1913,288 L 1913,290 L 1915,292 L 1917,298 L 1919,299 L 1920,301 L 1920,304 L 1918,306 L 1917,307 L 1918,311 L 1922,315 L 1925,316 L 1928,320 L 1932,321 L 1938,318 L 1943,316 L 1949,317 L 1955,318 L 1958,320 L 1961,323 L 1964,324 L 1968,323 L 1974,324 L 1977,327 L 1981,328 L 1984,326 L 1988,324 L 2000,321 L 2007,321 L 2009,320 L 2013,318 L 2018,317 L 2022,318 L 2026,321 L 2030,324 L 2031,328 L 2036,333 L 2049,341 L 2054,343 L 2057,342 L 2059,342 L 2060,341 L 2061,337 L 2062,336 L 2065,336 L 2075,341 L 2080,341 L 2085,341 L 2091,345 L 2099,348 L 2104,348 L 2109,347 L 2112,346 L 2114,347 L 2116,350 L 2118,352 L 2122,353 L 2127,353 L 2135,357 L 2143,361 L 2148,361 L 2152,360 L 2156,359 L 2158,360 L 2159,362 L 2157,365 L 2157,368 L 2161,371 L 2161,374 L 2160,377 L 2158,380 L 2153,383 L 2149,387 L 2142,388 L 2138,390 L 2139,392 L 2142,395 L 2147,396 L 2154,398 L 2154,399 L 2153,400 L 2149,401 L 2144,400 L 2142,401 L 2139,404 L 2137,407 L 2136,411 L 2142,412 L 2146,414 L 2147,417 L 2148,420 L 2149,423 L 2147,424 L 2146,426 L 2147,427 L 2150,427 L 2152,428 L 2152,429 L 2148,433 L 2145,440 L 2143,443 L 2143,447 L 2141,449 L 2137,450 L 2123,450 L 2111,450 L 2106,449 L 2098,449 L 2094,450 L 2088,456 L 2084,459 L 2078,461 L 2070,462 L 2066,464 L 2065,468 L 2065,472 L 2064,474 L 2062,475 L 2062,476 L 2062,478 L 2064,478 L 2066,479 L 2066,480 L 2065,481 L 2063,482 L 2062,484 L 2062,486 L 2063,488 L 2061,489 L 2043,488 L 2028,489 L 2018,497 L 2011,497 L 2003,499 L 1997,502 L 1990,508 L 1984,505 L 1977,505 L 1971,507 L 1963,510 L 1959,511 L 1950,510 L 1940,512 L 1918,525 L 1911,534 L 1908,536 L 1904,538 L 1900,539 L 1898,539 L 1909,532 L 1912,530 L 1912,528 L 1912,525 L 1909,522 L 1901,531 L 1896,532 L 1890,535 L 1889,541 L 1890,545 L 1893,551 L 1898,560 L 1911,573 L 1917,578 L 1921,579 L 1926,580 L 1936,576 L 1940,575 L 1949,577 L 1953,574 L 1957,572 L 1964,572 L 1971,573 L 1978,575 L 1975,580 L 1972,584 L 1971,588 L 1969,592 L 1961,594 L 1952,594 L 1942,595 L 1939,594 L 1936,592 L 1932,590 L 1927,590 L 1922,591 L 1916,597 L 1905,601 L 1902,606 L 1892,605 L 1883,606 L 1870,610 L 1860,619 L 1850,625 L 1841,627 L 1833,627 L 1828,625 L 1818,619 L 1818,616 L 1820,615 L 1822,612 L 1826,600 L 1825,597 L 1823,591 L 1815,586 L 1808,587 L 1804,586 L 1790,578 L 1783,577 L 1775,579 L 1771,578 L 1769,575 L 1786,565 L 1802,557 L 1809,556 L 1818,553 L 1829,547 L 1827,543 L 1825,539 L 1820,540 L 1817,541 L 1808,538 L 1805,535 L 1792,538 L 1784,538 L 1768,540 L 1760,538 L 1745,531 L 1739,530 L 1734,530 L 1732,528 L 1735,527 L 1739,526 L 1743,526 L 1744,524 L 1744,522 L 1736,521 L 1728,520 L 1724,518 L 1720,516 L 1729,516 L 1737,517 L 1750,518 L 1762,520 L 1765,518 L 1772,514 L 1773,513 L 1761,515 L 1750,514 L 1745,511 L 1742,508 L 1740,504 L 1741,500 L 1740,494 L 1736,488 L 1735,485 L 1731,482 L 1735,488 L 1736,493 L 1739,497 L 1738,507 L 1737,511 L 1732,512 L 1726,511 L 1719,510 L 1721,504 L 1717,506 L 1712,512 L 1708,513 L 1699,512 L 1681,516 L 1680,520 L 1677,525 L 1675,529 L 1674,531 L 1667,539 L 1666,540 L 1652,551 L 1650,552 L 1641,555 L 1635,557 L 1631,558 L 1624,557 L 1621,559 L 1620,561 L 1620,565 L 1623,568 L 1626,578 L 1625,582 L 1622,580 L 1618,577 L 1610,574 L 1600,575 L 1590,579 L 1584,581 L 1580,580 L 1578,580 L 1577,581 L 1577,582 L 1578,583 L 1577,584 L 1561,581 L 1554,578 L 1548,573 L 1551,571 L 1554,570 L 1562,570 L 1563,569 L 1563,568 L 1564,566 L 1564,564 L 1563,561 L 1566,558 L 1572,555 L 1575,552 L 1576,548 L 1581,545 L 1586,542 L 1588,538 L 1589,535 L 1586,529 L 1585,526 L 1585,523 L 1587,521 L 1592,519 L 1596,517 L 1599,517 L 1599,518 L 1599,525 L 1600,525 L 1602,524 L 1605,520 L 1606,521 L 1609,522 L 1611,521 L 1613,521 L 1614,522 L 1617,523 L 1621,524 L 1623,523 L 1625,521 L 1628,522 L 1632,526 L 1634,526 L 1644,525 L 1646,524 L 1647,523 L 1636,517 L 1637,512 L 1637,507 L 1636,504 L 1634,502 L 1626,499 L 1620,496 L 1618,495 L 1618,493 L 1618,490 L 1615,488 L 1615,486 L 1617,483 L 1617,480 L 1617,479 L 1615,478 L 1612,478 L 1609,476 L 1606,474 L 1599,470 L 1597,469 L 1596,468 L 1595,466 L 1597,463 L 1599,459 L 1600,455 L 1600,453 L 1599,448 L 1595,443 L 1594,443 L 1591,444 L 1588,445 L 1585,444 L 1582,442 L 1577,435 L 1568,434 L 1565,434 L 1561,437 L 1560,436 L 1559,434 L 1557,433 L 1555,434 L 1554,433 L 1555,431 L 1553,429 L 1546,429 L 1542,428 L 1542,426 L 1540,425 L 1536,424 L 1532,423 L 1528,420 L 1523,418 L 1516,418 L 1515,417 L 1514,417 L 1510,419 L 1507,420 L 1503,419 L 1498,422 L 1487,423 L 1481,422 L 1478,422 L 1468,426 L 1467,428 L 1464,429 L 1458,430 L 1450,431 L 1449,436 L 1447,438 L 1443,442 L 1430,443 L 1419,445 L 1407,446 L 1392,451 L 1387,455 L 1382,456 L 1378,456 L 1375,454 L 1365,448 L 1362,445 L 1357,444 L 1352,445 L 1346,446 L 1341,446 L 1335,444 L 1334,445 L 1332,445 L 1317,442 L 1316,442 L 1315,442 L 1313,442 L 1302,442 L 1291,437 L 1288,437 L 1285,439 L 1283,441 L 1276,443 L 1274,444 L 1273,444 L 1273,442 L 1273,440 L 1272,438 L 1269,437 L 1269,436 L 1265,436 L 1264,436 L 1259,435 L 1256,431 L 1251,429 L 1247,428 L 1245,427 L 1244,425 L 1243,423 L 1242,421 L 1241,420 L 1236,421 L 1237,412 L 1244,406 L 1246,403 L 1249,397 L 1251,394 L 1254,391 L 1256,389 L 1257,386 L 1259,386 L 1265,388 L 1271,389 L 1272,388 L 1273,387 L 1273,386 L 1268,383 L 1265,381 L 1265,380 L 1266,378 L 1267,375 L 1266,372 L 1263,365 L 1263,362 L 1265,359 L 1275,351 L 1278,348 L 1282,344 L 1294,335 L 1302,330 L 1307,327 L 1314,322 L 1317,319 L 1331,318 L 1332,315 L 1335,313 L 1337,311 L 1337,307 L 1334,302 L 1332,300 L 1331,298 L 1332,297 L 1333,297 L 1335,297 L 1337,295 L 1337,294 L 1331,290 L 1329,288 L 1325,281 L 1317,274 L 1315,271 L 1314,269 L 1316,267 L 1314,264 L 1312,261 L 1312,260 L 1312,256 L 1314,255 L 1317,254 L 1321,255 L 1325,255 L 1329,257 L 1331,257 L 1339,253 L 1346,248 L 1349,244 L 1351,243 L 1357,242 L 1363,242 L 1367,242 L 1377,241 L 1382,241 L 1387,240 L 1397,239 L 1413,240 L 1424,240 L 1431,240 L 1448,243 L 1455,244 L 1458,246 L 1464,246 L 1475,248 L 1484,249 L 1490,248 L 1493,249 L 1500,256 L 1501,257 L 1504,257 L 1509,256 L 1517,256 L 1522,258 L 1521,262 L 1522,263 L 1524,263 L 1527,260 L 1529,258 L 1530,257 L 1538,259 L 1542,258 L 1545,256 L 1547,256 L 1553,257 L 1559,258 L 1565,258 L 1568,259 L 1571,264 L 1573,265 L 1575,265 L 1578,261 L 1581,260 L 1585,258 L 1588,258 L 1590,257 L 1592,255 L 1594,255 L 1596,256 L 1598,257 L 1601,262 L 1604,266 L 1607,268 L 1613,266 L 1617,265 L 1625,265 L 1636,264 L 1644,263 L 1649,263 L 1652,264 L 1656,267 L 1657,271 L 1663,273 L 1668,274 L 1670,271 L 1673,269 L 1672,266 L 1671,263 L 1669,260 L 1668,257 L 1670,252 L 1673,248 L 1675,245 L 1679,241 L 1684,238 L 1691,234 L 1696,232 L 1700,233 L 1703,233 L 1710,231 L 1721,230 L 1731,231 L 1732,231 L 1737,232 L 1742,234 L 1745,234 L 1749,233 L 1754,232 L 1758,230 L 1762,222 L 1763,221 L 1766,220 L 1769,220 L 1776,222 L 1785,223 L 1789,223 L 1802,218 L 1809,218 L 1818,219 " />
</g>
</g>
</g>
<!-- QGIS extent for clipping, eg in Inkscape -->
<g id="qgisviewbox" inkscape:groupmode="layer" inkscape:label="qgisviewbox" stroke="rgb(255,0,0)" stroke-width="1" fill="none" >
<path d="M 0,687 L 1281,687 L 1281,0 L 0,0 L 0,687 " />
</g></svg>