<?xml version="1.0" encoding="UTF-8" standalone="no"?>
<!-- Created with Inkscape (http://www.inkscape.org/) -->

<svg
   xmlns:dc="http://purl.org/dc/elements/1.1/"
   xmlns:cc="http://creativecommons.org/ns#"
   xmlns:rdf="http://www.w3.org/1999/02/22-rdf-syntax-ns#"
   xmlns:svg="http://www.w3.org/2000/svg"
   xmlns="http://www.w3.org/2000/svg"
   xmlns:sodipodi="http://sodipodi.sourceforge.net/DTD/sodipodi-0.dtd"
   xmlns:inkscape="http://www.inkscape.org/namespaces/inkscape"
   width="473.9430541992188"
   height="716.5326538085938"
   id="svg3064"
   version="1.1"
   inkscape:version="0.48.4 r9939"
   sodipodi:docname="enclaves_exclaves.svg">
  <defs
     id="defs3066">
    <inkscape:path-effect
       effect="skeletal"
       id="path-effect4041"
       is_visible="true"
       pattern="M 0,5 C 0,2.24 2.24,0 5,0 C 7.76,0 10,2.24 10,5 C 10,7.76 7.76,10 5,10 C 2.24,10 0,7.76 0,5 z"
       copytype="single_stretched"
       prop_scale="1"
       scale_y_rel="false"
       spacing="0"
       normal_offset="0"
       tang_offset="0"
       prop_units="false"
       vertical_pattern="false"
       fuse_tolerance="0" />
    <inkscape:path-effect
       effect="spiro"
       id="path-effect4039"
       is_visible="true" />
    <inkscape:path-effect
       effect="skeletal"
       id="path-effect4011"
       is_visible="true"
       pattern="M 0,5 C 0,2.24 2.24,0 5,0 C 7.76,0 10,2.24 10,5 C 10,7.76 7.76,10 5,10 C 2.24,10 0,7.76 0,5 z"
       copytype="single_stretched"
       prop_scale="1"
       scale_y_rel="false"
       spacing="0"
       normal_offset="0"
       tang_offset="0"
       prop_units="false"
       vertical_pattern="false"
       fuse_tolerance="0" />
    <inkscape:path-effect
       effect="spiro"
       id="path-effect4009"
       is_visible="true" />
  </defs>
  <sodipodi:namedview
     id="base"
     pagecolor="#ffffff"
     bordercolor="#666666"
     borderopacity="1.0"
     inkscape:pageopacity="0.0"
     inkscape:pageshadow="2"
     inkscape:zoom="1.39999999852261"
     inkscape:cx="270.4247041195103"
     inkscape:cy="465.6408487362201"
     inkscape:document-units="px"
     inkscape:current-layer="layer1"
     showgrid="true"
     inkscape:window-width="1600"
     inkscape:window-height="834"
     inkscape:window-x="0"
     inkscape:window-y="27"
     inkscape:window-maximized="1"
     fit-margin-top="0"
     fit-margin-left="0"
     fit-margin-right="0"
     fit-margin-bottom="0">
    <inkscape:grid
       type="xygrid"
       id="grid3129"
       empspacing="5"
       visible="true"
       enabled="true"
       snapvisiblegridlinesonly="true"
       originx="-163.5326220296893px"
       originy="165.0326354594388px" />
  </sodipodi:namedview>
  <metadata
     id="metadata3069">
    <rdf:RDF>
      <cc:Work
         rdf:about="">
        <dc:format>image/svg+xml</dc:format>
        <dc:type
           rdf:resource="http://purl.org/dc/dcmitype/StillImage" />
        <dc:title></dc:title>
      </cc:Work>
    </rdf:RDF>
  </metadata>
  <g
     inkscape:label="Layer 1"
     inkscape:groupmode="layer"
     id="layer1"
     transform="translate(-108.539096288533,72.72450870564125)">
    <rect
       style="fill:#e6e6e6;fill-opacity:1;fill-rule:nonzero;stroke:#e6e6e6;stroke-width:9.6738195419;stroke-miterlimit:4;stroke-opacity:1;stroke-dasharray:none"
       id="rect3030"
       width="2298.751953125"
       height="1516.850952148438"
       x="2544.2646484375"
       y="-20"
       transform="matrix(0,-0.3104000227115677,0.3098309654818617,0,116.2357156303498,1432.047954444038)" />
    <path
       style="fill:#787878;fill-opacity:1;stroke:#000000;stroke-width:9.6738195419;stroke-linecap:butt;stroke-linejoin:miter;stroke-miterlimit:4;stroke-opacity:1;stroke-dasharray:none"
       d="M 3280,-20 L 3270.654517256937,140.6342162650856 L 3050.907416878736,140.6342162650856 L 3030.465826145881,258.1733629790067 L 3110,410 L 3240,440 L 3290,500 L 3280,640 L 3150,710 L 3060,700 L 3060,980 L 3560,960 L 3780,740 L 3840,320 L 3840,-20 z"
       id="path3800"
       inkscape:connector-curvature="0"
       sodipodi:nodetypes="cccccccccccccccc"
       transform="matrix(0,-0.3104000227115677,0.3098309654818617,0,116.2357156303498,1431.077954369993)" />
    <path
       style="fill:#969696;fill-opacity:1;stroke:#000000;stroke-width:9.6738195419;stroke-linecap:butt;stroke-linejoin:miter;stroke-miterlimit:4;stroke-opacity:1;stroke-dasharray:none"
       d="M 3780,740 L 4060,680 L 4660,640 L 4843.016527364692,464.0296634162946 L 4843.016527364692,-20 L 3840,-20 L 3840,320 z"
       id="path3802"
       inkscape:connector-curvature="0"
       sodipodi:nodetypes="cccccccc"
       transform="matrix(0,-0.3104000227115677,0.3098309654818617,0,116.2357156303498,1432.047954444038)" />
    <path
       style="fill:#5a5a5a;fill-opacity:1;stroke:#000000;stroke-width:9.6738195419;stroke-linecap:butt;stroke-linejoin:miter;stroke-miterlimit:4;stroke-opacity:1;stroke-dasharray:none"
       d="M 3040,1500 L 2907.816281748752,1280.252899621799 L 2933.368270164822,1045.174606193956 L 3060,980 L 3560,960 L 3780,740 L 4060,680 L 4660,640 L 4843.016527364692,464.0296634162946 L 4843.016527364692,1496.850897092286 z"
       id="path3804"
       inkscape:connector-curvature="0"
       sodipodi:nodetypes="ccccccccccc"
       transform="matrix(0,-0.3104000227115677,0.3098309654818617,0,116.2357156303498,1432.047954444038)" />
    <path
       style="fill:#5a5a5a;fill-opacity:1;stroke:#000000;stroke-width:9.6738195419;stroke-linecap:butt;stroke-linejoin:miter;stroke-miterlimit:4;stroke-opacity:1;stroke-dasharray:none"
       d="M 3110,410 L 3240,440 L 3290,500 L 3280,640 L 3150,710 L 3060,700 L 3050,580 L 3060,430 z"
       id="path3801"
       inkscape:connector-curvature="0"
       transform="matrix(0,-0.3104000227115677,0.3098309654818617,0,116.2357156303498,1432.047954444038)" />
    <path
       inkscape:connector-curvature="0"
       id="path3803"
       d="M 3102.407782311795,389.1339740398285 L 3169.581932101217,469.5380354234399 L 3159.497246601826,606.4245081131125 L 3022.407782311794,669.1339740398284 L 3022.407782311794,579.1339740398284 L 3022.407782311795,389.1339740398285 z"
       style="fill:#5a5a5a;fill-opacity:1;stroke:#000000;stroke-width:9.6738195419;stroke-linecap:butt;stroke-linejoin:miter;stroke-miterlimit:4;stroke-opacity:1;stroke-dasharray:none"
       transform="matrix(0,-0.3104000227115677,0.3098309654818617,0,8.063199371072414,1178.267311504817)"
       sodipodi:nodetypes="ccccccc" />
    <path
       sodipodi:nodetypes="cccccccc"
       transform="matrix(0,-0.3104000227115677,0.3098309654818617,0,13.54028880481076,1044.518053668981)"
       style="fill:#5a5a5a;fill-opacity:1;stroke:#000000;stroke-width:9.6738195419;stroke-linecap:butt;stroke-linejoin:miter;stroke-miterlimit:4;stroke-opacity:1;stroke-dasharray:none"
       d="M 3131.51458627579,351.4563044588642 L 3191.51458627579,431.4563044588642 L 3231.51458627579,531.4563044588642 L 3111.51458627579,551.4563044588642 L 3011.51458627579,551.4563044588642 L 2971.51458627579,471.4563044588642 L 3022.407782311795,389.1339740398285 z"
       id="path3805"
       inkscape:connector-curvature="0" />
    <path
       inkscape:connector-curvature="0"
       id="path3807"
       d="M 3131.51458627579,351.4563044588642 L 3191.51458627579,431.4563044588642 L 3231.51458627579,531.4563044588642 L 3111.51458627579,551.4563044588642 L 3011.51458627579,551.4563044588642 L 2971.51458627579,471.4563044588642 L 3022.407782311795,389.1339740398285 z"
       style="fill:#b4b4b4;fill-opacity:1;stroke:#000000;stroke-width:9.6738195419;stroke-linecap:butt;stroke-linejoin:miter;stroke-miterlimit:4;stroke-opacity:1;stroke-dasharray:none"
       transform="matrix(0,-0.3104000227115677,0.3098309654818617,0,110.7586262023919,1110.363842107268)"
       sodipodi:nodetypes="cccccccc" />
    <path
       sodipodi:nodetypes="ccccccccccc"
       transform="matrix(0,-0.3104000227115677,0.3098309654818617,0,332.5807481517998,1192.671077655122)"
       style="fill:#b4b4b4;fill-opacity:1;stroke:#000000;stroke-width:9.6738195419;stroke-linecap:butt;stroke-linejoin:miter;stroke-miterlimit:4;stroke-opacity:1;stroke-dasharray:none"
       d="M 3148.811664709987,161.7320519110144 L 3524.14783496355,233.7588368367394 L 3717.446789892279,104.6561826272404 L 3910.745744821009,266.0345003891141 L 3908.811664709986,601.7320519110145 L 3588.811664709987,681.7320519110143 L 3188.811664709987,681.7320519110143 L 2948.811664709987,641.7320519110145 L 2868.811664709987,441.7320519110143 L 3028.811664709987,361.7320519110145 z"
       id="path3809"
       inkscape:connector-curvature="0" />
    <path
       inkscape:connector-curvature="0"
       id="path3811"
       d="M 3108.372821403824,384.7324086133175 L 3189.154235688357,363.3536744676879 L 3318.020205640844,395.6293380200627 L 3350.236698128966,492.456328677187 L 3318.020205640844,621.5589828866859 L 3285.803713152723,718.3859735438097 L 3159.333512851642,699.0512259895872 L 3079.333512851642,665.5718947345374 L 2959.333512851642,659.051225989587 L 2947.985678701826,530.3684788936675 L 3009.230708822383,460.7422971130038 z"
       style="fill:#5a5a5a;fill-opacity:1;stroke:#000000;stroke-width:9.6738195419;stroke-linecap:butt;stroke-linejoin:miter;stroke-miterlimit:4;stroke-opacity:1;stroke-dasharray:none"
       transform="matrix(0,-0.3104000227115677,0.3098309654818617,0,302.4282544871379,1158.689056831872)"
       sodipodi:nodetypes="cccccccccccc" />
    <path
       sodipodi:nodetypes="cccccccccc"
       transform="matrix(0,-0.3104000227115677,0.3098309654818617,0,290.5956280859988,1036.440813848477)"
       style="fill:#5a5a5a;fill-opacity:1;stroke:#000000;stroke-width:9.6738195419;stroke-linecap:butt;stroke-linejoin:miter;stroke-miterlimit:4;stroke-opacity:1;stroke-dasharray:none"
       d="M 3147.499999043659,416.2500000164889 L 3236.833511895301,425.3012260060766 L 3277.499999043659,446.2500000164889 L 3327.499999043659,506.2500000164889 L 3317.499999043659,646.2500000164889 L 3196.833511895301,705.3012260060761 L 3116.833511895301,665.3012260060761 L 3076.833511895301,585.3012260060761 L 3114.33351093896,511.5512260225653 z"
       id="path3813"
       inkscape:connector-curvature="0" />
    <path
       sodipodi:nodetypes="cccccccccc"
       transform="matrix(0,-0.3104000227115677,0.3098309654818617,0,333.4496332299785,1142.373844533845)"
       style="fill:#b4b4b4;fill-opacity:1;stroke:#000000;stroke-width:9.6738195419;stroke-linecap:butt;stroke-linejoin:miter;stroke-miterlimit:4;stroke-opacity:1;stroke-dasharray:none"
       d="M 3168.808836732329,327.7814432489661 L 3233.241821708572,360.0571068013408 L 3233.241821708572,456.884097458465 L 3201.025329220451,521.4354245632146 L 3111.51458627579,551.4563044588644 L 3046.771621407496,538.9276676661154 L 3069.078264885753,452.8449927000761 L 3047.797888975961,381.830876505815 L 3096.400568564252,356.9204106579291 z"
       id="path3815"
       inkscape:connector-curvature="0" />
    <text
       xml:space="preserve"
       style="font-size:20px;font-style:normal;font-variant:normal;font-weight:normal;font-stretch:normal;text-indent:0;text-align:start;text-decoration:none;line-height:125%;letter-spacing:0px;word-spacing:0px;text-transform:none;direction:ltr;block-progression:tb;writing-mode:lr-tb;text-anchor:start;baseline-shift:baseline;color:#000000;fill:#000000;fill-opacity:1;fill-rule:nonzero;stroke:none;stroke-width:1px;marker:none;visibility:visible;display:inline;overflow:visible;enable-background:accumulate;font-family:Latin Modern Sans;-inkscape-font-specification:Latin Modern Sans"
       x="638.03485"
       y="292.72748"
       id="text3119"
       sodipodi:linespacing="125%"
       transform="translate(-153.028376815375,106.0480363301959)"><tspan
         sodipodi:role="line"
         id="tspan3121"
         x="638.03485"
         y="292.72748"
         style="font-size:30px;font-weight:bold;text-align:center;text-anchor:middle;-inkscape-font-specification:Latin Modern Sans Bold">A</tspan></text>
    <text
       transform="translate(-348.8874610373523,165.1263353056526)"
       sodipodi:linespacing="125%"
       id="text3123"
       y="292.72748"
       x="638.03485"
       style="font-size:20px;font-style:normal;font-variant:normal;font-weight:normal;font-stretch:normal;text-indent:0;text-align:start;text-decoration:none;line-height:125%;letter-spacing:0px;word-spacing:0px;text-transform:none;direction:ltr;block-progression:tb;writing-mode:lr-tb;text-anchor:start;baseline-shift:baseline;color:#000000;fill:#000000;fill-opacity:1;fill-rule:nonzero;stroke:none;stroke-width:1px;marker:none;visibility:visible;display:inline;overflow:visible;enable-background:accumulate;font-family:Latin Modern Sans;-inkscape-font-specification:Latin Modern Sans"
       xml:space="preserve"><tspan
         style="font-size:30px;font-weight:bold;text-align:center;text-anchor:middle;-inkscape-font-specification:Latin Modern Sans Bold"
         y="292.72748"
         x="638.03485"
         id="tspan3125"
         sodipodi:role="line">A<tspan
   style="font-size:65.0009155273%;baseline-shift:sub"
   id="tspan3127">1</tspan></tspan></text>
    <text
       xml:space="preserve"
       style="font-size:20px;font-style:normal;font-variant:normal;font-weight:normal;font-stretch:normal;text-indent:0;text-align:start;text-decoration:none;line-height:125%;letter-spacing:0px;word-spacing:0px;text-transform:none;direction:ltr;block-progression:tb;writing-mode:lr-tb;text-anchor:start;baseline-shift:baseline;color:#000000;fill:#000000;fill-opacity:1;fill-rule:nonzero;stroke:none;stroke-width:1px;marker:none;visibility:visible;display:inline;overflow:visible;enable-background:accumulate;font-family:Latin Modern Sans;-inkscape-font-specification:Latin Modern Sans"
       x="638.03485"
       y="292.72748"
       id="text3129"
       sodipodi:linespacing="125%"
       transform="translate(-471.1876065443441,-67.2507015436887)"><tspan
         sodipodi:role="line"
         id="tspan3131"
         x="638.03485"
         y="292.72748"
         style="font-size:30px;font-weight:bold;text-align:center;text-anchor:middle;-inkscape-font-specification:Latin Modern Sans Bold">A<tspan
   id="tspan3133"
   style="font-size:65.0009155273%;baseline-shift:sub">2</tspan></tspan></text>
    <text
       transform="translate(-481.417997632603,-201.4815274414592)"
       sodipodi:linespacing="125%"
       id="text3135"
       y="292.72748"
       x="638.03485"
       style="font-size:20px;font-style:normal;font-variant:normal;font-weight:normal;font-stretch:normal;text-indent:0;text-align:start;text-decoration:none;line-height:125%;letter-spacing:0px;word-spacing:0px;text-transform:none;direction:ltr;block-progression:tb;writing-mode:lr-tb;text-anchor:start;baseline-shift:baseline;color:#000000;fill:#000000;fill-opacity:1;fill-rule:nonzero;stroke:none;stroke-width:1px;marker:none;visibility:visible;display:inline;overflow:visible;enable-background:accumulate;font-family:Latin Modern Sans;-inkscape-font-specification:Latin Modern Sans"
       xml:space="preserve"><tspan
         style="font-size:30px;font-weight:bold;text-align:center;text-anchor:middle;-inkscape-font-specification:Latin Modern Sans Bold"
         y="292.72748"
         x="638.03485"
         id="tspan3137"
         sodipodi:role="line">A<tspan
   style="font-size:65.0009155273%;baseline-shift:sub"
   id="tspan3139">3</tspan></tspan></text>
    <text
       xml:space="preserve"
       style="font-size:20px;font-style:normal;font-variant:normal;font-weight:normal;font-stretch:normal;text-indent:0;text-align:start;text-decoration:none;line-height:125%;letter-spacing:0px;word-spacing:0px;text-transform:none;direction:ltr;block-progression:tb;writing-mode:lr-tb;text-anchor:start;baseline-shift:baseline;color:#000000;fill:#000000;fill-opacity:1;fill-rule:nonzero;stroke:none;stroke-width:1px;marker:none;visibility:visible;display:inline;overflow:visible;enable-background:accumulate;font-family:Latin Modern Sans;-inkscape-font-specification:Latin Modern Sans"
       x="638.03485"
       y="292.72748"
       id="text3141"
       sodipodi:linespacing="125%"
       transform="translate(-156.509633106535,-66.3053734511551)"><tspan
         sodipodi:role="line"
         id="tspan3143"
         x="638.03485"
         y="292.72748"
         style="font-size:30px;font-weight:bold;text-align:center;text-anchor:middle;-inkscape-font-specification:Latin Modern Sans Bold">A<tspan
   id="tspan3145"
   style="font-size:65.0009155273%;baseline-shift:sub">4</tspan></tspan></text>
    <text
       transform="translate(-173.0283774710261,-243.95196838383)"
       sodipodi:linespacing="125%"
       id="text3147"
       y="292.72748"
       x="638.03485"
       style="font-size:20px;font-style:normal;font-variant:normal;font-weight:normal;font-stretch:normal;text-indent:0;text-align:start;text-decoration:none;line-height:125%;letter-spacing:0px;word-spacing:0px;text-transform:none;direction:ltr;block-progression:tb;writing-mode:lr-tb;text-anchor:start;baseline-shift:baseline;color:#000000;fill:#000000;fill-opacity:1;fill-rule:nonzero;stroke:none;stroke-width:1px;marker:none;visibility:visible;display:inline;overflow:visible;enable-background:accumulate;font-family:Latin Modern Sans;-inkscape-font-specification:Latin Modern Sans"
       xml:space="preserve"><tspan
         style="font-size:30px;font-weight:bold;text-align:center;text-anchor:middle;-inkscape-font-specification:Latin Modern Sans Bold"
         y="292.72748"
         x="638.03485"
         id="tspan3149"
         sodipodi:role="line">A<tspan
   style="font-size:65.0009155273%;baseline-shift:sub"
   id="tspan3151">5</tspan></tspan></text>
    <text
       transform="translate(-408.0179007758255,-257.7199360315423)"
       sodipodi:linespacing="125%"
       id="text3172"
       y="292.72748"
       x="638.03485"
       style="font-size:20px;font-style:normal;font-variant:normal;font-weight:normal;font-stretch:normal;text-indent:0;text-align:start;text-decoration:none;line-height:125%;letter-spacing:0px;word-spacing:0px;text-transform:none;direction:ltr;block-progression:tb;writing-mode:lr-tb;text-anchor:start;baseline-shift:baseline;color:#000000;fill:#000000;fill-opacity:1;fill-rule:nonzero;stroke:none;stroke-width:1px;marker:none;visibility:visible;display:inline;overflow:visible;enable-background:accumulate;font-family:Latin Modern Sans;-inkscape-font-specification:Latin Modern Sans"
       xml:space="preserve"><tspan
         style="font-size:30px;font-weight:bold;text-align:center;text-anchor:middle;-inkscape-font-specification:Latin Modern Sans Bold"
         y="292.72748"
         x="638.03485"
         id="tspan3174"
         sodipodi:role="line">B</tspan></text>
    <text
       xml:space="preserve"
       style="font-size:20px;font-style:normal;font-variant:normal;font-weight:normal;font-stretch:normal;text-indent:0;text-align:start;text-decoration:none;line-height:125%;letter-spacing:0px;word-spacing:0px;text-transform:none;direction:ltr;block-progression:tb;writing-mode:lr-tb;text-anchor:start;baseline-shift:baseline;color:#000000;fill:#000000;fill-opacity:1;fill-rule:nonzero;stroke:none;stroke-width:1px;marker:none;visibility:visible;display:inline;overflow:visible;enable-background:accumulate;font-family:Latin Modern Sans;-inkscape-font-specification:Latin Modern Sans"
       x="638.03485"
       y="292.72748"
       id="text3176"
       sodipodi:linespacing="125%"
       transform="translate(-413.7082691729353,67.94973044670581)"><tspan
         sodipodi:role="line"
         id="tspan3178"
         x="638.03485"
         y="292.72748"
         style="font-size:30px;font-weight:bold;text-align:center;text-anchor:middle;-inkscape-font-specification:Latin Modern Sans Bold">C</tspan></text>
    <text
       transform="translate(-383.7517396873845,-132.4385204079309)"
       sodipodi:linespacing="125%"
       id="text3180"
       y="292.72748"
       x="638.03485"
       style="font-size:20px;font-style:normal;font-variant:normal;font-weight:normal;font-stretch:normal;text-indent:0;text-align:start;text-decoration:none;line-height:125%;letter-spacing:0px;word-spacing:0px;text-transform:none;direction:ltr;block-progression:tb;writing-mode:lr-tb;text-anchor:start;baseline-shift:baseline;color:#000000;fill:#000000;fill-opacity:1;fill-rule:nonzero;stroke:none;stroke-width:1px;marker:none;visibility:visible;display:inline;overflow:visible;enable-background:accumulate;font-family:Latin Modern Sans;-inkscape-font-specification:Latin Modern Sans"
       xml:space="preserve"><tspan
         style="font-size:30px;font-weight:bold;text-align:center;text-anchor:middle;-inkscape-font-specification:Latin Modern Sans Bold"
         y="292.72748"
         x="638.03485"
         id="tspan3182"
         sodipodi:role="line">D</tspan></text>
    <text
       xml:space="preserve"
       style="font-size:20px;font-style:normal;font-variant:normal;font-weight:normal;font-stretch:normal;text-indent:0;text-align:start;text-decoration:none;line-height:125%;letter-spacing:0px;word-spacing:0px;text-transform:none;direction:ltr;block-progression:tb;writing-mode:lr-tb;text-anchor:start;baseline-shift:baseline;color:#000000;fill:#000000;fill-opacity:1;fill-rule:nonzero;stroke:none;stroke-width:1px;marker:none;visibility:visible;display:inline;overflow:visible;enable-background:accumulate;font-family:Latin Modern Sans;-inkscape-font-specification:Latin Modern Sans"
       x="638.03485"
       y="292.72748"
       id="text3184"
       sodipodi:linespacing="125%"
       transform="translate(-193.028376815375,-183.95196838383)"><tspan
         sodipodi:role="line"
         id="tspan3186"
         x="638.03485"
         y="292.72748"
         style="font-size:30px;font-weight:bold;text-align:center;text-anchor:middle;-inkscape-font-specification:Latin Modern Sans Bold">E</tspan></text>
    <text
       transform="translate(-168.9842998449038,-120.8467911795887)"
       sodipodi:linespacing="125%"
       id="text3188"
       y="292.72748"
       x="638.03485"
       style="font-size:20px;font-style:normal;font-variant:normal;font-weight:normal;font-stretch:normal;text-indent:0;text-align:start;text-decoration:none;line-height:125%;letter-spacing:0px;word-spacing:0px;text-transform:none;direction:ltr;block-progression:tb;writing-mode:lr-tb;text-anchor:start;baseline-shift:baseline;color:#000000;fill:#000000;fill-opacity:1;fill-rule:nonzero;stroke:none;stroke-width:1px;marker:none;visibility:visible;display:inline;overflow:visible;enable-background:accumulate;font-family:Latin Modern Sans;-inkscape-font-specification:Latin Modern Sans"
       xml:space="preserve"><tspan
         style="font-size:30px;font-weight:bold;text-align:center;text-anchor:middle;-inkscape-font-specification:Latin Modern Sans Bold"
         y="292.72748"
         x="638.03485"
         id="tspan3190"
         sodipodi:role="line">E<tspan
   style="font-size:65.0009155273%;baseline-shift:sub"
   id="tspan3192">1</tspan></tspan></text>
    <path
       style="fill:#969696;fill-opacity:1;fill-rule:evenodd;stroke:none"
       d="M -190.9188311722078,153.2196208808273 C -191.2340827249872,153.082679179836 -191.3383599331881,152.4577697456662 -191.1851949919655,151.3853499133009 C -191.032030050743,150.3129300809357 -190.6184660210709,148.7920723812198 -189.8295768683859,146.9259464068728 C -189.0406877157011,145.0598204325259 -187.8730541300082,142.8472868779855 -186.1918770969816,140.4706305309859 C -184.5107000639549,138.0939741839864 -182.3127825584874,135.5526114443665 -179.4936347401616,133.1214473556175 C -179.4936336082422,133.1214463794779 -179.4936324763227,133.1214454033383 -179.493631344403,133.1214444271987 C -176.8716895344403,130.8626131506432 -173.7222563809266,128.7135816571499 -170.0680908423297,126.9305502921974 C -166.4139253037329,125.147518927245 -162.2541778744418,123.7317855022327 -157.7137952165195,122.9624112814019 C -154.5011083419401,122.396264515545 -150.9383390335548,122.1840934123734 -147.1528669207577,122.761039100571 C -142.5112145553675,123.5497536290512 -138.1289428747899,125.4821041262905 -134.3263106797839,128.1044585736703 C -131.0287219700591,130.3584730803493 -128.0931949422647,132.9818356950632 -125.3812845089489,135.6581172076402 C -125.1198006247759,135.9161657318288 -124.8611698883346,136.1738349920456 -124.6051905751715,136.4308169363393 C -121.5462988424584,139.3913368914585 -118.7818436826199,142.3216080329851 -116.0544757422334,144.7693171797363 C -113.327107801847,147.2170263264873 -110.6346985309548,149.18028841925 -107.774458164638,150.3748742410145 C -104.9000645262669,151.7166248561027 -101.7795498386229,152.3572139396097 -98.70482083286806,152.528517917758 C -95.63009182711329,152.6998218959063 -92.6017978134963,152.401879613225 -89.81037749961632,151.8261700717972 C -85.95262149533539,151.024207537003 -82.49500145256175,149.6431670632302 -79.4690928129728,148.1776757414579 C -76.44318417338385,146.7121844196855 -73.84858979783398,145.159649043026 -71.68886413803939,143.8220926511099 C -69.32750300181835,142.3507569574942 -67.48305140946686,141.1272598466862 -66.13885774886088,140.361482303738 C -64.7946640882549,139.5957047607898 -63.94625273623658,139.2891259720269 -63.63961039073875,139.5825615113868 C -63.3329680452402,139.875997050746 -63.58680609165587,140.7545900439985 -64.41725834432509,142.1190069150209 C -65.2477105969943,143.4834237860434 -66.6590005242853,145.3328980560824 -68.72233972400172,147.4648609093339 C -70.60518722359525,149.4194140129138 -73.05486049484923,151.6277454986636 -76.18420314343185,153.7747406607187 C -79.31354579201448,155.9217358227738 -83.12572929927668,158.009632969013 -87.71614426402018,159.5101733971514 C -91.07207334205547,160.6098904350621 -94.84937656665273,161.3192770405451 -98.87838729852479,161.3508249440597 C -102.9073980303969,161.3823728475743 -107.1880724085764,160.7346748476977 -111.4286442923451,159.0948251582929 C -115.4777752410643,157.3939670664303 -119.1348656140863,154.9960307988066 -122.4653470985988,152.2572477953192 C -125.7958285831112,149.5184647918318 -128.8000465202003,146.4416740222016 -131.6555418381285,143.5211949406071 C -131.9021226478558,143.2784538244162 -132.1483413055748,143.0366269347746 -132.3943745258804,142.7960337144957 C -134.9460425156661,140.3007852355204 -137.3963110374484,138.0281940852873 -139.9422286636099,136.2567643562435 C -142.8729476529274,134.2406828793604 -145.8757972943253,132.7189794761704 -148.8218241104211,132.1604236405887 C -151.2091075221503,131.6413332891064 -153.8205568566484,131.7013004469476 -156.443646553633,131.9590506401347 C -160.1413077238742,132.3527263022566 -163.6299776242416,133.2471746750886 -166.7866189507375,134.4402312839626 C -169.9432602772334,135.6332878928365 -172.7682753462661,137.1248272491586 -175.223750635064,138.7308955552059 C -175.2237516959894,138.730896248247 -175.2237527569148,138.730896941288 -175.2237538178401,138.730897634329 C -177.866084387466,140.4569791253987 -180.0945692571647,142.3205781895276 -181.9548060252359,144.0898755068436 C -183.8150427933072,145.8591728241596 -185.3095422834623,147.5352110358971 -186.5190525385933,148.945283656549 C -187.7285627937244,150.3553562772009 -188.656411554594,151.5005175360966 -189.3742751199763,152.2507646486178 C -190.0921386853587,153.0010117611391 -190.6035796194284,153.3565625818186 -190.9188311722078,153.2196208808273 z"
       id="path4037"
       inkscape:path-effect="#path-effect4039;#path-effect4041"
       inkscape:original-d="M -190.9188311722078,153.2196208808273 C -184.4072087399287,137.3872605781757 -175.0313233945188,127.4607309607675 -157.0787208850705,127.4607309607675 C -154.9818119319681,127.4607309607675 -149.7525815851067,126.4520260390541 -147.9873479721082,127.4607309607675 C -133.9798510987984,135.4650148883731 -125.2261264683383,149.5266579530382 -109.6015512284897,154.7348496996544 C -99.20539779264929,158.2002341782678 -78.31003117223716,151.7217987116302 -70.20560193898646,145.6434767866921 C -67.97501255822841,143.9705347511235 -65.74557174955201,140.635542190792 -63.63961039073593,139.5825615113839"
       inkscape:connector-curvature="0"
       transform="matrix(0.6367531305292979,0,0,0.6367531305292979,238.3283112135288,440.3346215459932)" />
    <path
       style="fill:#969696;fill-opacity:1;fill-rule:evenodd;stroke:none"
       d="M -190.9188311722078,153.2196208808273 C -191.2340827249872,153.082679179836 -191.3383599331881,152.4577697456662 -191.1851949919655,151.3853499133009 C -191.032030050743,150.3129300809357 -190.6184660210709,148.7920723812198 -189.8295768683859,146.9259464068728 C -189.0406877157011,145.0598204325259 -187.8730541300082,142.8472868779855 -186.1918770969816,140.4706305309859 C -184.5107000639549,138.0939741839864 -182.3127825584874,135.5526114443665 -179.4936347401616,133.1214473556175 C -179.4936336082422,133.1214463794779 -179.4936324763227,133.1214454033383 -179.493631344403,133.1214444271987 C -176.8716895344403,130.8626131506432 -173.7222563809266,128.7135816571499 -170.0680908423297,126.9305502921974 C -166.4139253037329,125.147518927245 -162.2541778744418,123.7317855022327 -157.7137952165195,122.9624112814019 C -154.5011083419401,122.396264515545 -150.9383390335548,122.1840934123734 -147.1528669207577,122.761039100571 C -142.5112145553675,123.5497536290512 -138.1289428747899,125.4821041262905 -134.3263106797839,128.1044585736703 C -131.0287219700591,130.3584730803493 -128.0931949422647,132.9818356950632 -125.3812845089489,135.6581172076402 C -125.1198006247759,135.9161657318288 -124.8611698883346,136.1738349920456 -124.6051905751715,136.4308169363393 C -121.5462988424584,139.3913368914585 -118.7818436826199,142.3216080329851 -116.0544757422334,144.7693171797363 C -113.327107801847,147.2170263264873 -110.6346985309548,149.18028841925 -107.774458164638,150.3748742410145 C -104.9000645262669,151.7166248561027 -101.7795498386229,152.3572139396097 -98.70482083286806,152.528517917758 C -95.63009182711329,152.6998218959063 -92.6017978134963,152.401879613225 -89.81037749961632,151.8261700717972 C -85.95262149533539,151.024207537003 -82.49500145256175,149.6431670632302 -79.4690928129728,148.1776757414579 C -76.44318417338385,146.7121844196855 -73.84858979783398,145.159649043026 -71.68886413803939,143.8220926511099 C -69.32750300181835,142.3507569574942 -67.48305140946686,141.1272598466862 -66.13885774886088,140.361482303738 C -64.7946640882549,139.5957047607898 -63.94625273623658,139.2891259720269 -63.63961039073875,139.5825615113868 C -63.3329680452402,139.875997050746 -63.58680609165587,140.7545900439985 -64.41725834432509,142.1190069150209 C -65.2477105969943,143.4834237860434 -66.6590005242853,145.3328980560824 -68.72233972400172,147.4648609093339 C -70.60518722359525,149.4194140129138 -73.05486049484923,151.6277454986636 -76.18420314343185,153.7747406607187 C -79.31354579201448,155.9217358227738 -83.12572929927668,158.009632969013 -87.71614426402018,159.5101733971514 C -91.07207334205547,160.6098904350621 -94.84937656665273,161.3192770405451 -98.87838729852479,161.3508249440597 C -102.9073980303969,161.3823728475743 -107.1880724085764,160.7346748476977 -111.4286442923451,159.0948251582929 C -115.4777752410643,157.3939670664303 -119.1348656140863,154.9960307988066 -122.4653470985988,152.2572477953192 C -125.7958285831112,149.5184647918318 -128.8000465202003,146.4416740222016 -131.6555418381285,143.5211949406071 C -131.9021226478558,143.2784538244162 -132.1483413055748,143.0366269347746 -132.3943745258804,142.7960337144957 C -134.9460425156661,140.3007852355204 -137.3963110374484,138.0281940852873 -139.9422286636099,136.2567643562435 C -142.8729476529274,134.2406828793604 -145.8757972943253,132.7189794761704 -148.8218241104211,132.1604236405887 C -151.2091075221503,131.6413332891064 -153.8205568566484,131.7013004469476 -156.443646553633,131.9590506401347 C -160.1413077238742,132.3527263022566 -163.6299776242416,133.2471746750886 -166.7866189507375,134.4402312839626 C -169.9432602772334,135.6332878928365 -172.7682753462661,137.1248272491586 -175.223750635064,138.7308955552059 C -175.2237516959894,138.730896248247 -175.2237527569148,138.730896941288 -175.2237538178401,138.730897634329 C -177.866084387466,140.4569791253987 -180.0945692571647,142.3205781895276 -181.9548060252359,144.0898755068436 C -183.8150427933072,145.8591728241596 -185.3095422834623,147.5352110358971 -186.5190525385933,148.945283656549 C -187.7285627937244,150.3553562772009 -188.656411554594,151.5005175360966 -189.3742751199763,152.2507646486178 C -190.0921386853587,153.0010117611391 -190.6035796194284,153.3565625818186 -190.9188311722078,153.2196208808273 z"
       id="path4045"
       inkscape:path-effect="#path-effect4039;#path-effect4041"
       inkscape:original-d="M -190.9188311722078,153.2196208808273 C -184.4072087399287,137.3872605781757 -175.0313233945188,127.4607309607675 -157.0787208850705,127.4607309607675 C -154.9818119319681,127.4607309607675 -149.7525815851067,126.4520260390541 -147.9873479721082,127.4607309607675 C -133.9798510987984,135.4650148883731 -125.2261264683383,149.5266579530382 -109.6015512284897,154.7348496996544 C -99.20539779264929,158.2002341782678 -78.31003117223716,151.7217987116302 -70.20560193898646,145.6434767866921 C -67.97501255822841,143.9705347511235 -65.74557174955201,140.635542190792 -63.63961039073593,139.5825615113839"
       inkscape:connector-curvature="0"
       transform="matrix(0.6367531305292979,0,0,0.6367531305292979,311.6807643078088,510.4956192927738)" />
    <path
       transform="matrix(0.6367531305292979,0,0,0.6367531305292979,419.3486678340307,443.0184496256402)"
       inkscape:connector-curvature="0"
       inkscape:original-d="M -190.9188311722078,153.2196208808273 C -184.4072087399287,137.3872605781757 -175.0313233945188,127.4607309607675 -157.0787208850705,127.4607309607675 C -154.9818119319681,127.4607309607675 -149.7525815851067,126.4520260390541 -147.9873479721082,127.4607309607675 C -133.9798510987984,135.4650148883731 -125.2261264683383,149.5266579530382 -109.6015512284897,154.7348496996544 C -99.20539779264929,158.2002341782678 -78.31003117223716,151.7217987116302 -70.20560193898646,145.6434767866921 C -67.97501255822841,143.9705347511235 -65.74557174955201,140.635542190792 -63.63961039073593,139.5825615113839"
       inkscape:path-effect="#path-effect4039;#path-effect4041"
       id="path4047"
       d="M -190.9188311722078,153.2196208808273 C -191.2340827249872,153.082679179836 -191.3383599331881,152.4577697456662 -191.1851949919655,151.3853499133009 C -191.032030050743,150.3129300809357 -190.6184660210709,148.7920723812198 -189.8295768683859,146.9259464068728 C -189.0406877157011,145.0598204325259 -187.8730541300082,142.8472868779855 -186.1918770969816,140.4706305309859 C -184.5107000639549,138.0939741839864 -182.3127825584874,135.5526114443665 -179.4936347401616,133.1214473556175 C -179.4936336082422,133.1214463794779 -179.4936324763227,133.1214454033383 -179.493631344403,133.1214444271987 C -176.8716895344403,130.8626131506432 -173.7222563809266,128.7135816571499 -170.0680908423297,126.9305502921974 C -166.4139253037329,125.147518927245 -162.2541778744418,123.7317855022327 -157.7137952165195,122.9624112814019 C -154.5011083419401,122.396264515545 -150.9383390335548,122.1840934123734 -147.1528669207577,122.761039100571 C -142.5112145553675,123.5497536290512 -138.1289428747899,125.4821041262905 -134.3263106797839,128.1044585736703 C -131.0287219700591,130.3584730803493 -128.0931949422647,132.9818356950632 -125.3812845089489,135.6581172076402 C -125.1198006247759,135.9161657318288 -124.8611698883346,136.1738349920456 -124.6051905751715,136.4308169363393 C -121.5462988424584,139.3913368914585 -118.7818436826199,142.3216080329851 -116.0544757422334,144.7693171797363 C -113.327107801847,147.2170263264873 -110.6346985309548,149.18028841925 -107.774458164638,150.3748742410145 C -104.9000645262669,151.7166248561027 -101.7795498386229,152.3572139396097 -98.70482083286806,152.528517917758 C -95.63009182711329,152.6998218959063 -92.6017978134963,152.401879613225 -89.81037749961632,151.8261700717972 C -85.95262149533539,151.024207537003 -82.49500145256175,149.6431670632302 -79.4690928129728,148.1776757414579 C -76.44318417338385,146.7121844196855 -73.84858979783398,145.159649043026 -71.68886413803939,143.8220926511099 C -69.32750300181835,142.3507569574942 -67.48305140946686,141.1272598466862 -66.13885774886088,140.361482303738 C -64.7946640882549,139.5957047607898 -63.94625273623658,139.2891259720269 -63.63961039073875,139.5825615113868 C -63.3329680452402,139.875997050746 -63.58680609165587,140.7545900439985 -64.41725834432509,142.1190069150209 C -65.2477105969943,143.4834237860434 -66.6590005242853,145.3328980560824 -68.72233972400172,147.4648609093339 C -70.60518722359525,149.4194140129138 -73.05486049484923,151.6277454986636 -76.18420314343185,153.7747406607187 C -79.31354579201448,155.9217358227738 -83.12572929927668,158.009632969013 -87.71614426402018,159.5101733971514 C -91.07207334205547,160.6098904350621 -94.84937656665273,161.3192770405451 -98.87838729852479,161.3508249440597 C -102.9073980303969,161.3823728475743 -107.1880724085764,160.7346748476977 -111.4286442923451,159.0948251582929 C -115.4777752410643,157.3939670664303 -119.1348656140863,154.9960307988066 -122.4653470985988,152.2572477953192 C -125.7958285831112,149.5184647918318 -128.8000465202003,146.4416740222016 -131.6555418381285,143.5211949406071 C -131.9021226478558,143.2784538244162 -132.1483413055748,143.0366269347746 -132.3943745258804,142.7960337144957 C -134.9460425156661,140.3007852355204 -137.3963110374484,138.0281940852873 -139.9422286636099,136.2567643562435 C -142.8729476529274,134.2406828793604 -145.8757972943253,132.7189794761704 -148.8218241104211,132.1604236405887 C -151.2091075221503,131.6413332891064 -153.8205568566484,131.7013004469476 -156.443646553633,131.9590506401347 C -160.1413077238742,132.3527263022566 -163.6299776242416,133.2471746750886 -166.7866189507375,134.4402312839626 C -169.9432602772334,135.6332878928365 -172.7682753462661,137.1248272491586 -175.223750635064,138.7308955552059 C -175.2237516959894,138.730896248247 -175.2237527569148,138.730896941288 -175.2237538178401,138.730897634329 C -177.866084387466,140.4569791253987 -180.0945692571647,142.3205781895276 -181.9548060252359,144.0898755068436 C -183.8150427933072,145.8591728241596 -185.3095422834623,147.5352110358971 -186.5190525385933,148.945283656549 C -187.7285627937244,150.3553562772009 -188.656411554594,151.5005175360966 -189.3742751199763,152.2507646486178 C -190.0921386853587,153.0010117611391 -190.6035796194284,153.3565625818186 -190.9188311722078,153.2196208808273 z"
       style="fill:#969696;fill-opacity:1;fill-rule:evenodd;stroke:none" />
    <path
       transform="matrix(0.6367531305292979,0,0,0.6367531305292979,619.0419784893307,465.5735671290418)"
       inkscape:connector-curvature="0"
       inkscape:original-d="M -190.9188311722078,153.2196208808273 C -184.4072087399287,137.3872605781757 -175.0313233945188,127.4607309607675 -157.0787208850705,127.4607309607675 C -154.9818119319681,127.4607309607675 -149.7525815851067,126.4520260390541 -147.9873479721082,127.4607309607675 C -133.9798510987984,135.4650148883731 -125.2261264683383,149.5266579530382 -109.6015512284897,154.7348496996544 C -99.20539779264929,158.2002341782678 -78.31003117223716,151.7217987116302 -70.20560193898646,145.6434767866921 C -67.97501255822841,143.9705347511235 -65.74557174955201,140.635542190792 -63.63961039073593,139.5825615113839"
       inkscape:path-effect="#path-effect4039;#path-effect4041"
       id="path4051"
       d="M -190.9188311722078,153.2196208808273 C -191.2340827249872,153.082679179836 -191.3383599331881,152.4577697456662 -191.1851949919655,151.3853499133009 C -191.032030050743,150.3129300809357 -190.6184660210709,148.7920723812198 -189.8295768683859,146.9259464068728 C -189.0406877157011,145.0598204325259 -187.8730541300082,142.8472868779855 -186.1918770969816,140.4706305309859 C -184.5107000639549,138.0939741839864 -182.3127825584874,135.5526114443665 -179.4936347401616,133.1214473556175 C -179.4936336082422,133.1214463794779 -179.4936324763227,133.1214454033383 -179.493631344403,133.1214444271987 C -176.8716895344403,130.8626131506432 -173.7222563809266,128.7135816571499 -170.0680908423297,126.9305502921974 C -166.4139253037329,125.147518927245 -162.2541778744418,123.7317855022327 -157.7137952165195,122.9624112814019 C -154.5011083419401,122.396264515545 -150.9383390335548,122.1840934123734 -147.1528669207577,122.761039100571 C -142.5112145553675,123.5497536290512 -138.1289428747899,125.4821041262905 -134.3263106797839,128.1044585736703 C -131.0287219700591,130.3584730803493 -128.0931949422647,132.9818356950632 -125.3812845089489,135.6581172076402 C -125.1198006247759,135.9161657318288 -124.8611698883346,136.1738349920456 -124.6051905751715,136.4308169363393 C -121.5462988424584,139.3913368914585 -118.7818436826199,142.3216080329851 -116.0544757422334,144.7693171797363 C -113.327107801847,147.2170263264873 -110.6346985309548,149.18028841925 -107.774458164638,150.3748742410145 C -104.9000645262669,151.7166248561027 -101.7795498386229,152.3572139396097 -98.70482083286806,152.528517917758 C -95.63009182711329,152.6998218959063 -92.6017978134963,152.401879613225 -89.81037749961632,151.8261700717972 C -85.95262149533539,151.024207537003 -82.49500145256175,149.6431670632302 -79.4690928129728,148.1776757414579 C -76.44318417338385,146.7121844196855 -73.84858979783398,145.159649043026 -71.68886413803939,143.8220926511099 C -69.32750300181835,142.3507569574942 -67.48305140946686,141.1272598466862 -66.13885774886088,140.361482303738 C -64.7946640882549,139.5957047607898 -63.94625273623658,139.2891259720269 -63.63961039073875,139.5825615113868 C -63.3329680452402,139.875997050746 -63.58680609165587,140.7545900439985 -64.41725834432509,142.1190069150209 C -65.2477105969943,143.4834237860434 -66.6590005242853,145.3328980560824 -68.72233972400172,147.4648609093339 C -70.60518722359525,149.4194140129138 -73.05486049484923,151.6277454986636 -76.18420314343185,153.7747406607187 C -79.31354579201448,155.9217358227738 -83.12572929927668,158.009632969013 -87.71614426402018,159.5101733971514 C -91.07207334205547,160.6098904350621 -94.84937656665273,161.3192770405451 -98.87838729852479,161.3508249440597 C -102.9073980303969,161.3823728475743 -107.1880724085764,160.7346748476977 -111.4286442923451,159.0948251582929 C -115.4777752410643,157.3939670664303 -119.1348656140863,154.9960307988066 -122.4653470985988,152.2572477953192 C -125.7958285831112,149.5184647918318 -128.8000465202003,146.4416740222016 -131.6555418381285,143.5211949406071 C -131.9021226478558,143.2784538244162 -132.1483413055748,143.0366269347746 -132.3943745258804,142.7960337144957 C -134.9460425156661,140.3007852355204 -137.3963110374484,138.0281940852873 -139.9422286636099,136.2567643562435 C -142.8729476529274,134.2406828793604 -145.8757972943253,132.7189794761704 -148.8218241104211,132.1604236405887 C -151.2091075221503,131.6413332891064 -153.8205568566484,131.7013004469476 -156.443646553633,131.9590506401347 C -160.1413077238742,132.3527263022566 -163.6299776242416,133.2471746750886 -166.7866189507375,134.4402312839626 C -169.9432602772334,135.6332878928365 -172.7682753462661,137.1248272491586 -175.223750635064,138.7308955552059 C -175.2237516959894,138.730896248247 -175.2237527569148,138.730896941288 -175.2237538178401,138.730897634329 C -177.866084387466,140.4569791253987 -180.0945692571647,142.3205781895276 -181.9548060252359,144.0898755068436 C -183.8150427933072,145.8591728241596 -185.3095422834623,147.5352110358971 -186.5190525385933,148.945283656549 C -187.7285627937244,150.3553562772009 -188.656411554594,151.5005175360966 -189.3742751199763,152.2507646486178 C -190.0921386853587,153.0010117611391 -190.6035796194284,153.3565625818186 -190.9188311722078,153.2196208808273 z"
       style="fill:#969696;fill-opacity:1;fill-rule:evenodd;stroke:none" />
    <path
       style="fill:#969696;fill-opacity:1;fill-rule:evenodd;stroke:none"
       d="M -190.9188311722078,153.2196208808273 C -191.2340827249872,153.082679179836 -191.3383599331881,152.4577697456662 -191.1851949919655,151.3853499133009 C -191.032030050743,150.3129300809357 -190.6184660210709,148.7920723812198 -189.8295768683859,146.9259464068728 C -189.0406877157011,145.0598204325259 -187.8730541300082,142.8472868779855 -186.1918770969816,140.4706305309859 C -184.5107000639549,138.0939741839864 -182.3127825584874,135.5526114443665 -179.4936347401616,133.1214473556175 C -179.4936336082422,133.1214463794779 -179.4936324763227,133.1214454033383 -179.493631344403,133.1214444271987 C -176.8716895344403,130.8626131506432 -173.7222563809266,128.7135816571499 -170.0680908423297,126.9305502921974 C -166.4139253037329,125.147518927245 -162.2541778744418,123.7317855022327 -157.7137952165195,122.9624112814019 C -154.5011083419401,122.396264515545 -150.9383390335548,122.1840934123734 -147.1528669207577,122.761039100571 C -142.5112145553675,123.5497536290512 -138.1289428747899,125.4821041262905 -134.3263106797839,128.1044585736703 C -131.0287219700591,130.3584730803493 -128.0931949422647,132.9818356950632 -125.3812845089489,135.6581172076402 C -125.1198006247759,135.9161657318288 -124.8611698883346,136.1738349920456 -124.6051905751715,136.4308169363393 C -121.5462988424584,139.3913368914585 -118.7818436826199,142.3216080329851 -116.0544757422334,144.7693171797363 C -113.327107801847,147.2170263264873 -110.6346985309548,149.18028841925 -107.774458164638,150.3748742410145 C -104.9000645262669,151.7166248561027 -101.7795498386229,152.3572139396097 -98.70482083286806,152.528517917758 C -95.63009182711329,152.6998218959063 -92.6017978134963,152.401879613225 -89.81037749961632,151.8261700717972 C -85.95262149533539,151.024207537003 -82.49500145256175,149.6431670632302 -79.4690928129728,148.1776757414579 C -76.44318417338385,146.7121844196855 -73.84858979783398,145.159649043026 -71.68886413803939,143.8220926511099 C -69.32750300181835,142.3507569574942 -67.48305140946686,141.1272598466862 -66.13885774886088,140.361482303738 C -64.7946640882549,139.5957047607898 -63.94625273623658,139.2891259720269 -63.63961039073875,139.5825615113868 C -63.3329680452402,139.875997050746 -63.58680609165587,140.7545900439985 -64.41725834432509,142.1190069150209 C -65.2477105969943,143.4834237860434 -66.6590005242853,145.3328980560824 -68.72233972400172,147.4648609093339 C -70.60518722359525,149.4194140129138 -73.05486049484923,151.6277454986636 -76.18420314343185,153.7747406607187 C -79.31354579201448,155.9217358227738 -83.12572929927668,158.009632969013 -87.71614426402018,159.5101733971514 C -91.07207334205547,160.6098904350621 -94.84937656665273,161.3192770405451 -98.87838729852479,161.3508249440597 C -102.9073980303969,161.3823728475743 -107.1880724085764,160.7346748476977 -111.4286442923451,159.0948251582929 C -115.4777752410643,157.3939670664303 -119.1348656140863,154.9960307988066 -122.4653470985988,152.2572477953192 C -125.7958285831112,149.5184647918318 -128.8000465202003,146.4416740222016 -131.6555418381285,143.5211949406071 C -131.9021226478558,143.2784538244162 -132.1483413055748,143.0366269347746 -132.3943745258804,142.7960337144957 C -134.9460425156661,140.3007852355204 -137.3963110374484,138.0281940852873 -139.9422286636099,136.2567643562435 C -142.8729476529274,134.2406828793604 -145.8757972943253,132.7189794761704 -148.8218241104211,132.1604236405887 C -151.2091075221503,131.6413332891064 -153.8205568566484,131.7013004469476 -156.443646553633,131.9590506401347 C -160.1413077238742,132.3527263022566 -163.6299776242416,133.2471746750886 -166.7866189507375,134.4402312839626 C -169.9432602772334,135.6332878928365 -172.7682753462661,137.1248272491586 -175.223750635064,138.7308955552059 C -175.2237516959894,138.730896248247 -175.2237527569148,138.730896941288 -175.2237538178401,138.730897634329 C -177.866084387466,140.4569791253987 -180.0945692571647,142.3205781895276 -181.9548060252359,144.0898755068436 C -183.8150427933072,145.8591728241596 -185.3095422834623,147.5352110358971 -186.5190525385933,148.945283656549 C -187.7285627937244,150.3553562772009 -188.656411554594,151.5005175360966 -189.3742751199763,152.2507646486178 C -190.0921386853587,153.0010117611391 -190.6035796194284,153.3565625818186 -190.9188311722078,153.2196208808273 z"
       id="path4053"
       inkscape:path-effect="#path-effect4039;#path-effect4041"
       inkscape:original-d="M -190.9188311722078,153.2196208808273 C -184.4072087399287,137.3872605781757 -175.0313233945188,127.4607309607675 -157.0787208850705,127.4607309607675 C -154.9818119319681,127.4607309607675 -149.7525815851067,126.4520260390541 -147.9873479721082,127.4607309607675 C -133.9798510987984,135.4650148883731 -125.2261264683383,149.5266579530382 -109.6015512284897,154.7348496996544 C -99.20539779264929,158.2002341782678 -78.31003117223716,151.7217987116302 -70.20560193898646,145.6434767866921 C -67.97501255822841,143.9705347511235 -65.74557174955201,140.635542190792 -63.63961039073593,139.5825615113839"
       inkscape:connector-curvature="0"
       transform="matrix(0.6367531305292979,0,0,0.6367531305292979,526.3233122442384,507.4800297191882)" />
    <path
       style="fill:#141414;fill-opacity:1"
       d="M 244.2037231822262,718.8266936132745 C 204.6205875895708,713.8614900650718 155.3264669962665,685.9719792453853 99,636.6736749569364 C 81.66151089818376,621.4986043866495 40.33073930205483,579.7380617270531 23.18986528968001,560.0752413361966 C 14.83543938035598,550.4916240711047 8.000009683660881,542.3916240711049 8.000021519246473,542.0752413361966 C 8.000033354832066,541.7588586012883 63.68753335483209,541.5 131.7500215192465,541.5 L 255.5,541.5 L 255.7519849022756,292.5496551425742 L 256.0039698045513,43.59931028514836 L 253.1139379985459,40.54965514257418 C 248.2581825887288,35.42570480200708 246.5670623679988,31.14840588519739 246.5706832478139,24 C 246.5813148747013,3.010851480362948 271.4478009646045,-7.791619137161108 286.3757942975303,6.707908910522065 C 291.3775929326001,11.56614524414209 293.1153883619968,15.18096838787119 293.7351995151228,22.01635537931554 C 294.3780203746511,29.10549748153222 292.8000292969116,34.10870155611069 288.3773310971328,39.00409978300672 L 284.9960415777546,42.74678308855414 L 285.2480207888773,292.1233915442771 L 285.5,541.5 L 496.2499921740184,541.5 C 612.1624878697283,541.5 706.9829647658383,541.725 706.9621630542625,542 C 706.8947513500902,542.8911871785035 676.011482135063,564.4662256932338 656.5,577.2528452817604 C 541.8927891564916,652.3593285829207 424.5987611274345,701.6859505606446 328,715.3996511504119 C 297.0566233873532,719.7925460193478 263.0055408720482,721.185143758984 244.2037231822262,718.8266936132745 z M 2.127555284557826,499.3439626772189 C 4.966621627241809,495.9182510456785 32.24240143097551,472.0932799355812 58.39714809800127,450.1933450668759 C 107.3851698136648,409.1746153281432 126.1998243192284,392.1440472234625 145.3342420469369,371.5 C 191.0449035905358,322.1829489692146 217.9014738364431,273.2219626227182 233.9218383837169,210 L 237.8495185787242,194.5 L 237.9247592893621,347.75 L 238,501 L 119.3775552845578,501 C 9.08199191576233,501 0.8514513950675517,500.8837519634206 2.127555284557826,499.3439626772189 z M 304.2163486443179,500.25 C 324.7356851922738,460.0701378127469 333.2004157882766,430.6328986316239 338.6506745888971,380.5 C 341.0597321701806,358.3408615190018 341.0707929585896,297.0128455659172 338.6709644788712,268 C 335.1125727522316,224.9806465334797 329.6482339896763,182.5819264950753 321.0090605987298,130.9583284457379 C 316.914523525464,106.491319103167 306.745322272318,50.56464536610212 304.4010272145389,39.6205683434315 C 303.8405549799372,37.00406694178582 304.6792149302071,37.50628980190358 313.5854552698504,45.1205683434315 C 439.3535656907927,152.6444378851151 534.3172523328469,266.9609018214325 605.4794230441342,396.5 C 619.0515083820638,421.2057625913474 643.8704926737458,472.3123343997983 654.6496583115532,497.75 L 656.0268400417271,501 L 479.9300866875303,501 C 383.076872342722,501 304.0056902232764,500.6625 304.2163486443179,500.25 z"
       id="path3205"
       inkscape:connector-curvature="0"
       transform="matrix(0.1007172739433687,0,0,0.1007172739433687,292.642584357965,546.0386729162005)" />
  </g>
</svg>
