<?xml version="1.0" encoding="UTF-8" standalone="no"?>
<!-- Created with Inkscape (http://www.inkscape.org/) -->

<svg
   xmlns:dc="http://purl.org/dc/elements/1.1/"
   xmlns:cc="http://creativecommons.org/ns#"
   xmlns:rdf="http://www.w3.org/1999/02/22-rdf-syntax-ns#"
   xmlns:svg="http://www.w3.org/2000/svg"
   xmlns="http://www.w3.org/2000/svg"
   xmlns:sodipodi="http://sodipodi.sourceforge.net/DTD/sodipodi-0.dtd"
   xmlns:inkscape="http://www.inkscape.org/namespaces/inkscape"
   width="522.38232421875"
   height="214.7427368164062"
   id="svg2"
   version="1.1"
   inkscape:version="0.48.4 r9939"
   sodipodi:docname="decl_const_theory.svg">
  <sodipodi:namedview
     id="base"
     pagecolor="#ffffff"
     bordercolor="#666666"
     borderopacity="1.0"
     inkscape:pageopacity="0.0"
     inkscape:pageshadow="2"
     inkscape:zoom="1.399999998522586"
     inkscape:cx="241.064243946334"
     inkscape:cy="162.0011831313014"
     inkscape:document-units="px"
     inkscape:current-layer="g5389"
     showgrid="true"
     inkscape:window-width="1920"
     inkscape:window-height="1041"
     inkscape:window-x="1600"
     inkscape:window-y="0"
     inkscape:window-maximized="1"
     inkscape:snap-global="true"
     showguides="false"
     inkscape:snap-nodes="true"
     inkscape:object-nodes="true"
     fit-margin-top="0"
     fit-margin-left="0"
     fit-margin-right="0"
     fit-margin-bottom="0">
    <inkscape:grid
       type="xygrid"
       id="grid3044"
       empspacing="5"
       visible="true"
       enabled="true"
       snapvisiblegridlinesonly="true"
       originx="-44px"
       originy="-804px" />
  </sodipodi:namedview>
  <defs
     id="defs4">
    <marker
       style="overflow:visible"
       id="Arrow2Lstart"
       refX="0"
       refY="0"
       orient="auto"
       inkscape:stockid="Arrow2Lstart">
      <path
         transform="matrix(1.1,0,0,1.1,1.1,0)"
         d="M 8.718587799999999,4.0337352 L -2.2072895,0 L 8.718588399999999,-4.001707800000001 C 6.97309,-1.6296469 6.9831476,1.6157441 8.718587799999999,4.0337352 z"
         style="fill-rule:evenodd;stroke-width:0.625;stroke-linejoin:round"
         id="path4174"
         inkscape:connector-curvature="0" />
    </marker>
    <marker
       inkscape:stockid="Arrow2Lend"
       orient="auto"
       refY="0"
       refX="0"
       id="Arrow2Lend"
       style="overflow:visible">
      <path
         id="path4177"
         style="fill-rule:evenodd;stroke-width:0.625;stroke-linejoin:round"
         d="M 8.718587799999999,4.0337352 L -2.2072895,0 L 8.718588399999999,-4.001707800000001 C 6.97309,-1.6296469 6.9831476,1.6157441 8.718587799999999,4.0337352 z"
         transform="matrix(-1.1,0,0,-1.1,-1.1,0)"
         inkscape:connector-curvature="0" />
    </marker>
    <marker
       inkscape:stockid="Arrow1Lend"
       orient="auto"
       refY="0"
       refX="0"
       id="Arrow1Lend"
       style="overflow:visible">
      <path
         id="path4159"
         d="M 0,0 L 5,-5 L -12.5,0 L 5,5 L 0,0 z"
         style="fill-rule:evenodd;stroke:#000000;stroke-width:1pt"
         transform="matrix(-0.8,0,0,-0.8,-10,0)"
         inkscape:connector-curvature="0" />
    </marker>
    <inkscape:perspective
       sodipodi:type="inkscape:persp3d"
       inkscape:vp_x="0 : 526.1810913085938 : 1"
       inkscape:vp_y="0 : 1000 : 0"
       inkscape:vp_z="744.094482421875 : 526.1810913085938 : 1"
       inkscape:persp3d-origin="372.0472412109375 : 350.7873942057292 : 1"
       id="perspective4035" />
    <marker
       inkscape:stockid="Arrow2Lendw"
       orient="auto"
       refY="0"
       refX="0"
       id="Arrow2Lendw"
       style="overflow:visible">
      <path
         id="path4972"
         style="fill:#787878;fill-rule:evenodd;stroke:#787878;stroke-width:0.625;stroke-linejoin:round"
         d="M 8.718587799999999,4.0337352 L -2.2072895,0 L 8.718588399999999,-4.001707800000001 C 6.97309,-1.6296469 6.9831476,1.6157441 8.718587799999999,4.0337352 z"
         transform="matrix(-1.1,0,0,-1.1,-1.1,0)"
         inkscape:connector-curvature="0" />
    </marker>
    <marker
       style="overflow:visible"
       id="Arrow2Lstarta"
       refX="0"
       refY="0"
       orient="auto"
       inkscape:stockid="Arrow2Lstarta">
      <path
         transform="matrix(1.1,0,0,1.1,1.1,0)"
         d="M 8.718587799999999,4.0337352 L -2.2072895,0 L 8.718588399999999,-4.001707800000001 C 6.97309,-1.6296469 6.9831476,1.6157441 8.718587799999999,4.0337352 z"
         style="fill:#787878;fill-rule:evenodd;stroke:#787878;stroke-width:0.625;stroke-linejoin:round"
         id="path6013"
         inkscape:connector-curvature="0" />
    </marker>
    <marker
       inkscape:stockid="Arrow2LendK"
       orient="auto"
       refY="0"
       refX="0"
       id="Arrow2LendK"
       style="overflow:visible">
      <path
         id="path6016"
         style="fill:#787878;fill-rule:evenodd;stroke:#787878;stroke-width:0.625;stroke-linejoin:round"
         d="M 8.718587799999999,4.0337352 L -2.2072895,0 L 8.718588399999999,-4.001707800000001 C 6.97309,-1.6296469 6.9831476,1.6157441 8.718587799999999,4.0337352 z"
         transform="matrix(-1.1,0,0,-1.1,-1.1,0)"
         inkscape:connector-curvature="0" />
    </marker>
  </defs>
  <metadata
     id="metadata7">
    <rdf:RDF>
      <cc:Work
         rdf:about="">
        <dc:format>image/svg+xml</dc:format>
        <dc:type
           rdf:resource="http://purl.org/dc/dcmitype/StillImage" />
      </cc:Work>
    </rdf:RDF>
  </metadata>
  <g
     inkscape:label="Layer 1"
     inkscape:groupmode="layer"
     id="layer1"
     transform="translate(-44,-33.6194459452579)">
    <path
       sodipodi:nodetypes="cc"
       transform="translate(192.03446283288,-164.5839352591838)"
       inkscape:connector-curvature="0"
       id="path3967"
       d="M -72.03446283287999,286.9461178763713 L -82.03446283287999,346.9461178763713"
       style="fill:none;stroke:#787878;stroke-width:2;stroke-linecap:butt;stroke-linejoin:miter;stroke-miterlimit:4;stroke-opacity:1;stroke-dasharray:none" />
    <path
       sodipodi:nodetypes="ccccc"
       transform="matrix(1.875,0,0,2.6,135.78446283288,-759.3634274466835)"
       inkscape:connector-curvature="0"
       id="path3913"
       d="M -48.418380177536,387.2021577168736 L 7.581619822464007,387.2021577168736 L 42.24828648913068,362.2021577168736 L -13.75171351086933,362.2021577168736 z"
       style="fill:#dedede;fill-opacity:1;stroke:#787878;stroke-width:0.9058216214;stroke-linecap:butt;stroke-linejoin:round;stroke-miterlimit:4;stroke-opacity:1;stroke-dasharray:none" />
    <path
       id="path3796"
       transform="matrix(0.1233112720434734,0,0,0.1233112720434733,253.0930702422243,106.2300224062885)"
       style="font-size:medium;font-style:normal;font-variant:normal;font-weight:normal;font-stretch:normal;text-indent:0;text-align:start;text-decoration:none;line-height:normal;letter-spacing:normal;word-spacing:normal;text-transform:none;direction:ltr;block-progression:tb;writing-mode:lr-tb;text-anchor:start;baseline-shift:baseline;color:#000000;fill:none;stroke:#505050;stroke-width:4.0547795296;stroke-miterlimit:4;stroke-opacity:1;stroke-dasharray:none;marker:none;visibility:visible;display:inline;overflow:visible;enable-background:accumulate;font-family:Sans;-inkscape-font-specification:Sans"
       d="M -1312.78125,674.78125 C -1327.300335081253,674.78125 -1339.1875,685.6595850876614 -1339.1875,699.1875 C -1339.1875,712.3694910426936 -1327.916976109311,723.0253415426152 -1313.90625,723.5625 A 1.250123872944614,1.250126217142613 0 0 0 -1314.0625,724.125 L -1314.0625,749.875 L -1359.9375,736.15625 A 1.250123872944614,1.250126217142613 0 0 0 -1360.4375,736.09375 A 1.250123872944614,1.250126217142613 0 0 0 -1360.65625,738.5625 L -1314.0625,752.5 L -1314.0625,779.84375 L -1341.125,831.78125 A 1.264852664208854,1.264855036025878 0 0 0 -1338.875,832.9375 L -1312.8125,782.78125 L -1286.25,832.71875 A 1.250123872944614,1.250126217142613 0 1 0 -1284.0625,831.5625 L -1311.5625,779.8125 L -1311.5625,752.15625 L -1264.9375,738.5625 A 1.25564912599183,1.255651480550632 0 1 0 -1265.65625,736.15625 L -1311.5625,749.5625 L -1311.5625,724.125 A 1.250123872944614,1.250126217142613 0 0 0 -1311.6875,723.5625 C -1297.674139373871,723.0280135368307 -1286.375,712.371275725548 -1286.375,699.1875 C -1286.375,685.6595850876615 -1298.262164918748,674.7812500000003 -1312.78125,674.78125 z M -1312.78125,677.25 C -1299.50695722934,677.25 -1288.874999999999,687.1260721999591 -1288.875,699.1875 C -1288.875,711.2489278000406 -1299.50695722934,721.1250000000001 -1312.78125,721.125 C -1326.05554277066,721.125 -1336.71875,711.2489278000406 -1336.71875,699.1875 C -1336.71875,687.1260721999592 -1326.05554277066,677.2499999999995 -1312.78125,677.25 z"
       inkscape:connector-curvature="0" />
    <path
       inkscape:connector-curvature="0"
       d="M -1312.78125,674.78125 C -1327.300335081253,674.78125 -1339.1875,685.6595850876614 -1339.1875,699.1875 C -1339.1875,712.3694910426936 -1327.916976109311,723.0253415426152 -1313.90625,723.5625 A 1.250123872944614,1.250126217142613 0 0 0 -1314.0625,724.125 L -1314.0625,749.875 L -1359.9375,736.15625 A 1.250123872944614,1.250126217142613 0 0 0 -1360.4375,736.09375 A 1.250123872944614,1.250126217142613 0 0 0 -1360.65625,738.5625 L -1314.0625,752.5 L -1314.0625,779.84375 L -1341.125,831.78125 A 1.264852664208854,1.264855036025878 0 0 0 -1338.875,832.9375 L -1312.8125,782.78125 L -1286.25,832.71875 A 1.250123872944614,1.250126217142613 0 1 0 -1284.0625,831.5625 L -1311.5625,779.8125 L -1311.5625,752.15625 L -1264.9375,738.5625 A 1.25564912599183,1.255651480550632 0 1 0 -1265.65625,736.15625 L -1311.5625,749.5625 L -1311.5625,724.125 A 1.250123872944614,1.250126217142613 0 0 0 -1311.6875,723.5625 C -1297.674139373871,723.0280135368307 -1286.375,712.371275725548 -1286.375,699.1875 C -1286.375,685.6595850876615 -1298.262164918748,674.7812500000003 -1312.78125,674.78125 z M -1312.78125,677.25 C -1299.50695722934,677.25 -1288.874999999999,687.1260721999591 -1288.875,699.1875 C -1288.875,711.2489278000406 -1299.50695722934,721.1250000000001 -1312.78125,721.125 C -1326.05554277066,721.125 -1336.71875,711.2489278000406 -1336.71875,699.1875 C -1336.71875,687.1260721999592 -1326.05554277066,677.2499999999995 -1312.78125,677.25 z"
       style="font-size:medium;font-style:normal;font-variant:normal;font-weight:normal;font-stretch:normal;text-indent:0;text-align:start;text-decoration:none;line-height:normal;letter-spacing:normal;word-spacing:normal;text-transform:none;direction:ltr;block-progression:tb;writing-mode:lr-tb;text-anchor:start;baseline-shift:baseline;color:#000000;fill:none;stroke:#505050;stroke-width:4.0547795296;stroke-miterlimit:4;stroke-opacity:1;stroke-dasharray:none;marker:none;visibility:visible;display:inline;overflow:visible;enable-background:accumulate;font-family:Sans;-inkscape-font-specification:Sans"
       transform="matrix(0.1233112720434734,0,0,0.1233112720434733,266.8829164880508,109.7980185544673)"
       id="path3933" />
    <path
       id="path3935"
       transform="matrix(0.1233112720434734,0,0,0.1233112720434733,277.8040594483725,104.4474167521569)"
       style="font-size:medium;font-style:normal;font-variant:normal;font-weight:normal;font-stretch:normal;text-indent:0;text-align:start;text-decoration:none;line-height:normal;letter-spacing:normal;word-spacing:normal;text-transform:none;direction:ltr;block-progression:tb;writing-mode:lr-tb;text-anchor:start;baseline-shift:baseline;color:#000000;fill:none;stroke:#505050;stroke-width:4.0547795296;stroke-miterlimit:4;stroke-opacity:1;stroke-dasharray:none;marker:none;visibility:visible;display:inline;overflow:visible;enable-background:accumulate;font-family:Sans;-inkscape-font-specification:Sans"
       d="M -1312.78125,674.78125 C -1327.300335081253,674.78125 -1339.1875,685.6595850876614 -1339.1875,699.1875 C -1339.1875,712.3694910426936 -1327.916976109311,723.0253415426152 -1313.90625,723.5625 A 1.250123872944614,1.250126217142613 0 0 0 -1314.0625,724.125 L -1314.0625,749.875 L -1359.9375,736.15625 A 1.250123872944614,1.250126217142613 0 0 0 -1360.4375,736.09375 A 1.250123872944614,1.250126217142613 0 0 0 -1360.65625,738.5625 L -1314.0625,752.5 L -1314.0625,779.84375 L -1341.125,831.78125 A 1.264852664208854,1.264855036025878 0 0 0 -1338.875,832.9375 L -1312.8125,782.78125 L -1286.25,832.71875 A 1.250123872944614,1.250126217142613 0 1 0 -1284.0625,831.5625 L -1311.5625,779.8125 L -1311.5625,752.15625 L -1264.9375,738.5625 A 1.25564912599183,1.255651480550632 0 1 0 -1265.65625,736.15625 L -1311.5625,749.5625 L -1311.5625,724.125 A 1.250123872944614,1.250126217142613 0 0 0 -1311.6875,723.5625 C -1297.674139373871,723.0280135368307 -1286.375,712.371275725548 -1286.375,699.1875 C -1286.375,685.6595850876615 -1298.262164918748,674.7812500000003 -1312.78125,674.78125 z M -1312.78125,677.25 C -1299.50695722934,677.25 -1288.874999999999,687.1260721999591 -1288.875,699.1875 C -1288.875,711.2489278000406 -1299.50695722934,721.1250000000001 -1312.78125,721.125 C -1326.05554277066,721.125 -1336.71875,711.2489278000406 -1336.71875,699.1875 C -1336.71875,687.1260721999592 -1326.05554277066,677.2499999999995 -1312.78125,677.25 z"
       inkscape:connector-curvature="0" />
    <path
       inkscape:connector-curvature="0"
       d="M -1312.78125,674.78125 C -1327.300335081253,674.78125 -1339.1875,685.6595850876614 -1339.1875,699.1875 C -1339.1875,712.3694910426936 -1327.916976109311,723.0253415426152 -1313.90625,723.5625 A 1.250123872944614,1.250126217142613 0 0 0 -1314.0625,724.125 L -1314.0625,749.875 L -1359.9375,736.15625 A 1.250123872944614,1.250126217142613 0 0 0 -1360.4375,736.09375 A 1.250123872944614,1.250126217142613 0 0 0 -1360.65625,738.5625 L -1314.0625,752.5 L -1314.0625,779.84375 L -1341.125,831.78125 A 1.264852664208854,1.264855036025878 0 0 0 -1338.875,832.9375 L -1312.8125,782.78125 L -1286.25,832.71875 A 1.250123872944614,1.250126217142613 0 1 0 -1284.0625,831.5625 L -1311.5625,779.8125 L -1311.5625,752.15625 L -1264.9375,738.5625 A 1.25564912599183,1.255651480550632 0 1 0 -1265.65625,736.15625 L -1311.5625,749.5625 L -1311.5625,724.125 A 1.250123872944614,1.250126217142613 0 0 0 -1311.6875,723.5625 C -1297.674139373871,723.0280135368307 -1286.375,712.371275725548 -1286.375,699.1875 C -1286.375,685.6595850876615 -1298.262164918748,674.7812500000003 -1312.78125,674.78125 z M -1312.78125,677.25 C -1299.50695722934,677.25 -1288.874999999999,687.1260721999591 -1288.875,699.1875 C -1288.875,711.2489278000406 -1299.50695722934,721.1250000000001 -1312.78125,721.125 C -1326.05554277066,721.125 -1336.71875,711.2489278000406 -1336.71875,699.1875 C -1336.71875,687.1260721999592 -1326.05554277066,677.2499999999995 -1312.78125,677.25 z"
       style="font-size:medium;font-style:normal;font-variant:normal;font-weight:normal;font-stretch:normal;text-indent:0;text-align:start;text-decoration:none;line-height:normal;letter-spacing:normal;word-spacing:normal;text-transform:none;direction:ltr;block-progression:tb;writing-mode:lr-tb;text-anchor:start;baseline-shift:baseline;color:#000000;fill:none;stroke:#505050;stroke-width:4.0547795296;stroke-miterlimit:4;stroke-opacity:1;stroke-dasharray:none;marker:none;visibility:visible;display:inline;overflow:visible;enable-background:accumulate;font-family:Sans;-inkscape-font-specification:Sans"
       transform="matrix(0.1233112720434734,0,0,0.1233112720434733,287.0216416690997,109.0871652679538)"
       id="path3937" />
    <path
       id="path3939"
       transform="matrix(0.1233112720434734,0,0,0.1233112720434733,312.0409090553565,122.1470527382574)"
       style="font-size:medium;font-style:normal;font-variant:normal;font-weight:normal;font-stretch:normal;text-indent:0;text-align:start;text-decoration:none;line-height:normal;letter-spacing:normal;word-spacing:normal;text-transform:none;direction:ltr;block-progression:tb;writing-mode:lr-tb;text-anchor:start;baseline-shift:baseline;color:#000000;fill:none;stroke:#505050;stroke-width:4.0547795296;stroke-miterlimit:4;stroke-opacity:1;stroke-dasharray:none;marker:none;visibility:visible;display:inline;overflow:visible;enable-background:accumulate;font-family:Sans;-inkscape-font-specification:Sans"
       d="M -1312.78125,674.78125 C -1327.300335081253,674.78125 -1339.1875,685.6595850876614 -1339.1875,699.1875 C -1339.1875,712.3694910426936 -1327.916976109311,723.0253415426152 -1313.90625,723.5625 A 1.250123872944614,1.250126217142613 0 0 0 -1314.0625,724.125 L -1314.0625,749.875 L -1359.9375,736.15625 A 1.250123872944614,1.250126217142613 0 0 0 -1360.4375,736.09375 A 1.250123872944614,1.250126217142613 0 0 0 -1360.65625,738.5625 L -1314.0625,752.5 L -1314.0625,779.84375 L -1341.125,831.78125 A 1.264852664208854,1.264855036025878 0 0 0 -1338.875,832.9375 L -1312.8125,782.78125 L -1286.25,832.71875 A 1.250123872944614,1.250126217142613 0 1 0 -1284.0625,831.5625 L -1311.5625,779.8125 L -1311.5625,752.15625 L -1264.9375,738.5625 A 1.25564912599183,1.255651480550632 0 1 0 -1265.65625,736.15625 L -1311.5625,749.5625 L -1311.5625,724.125 A 1.250123872944614,1.250126217142613 0 0 0 -1311.6875,723.5625 C -1297.674139373871,723.0280135368307 -1286.375,712.371275725548 -1286.375,699.1875 C -1286.375,685.6595850876615 -1298.262164918748,674.7812500000003 -1312.78125,674.78125 z M -1312.78125,677.25 C -1299.50695722934,677.25 -1288.874999999999,687.1260721999591 -1288.875,699.1875 C -1288.875,711.2489278000406 -1299.50695722934,721.1250000000001 -1312.78125,721.125 C -1326.05554277066,721.125 -1336.71875,711.2489278000406 -1336.71875,699.1875 C -1336.71875,687.1260721999592 -1326.05554277066,677.2499999999995 -1312.78125,677.25 z"
       inkscape:connector-curvature="0" />
    <path
       inkscape:connector-curvature="0"
       d="M -1312.78125,674.78125 C -1327.300335081253,674.78125 -1339.1875,685.6595850876614 -1339.1875,699.1875 C -1339.1875,712.3694910426936 -1327.916976109311,723.0253415426152 -1313.90625,723.5625 A 1.250123872944614,1.250126217142613 0 0 0 -1314.0625,724.125 L -1314.0625,749.875 L -1359.9375,736.15625 A 1.250123872944614,1.250126217142613 0 0 0 -1360.4375,736.09375 A 1.250123872944614,1.250126217142613 0 0 0 -1360.65625,738.5625 L -1314.0625,752.5 L -1314.0625,779.84375 L -1341.125,831.78125 A 1.264852664208854,1.264855036025878 0 0 0 -1338.875,832.9375 L -1312.8125,782.78125 L -1286.25,832.71875 A 1.250123872944614,1.250126217142613 0 1 0 -1284.0625,831.5625 L -1311.5625,779.8125 L -1311.5625,752.15625 L -1264.9375,738.5625 A 1.25564912599183,1.255651480550632 0 1 0 -1265.65625,736.15625 L -1311.5625,749.5625 L -1311.5625,724.125 A 1.250123872944614,1.250126217142613 0 0 0 -1311.6875,723.5625 C -1297.674139373871,723.0280135368307 -1286.375,712.371275725548 -1286.375,699.1875 C -1286.375,685.6595850876615 -1298.262164918748,674.7812500000003 -1312.78125,674.78125 z M -1312.78125,677.25 C -1299.50695722934,677.25 -1288.874999999999,687.1260721999591 -1288.875,699.1875 C -1288.875,711.2489278000406 -1299.50695722934,721.1250000000001 -1312.78125,721.125 C -1326.05554277066,721.125 -1336.71875,711.2489278000406 -1336.71875,699.1875 C -1336.71875,687.1260721999592 -1326.05554277066,677.2499999999995 -1312.78125,677.25 z"
       style="font-size:medium;font-style:normal;font-variant:normal;font-weight:normal;font-stretch:normal;text-indent:0;text-align:start;text-decoration:none;line-height:normal;letter-spacing:normal;word-spacing:normal;text-transform:none;direction:ltr;block-progression:tb;writing-mode:lr-tb;text-anchor:start;baseline-shift:baseline;color:#000000;fill:none;stroke:#505050;stroke-width:4.0547795296;stroke-miterlimit:4;stroke-opacity:1;stroke-dasharray:none;marker:none;visibility:visible;display:inline;overflow:visible;enable-background:accumulate;font-family:Sans;-inkscape-font-specification:Sans"
       transform="matrix(0.1233112720434734,0,0,0.1233112720434733,302.7864436371322,107.2374961873018)"
       id="path3941" />
    <path
       inkscape:connector-curvature="0"
       d="M -1312.78125,674.78125 C -1327.300335081253,674.78125 -1339.1875,685.6595850876614 -1339.1875,699.1875 C -1339.1875,712.3694910426936 -1327.916976109311,723.0253415426152 -1313.90625,723.5625 A 1.250123872944614,1.250126217142613 0 0 0 -1314.0625,724.125 L -1314.0625,749.875 L -1359.9375,736.15625 A 1.250123872944614,1.250126217142613 0 0 0 -1360.4375,736.09375 A 1.250123872944614,1.250126217142613 0 0 0 -1360.65625,738.5625 L -1314.0625,752.5 L -1314.0625,779.84375 L -1341.125,831.78125 A 1.264852664208854,1.264855036025878 0 0 0 -1338.875,832.9375 L -1312.8125,782.78125 L -1286.25,832.71875 A 1.250123872944614,1.250126217142613 0 1 0 -1284.0625,831.5625 L -1311.5625,779.8125 L -1311.5625,752.15625 L -1264.9375,738.5625 A 1.25564912599183,1.255651480550632 0 1 0 -1265.65625,736.15625 L -1311.5625,749.5625 L -1311.5625,724.125 A 1.250123872944614,1.250126217142613 0 0 0 -1311.6875,723.5625 C -1297.674139373871,723.0280135368307 -1286.375,712.371275725548 -1286.375,699.1875 C -1286.375,685.6595850876615 -1298.262164918748,674.7812500000003 -1312.78125,674.78125 z M -1312.78125,677.25 C -1299.50695722934,677.25 -1288.874999999999,687.1260721999591 -1288.875,699.1875 C -1288.875,711.2489278000406 -1299.50695722934,721.1250000000001 -1312.78125,721.125 C -1326.05554277066,721.125 -1336.71875,711.2489278000406 -1336.71875,699.1875 C -1336.71875,687.1260721999592 -1326.05554277066,677.2499999999995 -1312.78125,677.25 z"
       style="font-size:medium;font-style:normal;font-variant:normal;font-weight:normal;font-stretch:normal;text-indent:0;text-align:start;text-decoration:none;line-height:normal;letter-spacing:normal;word-spacing:normal;text-transform:none;direction:ltr;block-progression:tb;writing-mode:lr-tb;text-anchor:start;baseline-shift:baseline;color:#000000;fill:none;stroke:#505050;stroke-width:4.0547795296;stroke-miterlimit:4;stroke-opacity:1;stroke-dasharray:none;marker:none;visibility:visible;display:inline;overflow:visible;enable-background:accumulate;font-family:Sans;-inkscape-font-specification:Sans"
       transform="matrix(0.1233112720434734,0,0,0.1233112720434733,261.7326308752479,120.8810721948235)"
       id="path3943" />
    <path
       id="path3945"
       transform="matrix(0.1233112720434734,0,0,0.1233112720434733,245.969480482232,118.5756241611755)"
       style="font-size:medium;font-style:normal;font-variant:normal;font-weight:normal;font-stretch:normal;text-indent:0;text-align:start;text-decoration:none;line-height:normal;letter-spacing:normal;word-spacing:normal;text-transform:none;direction:ltr;block-progression:tb;writing-mode:lr-tb;text-anchor:start;baseline-shift:baseline;color:#000000;fill:none;stroke:#505050;stroke-width:4.0547795296;stroke-miterlimit:4;stroke-opacity:1;stroke-dasharray:none;marker:none;visibility:visible;display:inline;overflow:visible;enable-background:accumulate;font-family:Sans;-inkscape-font-specification:Sans"
       d="M -1312.78125,674.78125 C -1327.300335081253,674.78125 -1339.1875,685.6595850876614 -1339.1875,699.1875 C -1339.1875,712.3694910426936 -1327.916976109311,723.0253415426152 -1313.90625,723.5625 A 1.250123872944614,1.250126217142613 0 0 0 -1314.0625,724.125 L -1314.0625,749.875 L -1359.9375,736.15625 A 1.250123872944614,1.250126217142613 0 0 0 -1360.4375,736.09375 A 1.250123872944614,1.250126217142613 0 0 0 -1360.65625,738.5625 L -1314.0625,752.5 L -1314.0625,779.84375 L -1341.125,831.78125 A 1.264852664208854,1.264855036025878 0 0 0 -1338.875,832.9375 L -1312.8125,782.78125 L -1286.25,832.71875 A 1.250123872944614,1.250126217142613 0 1 0 -1284.0625,831.5625 L -1311.5625,779.8125 L -1311.5625,752.15625 L -1264.9375,738.5625 A 1.25564912599183,1.255651480550632 0 1 0 -1265.65625,736.15625 L -1311.5625,749.5625 L -1311.5625,724.125 A 1.250123872944614,1.250126217142613 0 0 0 -1311.6875,723.5625 C -1297.674139373871,723.0280135368307 -1286.375,712.371275725548 -1286.375,699.1875 C -1286.375,685.6595850876615 -1298.262164918748,674.7812500000003 -1312.78125,674.78125 z M -1312.78125,677.25 C -1299.50695722934,677.25 -1288.874999999999,687.1260721999591 -1288.875,699.1875 C -1288.875,711.2489278000406 -1299.50695722934,721.1250000000001 -1312.78125,721.125 C -1326.05554277066,721.125 -1336.71875,711.2489278000406 -1336.71875,699.1875 C -1336.71875,687.1260721999592 -1326.05554277066,677.2499999999995 -1312.78125,677.25 z"
       inkscape:connector-curvature="0" />
    <path
       inkscape:connector-curvature="0"
       d="M -1312.78125,674.78125 C -1327.300335081253,674.78125 -1339.1875,685.6595850876614 -1339.1875,699.1875 C -1339.1875,712.3694910426936 -1327.916976109311,723.0253415426152 -1313.90625,723.5625 A 1.250123872944614,1.250126217142613 0 0 0 -1314.0625,724.125 L -1314.0625,749.875 L -1359.9375,736.15625 A 1.250123872944614,1.250126217142613 0 0 0 -1360.4375,736.09375 A 1.250123872944614,1.250126217142613 0 0 0 -1360.65625,738.5625 L -1314.0625,752.5 L -1314.0625,779.84375 L -1341.125,831.78125 A 1.264852664208854,1.264855036025878 0 0 0 -1338.875,832.9375 L -1312.8125,782.78125 L -1286.25,832.71875 A 1.250123872944614,1.250126217142613 0 1 0 -1284.0625,831.5625 L -1311.5625,779.8125 L -1311.5625,752.15625 L -1264.9375,738.5625 A 1.25564912599183,1.255651480550632 0 1 0 -1265.65625,736.15625 L -1311.5625,749.5625 L -1311.5625,724.125 A 1.250123872944614,1.250126217142613 0 0 0 -1311.6875,723.5625 C -1297.674139373871,723.0280135368307 -1286.375,712.371275725548 -1286.375,699.1875 C -1286.375,685.6595850876615 -1298.262164918748,674.7812500000003 -1312.78125,674.78125 z M -1312.78125,677.25 C -1299.50695722934,677.25 -1288.874999999999,687.1260721999591 -1288.875,699.1875 C -1288.875,711.2489278000406 -1299.50695722934,721.1250000000001 -1312.78125,721.125 C -1326.05554277066,721.125 -1336.71875,711.2489278000406 -1336.71875,699.1875 C -1336.71875,687.1260721999592 -1326.05554277066,677.2499999999995 -1312.78125,677.25 z"
       style="font-size:medium;font-style:normal;font-variant:normal;font-weight:normal;font-stretch:normal;text-indent:0;text-align:start;text-decoration:none;line-height:normal;letter-spacing:normal;word-spacing:normal;text-transform:none;direction:ltr;block-progression:tb;writing-mode:lr-tb;text-anchor:start;baseline-shift:baseline;color:#000000;fill:none;stroke:#505050;stroke-width:4.0547795296;stroke-miterlimit:4;stroke-opacity:1;stroke-dasharray:none;marker:none;visibility:visible;display:inline;overflow:visible;enable-background:accumulate;font-family:Sans;-inkscape-font-specification:Sans"
       transform="matrix(0.1233112720434734,0,0,0.1233112720434733,271.7326308752478,129.0178026774295)"
       id="path3947" />
    <path
       id="path3949"
       transform="matrix(0.1233112720434734,0,0,0.1233112720434733,287.7864436371322,127.2374961873018)"
       style="font-size:medium;font-style:normal;font-variant:normal;font-weight:normal;font-stretch:normal;text-indent:0;text-align:start;text-decoration:none;line-height:normal;letter-spacing:normal;word-spacing:normal;text-transform:none;direction:ltr;block-progression:tb;writing-mode:lr-tb;text-anchor:start;baseline-shift:baseline;color:#000000;fill:none;stroke:#505050;stroke-width:4.0547795296;stroke-miterlimit:4;stroke-opacity:1;stroke-dasharray:none;marker:none;visibility:visible;display:inline;overflow:visible;enable-background:accumulate;font-family:Sans;-inkscape-font-specification:Sans"
       d="M -1312.78125,674.78125 C -1327.300335081253,674.78125 -1339.1875,685.6595850876614 -1339.1875,699.1875 C -1339.1875,712.3694910426936 -1327.916976109311,723.0253415426152 -1313.90625,723.5625 A 1.250123872944614,1.250126217142613 0 0 0 -1314.0625,724.125 L -1314.0625,749.875 L -1359.9375,736.15625 A 1.250123872944614,1.250126217142613 0 0 0 -1360.4375,736.09375 A 1.250123872944614,1.250126217142613 0 0 0 -1360.65625,738.5625 L -1314.0625,752.5 L -1314.0625,779.84375 L -1341.125,831.78125 A 1.264852664208854,1.264855036025878 0 0 0 -1338.875,832.9375 L -1312.8125,782.78125 L -1286.25,832.71875 A 1.250123872944614,1.250126217142613 0 1 0 -1284.0625,831.5625 L -1311.5625,779.8125 L -1311.5625,752.15625 L -1264.9375,738.5625 A 1.25564912599183,1.255651480550632 0 1 0 -1265.65625,736.15625 L -1311.5625,749.5625 L -1311.5625,724.125 A 1.250123872944614,1.250126217142613 0 0 0 -1311.6875,723.5625 C -1297.674139373871,723.0280135368307 -1286.375,712.371275725548 -1286.375,699.1875 C -1286.375,685.6595850876615 -1298.262164918748,674.7812500000003 -1312.78125,674.78125 z M -1312.78125,677.25 C -1299.50695722934,677.25 -1288.874999999999,687.1260721999591 -1288.875,699.1875 C -1288.875,711.2489278000406 -1299.50695722934,721.1250000000001 -1312.78125,721.125 C -1326.05554277066,721.125 -1336.71875,711.2489278000406 -1336.71875,699.1875 C -1336.71875,687.1260721999592 -1326.05554277066,677.2499999999995 -1312.78125,677.25 z"
       inkscape:connector-curvature="0" />
    <path
       inkscape:connector-curvature="0"
       d="M -1312.78125,674.78125 C -1327.300335081253,674.78125 -1339.1875,685.6595850876614 -1339.1875,699.1875 C -1339.1875,712.3694910426936 -1327.916976109311,723.0253415426152 -1313.90625,723.5625 A 1.250123872944614,1.250126217142613 0 0 0 -1314.0625,724.125 L -1314.0625,749.875 L -1359.9375,736.15625 A 1.250123872944614,1.250126217142613 0 0 0 -1360.4375,736.09375 A 1.250123872944614,1.250126217142613 0 0 0 -1360.65625,738.5625 L -1314.0625,752.5 L -1314.0625,779.84375 L -1341.125,831.78125 A 1.264852664208854,1.264855036025878 0 0 0 -1338.875,832.9375 L -1312.8125,782.78125 L -1286.25,832.71875 A 1.250123872944614,1.250126217142613 0 1 0 -1284.0625,831.5625 L -1311.5625,779.8125 L -1311.5625,752.15625 L -1264.9375,738.5625 A 1.25564912599183,1.255651480550632 0 1 0 -1265.65625,736.15625 L -1311.5625,749.5625 L -1311.5625,724.125 A 1.250123872944614,1.250126217142613 0 0 0 -1311.6875,723.5625 C -1297.674139373871,723.0280135368307 -1286.375,712.371275725548 -1286.375,699.1875 C -1286.375,685.6595850876615 -1298.262164918748,674.7812500000003 -1312.78125,674.78125 z M -1312.78125,677.25 C -1299.50695722934,677.25 -1288.874999999999,687.1260721999591 -1288.875,699.1875 C -1288.875,711.2489278000406 -1299.50695722934,721.1250000000001 -1312.78125,721.125 C -1326.05554277066,721.125 -1336.71875,711.2489278000406 -1336.71875,699.1875 C -1336.71875,687.1260721999592 -1326.05554277066,677.2499999999995 -1312.78125,677.25 z"
       style="font-size:medium;font-style:normal;font-variant:normal;font-weight:normal;font-stretch:normal;text-indent:0;text-align:start;text-decoration:none;line-height:normal;letter-spacing:normal;word-spacing:normal;text-transform:none;direction:ltr;block-progression:tb;writing-mode:lr-tb;text-anchor:start;baseline-shift:baseline;color:#000000;fill:none;stroke:#505050;stroke-width:4.0547795296;stroke-miterlimit:4;stroke-opacity:1;stroke-dasharray:none;marker:none;visibility:visible;display:inline;overflow:visible;enable-background:accumulate;font-family:Sans;-inkscape-font-specification:Sans"
       transform="matrix(0.1233112720434734,0,0,0.1233112720434733,296.9615729726169,138.8480231456451)"
       id="path3951" />
    <path
       id="path3953"
       transform="matrix(0.1233112720434734,0,0,0.1233112720434733,328.8754880373261,102.3469478635874)"
       style="font-size:medium;font-style:normal;font-variant:normal;font-weight:normal;font-stretch:normal;text-indent:0;text-align:start;text-decoration:none;line-height:normal;letter-spacing:normal;word-spacing:normal;text-transform:none;direction:ltr;block-progression:tb;writing-mode:lr-tb;text-anchor:start;baseline-shift:baseline;color:#000000;fill:none;stroke:#505050;stroke-width:4.0547795296;stroke-miterlimit:4;stroke-opacity:1;stroke-dasharray:none;marker:none;visibility:visible;display:inline;overflow:visible;enable-background:accumulate;font-family:Sans;-inkscape-font-specification:Sans"
       d="M -1312.78125,674.78125 C -1327.300335081253,674.78125 -1339.1875,685.6595850876614 -1339.1875,699.1875 C -1339.1875,712.3694910426936 -1327.916976109311,723.0253415426152 -1313.90625,723.5625 A 1.250123872944614,1.250126217142613 0 0 0 -1314.0625,724.125 L -1314.0625,749.875 L -1359.9375,736.15625 A 1.250123872944614,1.250126217142613 0 0 0 -1360.4375,736.09375 A 1.250123872944614,1.250126217142613 0 0 0 -1360.65625,738.5625 L -1314.0625,752.5 L -1314.0625,779.84375 L -1341.125,831.78125 A 1.264852664208854,1.264855036025878 0 0 0 -1338.875,832.9375 L -1312.8125,782.78125 L -1286.25,832.71875 A 1.250123872944614,1.250126217142613 0 1 0 -1284.0625,831.5625 L -1311.5625,779.8125 L -1311.5625,752.15625 L -1264.9375,738.5625 A 1.25564912599183,1.255651480550632 0 1 0 -1265.65625,736.15625 L -1311.5625,749.5625 L -1311.5625,724.125 A 1.250123872944614,1.250126217142613 0 0 0 -1311.6875,723.5625 C -1297.674139373871,723.0280135368307 -1286.375,712.371275725548 -1286.375,699.1875 C -1286.375,685.6595850876615 -1298.262164918748,674.7812500000003 -1312.78125,674.78125 z M -1312.78125,677.25 C -1299.50695722934,677.25 -1288.874999999999,687.1260721999591 -1288.875,699.1875 C -1288.875,711.2489278000406 -1299.50695722934,721.1250000000001 -1312.78125,721.125 C -1326.05554277066,721.125 -1336.71875,711.2489278000406 -1336.71875,699.1875 C -1336.71875,687.1260721999592 -1326.05554277066,677.2499999999995 -1312.78125,677.25 z"
       inkscape:connector-curvature="0" />
    <path
       id="path3955"
       transform="matrix(0.1233112720434734,0,0,0.1233112720434733,242.7551947786873,136.590273914235)"
       style="font-size:medium;font-style:normal;font-variant:normal;font-weight:normal;font-stretch:normal;text-indent:0;text-align:start;text-decoration:none;line-height:normal;letter-spacing:normal;word-spacing:normal;text-transform:none;direction:ltr;block-progression:tb;writing-mode:lr-tb;text-anchor:start;baseline-shift:baseline;color:#000000;fill:none;stroke:#505050;stroke-width:4.0547795296;stroke-miterlimit:4;stroke-opacity:1;stroke-dasharray:none;marker:none;visibility:visible;display:inline;overflow:visible;enable-background:accumulate;font-family:Sans;-inkscape-font-specification:Sans"
       d="M -1312.78125,674.78125 C -1327.300335081253,674.78125 -1339.1875,685.6595850876614 -1339.1875,699.1875 C -1339.1875,712.3694910426936 -1327.916976109311,723.0253415426152 -1313.90625,723.5625 A 1.250123872944614,1.250126217142613 0 0 0 -1314.0625,724.125 L -1314.0625,749.875 L -1359.9375,736.15625 A 1.250123872944614,1.250126217142613 0 0 0 -1360.4375,736.09375 A 1.250123872944614,1.250126217142613 0 0 0 -1360.65625,738.5625 L -1314.0625,752.5 L -1314.0625,779.84375 L -1341.125,831.78125 A 1.264852664208854,1.264855036025878 0 0 0 -1338.875,832.9375 L -1312.8125,782.78125 L -1286.25,832.71875 A 1.250123872944614,1.250126217142613 0 1 0 -1284.0625,831.5625 L -1311.5625,779.8125 L -1311.5625,752.15625 L -1264.9375,738.5625 A 1.25564912599183,1.255651480550632 0 1 0 -1265.65625,736.15625 L -1311.5625,749.5625 L -1311.5625,724.125 A 1.250123872944614,1.250126217142613 0 0 0 -1311.6875,723.5625 C -1297.674139373871,723.0280135368307 -1286.375,712.371275725548 -1286.375,699.1875 C -1286.375,685.6595850876615 -1298.262164918748,674.7812500000003 -1312.78125,674.78125 z M -1312.78125,677.25 C -1299.50695722934,677.25 -1288.874999999999,687.1260721999591 -1288.875,699.1875 C -1288.875,711.2489278000406 -1299.50695722934,721.1250000000001 -1312.78125,721.125 C -1326.05554277066,721.125 -1336.71875,711.2489278000406 -1336.71875,699.1875 C -1336.71875,687.1260721999592 -1326.05554277066,677.2499999999995 -1312.78125,677.25 z"
       inkscape:connector-curvature="0" />
    <path
       sodipodi:nodetypes="ccccc"
       style="fill:#b4b4b4;fill-opacity:1;stroke:#787878;stroke-width:1.5097026825;stroke-linecap:butt;stroke-linejoin:round;stroke-miterlimit:4;stroke-opacity:1;stroke-dasharray:none"
       d="M -47.36396696256,387.0954744499979 L 5.969366370773347,387.0954744499979 L 41.5249219263289,361.4544488089723 L -11.80841140700444,361.4544488089723 z"
       id="path3963"
       inkscape:connector-curvature="0"
       transform="matrix(1.125,0,0,1.56,133.28446283288,-441.5067575248095)" />
    <path
       sodipodi:nodetypes="cc"
       transform="translate(192.03446283288,-164.5839352591838)"
       inkscape:connector-curvature="0"
       id="path3965"
       d="M -147.03446283288,411.9461178763713 L -112.03446283288,326.9461178763713"
       style="fill:none;stroke:#787878;stroke-width:2;stroke-linecap:butt;stroke-linejoin:miter;stroke-miterlimit:4;stroke-opacity:1;stroke-dasharray:none" />
    <path
       sodipodi:nodetypes="cc"
       transform="translate(192.03446283288,-164.5839352591838)"
       inkscape:connector-curvature="0"
       id="path3969"
       d="M -52.03446283288,326.9461178763713 L -42.03446283288,411.9461178763713"
       style="fill:none;stroke:#787878;stroke-width:2;stroke-linecap:butt;stroke-linejoin:miter;stroke-miterlimit:4;stroke-opacity:1;stroke-dasharray:none" />
    <path
       sodipodi:nodetypes="cc"
       transform="translate(192.03446283288,-164.5839352591838)"
       inkscape:connector-curvature="0"
       id="path3971"
       d="M -12.03446283288,286.9461178763713 L 22.96553716712,346.9461178763713"
       style="fill:none;stroke:#787878;stroke-width:2;stroke-linecap:butt;stroke-linejoin:miter;stroke-miterlimit:4;stroke-opacity:1;stroke-dasharray:none" />
    <path
       id="path4015"
       transform="matrix(0.1233112720434734,0,0,0.1233112720434733,254.0731812445922,141.772229433831)"
       style="font-size:medium;font-style:normal;font-variant:normal;font-weight:normal;font-stretch:normal;text-indent:0;text-align:start;text-decoration:none;line-height:normal;letter-spacing:normal;word-spacing:normal;text-transform:none;direction:ltr;block-progression:tb;writing-mode:lr-tb;text-anchor:start;baseline-shift:baseline;color:#000000;fill:none;stroke:#505050;stroke-width:4.0547795296;stroke-miterlimit:4;stroke-opacity:1;stroke-dasharray:none;marker:none;visibility:visible;display:inline;overflow:visible;enable-background:accumulate;font-family:Sans;-inkscape-font-specification:Sans"
       d="M -1312.78125,674.78125 C -1327.300335081253,674.78125 -1339.1875,685.6595850876614 -1339.1875,699.1875 C -1339.1875,712.3694910426936 -1327.916976109311,723.0253415426152 -1313.90625,723.5625 A 1.250123872944614,1.250126217142613 0 0 0 -1314.0625,724.125 L -1314.0625,749.875 L -1359.9375,736.15625 A 1.250123872944614,1.250126217142613 0 0 0 -1360.4375,736.09375 A 1.250123872944614,1.250126217142613 0 0 0 -1360.65625,738.5625 L -1314.0625,752.5 L -1314.0625,779.84375 L -1341.125,831.78125 A 1.264852664208854,1.264855036025878 0 0 0 -1338.875,832.9375 L -1312.8125,782.78125 L -1286.25,832.71875 A 1.250123872944614,1.250126217142613 0 1 0 -1284.0625,831.5625 L -1311.5625,779.8125 L -1311.5625,752.15625 L -1264.9375,738.5625 A 1.25564912599183,1.255651480550632 0 1 0 -1265.65625,736.15625 L -1311.5625,749.5625 L -1311.5625,724.125 A 1.250123872944614,1.250126217142613 0 0 0 -1311.6875,723.5625 C -1297.674139373871,723.0280135368307 -1286.375,712.371275725548 -1286.375,699.1875 C -1286.375,685.6595850876615 -1298.262164918748,674.7812500000003 -1312.78125,674.78125 z M -1312.78125,677.25 C -1299.50695722934,677.25 -1288.874999999999,687.1260721999591 -1288.875,699.1875 C -1288.875,711.2489278000406 -1299.50695722934,721.1250000000001 -1312.78125,721.125 C -1326.05554277066,721.125 -1336.71875,711.2489278000406 -1336.71875,699.1875 C -1336.71875,687.1260721999592 -1326.05554277066,677.2499999999995 -1312.78125,677.25 z"
       inkscape:connector-curvature="0" />
    <path
       id="path4017"
       transform="matrix(0.1233112720434734,0,0,0.1233112720434733,280.9077602107326,143.7614331738519)"
       style="font-size:medium;font-style:normal;font-variant:normal;font-weight:normal;font-stretch:normal;text-indent:0;text-align:start;text-decoration:none;line-height:normal;letter-spacing:normal;word-spacing:normal;text-transform:none;direction:ltr;block-progression:tb;writing-mode:lr-tb;text-anchor:start;baseline-shift:baseline;color:#000000;fill:none;stroke:#505050;stroke-width:4.0547795296;stroke-miterlimit:4;stroke-opacity:1;stroke-dasharray:none;marker:none;visibility:visible;display:inline;overflow:visible;enable-background:accumulate;font-family:Sans;-inkscape-font-specification:Sans"
       d="M -1312.78125,674.78125 C -1327.300335081253,674.78125 -1339.1875,685.6595850876614 -1339.1875,699.1875 C -1339.1875,712.3694910426936 -1327.916976109311,723.0253415426152 -1313.90625,723.5625 A 1.250123872944614,1.250126217142613 0 0 0 -1314.0625,724.125 L -1314.0625,749.875 L -1359.9375,736.15625 A 1.250123872944614,1.250126217142613 0 0 0 -1360.4375,736.09375 A 1.250123872944614,1.250126217142613 0 0 0 -1360.65625,738.5625 L -1314.0625,752.5 L -1314.0625,779.84375 L -1341.125,831.78125 A 1.264852664208854,1.264855036025878 0 0 0 -1338.875,832.9375 L -1312.8125,782.78125 L -1286.25,832.71875 A 1.250123872944614,1.250126217142613 0 1 0 -1284.0625,831.5625 L -1311.5625,779.8125 L -1311.5625,752.15625 L -1264.9375,738.5625 A 1.25564912599183,1.255651480550632 0 1 0 -1265.65625,736.15625 L -1311.5625,749.5625 L -1311.5625,724.125 A 1.250123872944614,1.250126217142613 0 0 0 -1311.6875,723.5625 C -1297.674139373871,723.0280135368307 -1286.375,712.371275725548 -1286.375,699.1875 C -1286.375,685.6595850876615 -1298.262164918748,674.7812500000003 -1312.78125,674.78125 z M -1312.78125,677.25 C -1299.50695722934,677.25 -1288.874999999999,687.1260721999591 -1288.875,699.1875 C -1288.875,711.2489278000406 -1299.50695722934,721.1250000000001 -1312.78125,721.125 C -1326.05554277066,721.125 -1336.71875,711.2489278000406 -1336.71875,699.1875 C -1336.71875,687.1260721999592 -1326.05554277066,677.2499999999995 -1312.78125,677.25 z"
       inkscape:connector-curvature="0" />
    <path
       inkscape:connector-curvature="0"
       d="M -1312.78125,674.78125 C -1327.300335081253,674.78125 -1339.1875,685.6595850876614 -1339.1875,699.1875 C -1339.1875,712.3694910426936 -1327.916976109311,723.0253415426152 -1313.90625,723.5625 A 1.250123872944614,1.250126217142613 0 0 0 -1314.0625,724.125 L -1314.0625,749.875 L -1359.9375,736.15625 A 1.250123872944614,1.250126217142613 0 0 0 -1360.4375,736.09375 A 1.250123872944614,1.250126217142613 0 0 0 -1360.65625,738.5625 L -1314.0625,752.5 L -1314.0625,779.84375 L -1341.125,831.78125 A 1.264852664208854,1.264855036025878 0 0 0 -1338.875,832.9375 L -1312.8125,782.78125 L -1286.25,832.71875 A 1.250123872944614,1.250126217142613 0 1 0 -1284.0625,831.5625 L -1311.5625,779.8125 L -1311.5625,752.15625 L -1264.9375,738.5625 A 1.25564912599183,1.255651480550632 0 1 0 -1265.65625,736.15625 L -1311.5625,749.5625 L -1311.5625,724.125 A 1.250123872944614,1.250126217142613 0 0 0 -1311.6875,723.5625 C -1297.674139373871,723.0280135368307 -1286.375,712.371275725548 -1286.375,699.1875 C -1286.375,685.6595850876615 -1298.262164918748,674.7812500000003 -1312.78125,674.78125 z M -1312.78125,677.25 C -1299.50695722934,677.25 -1288.874999999999,687.1260721999591 -1288.875,699.1875 C -1288.875,711.2489278000406 -1299.50695722934,721.1250000000001 -1312.78125,721.125 C -1326.05554277066,721.125 -1336.71875,711.2489278000406 -1336.71875,699.1875 C -1336.71875,687.1260721999592 -1326.05554277066,677.2499999999995 -1312.78125,677.25 z"
       style="font-size:medium;font-style:normal;font-variant:normal;font-weight:normal;font-stretch:normal;text-indent:0;text-align:start;text-decoration:none;line-height:normal;letter-spacing:normal;word-spacing:normal;text-transform:none;direction:ltr;block-progression:tb;writing-mode:lr-tb;text-anchor:start;baseline-shift:baseline;color:#000000;fill:none;stroke:#505050;stroke-width:4.0547795296;stroke-miterlimit:4;stroke-opacity:1;stroke-dasharray:none;marker:none;visibility:visible;display:inline;overflow:visible;enable-background:accumulate;font-family:Sans;-inkscape-font-specification:Sans"
       transform="matrix(0.1233112720434734,0,0,0.1233112720434733,228.339628142919,142.1262636492154)"
       id="path4019" />
    <g
       style="fill:#787878;fill-opacity:1;stroke:none"
       transform="matrix(0.1569726058324186,0,0,0.160652040286995,119.8186095430355,62.00253049992443)"
       id="g4086">
      <title
         id="title4088">Layer 1</title>
      <g
         style="fill:#787878;fill-opacity:1;stroke:none"
         id="Layer_x0020_1">
        <path
           style="fill:#787878;fill-opacity:1;stroke:none"
           inkscape:connector-curvature="0"
           id="path10"
           d="M 67.16455799999998,130.0056 L 98.94147499999999,130.0056 L 103.826714,301.019928 L 62.888878,301.021088 L 67.16455899999999,130.005005 L 67.16455899999999,130.0056 z M 37.215797,307.167603 L 352.543182,307.167603 L 352.543182,329.171113 L 371.436523,329.171113 L 371.435394,351.174653 L 389.758392,351.174653 L 389.758392,373.175874 L 0,373.174134 L 0,351.174653 L 18.323006,351.174653 L 18.323006,329.171113 L 37.215218,329.171113 L 37.215218,307.167603 L 37.215798,307.167603 z M 368.988433,82.25630999999998 L 194.876006,0 L 20.76073299999999,82.25630999999998 L 20.76187699999999,95.70388099999998 L 368.987852,95.70502499999996 L 368.987852,82.25630999999998 L 368.988432,82.25630999999998 z M 54.32773499999996,101.856713 L 335.432403,101.856713 L 335.432403,123.856209 L 54.32773499999996,123.856209 L 54.32773499999996,101.856713 z M 290.2050469999999,130.005601 L 321.9819329999999,130.005601 L 326.8683469999999,301.021669 L 285.9310909999999,301.019929 L 290.2050469999999,130.005601 z M 215.8582299999999,130.005601 L 247.635131,130.006745 L 252.5215139999999,301.019929 L 211.5825189999999,301.021089 L 215.8582299999999,130.005006 L 215.8582299999999,130.005601 z M 141.5113819999999,130.005601 L 173.2871389999999,130.003846 L 178.1758869999999,301.019929 L 137.2357169999999,301.019929 L 141.5113819999999,130.005601 z"
           class="fil0" />
      </g>
    </g>
    <g
       id="g4143"
       transform="translate(300.1835969250764,-145.0793425250354)">
      <path
         id="path4029"
         transform="matrix(0.138746630590845,0,0,0.1387466305908449,-4.645703171012002,177.9553430975767)"
         style="font-size:medium;font-style:normal;font-variant:normal;font-weight:normal;font-stretch:normal;text-indent:0;text-align:start;text-decoration:none;line-height:normal;letter-spacing:normal;word-spacing:normal;text-transform:none;direction:ltr;block-progression:tb;writing-mode:lr-tb;text-anchor:start;baseline-shift:baseline;color:#000000;fill:none;stroke:#323232;stroke-width:7.2073822021;stroke-miterlimit:4;stroke-opacity:1;stroke-dasharray:none;marker:none;visibility:visible;display:inline;overflow:visible;enable-background:accumulate;font-family:Sans;-inkscape-font-specification:Sans"
         d="M -1312.78125,674.78125 C -1327.300335081253,674.78125 -1339.1875,685.6595850876614 -1339.1875,699.1875 C -1339.1875,712.3694910426936 -1327.916976109311,723.0253415426152 -1313.90625,723.5625 A 1.250123872944614,1.250126217142613 0 0 0 -1314.0625,724.125 L -1314.0625,749.875 L -1359.9375,736.15625 A 1.250123872944614,1.250126217142613 0 0 0 -1360.4375,736.09375 A 1.250123872944614,1.250126217142613 0 0 0 -1360.65625,738.5625 L -1314.0625,752.5 L -1314.0625,779.84375 L -1341.125,831.78125 A 1.264852664208854,1.264855036025878 0 0 0 -1338.875,832.9375 L -1312.8125,782.78125 L -1286.25,832.71875 A 1.250123872944614,1.250126217142613 0 1 0 -1284.0625,831.5625 L -1311.5625,779.8125 L -1311.5625,752.15625 L -1264.9375,738.5625 A 1.25564912599183,1.255651480550632 0 1 0 -1265.65625,736.15625 L -1311.5625,749.5625 L -1311.5625,724.125 A 1.250123872944614,1.250126217142613 0 0 0 -1311.6875,723.5625 C -1297.674139373871,723.0280135368307 -1286.375,712.371275725548 -1286.375,699.1875 C -1286.375,685.6595850876615 -1298.262164918748,674.7812500000003 -1312.78125,674.78125 z M -1312.78125,677.25 C -1299.50695722934,677.25 -1288.874999999999,687.1260721999591 -1288.875,699.1875 C -1288.875,711.2489278000406 -1299.50695722934,721.1250000000001 -1312.78125,721.125 C -1326.05554277066,721.125 -1336.71875,711.2489278000406 -1336.71875,699.1875 C -1336.71875,687.1260721999592 -1326.05554277066,677.2499999999995 -1312.78125,677.25 z"
         inkscape:connector-curvature="0" />
      <path
         inkscape:connector-curvature="0"
         d="M -1312.78125,674.78125 C -1327.300335081253,674.78125 -1339.1875,685.6595850876614 -1339.1875,699.1875 C -1339.1875,712.3694910426936 -1327.916976109311,723.0253415426152 -1313.90625,723.5625 A 1.250123872944614,1.250126217142613 0 0 0 -1314.0625,724.125 L -1314.0625,749.875 L -1359.9375,736.15625 A 1.250123872944614,1.250126217142613 0 0 0 -1360.4375,736.09375 A 1.250123872944614,1.250126217142613 0 0 0 -1360.65625,738.5625 L -1314.0625,752.5 L -1314.0625,779.84375 L -1341.125,831.78125 A 1.264852664208854,1.264855036025878 0 0 0 -1338.875,832.9375 L -1312.8125,782.78125 L -1286.25,832.71875 A 1.250123872944614,1.250126217142613 0 1 0 -1284.0625,831.5625 L -1311.5625,779.8125 L -1311.5625,752.15625 L -1264.9375,738.5625 A 1.25564912599183,1.255651480550632 0 1 0 -1265.65625,736.15625 L -1311.5625,749.5625 L -1311.5625,724.125 A 1.250123872944614,1.250126217142613 0 0 0 -1311.6875,723.5625 C -1297.674139373871,723.0280135368307 -1286.375,712.371275725548 -1286.375,699.1875 C -1286.375,685.6595850876615 -1298.262164918748,674.7812500000003 -1312.78125,674.78125 z M -1312.78125,677.25 C -1299.50695722934,677.25 -1288.874999999999,687.1260721999591 -1288.875,699.1875 C -1288.875,711.2489278000406 -1299.50695722934,721.1250000000001 -1312.78125,721.125 C -1326.05554277066,721.125 -1336.71875,711.2489278000406 -1336.71875,699.1875 C -1336.71875,687.1260721999592 -1326.05554277066,677.2499999999995 -1312.78125,677.25 z"
         style="font-size:medium;font-style:normal;font-variant:normal;font-weight:normal;font-stretch:normal;text-indent:0;text-align:start;text-decoration:none;line-height:normal;letter-spacing:normal;word-spacing:normal;text-transform:none;direction:ltr;block-progression:tb;writing-mode:lr-tb;text-anchor:start;baseline-shift:baseline;color:#000000;fill:none;stroke:#323232;stroke-width:7.2073822021;stroke-miterlimit:4;stroke-opacity:1;stroke-dasharray:none;marker:none;visibility:visible;display:inline;overflow:visible;enable-background:accumulate;font-family:Sans;-inkscape-font-specification:Sans"
         transform="matrix(0.138746630590845,0,0,0.1387466305908449,28.581934308997,178.0030372518424)"
         id="path4031" />
      <path
         id="path4033"
         transform="matrix(0.230814618284173,0,0,0.2308146182841729,132.8383789022056,103.7535248833827)"
         style="font-size:medium;font-style:normal;font-variant:normal;font-weight:normal;font-stretch:normal;text-indent:0;text-align:start;text-decoration:none;line-height:normal;letter-spacing:normal;word-spacing:normal;text-transform:none;direction:ltr;block-progression:tb;writing-mode:lr-tb;text-anchor:start;baseline-shift:baseline;color:#000000;fill:none;stroke:#323232;stroke-width:4.3324813843;stroke-miterlimit:4;stroke-opacity:1;stroke-dasharray:none;marker:none;visibility:visible;display:inline;overflow:visible;enable-background:accumulate;font-family:Sans;-inkscape-font-specification:Sans"
         d="M -1312.78125,674.78125 C -1327.300335081253,674.78125 -1339.1875,685.6595850876614 -1339.1875,699.1875 C -1339.1875,712.3694910426936 -1327.916976109311,723.0253415426152 -1313.90625,723.5625 A 1.250123872944614,1.250126217142613 0 0 0 -1314.0625,724.125 L -1314.0625,749.875 L -1359.9375,736.15625 A 1.250123872944614,1.250126217142613 0 0 0 -1360.4375,736.09375 A 1.250123872944614,1.250126217142613 0 0 0 -1360.65625,738.5625 L -1314.0625,752.5 L -1314.0625,779.84375 L -1341.125,831.78125 A 1.264852664208854,1.264855036025878 0 0 0 -1338.875,832.9375 L -1312.8125,782.78125 L -1286.25,832.71875 A 1.250123872944614,1.250126217142613 0 1 0 -1284.0625,831.5625 L -1311.5625,779.8125 L -1311.5625,752.15625 L -1264.9375,738.5625 A 1.25564912599183,1.255651480550632 0 1 0 -1265.65625,736.15625 L -1311.5625,749.5625 L -1311.5625,724.125 A 1.250123872944614,1.250126217142613 0 0 0 -1311.6875,723.5625 C -1297.674139373871,723.0280135368307 -1286.375,712.371275725548 -1286.375,699.1875 C -1286.375,685.6595850876615 -1298.262164918748,674.7812500000003 -1312.78125,674.78125 z M -1312.78125,677.25 C -1299.50695722934,677.25 -1288.874999999999,687.1260721999591 -1288.875,699.1875 C -1288.875,711.2489278000406 -1299.50695722934,721.1250000000001 -1312.78125,721.125 C -1326.05554277066,721.125 -1336.71875,711.2489278000406 -1336.71875,699.1875 C -1336.71875,687.1260721999592 -1326.05554277066,677.2499999999995 -1312.78125,677.25 z"
         inkscape:connector-curvature="0" />
    </g>
    <path
       transform="translate(214.6083112768151,-173.9618779519296)"
       style="fill:none;stroke:#787878;stroke-width:1px;stroke-linecap:butt;stroke-linejoin:miter;stroke-opacity:1;marker-end:url(#Arrow2Lendw)"
       d="M -40,237.3621826171875 C -40,237.3621826171875 -40,212.3621826171875 -10,212.3621826171875"
       id="path4150"
       inkscape:connector-curvature="0" />
    <path
       transform="matrix(-1,0,0,1,89.60831127681511,-173.9618779519296)"
       inkscape:connector-curvature="0"
       id="path5051"
       d="M -40,237.3621826171875 C -40,237.3621826171875 -40,212.3621826171875 -10,212.3621826171875"
       style="fill:none;stroke:#787878;stroke-width:1px;stroke-linecap:butt;stroke-linejoin:miter;stroke-opacity:1;marker-end:url(#Arrow2Lendw)" />
    <path
       transform="matrix(0.1302172514943364,0,0,0.1302172514943364,173.5348416841662,34.61449673359425)"
       inkscape:connector-curvature="0"
       id="path5202"
       d="M 11.25164522380898,97.89552257711247 C 1.449270733439478,93.04342872190507 -2.574465138828548,82.09978347666208 1.914274274861433,72.5 C 4.138459355333329,67.74327584723832 22.29301306278965,49.55299370161235 26.31509966117454,48.05115341772958 C 27.86340447482055,47.47301903797831 31.36322020982417,47 34.09246796118261,47 L 39.05473660001612,47 L 26.25571719389347,59.75 C 19.21625652052601,66.7625 12.67894078552239,73.61262780953244 11.72834889388541,74.97250624340543 C 6.018239692817314,83.14115824423444 15.46839914753665,93.54964788330262 24.31574145408933,88.83637231609249 C 25.5170836543402,88.19637708994339 32.10399194400558,81.89637708994338 38.95331543112352,74.83637231609252 C 45.80263891824144,67.77636754224164 51.76513891824144,62.00000000000002 52.20331543112352,62.00000000000001 C 53.77588660565169,62 52.96846896525212,71.14040115002738 51.07352465893643,74.78983806729641 C 48.4078551332367,79.92359991132764 31.31094729223667,96.58287297012161 26.78211863089645,98.45944954129042 C 21.66028194351236,100.5817463751153 16.28406950148046,100.3865307444168 11.25164522380898,97.89552257711247 z M 30.83086619827353,70.75 C 26.609557297669,67.34877549977059 27.24138488566015,66.38549154106604 46.18496533917554,47.34114973150338 C 61.0259718583212,32.42120354487273 64.94208811835547,29 67.17935335181148,29 C 70.24120931954098,29.00000000000001 72.46512658477513,31.95915539793597 71.5559937025108,34.82357946541359 C 70.7486966257055,37.36714732168343 35.64865776677609,72 33.87807506496033,72 C 33.05537637784753,72 31.68413238783846,71.4375 30.83086619827353,70.75 z M 62,52.11143572599979 C 62,51.62272537529965 67.02387816839565,46.56022537529965 73.16417370754594,40.86143572599979 C 86.47719804015827,28.50565825831332 90,23.98840754506028 90,19.27303842330008 C 90,14.38055240419631 85.46707811588393,10.00000000000002 80.40441594513055,10 C 76.92278447476515,9.999999999999987 75.64645564553163,10.99993389080517 62.53463097876559,23.99999999999999 C 54.76843586205846,31.69999999999999 48.09606407136512,38 47.70713811055814,38 C 46.44916393719955,38 46.95789250412518,29.34424661482986 48.41993533638505,25.87212395467249 C 50.5391296947773,20.8393693795702 69.62770762396471,2.562534343919895 74.37496793569272,1.02083063558624 C 89.05274449613925,-3.745872908651513 103.7458729086515,10.94725550386079 98.97916936441376,25.62503206430728 C 97.46471201975039,30.28839455559701 79.20065108908039,49.51296880740833 74.28211863089643,51.62090929169658 C 70.70715202895145,53.15303638332112 62,53.50078487574759 62,52.11143572599979 z"
       style="fill:#787878;fill-opacity:1" />
    <path
       style="fill:#787878;fill-opacity:1"
       d="M 11.25164522380898,97.89552257711247 C 1.449270733439478,93.04342872190507 -2.574465138828548,82.09978347666208 1.914274274861433,72.5 C 4.138459355333329,67.74327584723832 22.29301306278965,49.55299370161235 26.31509966117454,48.05115341772958 C 27.86340447482055,47.47301903797831 31.36322020982417,47 34.09246796118261,47 L 39.05473660001612,47 L 26.25571719389347,59.75 C 19.21625652052601,66.7625 12.67894078552239,73.61262780953244 11.72834889388541,74.97250624340543 C 6.018239692817314,83.14115824423444 15.46839914753665,93.54964788330262 24.31574145408933,88.83637231609249 C 25.5170836543402,88.19637708994339 32.10399194400558,81.89637708994338 38.95331543112352,74.83637231609252 C 45.80263891824144,67.77636754224164 51.76513891824144,62.00000000000002 52.20331543112352,62.00000000000001 C 53.77588660565169,62 52.96846896525212,71.14040115002738 51.07352465893643,74.78983806729641 C 48.4078551332367,79.92359991132764 31.31094729223667,96.58287297012161 26.78211863089645,98.45944954129042 C 21.66028194351236,100.5817463751153 16.28406950148046,100.3865307444168 11.25164522380898,97.89552257711247 z M 30.83086619827353,70.75 C 26.609557297669,67.34877549977059 27.24138488566015,66.38549154106604 46.18496533917554,47.34114973150338 C 61.0259718583212,32.42120354487273 64.94208811835547,29 67.17935335181148,29 C 70.24120931954098,29.00000000000001 72.46512658477513,31.95915539793597 71.5559937025108,34.82357946541359 C 70.7486966257055,37.36714732168343 35.64865776677609,72 33.87807506496033,72 C 33.05537637784753,72 31.68413238783846,71.4375 30.83086619827353,70.75 z M 62,52.11143572599979 C 62,51.62272537529965 67.02387816839565,46.56022537529965 73.16417370754594,40.86143572599979 C 86.47719804015827,28.50565825831332 90,23.98840754506028 90,19.27303842330008 C 90,14.38055240419631 85.46707811588393,10.00000000000002 80.40441594513055,10 C 76.92278447476515,9.999999999999987 75.64645564553163,10.99993389080517 62.53463097876559,23.99999999999999 C 54.76843586205846,31.69999999999999 48.09606407136512,38 47.70713811055814,38 C 46.44916393719955,38 46.95789250412518,29.34424661482986 48.41993533638505,25.87212395467249 C 50.5391296947773,20.8393693795702 69.62770762396471,2.562534343919895 74.37496793569272,1.02083063558624 C 89.05274449613925,-3.745872908651513 103.7458729086515,10.94725550386079 98.97916936441376,25.62503206430728 C 97.46471201975039,30.28839455559701 79.20065108908039,49.51296880740833 74.28211863089643,51.62090929169658 C 70.70715202895145,53.15303638332112 62,53.50078487574759 62,52.11143572599979 z"
       id="path5204"
       inkscape:connector-curvature="0"
       transform="matrix(0.1302172514943364,0,0,-0.1302172514943364,117.5348416841662,47.63944732057712)" />
    <g
       style="stroke-width:3.4000000954;stroke-miterlimit:4;stroke-dasharray:none"
       transform="matrix(0.2941176470588238,0,0,0.2941176470588238,261.7647058823528,46.37330537683818)"
       id="g5353">
      <path
         sodipodi:nodetypes="cc"
         transform="translate(457.03446283288,-164.5839352591838)"
         inkscape:connector-curvature="0"
         id="path5285"
         d="M -72.03446283287999,286.9461178763713 L -82.03446283287999,346.9461178763713"
         style="fill:none;stroke:#787878;stroke-width:3.4000000954;stroke-linecap:butt;stroke-linejoin:miter;stroke-miterlimit:4;stroke-opacity:1;stroke-dasharray:none" />
      <path
         sodipodi:nodetypes="ccccc"
         transform="matrix(1.875,0,0,2.6,400.78446283288,-759.3634274466835)"
         inkscape:connector-curvature="0"
         id="path5287"
         d="M -48.418380177536,387.2021577168736 L 7.581619822464007,387.2021577168736 L 42.24828648913068,362.2021577168736 L -13.75171351086933,362.2021577168736 z"
         style="fill:#dedede;fill-opacity:1;stroke:#787878;stroke-width:1.5398967266;stroke-linecap:butt;stroke-linejoin:round;stroke-miterlimit:4;stroke-opacity:1;stroke-dasharray:none" />
      <path
         sodipodi:nodetypes="ccccc"
         style="fill:#b4b4b4;fill-opacity:1;stroke:#787878;stroke-width:2.5664947033;stroke-linecap:butt;stroke-linejoin:round;stroke-miterlimit:4;stroke-opacity:1;stroke-dasharray:none"
         d="M -47.36396696256,387.0954744499979 L 5.969366370773347,387.0954744499979 L 41.5249219263289,361.4544488089723 L -11.80841140700444,361.4544488089723 z"
         id="path5315"
         inkscape:connector-curvature="0"
         transform="matrix(1.125,0,0,1.56,398.28446283288,-441.5067575248095)" />
      <path
         sodipodi:nodetypes="cc"
         transform="translate(457.03446283288,-164.5839352591838)"
         inkscape:connector-curvature="0"
         id="path5317"
         d="M -147.03446283288,411.9461178763713 L -112.03446283288,326.9461178763713"
         style="fill:none;stroke:#787878;stroke-width:3.4000000954;stroke-linecap:butt;stroke-linejoin:miter;stroke-miterlimit:4;stroke-opacity:1;stroke-dasharray:none" />
      <path
         sodipodi:nodetypes="cc"
         transform="translate(457.03446283288,-164.5839352591838)"
         inkscape:connector-curvature="0"
         id="path5319"
         d="M -52.03446283288,326.9461178763713 L -42.03446283288,411.9461178763713"
         style="fill:none;stroke:#787878;stroke-width:3.4000000954;stroke-linecap:butt;stroke-linejoin:miter;stroke-miterlimit:4;stroke-opacity:1;stroke-dasharray:none" />
      <path
         sodipodi:nodetypes="cc"
         transform="translate(457.03446283288,-164.5839352591838)"
         inkscape:connector-curvature="0"
         id="path5321"
         d="M -12.03446283288,286.9461178763713 L 22.96553716712,346.9461178763713"
         style="fill:none;stroke:#787878;stroke-width:3.4000000954;stroke-linecap:butt;stroke-linejoin:miter;stroke-miterlimit:4;stroke-opacity:1;stroke-dasharray:none" />
    </g>
    <path
       style="fill:#787878;fill-opacity:1"
       d="M 11.25164522380898,97.89552257711247 C 1.449270733439478,93.04342872190507 -2.574465138828548,82.09978347666208 1.914274274861433,72.5 C 4.138459355333329,67.74327584723832 22.29301306278965,49.55299370161235 26.31509966117454,48.05115341772958 C 27.86340447482055,47.47301903797831 31.36322020982417,47 34.09246796118261,47 L 39.05473660001612,47 L 26.25571719389347,59.75 C 19.21625652052601,66.7625 12.67894078552239,73.61262780953244 11.72834889388541,74.97250624340543 C 6.018239692817314,83.14115824423444 15.46839914753665,93.54964788330262 24.31574145408933,88.83637231609249 C 25.5170836543402,88.19637708994339 32.10399194400558,81.89637708994338 38.95331543112352,74.83637231609252 C 45.80263891824144,67.77636754224164 51.76513891824144,62.00000000000002 52.20331543112352,62.00000000000001 C 53.77588660565169,62 52.96846896525212,71.14040115002738 51.07352465893643,74.78983806729641 C 48.4078551332367,79.92359991132764 31.31094729223667,96.58287297012161 26.78211863089645,98.45944954129042 C 21.66028194351236,100.5817463751153 16.28406950148046,100.3865307444168 11.25164522380898,97.89552257711247 z M 30.83086619827353,70.75 C 26.609557297669,67.34877549977059 27.24138488566015,66.38549154106604 46.18496533917554,47.34114973150338 C 61.0259718583212,32.42120354487273 64.94208811835547,29 67.17935335181148,29 C 70.24120931954098,29.00000000000001 72.46512658477513,31.95915539793597 71.5559937025108,34.82357946541359 C 70.7486966257055,37.36714732168343 35.64865776677609,72 33.87807506496033,72 C 33.05537637784753,72 31.68413238783846,71.4375 30.83086619827353,70.75 z M 62,52.11143572599979 C 62,51.62272537529965 67.02387816839565,46.56022537529965 73.16417370754594,40.86143572599979 C 86.47719804015827,28.50565825831332 90,23.98840754506028 90,19.27303842330008 C 90,14.38055240419631 85.46707811588393,10.00000000000002 80.40441594513055,10 C 76.92278447476515,9.999999999999987 75.64645564553163,10.99993389080517 62.53463097876559,23.99999999999999 C 54.76843586205846,31.69999999999999 48.09606407136512,38 47.70713811055814,38 C 46.44916393719955,38 46.95789250412518,29.34424661482986 48.41993533638505,25.87212395467249 C 50.5391296947773,20.8393693795702 69.62770762396471,2.562534343919895 74.37496793569272,1.02083063558624 C 89.05274449613925,-3.745872908651513 103.7458729086515,10.94725550386079 98.97916936441376,25.62503206430728 C 97.46471201975039,30.28839455559701 79.20065108908039,49.51296880740833 74.28211863089643,51.62090929169658 C 70.70715202895145,53.15303638332112 62,53.50078487574759 62,52.11143572599979 z"
       id="path5349"
       inkscape:connector-curvature="0"
       transform="matrix(0.1302172514943364,0,0,0.1302172514943364,466.9265304073512,110.576374685524)" />
    <path
       transform="matrix(-0.1302172514943364,0,0,-0.1302172514943364,354.9456348652287,159.147990548851)"
       inkscape:connector-curvature="0"
       id="path5351"
       d="M 11.25164522380898,97.89552257711247 C 1.449270733439478,93.04342872190507 -2.574465138828548,82.09978347666208 1.914274274861433,72.5 C 4.138459355333329,67.74327584723832 22.29301306278965,49.55299370161235 26.31509966117454,48.05115341772958 C 27.86340447482055,47.47301903797831 31.36322020982417,47 34.09246796118261,47 L 39.05473660001612,47 L 26.25571719389347,59.75 C 19.21625652052601,66.7625 12.67894078552239,73.61262780953244 11.72834889388541,74.97250624340543 C 6.018239692817314,83.14115824423444 15.46839914753665,93.54964788330262 24.31574145408933,88.83637231609249 C 25.5170836543402,88.19637708994339 32.10399194400558,81.89637708994338 38.95331543112352,74.83637231609252 C 45.80263891824144,67.77636754224164 51.76513891824144,62.00000000000002 52.20331543112352,62.00000000000001 C 53.77588660565169,62 52.96846896525212,71.14040115002738 51.07352465893643,74.78983806729641 C 48.4078551332367,79.92359991132764 31.31094729223667,96.58287297012161 26.78211863089645,98.45944954129042 C 21.66028194351236,100.5817463751153 16.28406950148046,100.3865307444168 11.25164522380898,97.89552257711247 z M 30.83086619827353,70.75 C 26.609557297669,67.34877549977059 27.24138488566015,66.38549154106604 46.18496533917554,47.34114973150338 C 61.0259718583212,32.42120354487273 64.94208811835547,29 67.17935335181148,29 C 70.24120931954098,29.00000000000001 72.46512658477513,31.95915539793597 71.5559937025108,34.82357946541359 C 70.7486966257055,37.36714732168343 35.64865776677609,72 33.87807506496033,72 C 33.05537637784753,72 31.68413238783846,71.4375 30.83086619827353,70.75 z M 62,52.11143572599979 C 62,51.62272537529965 67.02387816839565,46.56022537529965 73.16417370754594,40.86143572599979 C 86.47719804015827,28.50565825831332 90,23.98840754506028 90,19.27303842330008 C 90,14.38055240419631 85.46707811588393,10.00000000000002 80.40441594513055,10 C 76.92278447476515,9.999999999999987 75.64645564553163,10.99993389080517 62.53463097876559,23.99999999999999 C 54.76843586205846,31.69999999999999 48.09606407136512,38 47.70713811055814,38 C 46.44916393719955,38 46.95789250412518,29.34424661482986 48.41993533638505,25.87212395467249 C 50.5391296947773,20.8393693795702 69.62770762396471,2.562534343919895 74.37496793569272,1.02083063558624 C 89.05274449613925,-3.745872908651513 103.7458729086515,10.94725550386079 98.97916936441376,25.62503206430728 C 97.46471201975039,30.28839455559701 79.20065108908039,49.51296880740833 74.28211863089643,51.62090929169658 C 70.70715202895145,53.15303638332112 62,53.50078487574759 62,52.11143572599979 z"
       style="fill:#787878;fill-opacity:1" />
    <g
       id="g5361"
       transform="matrix(0.2941176470588238,0,0,0.2941176470588238,394.7058823529411,23.72624655330855)"
       style="stroke-width:3.4000000954;stroke-miterlimit:4;stroke-dasharray:none">
      <path
         style="fill:none;stroke:#787878;stroke-width:3.4000000954;stroke-linecap:butt;stroke-linejoin:miter;stroke-miterlimit:4;stroke-opacity:1;stroke-dasharray:none"
         d="M -72.03446283287999,286.9461178763713 L -82.03446283287999,346.9461178763713"
         id="path5363"
         inkscape:connector-curvature="0"
         transform="translate(457.03446283288,-164.5839352591838)"
         sodipodi:nodetypes="cc" />
      <path
         style="fill:#dedede;fill-opacity:1;stroke:#787878;stroke-width:1.5398967266;stroke-linecap:butt;stroke-linejoin:round;stroke-miterlimit:4;stroke-opacity:1;stroke-dasharray:none"
         d="M -48.418380177536,387.2021577168736 L 7.581619822464007,387.2021577168736 L 42.24828648913068,362.2021577168736 L -13.75171351086933,362.2021577168736 z"
         id="path5365"
         inkscape:connector-curvature="0"
         transform="matrix(1.875,0,0,2.6,400.78446283288,-759.3634274466835)"
         sodipodi:nodetypes="ccccc" />
      <path
         transform="matrix(1.125,0,0,1.56,398.28446283288,-441.5067575248095)"
         inkscape:connector-curvature="0"
         id="path5367"
         d="M -47.36396696256,387.0954744499979 L 5.969366370773347,387.0954744499979 L 41.5249219263289,361.4544488089723 L -11.80841140700444,361.4544488089723 z"
         style="fill:#dcdcdc;fill-opacity:1;stroke:#787878;stroke-width:2.5664947033;stroke-linecap:butt;stroke-linejoin:round;stroke-miterlimit:4;stroke-opacity:1;stroke-dasharray:none"
         sodipodi:nodetypes="ccccc" />
      <path
         style="fill:none;stroke:#787878;stroke-width:3.4000000954;stroke-linecap:butt;stroke-linejoin:miter;stroke-miterlimit:4;stroke-opacity:1;stroke-dasharray:none"
         d="M -147.03446283288,411.9461178763713 L -112.03446283288,326.9461178763713"
         id="path5369"
         inkscape:connector-curvature="0"
         transform="translate(457.03446283288,-164.5839352591838)"
         sodipodi:nodetypes="cc" />
      <path
         style="fill:none;stroke:#787878;stroke-width:3.4000000954;stroke-linecap:butt;stroke-linejoin:miter;stroke-miterlimit:4;stroke-opacity:1;stroke-dasharray:none"
         d="M -52.03446283288,326.9461178763713 L -42.03446283288,411.9461178763713"
         id="path5371"
         inkscape:connector-curvature="0"
         transform="translate(457.03446283288,-164.5839352591838)"
         sodipodi:nodetypes="cc" />
      <path
         style="fill:none;stroke:#787878;stroke-width:3.4000000954;stroke-linecap:butt;stroke-linejoin:miter;stroke-miterlimit:4;stroke-opacity:1;stroke-dasharray:none"
         d="M -12.03446283288,286.9461178763713 L 22.96553716712,346.9461178763713"
         id="path5373"
         inkscape:connector-curvature="0"
         transform="translate(457.03446283288,-164.5839352591838)"
         sodipodi:nodetypes="cc" />
    </g>
    <g
       style="stroke-width:3.4000000954;stroke-miterlimit:4;stroke-dasharray:none"
       transform="matrix(0.2941176470588238,0,0,0.2941176470588238,360.8823529411764,159.6085994944854)"
       id="g5375">
      <path
         sodipodi:nodetypes="cc"
         transform="translate(457.03446283288,-164.5839352591838)"
         inkscape:connector-curvature="0"
         id="path5377"
         d="M -72.03446283287999,286.9461178763713 L -82.03446283287999,346.9461178763713"
         style="fill:none;stroke:#787878;stroke-width:3.4000000954;stroke-linecap:butt;stroke-linejoin:miter;stroke-miterlimit:4;stroke-opacity:1;stroke-dasharray:none" />
      <path
         sodipodi:nodetypes="ccccc"
         transform="matrix(1.875,0,0,2.6,400.78446283288,-759.3634274466835)"
         inkscape:connector-curvature="0"
         id="path5379"
         d="M -48.418380177536,387.2021577168736 L 7.581619822464007,387.2021577168736 L 42.24828648913068,362.2021577168736 L -13.75171351086933,362.2021577168736 z"
         style="fill:#dedede;fill-opacity:1;stroke:#787878;stroke-width:1.5398967266;stroke-linecap:butt;stroke-linejoin:round;stroke-miterlimit:4;stroke-opacity:1;stroke-dasharray:none" />
      <path
         sodipodi:nodetypes="ccccc"
         style="fill:#f0f0f0;fill-opacity:1;stroke:#787878;stroke-width:2.5664947033;stroke-linecap:butt;stroke-linejoin:round;stroke-miterlimit:4;stroke-opacity:1;stroke-dasharray:none"
         d="M -47.36396696256,387.0954744499979 L 5.969366370773347,387.0954744499979 L 41.5249219263289,361.4544488089723 L -11.80841140700444,361.4544488089723 z"
         id="path5381"
         inkscape:connector-curvature="0"
         transform="matrix(1.125,0,0,1.56,398.28446283288,-441.5067575248095)" />
      <path
         sodipodi:nodetypes="cc"
         transform="translate(457.03446283288,-164.5839352591838)"
         inkscape:connector-curvature="0"
         id="path5383"
         d="M -147.03446283288,411.9461178763713 L -112.03446283288,326.9461178763713"
         style="fill:none;stroke:#787878;stroke-width:3.4000000954;stroke-linecap:butt;stroke-linejoin:miter;stroke-miterlimit:4;stroke-opacity:1;stroke-dasharray:none" />
      <path
         sodipodi:nodetypes="cc"
         transform="translate(457.03446283288,-164.5839352591838)"
         inkscape:connector-curvature="0"
         id="path5385"
         d="M -52.03446283288,326.9461178763713 L -42.03446283288,411.9461178763713"
         style="fill:none;stroke:#787878;stroke-width:3.4000000954;stroke-linecap:butt;stroke-linejoin:miter;stroke-miterlimit:4;stroke-opacity:1;stroke-dasharray:none" />
      <path
         sodipodi:nodetypes="cc"
         transform="translate(457.03446283288,-164.5839352591838)"
         inkscape:connector-curvature="0"
         id="path5387"
         d="M -12.03446283288,286.9461178763713 L 22.96553716712,346.9461178763713"
         style="fill:none;stroke:#787878;stroke-width:3.4000000954;stroke-linecap:butt;stroke-linejoin:miter;stroke-miterlimit:4;stroke-opacity:1;stroke-dasharray:none" />
    </g>
    <g
       id="g5389"
       transform="matrix(0.2941176470588238,0,0,0.2941176470588238,424.7058823529411,88.72624655330855)"
       style="stroke-width:3.4000000954;stroke-miterlimit:4;stroke-dasharray:none">
      <path
         style="fill:none;stroke:#787878;stroke-width:3.4000000954;stroke-linecap:butt;stroke-linejoin:miter;stroke-miterlimit:4;stroke-opacity:1;stroke-dasharray:none"
         d="M -72.03446283287999,286.9461178763713 L -82.03446283287999,346.9461178763713"
         id="path5391"
         inkscape:connector-curvature="0"
         transform="translate(457.03446283288,-164.5839352591838)"
         sodipodi:nodetypes="cc" />
      <path
         style="fill:#dedede;fill-opacity:1;stroke:#787878;stroke-width:1.5398967266;stroke-linecap:butt;stroke-linejoin:round;stroke-miterlimit:4;stroke-opacity:1;stroke-dasharray:none"
         d="M -48.418380177536,387.2021577168736 L 7.581619822464007,387.2021577168736 L 42.24828648913068,362.2021577168736 L -13.75171351086933,362.2021577168736 z"
         id="path5393"
         inkscape:connector-curvature="0"
         transform="matrix(1.875,0,0,2.6,400.78446283288,-759.3634274466835)"
         sodipodi:nodetypes="ccccc" />
      <path
         transform="matrix(1.125,0,0,1.56,398.28446283288,-441.5067575248095)"
         inkscape:connector-curvature="0"
         id="path5395"
         d="M -47.36396696256,387.0954744499979 L 5.969366370773347,387.0954744499979 L 41.5249219263289,361.4544488089723 L -11.80841140700444,361.4544488089723 z"
         style="fill:#ffffff;fill-opacity:1;stroke:#787878;stroke-width:2.5664947033;stroke-linecap:butt;stroke-linejoin:round;stroke-miterlimit:4;stroke-opacity:1;stroke-dasharray:none"
         sodipodi:nodetypes="ccccc" />
      <path
         style="fill:none;stroke:#787878;stroke-width:3.4000000954;stroke-linecap:butt;stroke-linejoin:miter;stroke-miterlimit:4;stroke-opacity:1;stroke-dasharray:none"
         d="M -147.03446283288,411.9461178763713 L -112.03446283288,326.9461178763713"
         id="path5397"
         inkscape:connector-curvature="0"
         transform="translate(457.03446283288,-164.5839352591838)"
         sodipodi:nodetypes="cc" />
      <path
         style="fill:none;stroke:#787878;stroke-width:3.4000000954;stroke-linecap:butt;stroke-linejoin:miter;stroke-miterlimit:4;stroke-opacity:1;stroke-dasharray:none"
         d="M -52.03446283288,326.9461178763713 L -42.03446283288,411.9461178763713"
         id="path5399"
         inkscape:connector-curvature="0"
         transform="translate(457.03446283288,-164.5839352591838)"
         sodipodi:nodetypes="cc" />
      <path
         style="fill:none;stroke:#787878;stroke-width:3.4000000954;stroke-linecap:butt;stroke-linejoin:miter;stroke-miterlimit:4;stroke-opacity:1;stroke-dasharray:none"
         d="M -12.03446283288,286.9461178763713 L 22.96553716712,346.9461178763713"
         id="path5401"
         inkscape:connector-curvature="0"
         transform="translate(457.03446283288,-164.5839352591838)"
         sodipodi:nodetypes="cc" />
    </g>
    <g
       style="stroke-width:3.4000000954;stroke-miterlimit:4;stroke-dasharray:none"
       transform="matrix(0.2941176470588238,0,0,0.2941176470588238,245.8823529411763,169.6085994944854)"
       id="g5403">
      <path
         sodipodi:nodetypes="cc"
         transform="translate(457.03446283288,-164.5839352591838)"
         inkscape:connector-curvature="0"
         id="path5405"
         d="M -72.03446283287999,286.9461178763713 L -82.03446283287999,346.9461178763713"
         style="fill:none;stroke:#787878;stroke-width:3.4000000954;stroke-linecap:butt;stroke-linejoin:miter;stroke-miterlimit:4;stroke-opacity:1;stroke-dasharray:none" />
      <path
         sodipodi:nodetypes="ccccc"
         transform="matrix(1.875,0,0,2.6,400.78446283288,-759.3634274466835)"
         inkscape:connector-curvature="0"
         id="path5407"
         d="M -48.418380177536,387.2021577168736 L 7.581619822464007,387.2021577168736 L 42.24828648913068,362.2021577168736 L -13.75171351086933,362.2021577168736 z"
         style="fill:#dedede;fill-opacity:1;stroke:#787878;stroke-width:1.5398967266;stroke-linecap:butt;stroke-linejoin:round;stroke-miterlimit:4;stroke-opacity:1;stroke-dasharray:none" />
      <path
         sodipodi:nodetypes="ccccc"
         style="fill:#dcdcdc;fill-opacity:1;stroke:#787878;stroke-width:2.5664947033;stroke-linecap:butt;stroke-linejoin:round;stroke-miterlimit:4;stroke-opacity:1;stroke-dasharray:none"
         d="M -47.36396696256,387.0954744499979 L 5.969366370773347,387.0954744499979 L 41.5249219263289,361.4544488089723 L -11.80841140700444,361.4544488089723 z"
         id="path5409"
         inkscape:connector-curvature="0"
         transform="matrix(1.125,0,0,1.56,398.28446283288,-441.5067575248095)" />
      <path
         sodipodi:nodetypes="cc"
         transform="translate(457.03446283288,-164.5839352591838)"
         inkscape:connector-curvature="0"
         id="path5411"
         d="M -147.03446283288,411.9461178763713 L -112.03446283288,326.9461178763713"
         style="fill:none;stroke:#787878;stroke-width:3.4000000954;stroke-linecap:butt;stroke-linejoin:miter;stroke-miterlimit:4;stroke-opacity:1;stroke-dasharray:none" />
      <path
         sodipodi:nodetypes="cc"
         transform="translate(457.03446283288,-164.5839352591838)"
         inkscape:connector-curvature="0"
         id="path5413"
         d="M -52.03446283288,326.9461178763713 L -42.03446283288,411.9461178763713"
         style="fill:none;stroke:#787878;stroke-width:3.4000000954;stroke-linecap:butt;stroke-linejoin:miter;stroke-miterlimit:4;stroke-opacity:1;stroke-dasharray:none" />
      <path
         sodipodi:nodetypes="cc"
         transform="translate(457.03446283288,-164.5839352591838)"
         inkscape:connector-curvature="0"
         id="path5415"
         d="M -12.03446283288,286.9461178763713 L 22.96553716712,346.9461178763713"
         style="fill:none;stroke:#787878;stroke-width:3.4000000954;stroke-linecap:butt;stroke-linejoin:miter;stroke-miterlimit:4;stroke-opacity:1;stroke-dasharray:none" />
    </g>
    <g
       id="g5417"
       transform="matrix(0.2941176470588238,0,0,0.2941176470588238,320.8823529411764,94.60859949448523)"
       style="stroke-width:3.4000000954;stroke-miterlimit:4;stroke-dasharray:none">
      <path
         style="fill:none;stroke:#787878;stroke-width:3.4000000954;stroke-linecap:butt;stroke-linejoin:miter;stroke-miterlimit:4;stroke-opacity:1;stroke-dasharray:none"
         d="M -72.03446283287999,286.9461178763713 L -82.03446283287999,346.9461178763713"
         id="path5419"
         inkscape:connector-curvature="0"
         transform="translate(457.03446283288,-164.5839352591838)"
         sodipodi:nodetypes="cc" />
      <path
         style="fill:#dedede;fill-opacity:1;stroke:#787878;stroke-width:1.5398967266;stroke-linecap:butt;stroke-linejoin:round;stroke-miterlimit:4;stroke-opacity:1;stroke-dasharray:none"
         d="M -48.418380177536,387.2021577168736 L 7.581619822464007,387.2021577168736 L 42.24828648913068,362.2021577168736 L -13.75171351086933,362.2021577168736 z"
         id="path5421"
         inkscape:connector-curvature="0"
         transform="matrix(1.875,0,0,2.6,400.78446283288,-759.3634274466835)"
         sodipodi:nodetypes="ccccc" />
      <path
         transform="matrix(1.125,0,0,1.56,398.28446283288,-441.5067575248095)"
         inkscape:connector-curvature="0"
         id="path5423"
         d="M -47.36396696256,387.0954744499979 L 5.969366370773347,387.0954744499979 L 41.5249219263289,361.4544488089723 L -11.80841140700444,361.4544488089723 z"
         style="fill:#8c8c8c;fill-opacity:1;stroke:#787878;stroke-width:2.5664947033;stroke-linecap:butt;stroke-linejoin:round;stroke-miterlimit:4;stroke-opacity:1;stroke-dasharray:none"
         sodipodi:nodetypes="ccccc" />
      <path
         style="fill:none;stroke:#787878;stroke-width:3.4000000954;stroke-linecap:butt;stroke-linejoin:miter;stroke-miterlimit:4;stroke-opacity:1;stroke-dasharray:none"
         d="M -147.03446283288,411.9461178763713 L -112.03446283288,326.9461178763713"
         id="path5425"
         inkscape:connector-curvature="0"
         transform="translate(457.03446283288,-164.5839352591838)"
         sodipodi:nodetypes="cc" />
      <path
         style="fill:none;stroke:#787878;stroke-width:3.4000000954;stroke-linecap:butt;stroke-linejoin:miter;stroke-miterlimit:4;stroke-opacity:1;stroke-dasharray:none"
         d="M -52.03446283288,326.9461178763713 L -42.03446283288,411.9461178763713"
         id="path5427"
         inkscape:connector-curvature="0"
         transform="translate(457.03446283288,-164.5839352591838)"
         sodipodi:nodetypes="cc" />
      <path
         style="fill:none;stroke:#787878;stroke-width:3.4000000954;stroke-linecap:butt;stroke-linejoin:miter;stroke-miterlimit:4;stroke-opacity:1;stroke-dasharray:none"
         d="M -12.03446283288,286.9461178763713 L 22.96553716712,346.9461178763713"
         id="path5429"
         inkscape:connector-curvature="0"
         transform="translate(457.03446283288,-164.5839352591838)"
         sodipodi:nodetypes="cc" />
    </g>
    <path
       style="fill:none;stroke:#000000;stroke-width:1px;stroke-linecap:butt;stroke-linejoin:miter;stroke-opacity:1"
       d="M 360,197.3621826171875 C 360,197.3621826171875 360,152.3621826171875 375,122.3621826171875"
       id="path6199"
       inkscape:connector-curvature="0" />
    <path
       style="fill:none;stroke:#000000;stroke-width:1px;stroke-linecap:butt;stroke-linejoin:miter;stroke-opacity:1"
       d="M 405,87.3621826171875 C 405,87.3621826171875 440,67.3621826171875 490,67.3621826171875"
       id="path6205"
       inkscape:connector-curvature="0" />
    <path
       style="fill:none;stroke:#000000;stroke-width:1px;stroke-linecap:butt;stroke-linejoin:miter;stroke-opacity:1"
       d="M 460,132.3621826171875 C 460,132.3621826171875 500,127.3621826171875 500,102.3621826171875"
       id="path6209"
       inkscape:connector-curvature="0" />
    <path
       style="fill:none;stroke:#000000;stroke-width:1px;stroke-linecap:butt;stroke-linejoin:miter;stroke-opacity:1"
       d="M 400,112.3621826171875 C 400,112.3621826171875 405,137.3621826171875 420,137.3621826171875"
       id="path6211"
       inkscape:connector-curvature="0" />
    <path
       style="fill:none;stroke:#000000;stroke-width:1px;stroke-linecap:butt;stroke-linejoin:miter;stroke-opacity:1"
       d="M 450,172.3621826171875 C 450,172.3621826171875 455,197.3621826171875 465,197.3621826171875"
       id="path6217"
       inkscape:connector-curvature="0"
       transform="matrix(-1,0,0,-1,930,359.724365234375)" />
    <path
       style="fill:none;stroke:#000000;stroke-width:1px;stroke-linecap:butt;stroke-linejoin:miter;stroke-opacity:1"
       d="M 380,197.3621826171875 C 380,197.3621826171875 390,157.3621826171875 410,157.3621826171875"
       id="path6219"
       inkscape:connector-curvature="0" />
    <path
       style="fill:#787878;fill-opacity:1"
       d="M 11.25164522380898,97.89552257711247 C 1.449270733439478,93.04342872190507 -2.574465138828548,82.09978347666208 1.914274274861433,72.5 C 4.138459355333329,67.74327584723832 22.29301306278965,49.55299370161235 26.31509966117454,48.05115341772958 C 27.86340447482055,47.47301903797831 31.36322020982417,47 34.09246796118261,47 L 39.05473660001612,47 L 26.25571719389347,59.75 C 19.21625652052601,66.7625 12.67894078552239,73.61262780953244 11.72834889388541,74.97250624340543 C 6.018239692817314,83.14115824423444 15.46839914753665,93.54964788330262 24.31574145408933,88.83637231609249 C 25.5170836543402,88.19637708994339 32.10399194400558,81.89637708994338 38.95331543112352,74.83637231609252 C 45.80263891824144,67.77636754224164 51.76513891824144,62.00000000000002 52.20331543112352,62.00000000000001 C 53.77588660565169,62 52.96846896525212,71.14040115002738 51.07352465893643,74.78983806729641 C 48.4078551332367,79.92359991132764 31.31094729223667,96.58287297012161 26.78211863089645,98.45944954129042 C 21.66028194351236,100.5817463751153 16.28406950148046,100.3865307444168 11.25164522380898,97.89552257711247 z M 30.83086619827353,70.75 C 26.609557297669,67.34877549977059 27.24138488566015,66.38549154106604 46.18496533917554,47.34114973150338 C 61.0259718583212,32.42120354487273 64.94208811835547,29 67.17935335181148,29 C 70.24120931954098,29.00000000000001 72.46512658477513,31.95915539793597 71.5559937025108,34.82357946541359 C 70.7486966257055,37.36714732168343 35.64865776677609,72 33.87807506496033,72 C 33.05537637784753,72 31.68413238783846,71.4375 30.83086619827353,70.75 z M 62,52.11143572599979 C 62,51.62272537529965 67.02387816839565,46.56022537529965 73.16417370754594,40.86143572599979 C 86.47719804015827,28.50565825831332 90,23.98840754506028 90,19.27303842330008 C 90,14.38055240419631 85.46707811588393,10.00000000000002 80.40441594513055,10 C 76.92278447476515,9.999999999999987 75.64645564553163,10.99993389080517 62.53463097876559,23.99999999999999 C 54.76843586205846,31.69999999999999 48.09606407136512,38 47.70713811055814,38 C 46.44916393719955,38 46.95789250412518,29.34424661482986 48.41993533638505,25.87212395467249 C 50.5391296947773,20.8393693795702 69.62770762396471,2.562534343919895 74.37496793569272,1.02083063558624 C 89.05274449613925,-3.745872908651513 103.7458729086515,10.94725550386079 98.97916936441376,25.62503206430728 C 97.46471201975039,30.28839455559701 79.20065108908039,49.51296880740833 74.28211863089643,51.62090929169658 C 70.70715202895145,53.15303638332112 62,53.50078487574759 62,52.11143572599979 z"
       id="path6221"
       inkscape:connector-curvature="0"
       transform="matrix(-0.1302172514943364,0,0,-0.1302172514943364,445.0856004578894,68.48239343742136)" />
    <path
       transform="matrix(-0.1302172514943364,0,0,-0.1302172514943364,393.0734695926489,169.147990548851)"
       inkscape:connector-curvature="0"
       id="path6223"
       d="M 11.25164522380898,97.89552257711247 C 1.449270733439478,93.04342872190507 -2.574465138828548,82.09978347666208 1.914274274861433,72.5 C 4.138459355333329,67.74327584723832 22.29301306278965,49.55299370161235 26.31509966117454,48.05115341772958 C 27.86340447482055,47.47301903797831 31.36322020982417,47 34.09246796118261,47 L 39.05473660001612,47 L 26.25571719389347,59.75 C 19.21625652052601,66.7625 12.67894078552239,73.61262780953244 11.72834889388541,74.97250624340543 C 6.018239692817314,83.14115824423444 15.46839914753665,93.54964788330262 24.31574145408933,88.83637231609249 C 25.5170836543402,88.19637708994339 32.10399194400558,81.89637708994338 38.95331543112352,74.83637231609252 C 45.80263891824144,67.77636754224164 51.76513891824144,62.00000000000002 52.20331543112352,62.00000000000001 C 53.77588660565169,62 52.96846896525212,71.14040115002738 51.07352465893643,74.78983806729641 C 48.4078551332367,79.92359991132764 31.31094729223667,96.58287297012161 26.78211863089645,98.45944954129042 C 21.66028194351236,100.5817463751153 16.28406950148046,100.3865307444168 11.25164522380898,97.89552257711247 z M 30.83086619827353,70.75 C 26.609557297669,67.34877549977059 27.24138488566015,66.38549154106604 46.18496533917554,47.34114973150338 C 61.0259718583212,32.42120354487273 64.94208811835547,29 67.17935335181148,29 C 70.24120931954098,29.00000000000001 72.46512658477513,31.95915539793597 71.5559937025108,34.82357946541359 C 70.7486966257055,37.36714732168343 35.64865776677609,72 33.87807506496033,72 C 33.05537637784753,72 31.68413238783846,71.4375 30.83086619827353,70.75 z M 62,52.11143572599979 C 62,51.62272537529965 67.02387816839565,46.56022537529965 73.16417370754594,40.86143572599979 C 86.47719804015827,28.50565825831332 90,23.98840754506028 90,19.27303842330008 C 90,14.38055240419631 85.46707811588393,10.00000000000002 80.40441594513055,10 C 76.92278447476515,9.999999999999987 75.64645564553163,10.99993389080517 62.53463097876559,23.99999999999999 C 54.76843586205846,31.69999999999999 48.09606407136512,38 47.70713811055814,38 C 46.44916393719955,38 46.95789250412518,29.34424661482986 48.41993533638505,25.87212395467249 C 50.5391296947773,20.8393693795702 69.62770762396471,2.562534343919895 74.37496793569272,1.02083063558624 C 89.05274449613925,-3.745872908651513 103.7458729086515,10.94725550386079 98.97916936441376,25.62503206430728 C 97.46471201975039,30.28839455559701 79.20065108908039,49.51296880740833 74.28211863089643,51.62090929169658 C 70.70715202895145,53.15303638332112 62,53.50078487574759 62,52.11143572599979 z"
       style="fill:#787878;fill-opacity:1" />
    <path
       style="fill:#787878;fill-opacity:1"
       d="M 11.25164522380898,97.89552257711247 C 1.449270733439478,93.04342872190507 -2.574465138828548,82.09978347666208 1.914274274861433,72.5 C 4.138459355333329,67.74327584723832 22.29301306278965,49.55299370161235 26.31509966117454,48.05115341772958 C 27.86340447482055,47.47301903797831 31.36322020982417,47 34.09246796118261,47 L 39.05473660001612,47 L 26.25571719389347,59.75 C 19.21625652052601,66.7625 12.67894078552239,73.61262780953244 11.72834889388541,74.97250624340543 C 6.018239692817314,83.14115824423444 15.46839914753665,93.54964788330262 24.31574145408933,88.83637231609249 C 25.5170836543402,88.19637708994339 32.10399194400558,81.89637708994338 38.95331543112352,74.83637231609252 C 45.80263891824144,67.77636754224164 51.76513891824144,62.00000000000002 52.20331543112352,62.00000000000001 C 53.77588660565169,62 52.96846896525212,71.14040115002738 51.07352465893643,74.78983806729641 C 48.4078551332367,79.92359991132764 31.31094729223667,96.58287297012161 26.78211863089645,98.45944954129042 C 21.66028194351236,100.5817463751153 16.28406950148046,100.3865307444168 11.25164522380898,97.89552257711247 z M 30.83086619827353,70.75 C 26.609557297669,67.34877549977059 27.24138488566015,66.38549154106604 46.18496533917554,47.34114973150338 C 61.0259718583212,32.42120354487273 64.94208811835547,29 67.17935335181148,29 C 70.24120931954098,29.00000000000001 72.46512658477513,31.95915539793597 71.5559937025108,34.82357946541359 C 70.7486966257055,37.36714732168343 35.64865776677609,72 33.87807506496033,72 C 33.05537637784753,72 31.68413238783846,71.4375 30.83086619827353,70.75 z M 62,52.11143572599979 C 62,51.62272537529965 67.02387816839565,46.56022537529965 73.16417370754594,40.86143572599979 C 86.47719804015827,28.50565825831332 90,23.98840754506028 90,19.27303842330008 C 90,14.38055240419631 85.46707811588393,10.00000000000002 80.40441594513055,10 C 76.92278447476515,9.999999999999987 75.64645564553163,10.99993389080517 62.53463097876559,23.99999999999999 C 54.76843586205846,31.69999999999999 48.09606407136512,38 47.70713811055814,38 C 46.44916393719955,38 46.95789250412518,29.34424661482986 48.41993533638505,25.87212395467249 C 50.5391296947773,20.8393693795702 69.62770762396471,2.562534343919895 74.37496793569272,1.02083063558624 C 89.05274449613925,-3.745872908651513 103.7458729086515,10.94725550386079 98.97916936441376,25.62503206430728 C 97.46471201975039,30.28839455559701 79.20065108908039,49.51296880740833 74.28211863089643,51.62090929169658 C 70.70715202895145,53.15303638332112 62,53.50078487574759 62,52.11143572599979 z"
       id="path6225"
       inkscape:connector-curvature="0"
       transform="matrix(-0.1302172514943364,0,0,-0.1302172514943364,493.0734695926489,169.147990548851)" />
  </g>
</svg>
