<?xml version="1.0" encoding="UTF-8" standalone="no"?>
<!-- Created with Inkscape (http://www.inkscape.org/) -->

<svg
   xmlns:dc="http://purl.org/dc/elements/1.1/"
   xmlns:cc="http://creativecommons.org/ns#"
   xmlns:rdf="http://www.w3.org/1999/02/22-rdf-syntax-ns#"
   xmlns:svg="http://www.w3.org/2000/svg"
   xmlns="http://www.w3.org/2000/svg"
   xmlns:sodipodi="http://sodipodi.sourceforge.net/DTD/sodipodi-0.dtd"
   xmlns:inkscape="http://www.inkscape.org/namespaces/inkscape"
   width="500.5225830078125"
   height="900.83544921875"
   id="svg2"
   version="1.1"
   inkscape:version="0.48.4 r9939"
   sodipodi:docname="information.svg">
  <defs
     id="defs4">
    <marker
       inkscape:stockid="Arrow1Lstart"
       orient="auto"
       refY="0"
       refX="0"
       id="Arrow1Lstart"
       style="overflow:visible">
      <path
         id="path3793"
         d="M 0,0 L 5,-5 L -12.5,0 L 5,5 L 0,0 z"
         style="fill-rule:evenodd;stroke:#000000;stroke-width:1pt"
         transform="matrix(0.8,0,0,0.8,10,0)"
         inkscape:connector-curvature="0" />
    </marker>
    <marker
       inkscape:stockid="Arrow1Lend"
       orient="auto"
       refY="0"
       refX="0"
       id="Arrow1Lend"
       style="overflow:visible">
      <path
         id="path3864"
         d="M 0,0 L 5,-5 L -12.5,0 L 5,5 L 0,0 z"
         style="fill-rule:evenodd;stroke:#000000;stroke-width:1pt"
         transform="matrix(-0.8,0,0,-0.8,-10,0)"
         inkscape:connector-curvature="0" />
    </marker>
    <marker
       inkscape:stockid="Arrow1Lend"
       orient="auto"
       refY="0"
       refX="0"
       id="Arrow1Lend-4"
       style="overflow:visible">
      <path
         inkscape:connector-curvature="0"
         id="path3864-3"
         d="M 0,0 L 5,-5 L -12.5,0 L 5,5 L 0,0 z"
         style="fill-rule:evenodd;stroke:#000000;stroke-width:1pt"
         transform="matrix(-0.8,0,0,-0.8,-10,0)" />
    </marker>
    <marker
       inkscape:stockid="Arrow1Lend"
       orient="auto"
       refY="0"
       refX="0"
       id="Arrow1Lend-8"
       style="overflow:visible">
      <path
         inkscape:connector-curvature="0"
         id="path3864-0"
         d="M 0,0 L 5,-5 L -12.5,0 L 5,5 L 0,0 z"
         style="fill-rule:evenodd;stroke:#000000;stroke-width:1pt"
         transform="matrix(-0.8,0,0,-0.8,-10,0)" />
    </marker>
    <marker
       inkscape:stockid="Arrow1Lend"
       orient="auto"
       refY="0"
       refX="0"
       id="Arrow1Lend-8-2"
       style="overflow:visible">
      <path
         inkscape:connector-curvature="0"
         id="path3864-0-2"
         d="M 0,0 L 5,-5 L -12.5,0 L 5,5 L 0,0 z"
         style="fill-rule:evenodd;stroke:#000000;stroke-width:1pt"
         transform="matrix(-0.8,0,0,-0.8,-10,0)" />
    </marker>
    <marker
       inkscape:stockid="Arrow1Lend"
       orient="auto"
       refY="0"
       refX="0"
       id="Arrow1Lend-8-7"
       style="overflow:visible">
      <path
         inkscape:connector-curvature="0"
         id="path3864-0-5"
         d="M 0,0 L 5,-5 L -12.5,0 L 5,5 L 0,0 z"
         style="fill-rule:evenodd;stroke:#000000;stroke-width:1pt"
         transform="matrix(-0.8,0,0,-0.8,-10,0)" />
    </marker>
    <marker
       inkscape:stockid="Arrow1Lend"
       orient="auto"
       refY="0"
       refX="0"
       id="Arrow1Lend-9"
       style="overflow:visible">
      <path
         id="path3864-6"
         d="M 0,0 L 5,-5 L -12.5,0 L 5,5 L 0,0 z"
         style="fill-rule:evenodd;stroke:#000000;stroke-width:1pt"
         transform="matrix(-0.8,0,0,-0.8,-10,0)"
         inkscape:connector-curvature="0" />
    </marker>
    <marker
       inkscape:stockid="Arrow1Lend"
       orient="auto"
       refY="0"
       refX="0"
       id="Arrow1Lend-0"
       style="overflow:visible">
      <path
         id="path3864-06"
         d="M 0,0 L 5,-5 L -12.5,0 L 5,5 L 0,0 z"
         style="fill-rule:evenodd;stroke:#000000;stroke-width:1pt"
         transform="matrix(-0.8,0,0,-0.8,-10,0)"
         inkscape:connector-curvature="0" />
    </marker>
    <marker
       inkscape:stockid="Arrow1Lend"
       orient="auto"
       refY="0"
       refX="0"
       id="Arrow1Lend-01"
       style="overflow:visible">
      <path
         id="path3864-9"
         d="M 0,0 L 5,-5 L -12.5,0 L 5,5 L 0,0 z"
         style="fill-rule:evenodd;stroke:#000000;stroke-width:1pt"
         transform="matrix(-0.8,0,0,-0.8,-10,0)"
         inkscape:connector-curvature="0" />
    </marker>
    <marker
       inkscape:stockid="Arrow1Lend"
       orient="auto"
       refY="0"
       refX="0"
       id="Arrow1Lend-89"
       style="overflow:visible">
      <path
         id="path3864-2"
         d="M 0,0 L 5,-5 L -12.5,0 L 5,5 L 0,0 z"
         style="fill-rule:evenodd;stroke:#000000;stroke-width:1pt"
         transform="matrix(-0.8,0,0,-0.8,-10,0)"
         inkscape:connector-curvature="0" />
    </marker>
    <marker
       inkscape:stockid="Arrow1Lend"
       orient="auto"
       refY="0"
       refX="0"
       id="Arrow1Lend-89-8"
       style="overflow:visible">
      <path
         id="path3864-2-9"
         d="M 0,0 L 5,-5 L -12.5,0 L 5,5 L 0,0 z"
         style="fill-rule:evenodd;stroke:#000000;stroke-width:1pt"
         transform="matrix(-0.8,0,0,-0.8,-10,0)"
         inkscape:connector-curvature="0" />
    </marker>
    <marker
       inkscape:stockid="Arrow1Lend"
       orient="auto"
       refY="0"
       refX="0"
       id="Arrow1Lend-89-0"
       style="overflow:visible">
      <path
         id="path3864-2-1"
         d="M 0,0 L 5,-5 L -12.5,0 L 5,5 L 0,0 z"
         style="fill-rule:evenodd;stroke:#000000;stroke-width:1pt"
         transform="matrix(-0.8,0,0,-0.8,-10,0)"
         inkscape:connector-curvature="0" />
    </marker>
    <marker
       inkscape:stockid="Arrow1Lend"
       orient="auto"
       refY="0"
       refX="0"
       id="Arrow1Lend-89-08"
       style="overflow:visible">
      <path
         id="path3864-2-6"
         d="M 0,0 L 5,-5 L -12.5,0 L 5,5 L 0,0 z"
         style="fill-rule:evenodd;stroke:#000000;stroke-width:1pt"
         transform="matrix(-0.8,0,0,-0.8,-10,0)"
         inkscape:connector-curvature="0" />
    </marker>
    <marker
       inkscape:stockid="Arrow1Lend"
       orient="auto"
       refY="0"
       refX="0"
       id="Arrow1Lend-89-5"
       style="overflow:visible">
      <path
         id="path3864-2-2"
         d="M 0,0 L 5,-5 L -12.5,0 L 5,5 L 0,0 z"
         style="fill-rule:evenodd;stroke:#000000;stroke-width:1pt"
         transform="matrix(-0.8,0,0,-0.8,-10,0)"
         inkscape:connector-curvature="0" />
    </marker>
    <marker
       inkscape:stockid="Arrow1Lend"
       orient="auto"
       refY="0"
       refX="0"
       id="Arrow1Lend-89-1"
       style="overflow:visible">
      <path
         id="path3864-2-5"
         d="M 0,0 L 5,-5 L -12.5,0 L 5,5 L 0,0 z"
         style="fill-rule:evenodd;stroke:#000000;stroke-width:1pt"
         transform="matrix(-0.8,0,0,-0.8,-10,0)"
         inkscape:connector-curvature="0" />
    </marker>
    <marker
       inkscape:stockid="Arrow1Lend"
       orient="auto"
       refY="0"
       refX="0"
       id="marker5036"
       style="overflow:visible">
      <path
         id="path5038"
         d="M 0,0 L 5,-5 L -12.5,0 L 5,5 L 0,0 z"
         style="fill-rule:evenodd;stroke:#000000;stroke-width:1pt"
         transform="matrix(-0.8,0,0,-0.8,-10,0)"
         inkscape:connector-curvature="0" />
    </marker>
    <marker
       inkscape:stockid="Arrow1Lend"
       orient="auto"
       refY="0"
       refX="0"
       id="marker5040"
       style="overflow:visible">
      <path
         id="path5042"
         d="M 0,0 L 5,-5 L -12.5,0 L 5,5 L 0,0 z"
         style="fill-rule:evenodd;stroke:#000000;stroke-width:1pt"
         transform="matrix(-0.8,0,0,-0.8,-10,0)"
         inkscape:connector-curvature="0" />
    </marker>
  </defs>
  <sodipodi:namedview
     id="base"
     pagecolor="#ffffff"
     bordercolor="#666666"
     borderopacity="1.0"
     inkscape:pageopacity="0.0"
     inkscape:pageshadow="2"
     inkscape:zoom="0.9899495005223322"
     inkscape:cx="250.7565500243729"
     inkscape:cy="314.7739662366067"
     inkscape:document-units="px"
     inkscape:current-layer="layer1"
     showgrid="true"
     inkscape:snap-global="true"
     inkscape:window-width="1600"
     inkscape:window-height="834"
     inkscape:window-x="0"
     inkscape:window-y="371"
     inkscape:window-maximized="1"
     showguides="true"
     inkscape:guide-bbox="true"
     fit-margin-top="10"
     fit-margin-left="10"
     fit-margin-right="10"
     fit-margin-bottom="10">
    <inkscape:grid
       type="xygrid"
       id="grid4336"
       empspacing="5"
       visible="true"
       enabled="true"
       snapvisiblegridlinesonly="true"
       originx="-60.55151497804647px"
       originy="-264.38381406029px" />
  </sodipodi:namedview>
  <metadata
     id="metadata7">
    <rdf:RDF>
      <cc:Work
         rdf:about="">
        <dc:format>image/svg+xml</dc:format>
        <dc:type
           rdf:resource="http://purl.org/dc/dcmitype/StillImage" />
        <dc:title></dc:title>
      </cc:Work>
    </rdf:RDF>
  </metadata>
  <g
     inkscape:label="Layer 1"
     inkscape:groupmode="layer"
     id="layer1"
     transform="translate(-60.55151497804647,112.8570582203673)">
    <rect
       style="fill:#000000;fill-opacity:0.0784313725;stroke:none"
       id="rect5117"
       width="79.51443481445312"
       height="35.000244140625"
       x="270.9996337890625"
       y="257.3616333007812"
       transform="matrix(2.12968723813328,0,0,2.12968723813328,-351.1212664034273,-381.4703673542606)" />
    <g
       transform="matrix(2.116761186628919,0,0,2.129701720006499,-975.2387618805795,-232.396158012577)"
       id="g3910">
      <path
         sodipodi:nodetypes="csscccccccccccccscccccccccccccccscccccccccccsccccccccsscccsssss"
         inkscape:connector-curvature="0"
         id="path7144"
         d="M 609.71875,60.924677 C 604.3657799999997,60.978257 599.1047899999997,62.60242200000001 594.25,65.049677 C 590.75313,66.812438 587.3733399999996,69.087428 585,72.362177 C 583.04358,75.06162199999998 581.83933,78.325237 581.0625,81.643427 C 580.4677699999997,84.18361099999998 580.11891,86.78506899999999 579.34375,89.268427 C 579.18124,89.789145 578.9896999999997,90.29570699999999 578.875,90.830927 C 578.76048,91.366146 578.7071499999999,91.94974 578.8125,92.487177 C 578.93559,93.114851 579.26747,93.64828099999998 579.5625,94.205927 C 579.8575299999996,94.76354999999999 580.1335,95.346197 580.15625,95.987177 C 580.1766499999996,96.563811 579.98927,97.14501699999999 579.71875,97.643427 C 579.4480999999999,98.14185899999999 579.0774699999999,98.59243499999999 578.75,99.049677 C 577.2436199999998,101.15216 576.16606,103.56615 574.59375,105.61218 C 574.1471099999996,106.19349 573.663,106.7685 573.375,107.45593 C 573.2309699999999,107.79966 573.1510399999998,108.17275 573.15625,108.54968 C 573.1622499999997,108.92658 573.25495,109.31336 573.46875,109.61218 C 573.67019,109.8936 573.94114,110.08 574.25,110.20593 C 574.55894,110.33185 574.9212899999996,110.38817 575.25,110.42468 C 575.90722,110.49768 576.56515,110.51358 577.15625,110.83093 C 577.57659,111.05663 577.9234199999998,111.43721 578.125,111.89343 C 578.32654,112.34967 578.40731,112.86751 578.3125,113.36218 C 578.2495,113.69122 578.1088099999999,113.98474 578,114.29968 C 577.89128,114.61463 577.8013499999999,114.96396 577.8125,115.29968 C 577.8238,115.64492 577.93334,115.95987 578.125,116.23718 C 578.3168399999999,116.51445 578.5902999999999,116.76408 578.875,116.92468 C 578.99926,116.99488 579.1190599999996,117.03692 579.21875,117.14343 C 579.26845,117.19663 579.32357,117.25864 579.34375,117.33093 C 579.36365,117.40323 579.3732499999996,117.48118 579.34375,117.54968 C 579.31065,117.62628 579.22265,117.69196 579.15625,117.73718 C 579.0898499999999,117.78238 579.0270799999999,117.80548 578.96875,117.86218 C 578.90195,117.92718 578.84369,118.02122 578.8125,118.11218 C 578.7817,118.20308 578.7634,118.29757 578.75,118.39343 C 578.6921999999998,118.80997 578.6974,119.2632 578.7812,119.67468 C 578.8646999999997,120.08614 579.05142,120.45429 579.31245,120.76843 C 579.61414,121.1315 580.0087999999999,121.37881 580.4062,121.61218 C 580.8037,121.84558 581.19667,122.09452 581.49995,122.45593 C 581.80884,122.8239 582.0066199999996,123.30416 581.99995,123.79968 C 581.9919499999997,124.37476 581.74225,124.89915 581.4687,125.39343 C 581.19505,125.88769 580.8705899999996,126.39561 580.74995,126.95593 C 580.5841699999997,127.72549 580.82135,128.56426 581.24995,129.20593 C 581.67862,129.84758 582.28881,130.31212 582.9687,130.61218 C 583.8179499999996,130.98693 584.7695899999996,131.09914 585.68745,131.11218 C 586.60536,131.12528 587.52281,131.03968 588.43745,130.95593 C 589.3521399999998,130.87223 590.27358,130.80011 591.18745,130.89343 C 592.1012799999997,130.98673 592.9999299999999,131.25061 593.7812,131.76843 C 594.4591299999998,132.21765 595.0478399999999,132.88764 595.2812,133.70593 C 595.48604,134.4242 595.4083799999998,135.1805 595.3124,135.92468 C 595.2165999999997,136.66886 594.5625,138.56052 594.6874,139.29968 L 627.09365,139.29968 C 626.35679,137.69245 626.2098999999999,133.44641 625.9374,132.58093 C 624.7343899999998,128.75979 624.30987,124.64547 624.78115,120.64343 C 624.9482799999999,119.22242 625.2448,117.82881 625.6249,116.45593 C 628.2612699999998,112.22521 630.3302499999997,107.58429 631.78115,102.73718 C 633.0961899999997,98.34425400000002 633.88949,93.75777500000002 633.9374,89.14342700000003 C 633.9872,84.33680500000002 632.89157,79.74309400000001 631.7499,76.20592700000003 C 630.60824,72.66876700000003 629.64592,70.77817400000003 626.4374,67.48717700000003 C 623.22888,64.19618000000002 616.53002,61.09604900000003 610.8124,60.92467700000003 C 610.45505,60.91395700000003 610.07554,60.92107700000003 609.71865,60.92467700000003 z M 608,67.362177 C 620.42641,67.362177 630,74.07790599999998 630,82.362177 C 630,90.646448 620.42641,97.362177 608,97.362177 C 595.5735899999998,97.362177 585,90.646448 585,82.362177 C 585,74.07790599999998 595.5735899999998,67.362177 608,67.362177 z"
         style="fill:#000000;fill-opacity:0.1568627451;stroke:none" />
      <path
         sodipodi:nodetypes="csscccccccccccccccccccccccccccccccccccccscccccccccccczzccc"
         inkscape:connector-curvature="0"
         id="path7144-5"
         d="M 609.74246,60.924623 C 604.38949,60.978203 599.1028999999997,62.615744 594.2481099999996,65.06299899999999 C 590.75124,66.82575999999997 587.3733399999996,69.08742799999997 585,72.36217699999997 C 583.04358,75.06162199999998 581.8653199999996,78.32002699999998 581.0884899999997,81.63821999999997 C 580.4937599999999,84.17839999999999 580.1151199999999,86.77989999999998 579.33996,89.26325999999997 C 579.17745,89.78396999999998 578.9998399999999,90.30299999999998 578.8851399999997,90.83821999999999 C 578.77062,91.37343999999997 578.7190899999999,91.94092999999999 578.8244399999997,92.47836999999998 C 578.94753,93.10603999999999 579.2672599999998,93.65861999999998 579.5622899999998,94.21625999999999 C 579.8573199999998,94.77388999999999 580.1358599999997,95.36749999999999 580.1586099999999,96.00847999999999 C 580.1790099999999,96.58510999999998 579.99455,97.15020999999998 579.7240299999997,97.64861999999999 C 579.4533799999999,98.14704999999999 579.1014299999999,98.59255999999999 578.7739599999996,99.04979999999999 C 577.2675799999999,101.15228 576.1820699999999,103.5752 574.6097599999999,105.62124 C 574.1631199999999,106.20255 573.6747999999995,106.76945 573.3867999999996,107.45688 C 573.2427699999999,107.80061 573.1490999999997,108.17701 573.15431,108.55394 C 573.1603099999997,108.93084 573.2639299999998,109.30873 573.4777599999996,109.60755 C 573.6792,109.88897 573.96739,110.08987 574.27625,110.2158 C 574.58519,110.34172 574.9178299999997,110.39652 575.2465399999997,110.43303 C 575.90376,110.50603 576.5859199999996,110.50673 577.1770199999998,110.82407 C 577.5973599999997,111.04977 577.94569,111.43231 578.1472699999999,111.88853 C 578.3488099999998,112.34477 578.4038299999997,112.87107 578.3090199999999,113.36574 C 578.2460199999999,113.69478 578.1246999999998,114.00665 578.0158899999994,114.32159 C 577.9071699999999,114.63654 577.8127199999994,114.96344 577.8238699999999,115.29916 C 577.8351699999999,115.6444 577.9556099999997,115.9777 578.1472699999999,116.25501 C 578.3391099999995,116.53228 578.6004299999998,116.75698 578.8851299999995,116.91758 C 579.0093899999999,116.98778 579.1391899999996,117.05003 579.2388799999996,117.15654 C 579.2885799999999,117.20974 579.3298799999995,117.2689 579.3500599999996,117.34119 C 579.3699599999996,117.41349 579.3695599999997,117.48993 579.3400599999996,117.55843 C 579.3069599999995,117.63503 579.2447599999999,117.69785 579.1783599999996,117.74307 C 579.1119599999998,117.78827 579.0345199999999,117.82757 578.9761899999997,117.88429 C 578.9093899999999,117.94929 578.8658799999998,118.03229 578.8346899999999,118.12325 C 578.8038899999999,118.21415 578.7873899999998,118.3098 578.7739899999999,118.40566 C 578.7161899999997,118.8222 578.7104899999999,119.25416 578.7943899999999,119.66564 C 578.8778899999997,120.0771 579.0487799999998,120.47027 579.3098099999998,120.78441 C 579.6114999999997,121.14748 580.0242399999998,121.3874 580.4216399999999,121.62077 C 580.8191399999999,121.85417 581.2200399999999,122.09573 581.5233199999994,122.45714 C 581.8322099999999,122.82511 582.0252399999999,123.30849 582.0185699999999,123.80401 C 582.0105699999999,124.37909 581.7463899999999,124.91728 581.4728399999999,125.41156 C 581.1991899999999,125.90582 580.8960499999999,126.39363 580.7754099999998,126.95395 C 580.6096299999998,127.72351 580.8218099999998,128.56069 581.2504099999996,129.20236 C 581.6790799999995,129.84401 582.3089799999999,130.30348 582.9888699999999,130.60354 C 583.8381199999995,130.97829 584.7696599999999,131.11186 585.6875199999999,131.1249 C 586.6054299999999,131.138 587.5220199999996,131.0349 588.4366599999998,130.95112 C 589.3513499999999,130.86742 590.27197,130.8035 591.1858399999996,130.89682 C 592.0996699999999,130.99012 593.0122299999999,131.24796 593.7934999999996,131.76578 C 594.4714299999999,132.215 595.0458999999998,132.8809 595.27926,133.69919 C 595.4841,134.41746 595.4154899999997,135.19255 595.31956,135.93673 C 595.2237599999998,136.68091 594.57478,138.57428 594.6996799999999,139.31344 L 627.1185799999999,139.31344 C 626.3817199999997,137.70621 626.2068299999998,133.45675 625.93433,132.59127 C 624.7313199999997,128.77013 624.3310599999997,124.65611 624.8023399999998,120.65407 C 624.9694700000001,119.23306 625.24094,117.83426 625.6210400000001,116.46138 C 628.25741,112.23066 630.34562,107.60082 631.7965200000001,102.7537 C 633.11156,98.36077999999997 633.9014399999997,93.76898999999997 633.9493499999997,89.15463999999998 C 633.9991499999996,84.34801999999999 632.8887899999997,79.75792499999998 631.7471200000001,76.22075799999997 C 630.6054600000001,72.68359799999997 629.6582700000001,70.78706399999998 626.4497500000001,67.49606699999998 C 623.2412299999997,64.20506999999996 616.5315299999997,61.10686899999998 610.8139099999998,60.93549699999999 C 610.4565599999998,60.92477699999999 610.0994399999998,60.92107699999998 609.74255,60.92463699999998 z"
         style="fill:none;stroke:#000000;stroke-width:0.1972554475;stroke-miterlimit:4.1666665077;stroke-opacity:1;stroke-dasharray:none" />
      <path
         sodipodi:open="true"
         sodipodi:end="6.2764103"
         sodipodi:start="0"
         transform="matrix(0.8999999899999997,0,0,1,85.10268299999998,56.900007)"
         d="M 605.4414672851562,25.4621696472168 C 605.4414672851562,33.7464408946787 594.248586030926,40.4621696472168 580.4414672851562,40.4621696472168 C 566.6343485393864,40.4621696472168 555.4414672851562,33.7464408946787 555.4414672851562,25.4621696472168 C 555.4414672851562,17.1778983997549 566.6343485393864,10.4621696472168 580.4414672851562,10.4621696472168 C 594.1824872189793,10.46216964721679 605.347798731806,17.11612257276989 605.4408935283223,25.36054531696553"
         sodipodi:ry="15"
         sodipodi:rx="25"
         sodipodi:cy="25.4621696472168"
         sodipodi:cx="580.4414672851562"
         id="path3908"
         style="fill:#000000;fill-opacity:0.0784313725;stroke:#000000;stroke-width:0.4695525169;stroke-linecap:round;stroke-linejoin:round;stroke-miterlimit:4;stroke-opacity:1;stroke-dasharray:0.4695525296, 0.9391050593;stroke-dashoffset:0.0469552516"
         sodipodi:type="arc" />
    </g>
    <path
       id="rect2985"
       style="fill:#000000;fill-opacity:0.0784313725;stroke:#000000;stroke-width:0.3999729753;stroke-linecap:butt;stroke-linejoin:miter;stroke-miterlimit:4;stroke-opacity:1;stroke-dasharray:none"
       d="M 270.99964,434.36284 C 270.99964,437.47778 288.79693,438.64017 310.75689,438.64017 C 332.71684,438.64017 350.51408,437.47778 350.51408,434.36284 M 270.99962,456.36299 C 270.99962,462.5472 303.79935,462.36303 310.75686,462.36303 C 317.71437,462.36303 350.51447,462.54544 350.51447,456.36299 C 350.51439,448.36294 350.51408,442.3629 350.51408,434.36284 C 350.51408,427.36279 320.6961700000001,427.36279 310.7568900000001,427.36279 C 300.81755,427.36279 270.9996400000001,427.36279 270.9996400000001,434.36284 C 270.9996400000001,442.36289 270.9996200000001,448.57463 270.9996200000001,456.36299"
       inkscape:connector-curvature="0"
       sodipodi:nodetypes="cscccccccc"
       transform="matrix(2.12968723813328,0,0,2.12968723813328,-351.1212664034273,-381.4703673542606)" />
    <text
       xml:space="preserve"
       style="font-size:10px;font-style:normal;font-weight:normal;text-align:end;line-height:125%;letter-spacing:0px;word-spacing:0px;text-anchor:end;fill:#000000;fill-opacity:1;stroke:none;font-family:Latin Modern Sans;-inkscape-font-specification:Latin Modern Sans"
       x="250.05478"
       y="446.05231"
       id="text2993"
       sodipodi:linespacing="125%"
       transform="matrix(2.123207110992577,0,0,2.136187043584063,-360.265978988862,-378.1745271823563)"><tspan
         sodipodi:role="line"
         id="tspan2995"
         x="250.05478"
         y="446.05231"
         style="font-size:10px;font-style:normal;font-variant:normal;font-weight:normal;font-stretch:normal;text-align:end;text-anchor:end;font-family:Latin Modern Sans;-inkscape-font-specification:Latin Modern Sans">data</tspan></text>
    <rect
       style="fill:#000000;fill-opacity:0.0784313725;stroke:#000000;stroke-width:0.4681269825;stroke-linecap:round;stroke-miterlimit:4.5;stroke-opacity:1;stroke-dasharray:none;stroke-dashoffset:0"
       id="rect4607"
       width="79.51444244384766"
       height="30.00021743774414"
       x="270.9996337890625"
       y="342.3622131347656"
       transform="matrix(2.12968723813328,0,0,2.12968723813328,-351.1212664034273,-381.4703673542606)" />
    <text
       xml:space="preserve"
       style="font-size:10px;font-style:normal;font-weight:normal;text-align:end;line-height:125%;letter-spacing:0px;word-spacing:0px;text-anchor:end;fill:#000000;fill-opacity:1;stroke:none;font-family:Latin Modern Sans;-inkscape-font-specification:Latin Modern Sans"
       x="277.39398"
       y="361.25977"
       id="text2993-66"
       sodipodi:linespacing="125%"
       transform="matrix(2.123207110992577,0,0,2.136187043584063,-418.3127702554946,-383.2507439217091)"><tspan
         sodipodi:role="line"
         id="tspan2995-30"
         x="277.39398"
         y="361.25977"
         style="font-size:10px;font-style:normal;font-variant:normal;font-weight:normal;font-stretch:normal;text-align:end;text-anchor:end;font-family:Latin Modern Sans;-inkscape-font-specification:Latin Modern Sans">information</tspan></text>
    <path
       style="fill:#000000;fill-opacity:0.0784313725;stroke:#000000;stroke-width:0.391510129;stroke-linecap:round;stroke-linejoin:round;stroke-miterlimit:4;stroke-opacity:1;stroke-dasharray:0.3915100983, 0.7830202013;stroke-dashoffset:0"
       d="M 298.82966,500.50057 C 290.04676,500.50057 282.9268,505.39475 282.9268,511.43202 C 282.9268,511.55482 282.9458,511.6654599999999 282.9515,511.78729 C 276.08572,512.99756 270.99959,517.2664999999999 270.99959,522.3634399999998 C 270.99959,527.4603999999999 276.08572,531.7293399999997 282.95157,532.93961 C 282.94657,533.05568 282.92687,533.1779299999999 282.92687,533.29488 C 282.92687,539.3321499999999 290.04684,544.2263199999996 298.82972,544.2263199999996 C 303.58206,544.2263199999996 307.84277,542.78119 310.75686,540.50963 C 313.67109,542.78372 317.92864,544.2263199999996 322.684,544.2263199999996 C 331.4669,544.2263199999996 338.58686,539.3321499999999 338.58686,533.29488 C 338.58686,533.1779299999999 338.56736,533.05568 338.56216,532.93961 C 345.42801,531.7293399999997 350.51413,527.4604 350.51413,522.3634399999998 C 350.51413,517.2664999999999 345.42801,512.99756 338.56215,511.78729 C 338.56815,511.66546 338.5869500000001,511.55482 338.5869500000001,511.43202 C 338.5869500000001,505.39475 331.46698,500.50057 322.6841000000001,500.50057 C 317.9246800000001,500.50057 313.6713500000001,501.9398 310.7569600000001,504.21727 C 307.84268,501.94228 303.58626,500.50057 298.82982,500.50057 z"
       id="path3952"
       inkscape:connector-curvature="0"
       transform="matrix(2.12968723813328,0,0,2.12968723813328,-351.1212664034273,-381.4703673542606)" />
    <text
       xml:space="preserve"
       style="font-size:10px;font-style:normal;font-weight:normal;text-align:end;line-height:125%;letter-spacing:0px;word-spacing:0px;text-anchor:end;fill:#000000;fill-opacity:1;stroke:none;font-family:Latin Modern Sans;-inkscape-font-specification:Latin Modern Sans"
       x="263.76648"
       y="525.75885"
       id="text2993-7"
       sodipodi:linespacing="125%"
       transform="matrix(2.123207110992577,0,0,2.136187043584063,-389.3787544086703,-385.6019612902844)"><tspan
         sodipodi:role="line"
         id="tspan2995-6"
         x="263.76648"
         y="525.75885"
         style="font-size:10px;font-style:normal;font-variant:normal;font-weight:normal;font-stretch:normal;text-align:end;text-anchor:end;font-family:Latin Modern Sans;-inkscape-font-specification:Latin Modern Sans">signs</tspan></text>
    <text
       xml:space="preserve"
       style="font-size:8.9726762772px;font-style:normal;font-variant:normal;font-weight:normal;font-stretch:normal;line-height:125%;letter-spacing:0px;word-spacing:0px;fill:#000000;fill-opacity:1;stroke:none;font-family:Latin Modern Sans;-inkscape-font-specification:Latin Modern Sans"
       x="292.97662"
       y="534.72833"
       id="text4038"
       sodipodi:linespacing="125%"
       transform="matrix(2.123207110992577,0,0,2.136187043584063,-351.1212664034273,-381.4703673542606)"><tspan
         sodipodi:role="line"
         id="tspan4040"
         x="292.97662"
         y="534.72833">ö   </tspan><tspan
         sodipodi:role="line"
         x="292.97662"
         y="545.94415"
         id="tspan4042" /></text>
    <text
       xml:space="preserve"
       style="font-size:8.9726762772px;font-style:normal;font-variant:normal;font-weight:normal;font-stretch:normal;line-height:125%;letter-spacing:0px;word-spacing:0px;fill:#000000;fill-opacity:1;stroke:none;font-family:Latin Modern Sans;-inkscape-font-specification:Latin Modern Sans"
       x="333.92334"
       y="525.11475"
       id="text4044"
       sodipodi:linespacing="125%"
       transform="matrix(2.123207110992577,0,0,2.136187043584063,-351.1212664034273,-381.4703673542606)"><tspan
         sodipodi:role="line"
         id="tspan4046"
         x="333.92334"
         y="525.11475">Ω</tspan></text>
    <text
       xml:space="preserve"
       style="font-size:8.9726762772px;font-style:normal;font-variant:normal;font-weight:normal;font-stretch:normal;line-height:125%;letter-spacing:0px;word-spacing:0px;fill:#000000;fill-opacity:1;stroke:none;font-family:Latin Modern Sans;-inkscape-font-specification:Latin Modern Sans"
       x="322.88553"
       y="534.72833"
       id="text4048"
       sodipodi:linespacing="125%"
       transform="matrix(2.123207110992577,0,0,2.136187043584063,-351.1212664034273,-381.4703673542606)"><tspan
         sodipodi:role="line"
         id="tspan4050"
         x="322.88553"
         y="534.72833">b</tspan></text>
    <text
       xml:space="preserve"
       style="font-size:8.9726762772px;font-style:normal;font-variant:normal;font-weight:normal;font-stretch:normal;line-height:125%;letter-spacing:0px;word-spacing:0px;fill:#000000;fill-opacity:1;stroke:none;font-family:Latin Modern Sans;-inkscape-font-specification:Latin Modern Sans"
       x="297.60538"
       y="512.29663"
       id="text4052"
       sodipodi:linespacing="125%"
       transform="matrix(2.123207110992577,0,0,2.136187043584063,-351.1212664034273,-381.4703673542606)"><tspan
         sodipodi:role="line"
         id="tspan4054"
         x="297.60538"
         y="512.29663">å</tspan></text>
    <text
       xml:space="preserve"
       style="font-size:8.9726762772px;font-style:normal;font-variant:normal;font-weight:normal;font-stretch:normal;line-height:125%;letter-spacing:0px;word-spacing:0px;fill:#000000;fill-opacity:1;stroke:none;font-family:Latin Modern Sans;-inkscape-font-specification:Latin Modern Sans"
       x="304.09927"
       y="526.18292"
       id="text4056"
       sodipodi:linespacing="125%"
       transform="matrix(2.123207110992577,0,0,2.136187043584063,-351.1212664034273,-381.4703673542606)"><tspan
         sodipodi:role="line"
         id="tspan4058"
         x="304.09927"
         y="526.18292">ش</tspan></text>
    <text
       xml:space="preserve"
       style="font-size:8.9726762772px;font-style:normal;font-variant:normal;font-weight:normal;font-stretch:normal;line-height:125%;letter-spacing:0px;word-spacing:0px;fill:#000000;fill-opacity:1;stroke:none;font-family:Latin Modern Sans;-inkscape-font-specification:Latin Modern Sans"
       x="326.09006"
       y="517.63751"
       id="text4060"
       sodipodi:linespacing="125%"
       transform="matrix(2.123207110992577,0,0,2.136187043584063,-351.1212664034273,-381.4703673542606)"><tspan
         sodipodi:role="line"
         id="tspan4062"
         x="326.09006"
         y="517.63751">5</tspan></text>
    <text
       xml:space="preserve"
       style="font-size:8.9726762772px;font-style:normal;font-variant:normal;font-weight:normal;font-stretch:normal;line-height:125%;letter-spacing:0px;word-spacing:0px;fill:#000000;fill-opacity:1;stroke:none;font-family:Latin Modern Sans;-inkscape-font-specification:Latin Modern Sans"
       x="310.06744"
       y="512.29663"
       id="text4064"
       sodipodi:linespacing="125%"
       transform="matrix(2.123207110992577,0,0,2.136187043584063,-351.1212664034273,-381.4703673542606)"><tspan
         sodipodi:role="line"
         x="310.06744"
         y="512.29663"
         id="tspan4068">☺</tspan></text>
    <text
       xml:space="preserve"
       style="font-size:8.9726762772px;font-style:normal;font-variant:normal;font-weight:normal;font-stretch:normal;line-height:125%;letter-spacing:0px;word-spacing:0px;fill:#000000;fill-opacity:1;stroke:none;font-family:Latin Modern Sans;-inkscape-font-specification:Latin Modern Sans"
       x="285.85547"
       y="521.19806"
       id="text4060-8"
       sodipodi:linespacing="125%"
       transform="matrix(2.123207110992577,0,0,2.136187043584063,-351.1212664034273,-381.4703673542606)"><tspan
         sodipodi:role="line"
         id="tspan4062-8"
         x="285.85547"
         y="521.19806">+</tspan></text>
    <text
       xml:space="preserve"
       style="font-size:19.9392814636px;font-style:normal;font-variant:normal;font-weight:normal;font-stretch:normal;line-height:125%;letter-spacing:0px;word-spacing:0px;fill:#000000;fill-opacity:1;stroke:none;font-family:Latin ModernMono;-inkscape-font-specification:Latin ModernMono"
       x="311.71005"
       y="448.81116"
       id="text4093"
       sodipodi:linespacing="125%"
       transform="matrix(2.123207110992577,0,0,2.136187043584063,-351.1212664034273,-376.8249588466865)"><tspan
         sodipodi:role="line"
         id="tspan4095"
         x="311.71005"
         y="448.81116"
         style="font-size:9.9696407318px;font-style:normal;font-variant:normal;font-weight:normal;font-stretch:normal;text-align:center;text-anchor:middle;font-family:Latin ModernMono;-inkscape-font-specification:Latin ModernMono">21081989</tspan></text>
    <text
       xml:space="preserve"
       style="font-size:19.9392814636px;font-style:normal;font-variant:normal;font-weight:normal;font-stretch:normal;line-height:125%;letter-spacing:0px;word-spacing:0px;fill:#000000;fill-opacity:1;stroke:none;font-family:Latin Modern Sans;-inkscape-font-specification:Latin Modern Sans"
       x="311.70529"
       y="361.25977"
       id="text4093-6"
       sodipodi:linespacing="125%"
       transform="matrix(2.123207110992577,0,0,2.136187043584063,-351.1212664034273,-381.4703673542606)"><tspan
         sodipodi:role="line"
         id="tspan4095-1"
         x="311.70529"
         y="361.25977"
         style="font-size:9.9696407318px;font-style:normal;font-variant:normal;font-weight:normal;font-stretch:normal;text-align:center;text-anchor:middle;font-family:Latin Modern Sans;-inkscape-font-specification:Latin Modern Sans">21.08.1989</tspan></text>
    <text
       xml:space="preserve"
       style="font-size:19.9392814636px;font-style:normal;font-variant:normal;font-weight:normal;font-stretch:normal;line-height:125%;letter-spacing:0px;word-spacing:0px;fill:#000000;fill-opacity:1;stroke:none;font-family:Latin Modern Sans;-inkscape-font-specification:Latin Modern Sans"
       x="311.70529"
       y="271.53302"
       id="text4093-6-9"
       sodipodi:linespacing="125%"
       transform="matrix(2.123207110992577,0,0,2.136187043584063,-351.1212664034273,-381.4703673542606)"><tspan
         sodipodi:role="line"
         id="tspan4095-1-0"
         x="311.70529"
         y="271.53302"
         style="font-size:9.9696407318px;font-style:normal;font-variant:normal;font-weight:normal;font-stretch:normal;text-align:center;text-anchor:middle;font-family:Latin Modern Sans;-inkscape-font-specification:Latin Modern Sans">date of birth</tspan><tspan
         sodipodi:role="line"
         x="311.70529"
         y="283.99506"
         style="font-size:9.9696407318px;font-style:normal;font-variant:normal;font-weight:normal;font-stretch:normal;text-align:center;text-anchor:middle;font-family:Latin Modern Sans;-inkscape-font-specification:Latin Modern Sans"
         id="tspan4139">21.08.1989</tspan></text>
    <path
       style="fill:none;stroke:#000000;stroke-width:0.2817315161;stroke-linecap:butt;stroke-linejoin:miter;stroke-miterlimit:4;stroke-opacity:1;stroke-dasharray:none;marker-end:url(#Arrow1Lend-89)"
       d="M 310.75686,497.4074 L 310.75686,468.37985"
       id="path4141"
       inkscape:connector-curvature="0"
       transform="matrix(2.12968723813328,0,0,2.12968723813328,-351.1212664034273,-381.4703673542606)" />
    <path
       style="fill:none;stroke:#000000;stroke-width:0.2817315161;stroke-linecap:butt;stroke-linejoin:miter;stroke-miterlimit:4;stroke-opacity:1;stroke-dasharray:none;marker-end:url(#Arrow1Lend-89)"
       d="M 310.75686,422.36276 L 310.75686,377.36245"
       id="path4141-7"
       inkscape:connector-curvature="0"
       transform="matrix(2.12968723813328,0,0,2.12968723813328,-351.1212664034273,-381.4703673542606)" />
    <path
       style="fill:none;stroke:#000000;stroke-width:0.2817315161;stroke-linecap:butt;stroke-linejoin:miter;stroke-miterlimit:4;stroke-opacity:1;stroke-dasharray:none;marker-end:url(#Arrow1Lend-89)"
       d="M 310.75686,337.36217 L 310.75686,302.36193"
       id="path4141-7-2"
       inkscape:connector-curvature="0"
       transform="matrix(2.12968723813328,0,0,2.12968723813328,-351.1212664034273,-381.4703673542606)" />
    <text
       xml:space="preserve"
       style="font-size:10px;font-style:normal;font-variant:normal;font-weight:normal;font-stretch:normal;text-align:start;line-height:125%;letter-spacing:0px;word-spacing:0px;text-anchor:start;fill:#000000;fill-opacity:1;stroke:none;font-family:Latin Modern Sans;-inkscape-font-specification:Latin Modern Sans"
       x="391.46716"
       y="443.82632"
       id="text2993-0"
       sodipodi:linespacing="125%"
       transform="matrix(2.123207110992577,0,0,2.136187043584063,-394.3028526782672,-376.9398086825165)"><tspan
         sodipodi:role="line"
         id="tspan2995-8"
         x="391.46716"
         y="443.82632"
         style="font-size:10px;font-style:normal;font-variant:normal;font-weight:normal;font-stretch:normal;text-align:start;text-anchor:start;font-family:Latin Modern Sans;-inkscape-font-specification:Latin Modern Sans">syntactical</tspan></text>
    <text
       xml:space="preserve"
       style="font-size:10px;font-style:normal;font-variant:normal;font-weight:normal;font-stretch:normal;text-align:start;line-height:125%;letter-spacing:0px;word-spacing:0px;text-anchor:start;fill:#000000;fill-opacity:1;stroke:none;font-family:Latin Modern Sans;-inkscape-font-specification:Latin Modern Sans"
       x="391.46243"
       y="361.2598"
       id="text2993-66-1"
       sodipodi:linespacing="125%"
       transform="matrix(2.123207110992577,0,0,2.136187043584063,-394.29280943174,-384.8459555718807)"><tspan
         sodipodi:role="line"
         id="tspan2995-30-4"
         x="391.46243"
         y="361.2598"
         style="font-size:10px;font-style:normal;font-variant:normal;font-weight:normal;font-stretch:normal;text-align:start;text-anchor:start;font-family:Latin Modern Sans;-inkscape-font-specification:Latin Modern Sans">semantical</tspan></text>
    <text
       xml:space="preserve"
       style="font-size:10px;font-style:normal;font-variant:normal;font-weight:normal;font-stretch:normal;text-align:start;line-height:125%;letter-spacing:0px;word-spacing:0px;text-anchor:start;fill:#000000;fill-opacity:1;stroke:none;font-family:Latin Modern Sans;-inkscape-font-specification:Latin Modern Sans"
       x="367.20294"
       y="271.53302"
       id="text2993-66-2-4"
       sodipodi:linespacing="125%"
       transform="matrix(2.123207110992577,0,0,2.136187043584063,-353.433321892643,-371.3497390349464)"><tspan
         sodipodi:role="line"
         x="367.20294"
         y="271.53302"
         style="font-size:10px;font-style:normal;font-variant:normal;font-weight:normal;font-stretch:normal;text-align:start;text-anchor:start;font-family:Latin Modern Sans;-inkscape-font-specification:Latin Modern Sans"
         id="tspan4036-4">logical</tspan></text>
    <text
       xml:space="preserve"
       style="font-size:10px;font-style:normal;font-variant:normal;font-weight:normal;font-stretch:normal;text-align:start;line-height:125%;letter-spacing:0px;word-spacing:0px;text-anchor:start;fill:#000000;fill-opacity:1;stroke:none;font-family:Latin Modern Sans;-inkscape-font-specification:Latin Modern Sans"
       x="394.45337"
       y="526.01276"
       id="text2993-7-2"
       sodipodi:linespacing="125%"
       transform="matrix(2.123207110992577,0,0,2.136187043584063,-401.7862376616432,-387.4541189955908)"><tspan
         sodipodi:role="line"
         id="tspan2995-6-4"
         x="394.45337"
         y="526.01276"
         style="font-size:10px;font-style:normal;font-variant:normal;font-weight:normal;font-stretch:normal;text-align:start;text-anchor:start;font-family:Latin Modern Sans;-inkscape-font-specification:Latin Modern Sans">physical</tspan></text>
    <text
       xml:space="preserve"
       style="font-size:9px;font-style:normal;font-variant:normal;font-weight:normal;font-stretch:normal;text-align:start;line-height:125%;letter-spacing:0px;word-spacing:0px;text-anchor:start;fill:#000000;fill-opacity:1;stroke:none;font-family:Latin Modern Sans;-inkscape-font-specification:Latin Modern Sans"
       x="321.67496"
       y="321.3812"
       id="text2993-66-2-4-7"
       sodipodi:linespacing="125%"
       transform="matrix(2.123207110992577,0,0,2.136187043584063,-341.9554707254541,-381.4703673542606)"><tspan
         sodipodi:role="line"
         x="321.67496"
         y="321.3812"
         style="font-size:9px;font-style:normal;font-variant:normal;font-weight:normal;font-stretch:normal;text-align:start;text-anchor:start;font-family:Latin Modern Sans;-inkscape-font-specification:Latin Modern Sans"
         id="tspan4036-4-1">+ subjective context</tspan></text>
    <text
       xml:space="preserve"
       style="font-size:9px;font-style:normal;font-variant:normal;font-weight:normal;font-stretch:normal;text-align:start;line-height:125%;letter-spacing:0px;word-spacing:0px;text-anchor:start;fill:#000000;fill-opacity:1;stroke:none;font-family:Latin Modern Sans;-inkscape-font-specification:Latin Modern Sans"
       x="321.67496"
       y="396.1535"
       id="text2993-66-2-4-7-7"
       sodipodi:linespacing="125%"
       transform="matrix(2.123207110992577,0,0,2.136187043584063,-341.9554707254541,-381.4703673542606)"><tspan
         sodipodi:role="line"
         x="321.67496"
         y="396.1535"
         style="font-size:9px;font-style:normal;font-variant:normal;font-weight:normal;font-stretch:normal;text-align:start;text-anchor:start;font-family:Latin Modern Sans;-inkscape-font-specification:Latin Modern Sans"
         id="tspan4036-4-1-1">+ cultural context</tspan><tspan
         sodipodi:role="line"
         x="321.67496"
         y="407.4035"
         style="font-size:9px;font-style:normal;font-variant:normal;font-weight:normal;font-stretch:normal;text-align:start;text-anchor:start;font-family:Latin Modern Sans;-inkscape-font-specification:Latin Modern Sans"
         id="tspan4937">+ organisation / structure</tspan></text>
    <path
       style="fill:none;stroke:#000000;stroke-width:0.2817315161;stroke-linecap:butt;stroke-linejoin:miter;stroke-miterlimit:4;stroke-opacity:1;stroke-dasharray:none;marker-end:url(#Arrow1Lend-89)"
       d="M 295.81327,497.4074 L 295.81327,468.37986"
       id="path4141-9"
       inkscape:connector-curvature="0"
       transform="matrix(2.12968723813328,0,0,2.12968723813328,-351.1212664034273,-381.4703673542606)" />
    <path
       style="fill:none;stroke:#000000;stroke-width:0.2817315161;stroke-linecap:butt;stroke-linejoin:miter;stroke-miterlimit:4;stroke-opacity:1;stroke-dasharray:none;marker-end:url(#Arrow1Lend-89)"
       d="M 325.70045,497.4074 L 325.70045,468.37986"
       id="path4141-91"
       inkscape:connector-curvature="0"
       transform="matrix(2.12968723813328,0,0,2.12968723813328,-351.1212664034273,-381.4703673542606)" />
    <text
       xml:space="preserve"
       style="font-size:10px;font-style:normal;font-weight:normal;text-align:end;line-height:125%;letter-spacing:0px;word-spacing:0px;text-anchor:end;fill:#000000;fill-opacity:1;stroke:none;font-family:Latin Modern Sans;-inkscape-font-specification:Latin Modern Sans"
       x="238.79706"
       y="166.85178"
       id="text2993-66-2-7"
       sodipodi:linespacing="125%"
       transform="matrix(2.123207110992577,0,0,2.136187043584063,-336.3635054562177,-146.2764359307089)"><tspan
         sodipodi:role="line"
         x="238.79706"
         y="166.85178"
         style="font-size:10px;font-style:normal;font-variant:normal;font-weight:normal;font-stretch:normal;text-align:end;text-anchor:end;font-family:Latin Modern Sans;-inkscape-font-specification:Latin Modern Sans"
         id="tspan4036-9">knowledge</tspan></text>
    <path
       style="fill:none;stroke:#000000;stroke-width:0.2990120053;stroke-linecap:butt;stroke-linejoin:miter;stroke-miterlimit:4;stroke-opacity:1;stroke-dasharray:none;marker-end:url(#Arrow1Lend-89)"
       d="M 310.75686,247.36156 L 310.75686,212.36132"
       id="path4141-5"
       inkscape:connector-curvature="0"
       transform="matrix(2.12968723813328,0,0,1.890642352036565,-351.1212664034273,-322.3398514193548)" />
    <path
       style="fill:none;stroke:#000000;stroke-width:0.2990120053;stroke-linecap:butt;stroke-linejoin:miter;stroke-miterlimit:4;stroke-opacity:1;stroke-dasharray:none;marker-end:url(#Arrow1Lend-89)"
       d="M 295.8479,247.36156 L 295.8479,212.36132"
       id="path4141-9-3"
       inkscape:connector-curvature="0"
       transform="matrix(2.12968723813328,0,0,1.890642352036565,-351.1212664034273,-322.3398514193548)" />
    <path
       style="fill:none;stroke:#000000;stroke-width:0.2990120053;stroke-linecap:butt;stroke-linejoin:miter;stroke-miterlimit:4;stroke-opacity:1;stroke-dasharray:none;marker-end:url(#Arrow1Lend-89)"
       d="M 325.66582,247.36156 L 325.66582,212.36132"
       id="path4141-91-5"
       inkscape:connector-curvature="0"
       transform="matrix(2.12968723813328,0,0,1.890642352036565,-351.1212664034273,-322.3398514193548)" />
    <text
       xml:space="preserve"
       style="font-size:19.9392814636px;font-style:normal;font-variant:normal;font-weight:normal;font-stretch:normal;line-height:88.9999985695%;letter-spacing:0px;word-spacing:0px;fill:#000000;fill-opacity:1;stroke:none;font-family:Latin Modern Sans;-inkscape-font-specification:Latin Modern Sans"
       x="311.70529"
       y="146.91249"
       id="text4093-6-9-8"
       sodipodi:linespacing="88.99999856948853%"
       transform="matrix(2.123207110992577,0,0,2.136187043584063,-351.1212664034273,-381.4703673542606)"><tspan
         sodipodi:role="line"
         id="tspan4095-1-0-4"
         x="311.70529"
         y="146.91249"
         style="font-size:8.9726762772px;font-style:normal;font-variant:normal;font-weight:normal;font-stretch:normal;text-align:center;line-height:88.9999985695%;text-anchor:middle;font-family:Latin Modern Sans;-inkscape-font-specification:Latin Modern Sans">name,</tspan><tspan
         sodipodi:role="line"
         x="311.70529"
         y="154.89818"
         style="font-size:8.9726762772px;font-style:normal;font-variant:normal;font-weight:normal;font-stretch:normal;text-align:center;line-height:88.9999985695%;text-anchor:middle;font-family:Latin Modern Sans;-inkscape-font-specification:Latin Modern Sans"
         id="tspan4139-9">address,</tspan><tspan
         sodipodi:role="line"
         x="311.70529"
         y="162.88385"
         style="font-size:8.9726762772px;font-style:normal;font-variant:normal;font-weight:normal;font-stretch:normal;text-align:center;line-height:88.9999985695%;text-anchor:middle;font-family:Latin Modern Sans;-inkscape-font-specification:Latin Modern Sans"
         id="tspan5094">age</tspan></text>
    <path
       style="fill:#000000;fill-opacity:0.1568627451;stroke:#000000;stroke-width:0.6081145406;stroke-linecap:round;stroke-miterlimit:4.5;stroke-opacity:1;stroke-dasharray:none;stroke-dashoffset:0"
       d="M 266.03738,252.36874 L 266.03738,297.36904 L 355.49113,297.36904 L 355.49113,252.36874 L 266.03738,252.36874 z M 271.00703,257.36877 L 350.52148,257.36877 L 350.52148,292.36901 L 271.00703,292.36901 L 271.00703,257.36877 z"
       id="rect4607-49-9"
       inkscape:connector-curvature="0"
       transform="matrix(2.12968723813328,0,0,2.12968723813328,-351.1212664034273,-381.4703673542606)" />
  </g>
</svg>
