<?xml version="1.0" encoding="UTF-8" standalone="no"?>
<!-- Created with Inkscape (http://www.inkscape.org/) -->

<svg
   xmlns:dc="http://purl.org/dc/elements/1.1/"
   xmlns:cc="http://creativecommons.org/ns#"
   xmlns:rdf="http://www.w3.org/1999/02/22-rdf-syntax-ns#"
   xmlns:svg="http://www.w3.org/2000/svg"
   xmlns="http://www.w3.org/2000/svg"
   xmlns:sodipodi="http://sodipodi.sourceforge.net/DTD/sodipodi-0.dtd"
   xmlns:inkscape="http://www.inkscape.org/namespaces/inkscape"
   width="744.09448819"
   height="1052.3622047"
   id="svg3190"
   version="1.1"
   inkscape:version="0.48.4 r9939"
   sodipodi:docname="New document 4">
  <defs
     id="defs3192" />
  <sodipodi:namedview
     id="base"
     pagecolor="#ffffff"
     bordercolor="#666666"
     borderopacity="1.0"
     inkscape:pageopacity="0.0"
     inkscape:pageshadow="2"
     inkscape:zoom="0.3499999999999999"
     inkscape:cx="375"
     inkscape:cy="520"
     inkscape:document-units="px"
     inkscape:current-layer="layer1"
     showgrid="false"
     inkscape:window-width="501"
     inkscape:window-height="415"
     inkscape:window-x="0"
     inkscape:window-y="416"
     inkscape:window-maximized="0" />
  <metadata
     id="metadata3195">
    <rdf:RDF>
      <cc:Work
         rdf:about="">
        <dc:format>image/svg+xml</dc:format>
        <dc:type
           rdf:resource="http://purl.org/dc/dcmitype/StillImage" />
        <dc:title></dc:title>
      </cc:Work>
    </rdf:RDF>
  </metadata>
  <g
     inkscape:label="Layer 1"
     inkscape:groupmode="layer"
     id="layer1">
    <g
       id="g4103"
       transform="matrix(1.286492002298212,0,0,1.286492002298212,-116.2301250445862,-332.0102771025527)">
      <g
         id="g4143"
         transform="translate(-6.020237798431256,1.774755548231042)">
        <g
           id="g4375">
          <g
             id="g4394">
            <path
               transform="matrix(-0.1367389494077514,0,0,0.1384747102108164,351.0735328592965,657.7278807550901)"
               id="path20206"
               d="M 416.3539,22.690542 C 412.63471,31.574074 411.29312,47.341431 419.68285,49.79210600000001 C 414.0919300000001,52.610753 411.54507,59.74508900000001 415.71334,63.85429100000001 C 413.48829,157.26083 406.68734,263.35989 410.76846,361.31692 L 167.35816,365.91122 C 167.47868,358.7138699999999 131.50702,361.22095 132.57802,366.18146 L 133.20864,383.83795 C 136.52528,470.2723 138.26012,495.06767 123.56927,633.3710999999999 C 122.7797,642.7237599999998 158.07066,641.9485099999999 157.89264,637.0645299999996 C 162.8358,590.5282899999998 164.81066,577.6403 166.62663,549.19447 L 429.43011,549.19447 C 435.57397,588.1594999999997 440.2012599999999,601.9994699999997 450.40701,639.76706 C 451.1217,646.4708299999997 488.52852,642.3099799999996 485.57402,633.72613 C 465.79051,560.5149199999998 453.54288,496.0769800000001 447.07953,394.02896 C 453.06569,393.41158 451.81559,360.98924 445.21128,360.35852 C 441.34501,265.59842 448.03666,159.15246 450.28079,65.077314 C 454.6839,60.558678 454.18155,54.259834 446.93663,50.41893000000001 C 454.44686,47.22695200000001 455.78889,30.087678 450.94753,22.87071 C 450.42396,11.423332 416.87749,12.126476 416.3539,22.690534 z M 412.57023,395.90924 C 414.29939,423.89241 416.4536700000001,449.04031 418.96645,472.3907 L 169.87429,472.3907 C 170.10969,448.9277300000001 169.44334,427.05535 168.43288,400.2332700000001 L 412.57023,395.9092400000001 z M 169.6941100000001,486.17358 L 420.4979400000001,486.17358 C 421.6266000000001,495.67805 426.0640400000001,526.4199499999997 427.3580900000001,535.4115799999998 L 167.4374300000001,535.4115799999998 C 167.9536400000001,525.6056599999999 169.4741100000001,494.93619 169.6941100000001,486.17358 z"
               style="fill:#323232;fill-opacity:1;fill-rule:evenodd;stroke:#000000;stroke-width:0.7773076296;stroke-opacity:1;display:inline"
               sodipodi:nodetypes="ccccccccccccccccccccccccccccc"
               inkscape:connector-curvature="0" />
            <g
               style="stroke:#323232;stroke-width:0.7773076296;stroke-opacity:1"
               id="g4024"
               transform="translate(-4398.710080199365,-4402.27405958906)">
              <path
                 inkscape:connector-curvature="0"
                 id="path20348"
                 d="M 11935,-169.6378173828125 L 11935,-157.6378173828125 L 11944,-157.6378173828125 L 11950,-140.6378173828125"
                 style="fill:none;stroke:#323232;stroke-width:0.6055315733;stroke-linecap:butt;stroke-linejoin:miter;stroke-miterlimit:4;stroke-opacity:1;stroke-dasharray:none"
                 transform="matrix(2.563363880566234,0,0,2.571354764807401,-25879.24747888917,5510.109209943987)" />
              <path
                 d="M 11941,-174.6378173828125 C 11941,-171.8763936336585 11938.31370849899,-169.6378173828125 11935,-169.6378173828125 C 11931.68629150102,-169.6378173828125 11929,-171.8763936336585 11929,-174.6378173828125 C 11929,-177.3992411319665 11931.68629150102,-179.6378173828125 11935,-179.6378173828125 C 11938.31370849899,-179.6378173828125 11941,-177.3992411319665 11941,-174.6378173828125 z"
                 sodipodi:ry="5"
                 sodipodi:rx="6"
                 sodipodi:cy="-174.6378173828125"
                 sodipodi:cx="11935"
                 id="path20346"
                 style="fill:none;stroke:#323232;stroke-width:0.6055315733;stroke-linecap:butt;stroke-linejoin:miter;stroke-miterlimit:4;stroke-opacity:1;stroke-dasharray:none;stroke-dashoffset:0"
                 sodipodi:type="arc"
                 transform="matrix(2.563363880566234,0,0,2.571354764807401,-25879.24747888917,5510.109209943987)" />
            </g>
            <path
               transform="matrix(0.1367389494077514,0,0,0.1384747102108164,424.6407536389069,657.7278807550901)"
               id="path20374"
               d="M 416.3539,22.690542 C 412.63471,31.574074 411.29312,47.341431 419.68285,49.79210600000001 C 414.0919300000001,52.610753 411.54507,59.74508900000001 415.71334,63.85429100000001 C 413.48829,157.26083 406.68734,263.35989 410.76846,361.31692 L 167.35816,365.91122 C 167.47868,358.7138699999999 131.50702,361.22095 132.57802,366.18146 L 133.20864,383.83795 C 136.52528,470.2723 138.26012,495.06767 123.56927,633.3710999999999 C 122.7797,642.7237599999998 158.07066,641.9485099999999 157.89264,637.0645299999996 C 162.8358,590.5282899999998 164.81066,577.6403 166.62663,549.19447 L 429.43011,549.19447 C 435.57397,588.1594999999997 440.2012599999999,601.9994699999997 450.40701,639.76706 C 451.1217,646.4708299999997 488.52852,642.3099799999996 485.57402,633.72613 C 465.79051,560.5149199999998 453.54288,496.0769800000001 447.07953,394.02896 C 453.06569,393.41158 451.81559,360.98924 445.21128,360.35852 C 441.34501,265.59842 448.03666,159.15246 450.28079,65.077314 C 454.6839,60.558678 454.18155,54.259834 446.93663,50.41893000000001 C 454.44686,47.22695200000001 455.78889,30.087678 450.94753,22.87071 C 450.42396,11.423332 416.87749,12.126476 416.3539,22.690534 z M 412.57023,395.90924 C 414.29939,423.89241 416.4536700000001,449.04031 418.96645,472.3907 L 169.87429,472.3907 C 170.10969,448.9277300000001 169.44334,427.05535 168.43288,400.2332700000001 L 412.57023,395.9092400000001 z M 169.6941100000001,486.17358 L 420.4979400000001,486.17358 C 421.6266000000001,495.67805 426.0640400000001,526.4199499999997 427.3580900000001,535.4115799999998 L 167.4374300000001,535.4115799999998 C 167.9536400000001,525.6056599999999 169.4741100000001,494.93619 169.6941100000001,486.17358 z"
               style="fill:#323232;fill-opacity:1;fill-rule:evenodd;stroke:#000000;stroke-width:0.7773076296;stroke-opacity:1;display:inline"
               sodipodi:nodetypes="ccccccccccccccccccccccccccccc"
               inkscape:connector-curvature="0" />
            <g
               style="stroke:#323232;stroke-width:0.2412810326;stroke-opacity:1"
               id="g4020"
               transform="translate(-4398.710080199365,-4402.27405958906)">
              <path
                 inkscape:connector-curvature="0"
                 id="path20378"
                 d="M 11935,-169.6378173828125 L 11935,-157.6378173828125 L 11944,-157.6378173828125 L 11950,-140.6378173828125"
                 style="fill:none;stroke:#323232;stroke-width:0.6055315733;stroke-linecap:butt;stroke-linejoin:miter;stroke-miterlimit:4;stroke-opacity:1;stroke-dasharray:none"
                 transform="matrix(-2.563363880566234,0,0,2.571354764807401,35452.38192578611,5510.109209943987)" />
              <path
                 d="M 11941,-174.6378173828125 C 11941,-171.8763936336585 11938.31370849899,-169.6378173828125 11935,-169.6378173828125 C 11931.68629150102,-169.6378173828125 11929,-171.8763936336585 11929,-174.6378173828125 C 11929,-177.3992411319665 11931.68629150102,-179.6378173828125 11935,-179.6378173828125 C 11938.31370849899,-179.6378173828125 11941,-177.3992411319665 11941,-174.6378173828125 z"
                 sodipodi:ry="5"
                 sodipodi:rx="6"
                 sodipodi:cy="-174.6378173828125"
                 sodipodi:cx="11935"
                 id="path20380"
                 style="fill:none;stroke:#323232;stroke-width:0.6055315733;stroke-linecap:butt;stroke-linejoin:miter;stroke-miterlimit:4;stroke-opacity:1;stroke-dasharray:none;stroke-dashoffset:0"
                 sodipodi:type="arc"
                 transform="matrix(-2.563363880566234,0,0,2.571354764807401,35452.38192578611,5510.109209943987)" />
            </g>
            <text
               transform="matrix(6.466338163302649,0,0,6.486335516575369,-20805.78565154357,-17941.23472546205)"
               sodipodi:linespacing="125%"
               id="text20443"
               y="2863.5764"
               x="3272.4277"
               style="font-size:2.0925402641px;font-style:normal;font-variant:normal;font-weight:normal;font-stretch:normal;text-align:center;line-height:125%;letter-spacing:0px;word-spacing:0px;writing-mode:lr-tb;text-anchor:middle;fill:#b4b4b4;fill-opacity:1;stroke:none;font-family:Sawasdee;-inkscape-font-specification:Sawasdee"
               xml:space="preserve"><tspan
                 style="font-size:2.0925402641px;text-align:center;text-anchor:middle;fill:#b4b4b4;fill-opacity:1"
                 y="2863.5764"
                 x="3272.4277"
                 sodipodi:role="line"
                 id="tspan20445">?</tspan></text>
            <g
               style="fill:#b4b4b4;fill-opacity:1;stroke:none"
               transform="matrix(-0.7259097464627747,0,0,0.7259097464627748,3841.069606170071,-3008.451935543325)"
               id="g4364">
              <path
                 transform="matrix(-0.1408155518854064,0,0,0.1409603075394302,4838.611006936846,4983.574995523769)"
                 inkscape:connector-curvature="0"
                 id="path4370"
                 d="M 67.01605517343901,395.2932814463175 C 65.60987383358906,393.5056115570342 65.08454791648539,391.7992702788437 65.46890162038502,390.2678831453349 C 65.78897498475004,388.9926092843198 74.6352654383613,368.4981326334769 85.12732485063226,344.7246016990174 C 95.61938426290322,320.9510707645578 104.405640271223,300.825 104.652338202454,300 C 104.9448843248058,299.0216758213741 101.5185529154122,295.6536714631373 94.80043994780061,290.3158123678263 C 82.02180248092567,280.1625793756024 65.89677085101213,264.0374607438728 57.97389849055966,253.4890722147898 C 32.21860359500663,219.1988748116999 27.04124485623276,174.2239484599492 44.57556932973503,137.0998286547983 C 63.50927675987534,97.01289949739515 105.5613891759428,64.22104410590594 163.5,44.36363755766621 C 197.439865224521,32.73136518575187 226.6986258242279,27.95274349981823 263.9525856019981,27.95744351092924 C 295.3492556683592,27.96140455826597 321.3395523012922,31.03183497424803 349,38.00473814770413 C 424.7782272839485,57.10761917344424 480.8043963209286,102.8072001344807 494.105479311759,156.3647779948116 C 498.6175401827564,174.5328513445977 497.5029622609656,199.9359259692469 491.3627513804231,218.8760846990473 C 480.5997436690236,252.0757709036303 454.2981261335702,282.0466022691556 416.7592656578407,303.8871486329653 C 358.1342716433782,337.9958531494156 276.5029447670468,349.0064346150699 197.2076117340217,333.5006740275678 L 184.8902567490402,331.0920838853351 L 129.7754116273524,364.5460419426676 C 92.66195461554598,387.073403336758 73.75985665600946,398 71.90286340186513,398 C 70.09621687012898,398 68.41089002125461,397.066526608445 67.01605517343901,395.2932814463175 z M 135.1601296078115,345 C 160.5860627282772,329.6 182.4196013935475,317 183.6791044195231,317 C 184.9386074454987,317 192.6135601890051,318.3304288415394 200.7345549606485,319.9565085367543 C 224.7477133164062,324.7647014143831 241.6468137948472,326.3724609031733 268,326.3560596647967 C 317.1856845744994,326.325448332598 358.1839259156261,317.5809018046658 396.5512184786955,298.9372710915002 C 440.5808488098388,277.5421682970654 469.9224043601345,245.5772742512937 480.1798750619114,207.8316328000846 C 483.2812965124818,196.4189614441687 483.5099106057237,170.2240265468013 480.6016853260248,159.5 C 464.0277224832832,98.38382074388059 390.924111221988,52.10264611272247 296.5,42.94704042034823 C 280.5447661572288,41.39997973951631 245.0884764776502,41.37571920694519 232,42.90290708420454 C 172.9061333336659,49.7980898006431 116.0083483479394,74.41257846070449 82.53293242349595,107.5636920486356 C 42.50264487365326,147.2061751328676 36.94098117070497,199.7873436699317 68.10166581589858,244 C 75.2419284085273,254.1310346582204 91.78177443334918,270.3675034628463 107.2942319790748,282.4736881423596 C 115.1457431485039,288.6011404786635 120.2981733301489,293.3398358279674 120.655017536242,294.7616163918951 C 121.0697690163537,296.414117912767 116.5555759269683,307.6858394778581 104.8679274145374,334.1812160083308 C 86.03535951766572,376.8738052774724 87.68049905940354,373 88.38224681560353,373 C 88.68414923085214,373 109.7341964873457,360.4 135.1601296078115,345 z"
                 style="fill:#b4b4b4;fill-opacity:1;stroke:none" />
            </g>
            <path
               transform="matrix(1.292566788525551,0,0,1.276155791718577,-63.84012695640632,-198.0342848610723)"
               d="M 385.8928661346436,637.2728881835937 C 385.8928661346436,646.7899381914706 374.6200356066048,654.5050315856933 360.7142944335938,654.5050315856933 C 346.8085532605828,654.5050315856933 335.535722732544,646.7899381914706 335.535722732544,637.2728881835937 C 335.535722732544,627.7558381757168 346.8085532605828,620.0407447814941 360.7142944335938,620.0407447814941 C 374.6200356066048,620.0407447814941 385.8928661346436,627.7558381757168 385.8928661346436,637.2728881835937 z"
               sodipodi:ry="17.23214340209961"
               sodipodi:rx="25.1785717010498"
               sodipodi:cy="637.2728881835938"
               sodipodi:cx="360.7142944335938"
               id="path4028"
               style="fill:#ffffff;fill-opacity:1;stroke:none"
               sodipodi:type="arc" />
            <g
               id="g4036"
               transform="translate(-4398.710080199366,-4394.220094144232)"
               style="stroke:none">
              <text
                 transform="matrix(10.54871816844556,0,0,10.58134040972982,-29717.07415579358,-25284.00233888964)"
                 sodipodi:linespacing="125%"
                 id="text20428"
                 y="2863.5764"
                 x="3272.4277"
                 style="font-size:2.0925402641px;font-style:normal;font-variant:normal;font-weight:normal;font-stretch:normal;text-align:center;line-height:125%;letter-spacing:0px;word-spacing:0px;writing-mode:lr-tb;text-anchor:middle;fill:#787878;fill-opacity:1;stroke:none;font-family:Sawasdee;-inkscape-font-specification:Sawasdee"
                 xml:space="preserve"><tspan
                   style="font-size:2.0925402641px;text-align:center;text-anchor:middle;fill:#787878;fill-opacity:1;stroke:none"
                   y="2863.5764"
                   x="3272.4277"
                   sodipodi:role="line"
                   id="tspan20430">!</tspan></text>
              <path
                 style="fill:#787878;fill-opacity:1;stroke:none"
                 d="M 67.01605517343901,395.2932814463175 C 65.60987383358906,393.5056115570342 65.08454791648539,391.7992702788437 65.46890162038502,390.2678831453349 C 65.78897498475004,388.9926092843198 74.6352654383613,368.4981326334769 85.12732485063226,344.7246016990174 C 95.61938426290322,320.9510707645578 104.405640271223,300.825 104.652338202454,300 C 104.9448843248058,299.0216758213741 101.5185529154122,295.6536714631373 94.80043994780061,290.3158123678263 C 82.02180248092567,280.1625793756024 65.89677085101213,264.0374607438728 57.97389849055966,253.4890722147898 C 32.21860359500663,219.1988748116999 27.04124485623276,174.2239484599492 44.57556932973503,137.0998286547983 C 63.50927675987534,97.01289949739515 105.5613891759428,64.22104410590594 163.5,44.36363755766621 C 197.439865224521,32.73136518575187 226.6986258242279,27.95274349981823 263.9525856019981,27.95744351092924 C 295.3492556683592,27.96140455826597 321.3395523012922,31.03183497424803 349,38.00473814770413 C 424.7782272839485,57.10761917344424 480.8043963209286,102.8072001344807 494.105479311759,156.3647779948116 C 498.6175401827564,174.5328513445977 497.5029622609656,199.9359259692469 491.3627513804231,218.8760846990473 C 480.5997436690236,252.0757709036303 454.2981261335702,282.0466022691556 416.7592656578407,303.8871486329653 C 358.1342716433782,337.9958531494156 276.5029447670468,349.0064346150699 197.2076117340217,333.5006740275678 L 184.8902567490402,331.0920838853351 L 129.7754116273524,364.5460419426676 C 92.66195461554598,387.073403336758 73.75985665600946,398 71.90286340186513,398 C 70.09621687012898,398 68.41089002125461,397.066526608445 67.01605517343901,395.2932814463175 z M 135.1601296078115,345 C 160.5860627282772,329.6 182.4196013935475,317 183.6791044195231,317 C 184.9386074454987,317 192.6135601890051,318.3304288415394 200.7345549606485,319.9565085367543 C 224.7477133164062,324.7647014143831 241.6468137948472,326.3724609031733 268,326.3560596647967 C 317.1856845744994,326.325448332598 358.1839259156261,317.5809018046658 396.5512184786955,298.9372710915002 C 440.5808488098388,277.5421682970654 469.9224043601345,245.5772742512937 480.1798750619114,207.8316328000846 C 483.2812965124818,196.4189614441687 483.5099106057237,170.2240265468013 480.6016853260248,159.5 C 464.0277224832832,98.38382074388059 390.924111221988,52.10264611272247 296.5,42.94704042034823 C 280.5447661572288,41.39997973951631 245.0884764776502,41.37571920694519 232,42.90290708420454 C 172.9061333336659,49.7980898006431 116.0083483479394,74.41257846070449 82.53293242349595,107.5636920486356 C 42.50264487365326,147.2061751328676 36.94098117070497,199.7873436699317 68.10166581589858,244 C 75.2419284085273,254.1310346582204 91.78177443334918,270.3675034628463 107.2942319790748,282.4736881423596 C 115.1457431485039,288.6011404786635 120.2981733301489,293.3398358279674 120.655017536242,294.7616163918951 C 121.0697690163537,296.414117912767 116.5555759269683,307.6858394778581 104.8679274145374,334.1812160083308 C 86.03535951766572,376.8738052774724 87.68049905940354,373 88.38224681560353,373 C 88.68414923085214,373 109.7341964873457,360.4 135.1601296078115,345 z"
                 id="path20424"
                 inkscape:connector-curvature="0"
                 transform="matrix(-0.1408155518854064,0,0,0.1409603075394302,4838.611006936846,4983.574995523769)" />
            </g>
          </g>
        </g>
      </g>
    </g>
  </g>
</svg>
