<?xml version="1.0" encoding="UTF-8" standalone="no"?>
<!-- Created with Inkscape (http://www.inkscape.org/) -->

<svg
   xmlns:dc="http://purl.org/dc/elements/1.1/"
   xmlns:cc="http://creativecommons.org/ns#"
   xmlns:rdf="http://www.w3.org/1999/02/22-rdf-syntax-ns#"
   xmlns:svg="http://www.w3.org/2000/svg"
   xmlns="http://www.w3.org/2000/svg"
   xmlns:sodipodi="http://sodipodi.sourceforge.net/DTD/sodipodi-0.dtd"
   xmlns:inkscape="http://www.inkscape.org/namespaces/inkscape"
   width="571.3809204101562"
   height="323.8047485351562"
   id="svg2"
   version="1.1"
   inkscape:version="0.48.4 r9939"
   sodipodi:docname="geoid.svg">
  <defs
     id="defs4">
    <marker
       inkscape:stockid="Arrow1Mstart"
       orient="auto"
       refY="0"
       refX="0"
       id="Arrow1Mstart"
       style="overflow:visible">
      <path
         id="path3990"
         d="M 0,0 L 5,-5 L -12.5,0 L 5,5 L 0,0 z"
         style="fill-rule:evenodd;stroke:#000000;stroke-width:1pt"
         transform="matrix(0.4,0,0,0.4,4,0)"
         inkscape:connector-curvature="0" />
    </marker>
    <marker
       inkscape:stockid="Arrow1Mend"
       orient="auto"
       refY="0"
       refX="0"
       id="Arrow1Mend"
       style="overflow:visible">
      <path
         id="path3993"
         d="M 0,0 L 5,-5 L -12.5,0 L 5,5 L 0,0 z"
         style="fill-rule:evenodd;stroke:#000000;stroke-width:1pt"
         transform="matrix(-0.4,0,0,-0.4,-4,0)"
         inkscape:connector-curvature="0" />
    </marker>
    <marker
       inkscape:stockid="Arrow1Lstart"
       orient="auto"
       refY="0"
       refX="0"
       id="Arrow1Lstart"
       style="overflow:visible">
      <path
         id="path3984"
         d="M 0,0 L 5,-5 L -12.5,0 L 5,5 L 0,0 z"
         style="fill-rule:evenodd;stroke:#000000;stroke-width:1pt"
         transform="matrix(0.8,0,0,0.8,10,0)"
         inkscape:connector-curvature="0" />
    </marker>
    <marker
       inkscape:stockid="Arrow1Lend"
       orient="auto"
       refY="0"
       refX="0"
       id="Arrow1Lend"
       style="overflow:visible">
      <path
         id="path3987"
         d="M 0,0 L 5,-5 L -12.5,0 L 5,5 L 0,0 z"
         style="fill-rule:evenodd;stroke:#000000;stroke-width:1pt"
         transform="matrix(-0.8,0,0,-0.8,-10,0)"
         inkscape:connector-curvature="0" />
    </marker>
  </defs>
  <sodipodi:namedview
     id="base"
     pagecolor="#ffffff"
     bordercolor="#666666"
     borderopacity="1.0"
     inkscape:pageopacity="0.0"
     inkscape:pageshadow="2"
     inkscape:zoom="1.399999998522561"
     inkscape:cx="258.4830529632301"
     inkscape:cy="123.4812302197415"
     inkscape:document-units="px"
     inkscape:current-layer="layer1"
     showgrid="true"
     inkscape:window-width="1600"
     inkscape:window-height="834"
     inkscape:window-x="0"
     inkscape:window-y="377"
     inkscape:window-maximized="1"
     showguides="true"
     inkscape:guide-bbox="true"
     fit-margin-top="10"
     fit-margin-left="10"
     fit-margin-right="10"
     fit-margin-bottom="10">
    <inkscape:grid
       type="xygrid"
       id="grid3037" />
  </sodipodi:namedview>
  <metadata
     id="metadata7">
    <rdf:RDF>
      <cc:Work
         rdf:about="">
        <dc:format>image/svg+xml</dc:format>
        <dc:type
           rdf:resource="http://purl.org/dc/dcmitype/StillImage" />
        <dc:title />
      </cc:Work>
    </rdf:RDF>
  </metadata>
  <g
     inkscape:label="Layer 1"
     inkscape:groupmode="layer"
     id="layer1"
     transform="translate(-119.917418475831,-1.476657774473892)">
    <path
       sodipodi:type="arc"
       style="fill:none;stroke:#a0a0a0;stroke-width:3.46858525280000007;stroke-linecap:butt;stroke-linejoin:miter;stroke-miterlimit:4;stroke-opacity:1;stroke-dasharray:3.46858538170000008, 3.46858538170000008;stroke-dashoffset:0"
       id="path3145"
       sodipodi:cx="203.5457305908203"
       sodipodi:cy="190.1969909667969"
       sodipodi:rx="125.7639923095703"
       sodipodi:ry="125.7639923095703"
       d="M 329.3097229003906,190.1969909667969 C 329.3097229003906,259.6545259972097 273.0032656212332,315.9609832763672 203.5457305908203,315.9609832763672 C 134.0881955604075,315.9609832763672 77.78173828125,259.6545259972098 77.78173828125,190.1969909667969 C 77.78173828125,120.739455936384 134.0881955604074,64.43299865722657 203.5457305908203,64.43299865722656 C 273.0032656212331,64.43299865722653 329.3097229003906,120.739455936384 329.3097229003906,190.1969909667969 z"
       transform="matrix(0.941517396148178,0,0,0.7945283201570116,60.95057981372471,54.94919079342594)" />
    <g
       id="g3034"
       transform="translate(-31.95543061912735,-28.8494339617522)">
      <text
         transform="matrix(0.8263363708720451,0,0,0.8243938837313841,49.76115317365543,265.9380039680829)"
         sodipodi:linespacing="125%"
         id="text3915"
         y="82.615738"
         x="455.93616"
         style="font-size:14.5390300751px;font-style:normal;font-variant:normal;font-weight:normal;font-stretch:normal;text-align:center;line-height:125%;letter-spacing:0px;word-spacing:0px;writing-mode:lr-tb;text-anchor:middle;fill:#000000;fill-opacity:1;stroke:none;font-family:Latin modern Sans;-inkscape-font-specification:Latin modern Sans"
         xml:space="preserve"><tspan
           style="font-size:18.1737880707px;text-align:start;text-anchor:start;font-family:Latin modern Sans;-inkscape-font-specification:Latin modern Sans"
           y="82.615738"
           x="455.93616"
           id="tspan3917"
           sodipodi:role="line">Reference Ellipsoid</tspan></text>
      <path
         transform="matrix(1.288409463829705,0,0,0.8243938837313841,-115.6317603683257,263.7090744999825)"
         inkscape:connector-curvature="0"
         id="path3919"
         d="M 422.2437641798025,93.72741657261201 L 501.0356627588087,93.72741657261201"
         style="fill:none;stroke:#a0a0a0;stroke-width:2.9108974934;stroke-linecap:butt;stroke-linejoin:miter;stroke-miterlimit:4;stroke-opacity:1;stroke-dasharray:2.9108975537, 2.9108975537;stroke-dashoffset:0" />
    </g>
    <g
       id="g3044"
       transform="translate(-31.95543061912735,-1.245983918857917)">
      <text
         xml:space="preserve"
         style="font-size:14.5390300751px;font-style:normal;font-variant:normal;font-weight:normal;font-stretch:normal;text-align:center;line-height:125%;letter-spacing:0px;word-spacing:0px;writing-mode:lr-tb;text-anchor:middle;fill:#000000;fill-opacity:1;stroke:none;font-family:Latin modern Sans;-inkscape-font-specification:Latin modern Sans"
         x="455.93616"
         y="82.615738"
         id="text3940"
         sodipodi:linespacing="125%"
         transform="matrix(0.8263363708720451,0,0,0.8243938837313841,50.1162195830145,210.2072282260715)"><tspan
           sodipodi:role="line"
           id="tspan3942"
           x="455.93616"
           y="82.615738"
           style="font-size:18.1737880707px;text-align:start;text-anchor:start;font-family:Latin modern Sans;-inkscape-font-specification:Latin modern Sans">Geoid</tspan></text>
      <path
         style="fill:#c8c8c8;fill-opacity:0.5882352941;stroke:#323232;stroke-width:14.6239805222;stroke-miterlimit:4;stroke-opacity:1;stroke-dasharray:none"
         d="M 64.33087371845799,197.0000000000018 L 315.9685523053282,206.4556141486582 z"
         id="path3957"
         inkscape:connector-curvature="0"
         transform="matrix(0.4033802416586617,0,0,0.1043269756289598,402.4412980135196,262.6942415866365)"
         sodipodi:nodetypes="ccc" />
    </g>
    <path
       style="fill:none;stroke:#787878;stroke-width:3.57806372639999992;stroke-miterlimit:4;stroke-opacity:1;stroke-dasharray:none"
       d="M 180.1740233128046,329.124358191929 C 172.0315667887127,324.7233232575179 166.9453803850275,311.0664689939411 158.0386282915998,310.8847275892576 C 152.0615286459885,310.7627654560208 148.8144818437993,321.9261974765108 142.8559167369045,322.5119830919733 C 135.9463295548622,323.1912635407749 128.6368701957122,318.5740931567364 123.7028361154568,312.6427249249169 C 118.361658099315,306.2219152810977 117.3857842328181,296.0458868520398 114.658802640073,287.5297421539273 C 112.7561922995944,281.5880427281785 113.2637768435927,273.942852517643 109.5629759692377,269.4315249809804 C 105.2277296683228,264.1467996797466 97.69202540536052,265.3783508271747 92.16306843996727,262.1448597499656 C 82.18520725215499,256.3095231173306 69.24085572432227,252.4616454179997 64.10236334305652,240.5199811494787 C 58.0805659227762,226.5255489794108 61.60622067127662,208.1506362221968 65.70248013558675,193.1588253145176 C 70.00301070140608,177.4194070459249 80.16082049840281,164.9306478566847 88.81962190937332,152.1275798969673 C 93.30736304504982,145.4919207544804 99.54463413487711,140.7157705321619 103.6614385613383,133.7323488561004 C 109.7054047560131,123.4798422609412 111.0615990148525,109.6361992615983 117.7066851201042,99.95140290578706 C 123.6791625885724,91.24689146596199 131.8097022396101,84.84037400800332 139.9955106427112,79.43040365447005 C 148.1276845102636,74.05588016616434 157.0951097263826,70.53446287613883 166.0970847179663,67.93242816528048 C 186.1097168651695,62.14774607592222 206.8076387523732,59.79436664386344 227.3659136039446,59.01125545767786 C 242.4991486719161,58.43479630677803 258.5570913690726,55.5978813807044 272.7154691472085,62.1327957045487 C 279.1111455137091,65.08477210700471 283.5628261744517,72.29045922155772 288.8244387047374,77.61318448778375 C 293.5209506832219,82.36424565527261 298.4495543688836,86.85709621054195 302.6157721966563,92.29278074250224 C 306.3982103465759,97.22774607426106 310.2316120034466,102.3611388008675 312.6725699345783,108.4226785167343 C 315.0462028105763,114.3170324362543 315.3375739540078,121.1490742766441 316.8691573616424,127.4437563849904 C 318.922656850852,135.8834707549634 323.3609680282358,143.7632923640096 323.5594661721605,152.5625925538011 C 323.8198271304291,164.1042331163219 318.6058007932198,174.8533335614305 316.2826884924838,186.0471578927852 C 313.5456602222231,199.2354198797514 308.4780839407694,212.118102092472 308.4348462747729,225.7211829695481 C 308.3876639784094,240.5652911933995 320.9593106029905,255.1757753008088 316.7231862673241,269.0942072923634 C 314.2960516853059,277.0689278003854 304.8894812955268,278.3157699817098 299.8230374203898,284.1679410019494 C 295.1013442057097,289.6218958622836 291.356007998708,296.2226858073988 287.4705558616731,302.5808435570193 C 283.7201271435296,308.71804884939 282.1927824840432,317.4471398578846 276.9142207269082,321.5933749455099 C 270.6698971968916,326.4982021522093 262.1059981917047,323.7639641676327 254.9432202686015,326.1691546331333 C 248.2253328866339,328.4249552251494 242.3107801425967,333.9133597006895 235.4421885082195,335.3452479837844 C 222.5639270539284,338.0299659965338 209.2094448433181,336.0735660824826 196.2629405117347,333.9305399278999 C 190.7913500364768,333.0248312365555 185.2213542718699,331.8524636243199 180.1740233128046,329.124358191929 z"
       id="path3955"
       inkscape:connector-curvature="0"
       transform="matrix(-0.9254906973869656,0,0,0.7595814358085339,430.8773966515282,55.68059681218262)"
       sodipodi:nodetypes="aaaaaaaaaaaaaaaaaaaaaaaaaaaaaaa" />
    <g
       id="g3039"
       transform="translate(-31.95543061912735,1.930018963339762)">
      <text
         transform="matrix(0.8263363708720451,0,0,0.8243938837313841,50.1162195830145,178.5752649022006)"
         sodipodi:linespacing="125%"
         id="text3959"
         y="82.615738"
         x="455.93616"
         style="font-size:14.5390300751px;font-style:normal;font-variant:normal;font-weight:normal;font-stretch:normal;text-align:center;line-height:125%;letter-spacing:0px;word-spacing:0px;writing-mode:lr-tb;text-anchor:middle;fill:#000000;fill-opacity:1;stroke:none;font-family:Latin modern Sans;-inkscape-font-specification:Latin modern Sans"
         xml:space="preserve"><tspan
           style="font-size:18.1737880707px;text-align:start;text-anchor:start;font-family:Latin Modern Sans;-inkscape-font-specification:Latin Modern Sans"
           y="82.615738"
           x="455.93616"
           id="tspan3961"
           sodipodi:role="line">Surface of the Earth</tspan></text>
      <path
         sodipodi:nodetypes="ccc"
         transform="matrix(0.4033802416586617,0,0,0.1043269756289598,402.4412980135196,230.8139350906406)"
         inkscape:connector-curvature="0"
         id="path3970"
         d="M 64.33087371845799,197.0000000000018 L 315.9685523053282,206.4556141486582 z"
         style="fill:#c8c8c8;fill-opacity:0.5882352941;stroke:#b4b4b4;stroke-width:14.6239805222;stroke-miterlimit:4;stroke-opacity:1;stroke-dasharray:none" />
    </g>
    <path
       style="fill:none;stroke:#000000;stroke-width:1px;stroke-linecap:butt;stroke-linejoin:miter;stroke-opacity:1;marker-end:url(#Arrow1Lend)"
       d="M 192.8571431407486,86.46932390592968 C 192.8571431407486,86.46932390592968 270.6573648648556,-19.90322827725686 411.7287936595878,33.311057521262"
       id="path3978"
       inkscape:connector-curvature="0"
       transform="translate(-0.7142857154163673,-6.428571438747213)"
       sodipodi:nodetypes="cc" />
    <path
       transform="matrix(0.941517396148178,0,0,0.7945283201570116,60.95057981372471,54.94919079342594)"
       d="M 329.3097229003906,190.1969909667969 C 329.3097229003906,259.6545259972097 273.0032656212332,315.9609832763672 203.5457305908203,315.9609832763672 C 134.0881955604075,315.9609832763672 77.78173828125,259.6545259972098 77.78173828125,190.1969909667969 C 77.78173828125,120.739455936384 134.0881955604074,64.43299865722657 203.5457305908203,64.43299865722656 C 273.0032656212331,64.43299865722653 329.3097229003906,120.739455936384 329.3097229003906,190.1969909667969 z"
       sodipodi:ry="125.7639923095703"
       sodipodi:rx="125.7639923095703"
       sodipodi:cy="190.1969909667969"
       sodipodi:cx="203.5457305908203"
       id="path4430"
       style="fill:none;stroke:#a0a0a0;stroke-width:3.46858525280000007;stroke-linecap:butt;stroke-linejoin:miter;stroke-miterlimit:4;stroke-opacity:1;stroke-dasharray:3.46858538170000008, 3.46858538170000008;stroke-dashoffset:0"
       sodipodi:type="arc" />
    <path
       style="fill:#dedede;fill-opacity:0.39215686270000000;stroke:#323232;stroke-width:3.57806372639999992;stroke-miterlimit:4;stroke-opacity:1;stroke-dasharray:none"
       d="M 171.5,335.9924384122459 C 159.904677044661,333.9998436060103 147.6049628516107,331.7128590927421 137.796286896291,323.9207734825523 C 127.757974215272,315.9462627383232 122.7494490365918,301.163985976398 114.6071619742429,290.4521256003549 C 106.8879724011129,280.2968853969072 97.02277546799388,272.4940588375462 90.3250745965642,261.314535173488 C 78.97201675470597,242.3644833215333 64.37900250134599,221.9612873992387 64.26361397156715,198.5018194005633 C 64.11853390276553,169.0058093740898 79.89213778873788,140.7997197613671 96.25192764396119,119.0536293426109 C 113.3370099946911,96.34345097853838 137.4549517748318,81.89557382480586 161.1970023068412,71.29122456258778 C 178.7228494419233,63.46333270101104 197.8897697258367,58.44614802164871 216.4845603777646,60.44148807009788 C 234.4389603280586,62.36811009759481 247.4786629564698,72.49392134998379 264.245127200934,81.34836764246472 C 273.1203995661085,86.03543948675779 286.7925340268212,86.87061896221757 294.5698205172257,93.60278950260783 C 301.9300950009479,99.9739863345153 307.247444001356,109.6897275379614 311.4046098793518,119.453711649929 C 317.480458101763,133.7241274214905 321.902939897977,149.6636347156144 322.5838885357028,165.7177937375807 C 323.2735614457105,181.9776376626388 318.8138881176971,198.0424417608235 315.2860223822669,213.746582495744 C 309.4125356801627,239.8921528467321 305.8358162954119,268.5697271402409 292.319721608231,290.1033547073802 C 285.499743521566,300.9688355680301 274.7864929452691,307.491344183725 264.8350059901779,313.8257409126491 C 249.2245262691573,323.7622430784064 232.4781627388403,331.931065880897 215.1374825996947,335.6906077465872 C 200.8164707849683,338.79547116858 185.9034483339383,338.467594684532 171.5,335.9924384122459 z"
       id="path4432"
       inkscape:connector-curvature="0"
       transform="matrix(-0.9254906973869656,0,0,0.7595814358085339,431.6368066375085,54.94919079342594)"
       sodipodi:nodetypes="aaaaaaasssaaaaaaa" />
    <path
       sodipodi:nodetypes="aaaaaaaaaaaaaaaaaaaaaaaaaaaaaaa"
       transform="matrix(-0.9254906973869656,0,0,0.7595814358085339,430.8773966515282,55.68059681218262)"
       inkscape:connector-curvature="0"
       id="path4434"
       d="M 180.1740233128046,329.124358191929 C 172.0315667887127,324.7233232575179 166.9453803850275,311.0664689939411 158.0386282915998,310.8847275892576 C 152.0615286459885,310.7627654560208 148.8144818437993,321.9261974765108 142.8559167369045,322.5119830919733 C 135.9463295548622,323.1912635407749 128.6368701957122,318.5740931567364 123.7028361154568,312.6427249249169 C 118.361658099315,306.2219152810977 117.3857842328181,296.0458868520398 114.658802640073,287.5297421539273 C 112.7561922995944,281.5880427281785 113.2637768435927,273.942852517643 109.5629759692377,269.4315249809804 C 105.2277296683228,264.1467996797466 97.69202540536052,265.3783508271747 92.16306843996727,262.1448597499656 C 82.18520725215499,256.3095231173306 69.24085572432227,252.4616454179997 64.10236334305652,240.5199811494787 C 58.0805659227762,226.5255489794108 61.60622067127662,208.1506362221968 65.70248013558675,193.1588253145176 C 70.00301070140608,177.4194070459249 80.16082049840281,164.9306478566847 88.81962190937332,152.1275798969673 C 93.30736304504982,145.4919207544804 99.54463413487711,140.7157705321619 103.6614385613383,133.7323488561004 C 109.7054047560131,123.4798422609412 111.0615990148525,109.6361992615983 117.7066851201042,99.95140290578706 C 123.6791625885724,91.24689146596199 131.8097022396101,84.84037400800332 139.9955106427112,79.43040365447005 C 148.1276845102636,74.05588016616434 157.0951097263826,70.53446287613883 166.0970847179663,67.93242816528048 C 186.1097168651695,62.14774607592222 206.8076387523732,59.79436664386344 227.3659136039446,59.01125545767786 C 242.4991486719161,58.43479630677803 258.5570913690726,55.5978813807044 272.7154691472085,62.1327957045487 C 279.1111455137091,65.08477210700471 283.5628261744517,72.29045922155772 288.8244387047374,77.61318448778375 C 293.5209506832219,82.36424565527261 298.4495543688836,86.85709621054195 302.6157721966563,92.29278074250224 C 306.3982103465759,97.22774607426106 310.2316120034466,102.3611388008675 312.6725699345783,108.4226785167343 C 315.0462028105763,114.3170324362543 315.3375739540078,121.1490742766441 316.8691573616424,127.4437563849904 C 318.922656850852,135.8834707549634 323.3609680282358,143.7632923640096 323.5594661721605,152.5625925538011 C 323.8198271304291,164.1042331163219 318.6058007932198,174.8533335614305 316.2826884924838,186.0471578927852 C 313.5456602222231,199.2354198797514 308.4780839407694,212.118102092472 308.4348462747729,225.7211829695481 C 308.3876639784094,240.5652911933995 320.9593106029905,255.1757753008088 316.7231862673241,269.0942072923634 C 314.2960516853059,277.0689278003854 304.8894812955268,278.3157699817098 299.8230374203898,284.1679410019494 C 295.1013442057097,289.6218958622836 291.356007998708,296.2226858073988 287.4705558616731,302.5808435570193 C 283.7201271435296,308.71804884939 282.1927824840432,317.4471398578846 276.9142207269082,321.5933749455099 C 270.6698971968916,326.4982021522093 262.1059981917047,323.7639641676327 254.9432202686015,326.1691546331333 C 248.2253328866339,328.4249552251494 242.3107801425967,333.9133597006895 235.4421885082195,335.3452479837844 C 222.5639270539284,338.0299659965338 209.2094448433181,336.0735660824826 196.2629405117347,333.9305399278999 C 190.7913500364768,333.0248312365555 185.2213542718699,331.8524636243199 180.1740233128046,329.124358191929 z"
       style="fill:none;stroke:#b4b4b4;stroke-width:3.57806372639999992;stroke-miterlimit:4;stroke-opacity:1;stroke-dasharray:none" />
    <g
       id="g4684"
       transform="matrix(3.614139561698751,0,0,3.254066768722797,52.74445704044403,-1200.787232834421)">
      <path
         style="fill:#dedede;fill-opacity:0.3921568627;stroke:none"
         d="M 239.7261828820511,69.58040206435049 C 247.7472055529332,71.73822777375261 250.3405449073074,75.74994149642509 257.9850072230682,79.27917878540262 C 269.1655276809755,84.44091653494568 285.0863103710404,84.97422246827129 294.5698205172264,93.60278950260772 C 298.0714949382141,96.78878624939943 306.2856146458092,105.8600190648248 302.9904020645691,105.8459010764419 L 239.9471465413233,105.5757989427669"
         id="path4446"
         inkscape:connector-curvature="0"
         transform="matrix(-1.164572090085937,0,0,0.9560155585875509,452.0760347436147,335.000000353518)"
         sodipodi:nodetypes="csssc" />
      <path
         sodipodi:nodetypes="csasc"
         transform="matrix(-1.164572090085937,0,0,0.9560155585875509,451.1204468840043,335.9205540961613)"
         inkscape:connector-curvature="0"
         id="path4448"
         d="M 238.9230044385008,58.34107608668762 C 250.5090845824351,57.60352359198646 262.0762504762188,57.22217786562328 272.7154691472086,62.13279570454864 C 279.1111455137092,65.08477210700482 283.5628261744517,72.29045922155768 288.8244387047375,77.61318448778399 C 293.5209506832219,82.36424565527272 298.4495543688836,86.85709621054201 302.6157721966564,92.29278074250224 C 303.8479056455259,93.90035120717755 305.0854470252511,95.52897755468694 306.2785025321078,97.20388377268453"
         style="fill:none;stroke:#b4b4b4;stroke-width:0.8290675282;stroke-linejoin:bevel;stroke-miterlimit:4;stroke-opacity:1;stroke-dasharray:none;marker-start:none" />
      <rect
         style="fill:#ffffff;fill-opacity:1;fill-rule:nonzero;stroke:none"
         id="rect4697"
         width="5.934646129608154"
         height="7.039500713348389"
         x="416.088134765625"
         y="159.5135955810547"
         transform="matrix(0.3774040972604343,0,0,0.3774040972604337,-64.49060837976337,366.7110086294586)" />
      <path
         sodipodi:nodetypes="cssc"
         transform="matrix(-1.164572090085937,0,0,0.9560155585875509,452.0760347436147,335.000000353518)"
         inkscape:connector-curvature="0"
         id="path4679"
         d="M 239.2351410913529,69.77978988092438 C 247.7303583771194,72.06518402807357 249.2247572154863,74.21209152369533 257.2525138646429,78.10598586705077 C 267.8901483350499,83.26581151963239 285.3227586985287,85.59835283465025 294.5698205172259,93.60278950260749 C 297.230967608094,95.90633021322577 302.3356910330823,102.8735884248895 304.5044475874848,105.8957480306374"
         style="fill:none;stroke:#323232;stroke-width:0.8290675282;stroke-miterlimit:4;stroke-opacity:1;stroke-dasharray:none" />
      <path
         inkscape:connector-curvature="0"
         id="path4682"
         d="M 121.2500002559046,436.1121813165592 C 121.2500002559046,436.1121813165592 137.6785717191494,420.3978955691076 172.8571432219671,407.8978955427257"
         style="fill:none;stroke:#a0a0a0;stroke-width:0.8747935295;stroke-linecap:butt;stroke-linejoin:miter;stroke-miterlimit:4;stroke-opacity:1;stroke-dasharray:0.874793536, 0.874793536;stroke-dashoffset:0" />
      <path
         id="rect4442"
         d="M 72.14286041259765,31.64789581298828 L 150.7142868041992,31.64789581298828 L 150.7142868041992,110.2193222045899 L 72.14286041259765,110.2193222045899 z"
         style="fill:none;stroke:#000000;stroke-width:0.3435682654;stroke-linecap:butt;stroke-linejoin:miter;stroke-miterlimit:4;stroke-opacity:1;stroke-dashoffset:0"
         transform="matrix(0.9939958437279734,0,0,0.7246995092999114,23.04776929662337,356.2126816177953)"
         inkscape:connector-curvature="0" />
      <rect
         style="fill:#ffffff;fill-opacity:1;fill-rule:nonzero;stroke:none"
         id="rect4699"
         width="7.607711315155029"
         height="2.904188632965088"
         x="428.0205688476562"
         y="183.9466705322266"
         transform="matrix(0.3774040972604342,0,0,0.3774040972604338,-64.70505346690811,366.6990950135062)" />
      <rect
         transform="matrix(0.3774040972604343,0,0,0.3774040972604337,-41.49732961595496,366.6990950135062)"
         y="183.9466705322266"
         x="428.0205688476562"
         height="2.904188632965088"
         width="7.607711315155029"
         id="rect4701"
         style="fill:#ffffff;fill-opacity:1;fill-rule:nonzero;stroke:none" />
      <path
         inkscape:connector-curvature="0"
         transform="matrix(0.9939958437279734,0,0,0.7246995092999114,23.04776929662337,356.2126816177953)"
         style="fill:none;stroke:#000000;stroke-width:0.3435682654;stroke-linecap:butt;stroke-linejoin:miter;stroke-miterlimit:4;stroke-opacity:1;stroke-dashoffset:0"
         d="M 72.14286041259765,31.64789581298828 L 150.7142868041992,31.64789581298828 L 150.7142868041992,110.2193222045899 L 72.14286041259765,110.2193222045899 z"
         id="path4693" />
    </g>
    <path
       style="fill:none;stroke:#000000;stroke-width:0.7726408839px;stroke-linecap:butt;stroke-linejoin:miter;stroke-opacity:1;marker-start:url(#Arrow1Mstart);marker-end:url(#Arrow1Mend)"
       d="M 569.4734980429897,134.1335179234799 L 534.7396366206121,73.67063109294031"
       id="path4703"
       inkscape:connector-curvature="0"
       sodipodi:nodetypes="cc"
       transform="matrix(1.363991078656138,0,0,1.228098131275005,-181.1086365361414,-7.523893630246221)" />
    <path
       sodipodi:nodetypes="cc"
       inkscape:connector-curvature="0"
       id="path5635"
       d="M 569.4734980429897,134.1335179234799 L 534.7396366206121,73.67063109294031"
       style="fill:none;stroke:#000000;stroke-width:1.0700041056px;stroke-linecap:butt;stroke-linejoin:miter;stroke-opacity:1;marker-start:url(#Arrow1Mstart);marker-end:url(#Arrow1Mend)"
       transform="matrix(0.9826714674638548,0,0,0.8888341686432067,13.69076059432243,20.77261430015869)" />
    <path
       transform="matrix(0.3145244166417904,0,0,0.2943720917905587,406.7570758851653,121.0953271283231)"
       style="fill:none;stroke:#000000;stroke-width:3.2864310741px;stroke-linecap:butt;stroke-linejoin:miter;stroke-opacity:1;marker-start:url(#Arrow1Mstart);marker-end:url(#Arrow1Mend)"
       d="M 569.4734980429897,134.1335179234799 L 534.7396366206121,73.67063109294031"
       id="path5637"
       inkscape:connector-curvature="0"
       sodipodi:nodetypes="cc" />
    <text
       xml:space="preserve"
       style="font-size:20px;font-style:normal;font-variant:normal;font-weight:normal;font-stretch:normal;text-align:center;line-height:125%;letter-spacing:0px;word-spacing:0px;writing-mode:lr-tb;text-anchor:middle;fill:#000000;fill-opacity:1;stroke:none;font-family:Latin Modern Math;-inkscape-font-specification:Latin Modern Math"
       x="530.07758"
       y="104.8391"
       id="text5639"
       sodipodi:linespacing="125%"
       transform="matrix(1.22767519268273,0,0,1.228098131275005,-105.8456716810199,-3.471301027327172)"><tspan
         sodipodi:role="line"
         id="tspan5641"
         x="530.07758"
         y="104.8391"
         style="font-size:16.28814888px;font-family:Latin Modern Math;-inkscape-font-specification:Latin Modern Math">H</tspan></text>
    <text
       sodipodi:linespacing="125%"
       id="text5643"
       y="104.8391"
       x="530.07758"
       style="font-size:20px;font-style:normal;font-variant:normal;font-weight:normal;font-stretch:normal;text-align:center;line-height:125%;letter-spacing:0px;word-spacing:0px;writing-mode:lr-tb;text-anchor:middle;fill:#000000;fill-opacity:1;stroke:none;font-family:Latin Modern Math;-inkscape-font-specification:Latin Modern Math"
       xml:space="preserve"
       transform="matrix(1.22767519268273,0,0,1.228098131275005,-85.84567168101992,36.52869897267283)"><tspan
         style="font-size:16.28814888px;font-family:Latin Modern Math;-inkscape-font-specification:Latin Modern Math"
         y="104.8391"
         x="530.07758"
         id="tspan5645"
         sodipodi:role="line">N</tspan></text>
    <text
       xml:space="preserve"
       style="font-size:12px;font-style:normal;font-variant:normal;font-weight:normal;font-stretch:normal;text-align:center;line-height:125%;letter-spacing:0px;word-spacing:0px;writing-mode:lr-tb;text-anchor:middle;fill:#000000;fill-opacity:1;stroke:none;font-family:Latin Modern Math;-inkscape-font-specification:Latin Modern Math"
       x="561.89734"
       y="100.79848"
       id="text5647"
       sodipodi:linespacing="125%"
       transform="matrix(1.22767519268273,0,0,1.228098131275005,-109.9100054390672,-3.50901514171511)"><tspan
         sodipodi:role="line"
         id="tspan5649"
         x="561.89734"
         y="100.79848"
         style="font-size:16.28814888px">h</tspan></text>
    <text
       transform="matrix(0.8263363708720451,0,0,0.8243938837313841,216.4646795595568,182.7237181220734)"
       sodipodi:linespacing="125%"
       id="text5651"
       y="82.615738"
       x="387.03217"
       style="font-size:14.5390300751px;font-style:normal;font-variant:normal;font-weight:normal;font-stretch:normal;text-align:start;line-height:125%;letter-spacing:0px;word-spacing:0px;writing-mode:lr-tb;text-anchor:start;fill:#000000;fill-opacity:1;stroke:none;font-family:Latin Modern Math;-inkscape-font-specification:Latin Modern Math"
       xml:space="preserve"><tspan
         style="font-size:18.1737880707px;text-align:start;text-anchor:start;font-family:Latin Modern Math;-inkscape-font-specification:Latin Modern Math"
         y="82.615738"
         x="387.03217"
         id="tspan5653"
         sodipodi:role="line">h = <tspan
   style="font-size:18.1737880707px;font-style:normal;font-variant:normal;font-weight:normal;font-stretch:normal;font-family:Latin Modern Sans;-inkscape-font-specification:Latin Modern Sans"
   id="tspan3031">ellipsodial height</tspan></tspan></text>
    <text
       xml:space="preserve"
       style="font-size:14.5390300751px;font-style:normal;font-variant:normal;font-weight:normal;font-stretch:normal;text-align:start;line-height:125%;letter-spacing:0px;word-spacing:0px;writing-mode:lr-tb;text-anchor:start;fill:#000000;fill-opacity:1;stroke:none;font-family:Latin Modern Math;-inkscape-font-specification:Latin Modern Math"
       x="398.60593"
       y="82.615738"
       id="text5655"
       sodipodi:linespacing="125%"
       transform="matrix(0.8263363708720451,0,0,0.8243938837313841,206.5043936402822,211.3637795871555)"><tspan
         sodipodi:role="line"
         id="tspan5657"
         x="398.60593"
         y="82.615738"
         style="font-size:18.1737880707px;text-align:start;text-anchor:start;font-family:Latin Modern Math;-inkscape-font-specification:Latin Modern Math">N = <tspan
   style="font-size:18.1737880707px;font-style:normal;font-variant:normal;font-weight:normal;font-stretch:normal;font-family:Latin Modern Sans;-inkscape-font-specification:Latin Modern Sans"
   id="tspan3037">geodial height</tspan></tspan></text>
    <text
       transform="matrix(0.8263363708720451,0,0,0.8243938837313841,217.756190931467,240.0038364280102)"
       sodipodi:linespacing="125%"
       id="text5659"
       y="82.615738"
       x="384.98944"
       style="font-size:14.5390300751px;font-style:normal;font-variant:normal;font-weight:normal;font-stretch:normal;text-align:start;line-height:125%;letter-spacing:0px;word-spacing:0px;writing-mode:lr-tb;text-anchor:start;fill:#000000;fill-opacity:1;stroke:none;font-family:Latin Modern Math;-inkscape-font-specification:Latin Modern Math"
       xml:space="preserve"><tspan
         style="font-size:18.1737880707px;text-align:start;text-anchor:start;font-family:Latin Modern Math;-inkscape-font-specification:Latin Modern Math"
         y="82.615738"
         x="384.98944"
         id="tspan5661"
         sodipodi:role="line">H =<tspan
   style="font-size:18.1737880707px;font-style:normal;font-variant:normal;font-weight:normal;font-stretch:normal;font-family:Latin Modern Sans;-inkscape-font-specification:Latin Modern Sans"
   id="tspan3039"> orthometric height</tspan></tspan></text>
    <rect
       style="fill:none;stroke:#000000;stroke-width:1.47568547730000010;stroke-linecap:butt;stroke-linejoin:miter;stroke-miterlimit:4;stroke-opacity:1;stroke-dasharray:none;stroke-dashoffset:0"
       id="rect3972"
       width="78.57142639160156"
       height="78.57142639160156"
       x="72.14286041259766"
       y="31.64789581298828"
       transform="matrix(0.7947045144441603,0,0,0.5778387718270009,89.96696950743312,71.73856305847459)" />
  </g>
</svg>
