<?xml version="1.0" encoding="UTF-8" standalone="no"?>
<!-- Created with Inkscape (http://www.inkscape.org/) -->

<svg
   xmlns:dc="http://purl.org/dc/elements/1.1/"
   xmlns:cc="http://creativecommons.org/ns#"
   xmlns:rdf="http://www.w3.org/1999/02/22-rdf-syntax-ns#"
   xmlns:svg="http://www.w3.org/2000/svg"
   xmlns="http://www.w3.org/2000/svg"
   xmlns:sodipodi="http://sodipodi.sourceforge.net/DTD/sodipodi-0.dtd"
   xmlns:inkscape="http://www.inkscape.org/namespaces/inkscape"
   width="412.5794677734375"
   height="136.9722595214844"
   id="svg4683"
   version="1.1"
   inkscape:version="0.48.4 r9939"
   sodipodi:docname="models.svg">
  <sodipodi:namedview
     id="base"
     pagecolor="#ffffff"
     bordercolor="#666666"
     borderopacity="1.0"
     inkscape:pageopacity="0.0"
     inkscape:pageshadow="2"
     inkscape:zoom="2.729166671110574"
     inkscape:cx="243.2340936486656"
     inkscape:cy="33.98201912793425"
     inkscape:document-units="px"
     inkscape:current-layer="g4788"
     showgrid="true"
     inkscape:window-width="1600"
     inkscape:window-height="834"
     inkscape:window-x="0"
     inkscape:window-y="27"
     inkscape:window-maximized="1"
     inkscape:snap-global="true"
     fit-margin-top="0"
     fit-margin-left="0"
     fit-margin-right="0"
     fit-margin-bottom="0">
    <inkscape:grid
       snapvisiblegridlinesonly="true"
       enabled="true"
       visible="true"
       empspacing="5"
       id="grid4691"
       type="xygrid"
       originx="-4.342614048132425px"
       originy="-53.0599923931066px" />
  </sodipodi:namedview>
  <defs
     id="defs4685">
    <marker
       style="overflow:visible"
       id="Arrow1Mend"
       refX="0"
       refY="0"
       orient="auto"
       inkscape:stockid="Arrow1Mend">
      <path
         transform="matrix(-0.4,0,0,-0.4,-4,0)"
         style="fill-rule:evenodd;stroke:#000000;stroke-width:1pt"
         d="M 0,0 L 5,-5 L -12.5,0 L 5,5 L 0,0 z"
         id="path5916"
         inkscape:connector-curvature="0" />
    </marker>
    <marker
       style="overflow:visible"
       id="Arrow1Sstart"
       refX="0"
       refY="0"
       orient="auto"
       inkscape:stockid="Arrow1Sstart">
      <path
         transform="matrix(0.2,0,0,0.2,1.2,0)"
         style="fill-rule:evenodd;stroke:#000000;stroke-width:1pt"
         d="M 0,0 L 5,-5 L -12.5,0 L 5,5 L 0,0 z"
         id="path5919"
         inkscape:connector-curvature="0" />
    </marker>
    <marker
       style="overflow:visible"
       id="Arrow2Lstart"
       refX="0"
       refY="0"
       orient="auto"
       inkscape:stockid="Arrow2Lstart">
      <path
         transform="matrix(1.1,0,0,1.1,1.1,0)"
         d="M 8.718587799999999,4.0337352 L -2.2072895,0 L 8.718588399999999,-4.001707800000001 C 6.97309,-1.6296469 6.9831476,1.6157441 8.718587799999999,4.0337352 z"
         style="fill-rule:evenodd;stroke-width:0.625;stroke-linejoin:round"
         id="path5925"
         inkscape:connector-curvature="0" />
    </marker>
    <marker
       style="overflow:visible"
       id="Arrow1Mstart"
       refX="0"
       refY="0"
       orient="auto"
       inkscape:stockid="Arrow1Mstart">
      <path
         transform="matrix(0.4,0,0,0.4,4,0)"
         style="fill-rule:evenodd;stroke:#000000;stroke-width:1pt"
         d="M 0,0 L 5,-5 L -12.5,0 L 5,5 L 0,0 z"
         id="path5913"
         inkscape:connector-curvature="0" />
    </marker>
    <marker
       style="overflow:visible"
       id="Arrow1Lstart"
       refX="0"
       refY="0"
       orient="auto"
       inkscape:stockid="Arrow1Lstart">
      <path
         transform="matrix(0.8,0,0,0.8,10,0)"
         style="fill-rule:evenodd;stroke:#000000;stroke-width:1pt"
         d="M 0,0 L 5,-5 L -12.5,0 L 5,5 L 0,0 z"
         id="path5907"
         inkscape:connector-curvature="0" />
    </marker>
    <linearGradient
       id="id33"
       gradientUnits="userSpaceOnUse"
       x1="17.50180053710938"
       y1="19.34230041503906"
       x2="16.8257999420166"
       y2="19.02109909057617">
      <stop
         offset="0"
         style="stop-color:#666666"
         id="stop16343" />
      <stop
         offset="1"
         style="stop-color:#B3B3B3"
         id="stop16345" />
    </linearGradient>
    <linearGradient
       id="id29"
       gradientUnits="userSpaceOnUse"
       x1="26.22439956665039"
       y1="2.403670072555542"
       x2="24.27639961242676"
       y2="0.7442539930343628">
      <stop
         offset="0"
         style="stop-color:gray"
         id="stop16323" />
      <stop
         offset="1"
         style="stop-color:#E6E6E6"
         id="stop16325" />
    </linearGradient>
    <linearGradient
       id="linearGradient4724"
       gradientUnits="userSpaceOnUse"
       x1="26.22439956665039"
       y1="2.403670072555542"
       x2="24.27639961242676"
       y2="0.7442539930343628">
      <stop
         offset="0"
         style="stop-color:gray"
         id="stop4726" />
      <stop
         offset="1"
         style="stop-color:#E6E6E6"
         id="stop4728" />
    </linearGradient>
    <marker
       style="overflow:visible"
       id="Arrow1MstartK"
       refX="0"
       refY="0"
       orient="auto"
       inkscape:stockid="Arrow1MstartK">
      <path
         transform="matrix(0.4,0,0,0.4,4,0)"
         style="fill:#141414;fill-rule:evenodd;stroke:#141414;stroke-width:1pt"
         d="M 0,0 L 5,-5 L -12.5,0 L 5,5 L 0,0 z"
         id="path13724"
         inkscape:connector-curvature="0" />
    </marker>
    <marker
       style="overflow:visible"
       id="Arrow1MendF"
       refX="0"
       refY="0"
       orient="auto"
       inkscape:stockid="Arrow1MendF">
      <path
         transform="matrix(-0.4,0,0,-0.4,-4,0)"
         style="fill:#141414;fill-rule:evenodd;stroke:#141414;stroke-width:1pt"
         d="M 0,0 L 5,-5 L -12.5,0 L 5,5 L 0,0 z"
         id="path13727"
         inkscape:connector-curvature="0" />
    </marker>
  </defs>
  <metadata
     id="metadata4688">
    <rdf:RDF>
      <cc:Work
         rdf:about="">
        <dc:format>image/svg+xml</dc:format>
        <dc:type
           rdf:resource="http://purl.org/dc/dcmitype/StillImage" />
      </cc:Work>
    </rdf:RDF>
  </metadata>
  <g
     transform="translate(-4.342614048132427,-862.3299245669542)"
     id="layer1"
     inkscape:groupmode="layer"
     inkscape:label="Layer 1">
    <g
       id="g4783">
      <g
         id="g4788">
        <g
           id="g13993"
           transform="translate(0,15.01974592269028)">
          <circle
             d="M 9.076740264892578,0 C 9.076740264892578,5.012945226475287 5.012945226475288,9.076740264892578 0,9.076740264892578 C -5.012945226475285,9.076740264892578 -9.076740264892578,5.012945226475288 -9.076740264892578,0 C -9.076740264892578,-5.012945226475285 -5.012945226475289,-9.076740264892576 0,-9.076740264892578 C 5.012945226475284,-9.076740264892579 9.076740264892576,-5.012945226475289 9.076740264892578,0 z"
             style="fill:#b4b4b4;fill-opacity:1;fill-rule:evenodd;stroke:#323232;stroke-width:0.1834010631;stroke-miterlimit:4;stroke-opacity:1;stroke-dasharray:none"
             sodipodi:ry="9.076740264892578"
             sodipodi:rx="9.076740264892578"
             sodipodi:cy="0"
             sodipodi:cx="0"
             cy="0"
             cx="0"
             class="fil3"
             transform="matrix(2.377903799418374,1.333453049786755,-1.333452874459925,2.377904112073094,29.34263553878709,887.3621826123586)"
             r="9.076740264892578"
             id="circle16392" />
          <path
             transform="matrix(2.371396413597796,-1.198821765778609,1.199108168280818,2.371524072722844,-33.54120687366842,888.9494512972994)"
             style="fill:#323232;fill-opacity:1;fill-rule:evenodd"
             inkscape:connector-curvature="0"
             class="fil68"
             d="M 26.8949,2.64702 C 29.70862,4.72952 31.11283,8.24117 30.52786,11.67784 L 30.399321,11.721509 L 30.3214542,11.937 L 30.2145572,11.9966804 L 30.0968472,11.8193514 C 30.0968472,11.8193514 30.1738965,11.7464053 30.1896302,11.6104774 C 30.205364,11.4745494 30.1680348,11.3775864 30.1680348,11.3775864 C 30.1680348,11.3775864 29.9691408,11.5035954 29.8962108,11.5069274 C 29.8232801,11.51027469 29.9102787,11.3345504 29.9102787,11.3345504 L 29.96991280000001,11.1198764 C 29.96991280000001,11.1198764 29.90267400000001,10.5273144 29.87780850000001,10.4626674 C 29.85292750000001,10.3980046 29.79739650000001,10.3823017 29.79739650000001,10.3823017 L 29.63663450000001,10.4627291 L 29.55376990000001,10.5688091 L 29.39550690000001,10.7843311 L 28.88338790000001,11.1731101 L 28.73589090000001,11.3844671 L 28.56693790000001,12.0060901 L 28.37803990000001,12.3508911 L 28.22554590000001,12.3724711 L 28.18904970000001,12.2133441 L 28.17562970000001,11.2784951 C 28.17562970000001,11.2784951 28.20035640000001,10.4588111 28.20199150000001,10.4148951 C 28.20362658000001,10.3709793 28.28815710000001,10.2209381 28.30804050000001,10.1761731 C 28.32792370000001,10.1314244 28.11906550000001,10.0386411 28.11906550000001,10.0386411 L 27.65482650000001,9.394759099999998 L 27.64234750000001,9.121253099999998 C 27.64234750000001,9.121253099999998 27.38790750000001,9.070750699999999 27.34314350000001,9.050867599999998 C 27.29839480000001,9.030984399999997 26.86489850000001,8.820552599999999 26.83008350000001,8.778287599999998 C 26.79526860000001,8.736006899999999 26.64357650000001,8.615057599999998 26.64357650000001,8.615057599999998 L 26.46121850000001,8.462578599999998 L 26.23079550000002,8.378094399999998 C 26.23079550000002,8.378094399999998 26.09983450000002,8.230582399999997 26.06085550000002,8.177550399999997 C 26.02189120000002,8.124502899999997 25.93152950000002,7.986122400000001 25.90499850000001,7.885010399999998 C 25.87846700000001,7.783913399999998 25.81543930000001,7.604085399999998 25.78394050000001,7.554354399999998 C 25.75244210000001,7.504623299999998 25.50711850000001,7.493902699999998 25.50711850000001,7.493902699999998 L 25.48974960000001,7.6737617 L 25.59090860000001,7.968769700000001 L 25.81722860000001,8.283676699999999 L 25.75674610000001,8.480117699999999 L 25.79324230000001,8.558848299999999 C 25.79324230000001,8.558848299999999 25.95898730000001,8.507420399999999 25.99793530000001,8.480071399999998 C 26.03688410000001,8.452737799999999 26.18441130000001,8.562920599999998 26.18441130000001,8.562920599999998 L 26.47945030000001,8.5421428 L 26.42644900000001,8.741884800000001 L 26.59472300000001,8.9059638 L 26.82766000000001,9.2059238 L 26.49371800000001,9.4952558 L 26.37107200000001,9.610466800000001 L 26.29733920000001,9.756343800000001 L 25.94265020000001,9.9113828 L 25.63846420000001,9.811982300000002 L 25.51335020000001,9.952892300000002 L 25.33350720000001,10.01592 L 24.12763720000001,10.016135954 L 23.91874820000001,9.842955954 L 24.00728930000001,9.060554954 L 23.98237750000001,8.754748954 L 23.83232050000001,8.429059953999999 L 23.87282730000001,7.875430954 L 23.68962130000001,7.624337954 L 23.63902640000001,7.316032954 L 23.57263600000001,6.902480954 L 23.36465700000001,7.149500954 L 23.44429770000001,7.613616954000002 L 23.38051420000001,7.817492954000003 L 23.45182530000001,7.938488954000002 L 23.40551860000001,8.525266953999999 L 23.56634260000001,8.766425953999997 L 23.52995440000001,9.250439953999999 L 23.89557940000001,9.975550953999999 L 23.87156220000001,10.170325954 L 24.02327020000001,10.371702954 L 25.07419020000001,10.579542954 L 25.05102140000001,10.712138954 L 23.74586140000001,11.740068954 L 23.11686440000001,11.969750954 L 22.50941740000001,12.271530954 L 21.87133540000001,12.702605954 L 21.70404840000001,13.521471954 L 21.60632930000001,13.942519954 L 21.26000130000001,14.440663954 L 20.90773430000001,14.328845954 L 20.47846430000001,14.531132954 L 20.22570530000001,14.597477054 L 20.11968730000001,14.996976054 L 19.95644130000001,15.183483054 L 19.67631830000001,15.130481754 L 19.09458530000001,15.595538754 L 18.35204330000001,15.819436754 L 17.24969330000001,15.445851754 L 17.33666100000001,15.189745754 L 17.21228700000001,14.866539754 L 17.2122561494,14.625349754 L 17.04893314940001,14.329508754 L 17.13830724940001,13.565355754 L 17.01219024940001,12.803732754 L 17.1629572494,12.263338754 L 17.59468024940001,11.874559754 L 17.7545172494,11.213169754 L 17.7478072494,10.745737754 L 17.5172452494,9.857318753999997 L 17.83624024940001,9.320210753999997 L 18.06157224940001,8.893362753999998 L 17.88254624940001,8.733433753999998 L 17.58249424940001,8.564403753999998 L 17.34786024940001,8.067185753999998 L 16.54145724940001,8.012626553999998 L 16.3234212494,7.719268554000001 L 15.74576024940001,7.632347154 L 15.48783424940001,6.704995154 L 15.60879924940001,6.472906154000003 L 15.62113944940001,5.942477154 L 15.78932144940001,5.543811154000001 L 16.29149144940001,5.097018153999999 L 16.54085644940001,4.636157154000001 L 17.41431244940001,4.157804153999999 L 18.15356844940001,4.021753153999998 L 18.40796244940001,3.750700153999998 L 19.16375444940001,3.577397153999998 L 19.52598644940001,3.827626153999998 L 20.59929644940001,4.045400154000001 L 21.07923844940001,4.472973153999999 L 20.80909544940001,4.719176153999998 L 21.10920944940001,5.290143153999999 L 21.68198044940001,5.669620153999997 L 21.94300744940001,5.464047153999997 L 22.08970144940001,5.475616153999999 L 22.44115144940001,5.810391153999996 L 22.66080744940001,5.899024753999996 L 22.97329244940001,6.180767753999997 L 23.27581344940001,6.163306353999995 L 23.64467844940001,6.479015353999995 L 23.87126044940001,6.280461353999998 L 24.11652244940001,6.049992353999996 L 24.15581064940001,5.870966353999995 L 24.19061004940001,5.752438353999997 C 24.19061004940001,5.752438353999997 23.97595204940001,5.692788853999998 23.93202104940001,5.691153753999995 C 23.88808984940001,5.689503253999995 23.65601704940001,5.568537753999995 23.65601704940001,5.568537753999995 L 23.57145564940001,5.477389753999998 L 23.40902764940001,5.521351753999995 L 23.14127564940001,5.259491753999999 L 23.17192564940001,5.130196753999999 L 23.13626244940001,4.989317753999999 L 23.09231584940001,4.826873753999996 L 23.19091424940001,4.745644253999996 L 22.93729224940001,4.632978253999996 L 22.77319824940001,4.640459513999998 C 22.77319824940001,4.640459513999998 22.85859254940001,4.830236513999996 22.83870944940001,4.874985513999996 C 22.81882624940001,4.919749713999999 22.75999424940001,4.991862513999995 22.75999424940001,4.991862513999995 L 22.92743524940001,5.137693513999995 L 22.66221324940001,5.091340513999996 L 22.45002324940001,5.006007913999996 L 22.43175974940001,4.765666913999996 L 22.39691404940001,4.562608913999995 L 22.42504974940001,4.378615913999995 L 22.52944774940001,4.183840913999995 L 22.38687174940001,4.022260913999995 L 22.18213174940001,3.779451913999995 L 22.13650374940001,3.500161913999995 L 21.98896074940001,3.470360313999995 L 21.90859504940001,3.631153313999995 C 21.90859504940001,3.631153313999995 22.05777304940001,3.697435713999995 22.01552304940001,3.732250313999995 C 21.97327324940001,3.767065213999996 21.88209404940001,3.771199113999995 21.91774224940001,3.831712513999995 C 21.95340544940001,3.892210413999995 22.17224424940001,4.123404513999997 22.17224424940001,4.123404513999997 L 22.28332124940001,4.315649513999995 C 22.28332124940001,4.315649513999995 22.21705424940001,4.464842513999998 22.17477324940001,4.419276513999998 C 22.13249254940001,4.373710213999999 22.11672794940001,4.268448513999996 22.07777914940001,4.295812513999996 C 22.03883034940001,4.323176913999995 21.93858114940001,4.448337513999995 21.93858114940001,4.448337513999995 L 21.88636654940001,4.505519013999998 L 21.78275454940001,4.396971013999996 L 21.87803644940001,4.242795013999996 L 21.73544544940001,4.000819013999996 L 21.58123944940001,3.744759013999996 L 21.50332634940001,3.638679013999996 C 21.50332634940001,3.638679013999996 21.55882644940001,3.493635013999996 21.52152814940001,3.477068013999995 C 21.48422984940001,3.460501313999996 21.35906914940002,3.360237013999995 21.35906914940002,3.360237013999995 L 21.20242514940002,3.371034713999995 L 20.96453614940002,3.202821713999995 L 20.77809114940002,3.361161713999995 L 20.63472814940002,3.422508013999995 L 20.41757114940002,3.388572413999995 L 20.14658014940002,3.455749513999995 L 19.92780314940002,3.626522513999995 L 19.66508014940002,3.634852163999995 L 19.47445414940002,3.541236163999995 L 19.27224414940002,3.594314563999995 L 19.21749984940002,3.436020563999995 C 19.21749984940002,3.436020563999995 19.26474744940001,3.349824163999995 19.23075014940001,3.325791563999995 C 19.19676824940001,3.301758963999995 19.17600584940002,3.087116563999995 19.17600584940002,3.087116563999995 L 19.50416284940002,2.911345563999995 C 19.50416284940002,2.911345563999995 19.59782514940001,2.881528463999995 19.66162384940002,2.838399463999995 C 19.72543824940002,2.795285863999995 19.82485384940002,2.651892463999995 19.82485384940002,2.651892463999995 C 19.82485384940002,2.651892463999995 20.06357584940002,2.757941463999995 20.11662284940002,2.799358463999995 C 20.16967034940002,2.840790763999994 20.38019484940002,2.970039463999995 20.38019484940002,2.970039463999995 C 20.38019484940002,2.970039463999995 20.49708784940002,3.048770063999995 20.55590384940002,2.976656903999995 C 20.61473584940002,2.904528303999994 20.80531484940001,2.676588903999995 20.80531484940001,2.676588903999995 L 20.71330304940001,2.501727903999995 L 20.74643654940001,2.427131303999995 L 20.99094254940002,2.500015703999995 C 20.99094254940002,2.500015703999995 21.17825154940002,2.520716403999994 21.22301554940002,2.540599603999995 C 21.26776424940002,2.560482803999995 21.41444354940001,2.572051703999995 21.41444354940001,2.572051703999995 C 21.41444354940001,2.572051703999995 21.46997454940001,2.507388903999995 21.52882154940001,2.515672303999995 C 21.58765354940001,2.523955673999995 21.91752354940001,2.545443103999995 21.91752354940001,2.545443103999995 C 21.91752354940001,2.545443103999995 21.95728994940001,2.455930203999995 22.05011954940001,2.488230703999995 C 22.14294884940001,2.520546703999995 22.26561054940001,2.566112903999995 22.26561054940001,2.566112903999995 L 22.41313754940001,2.595914503999995 L 22.56314854940001,2.519636503999995 L 22.62279804940001,2.385359503999995 L 22.86313904940001,2.367096003999995 L 22.84905574940001,2.459092403999995 L 22.75707484940001,2.525405703999995 L 22.76455610940001,2.609103303999995 L 22.99496310940001,2.693603003999994 C 22.99496310940001,2.693603003999994 23.10105810940001,2.776467603999995 23.14997210940001,2.807133003999994 C 23.19887020940001,2.837783003999994 23.44587510940001,2.965365003999994 23.44587510940001,2.965365003999994 L 23.62403710940001,2.865887403999994 L 23.86767910940001,2.759761403999994 L 24.02598910940001,2.785413603999994 L 24.10057030940001,2.738181403999994 L 24.00524210940001,2.651167403999994 L 24.04250960940001,2.506956403999994 L 24.13530810940001,2.378479403999994 L 24.16182420940001,2.318799003999994 L 23.95046720940001,2.251699003999994 L 23.80295520940001,2.302278503999994 L 23.75077150940001,2.359475403999995 L 23.77480410940001,2.486286403999995 C 23.77480410940001,2.486286403999995 23.73422020940001,2.557566603999994 23.67952220940001,2.560065503999994 C 23.62482420940001,2.562548973999994 23.50051220940001,2.560913893999994 23.50051220940001,2.560913893999994 L 23.31320320940001,2.620625093999994 L 23.13336020940001,2.603240793999995 L 23.00241520940001,2.616537393999994 L 22.98748350940001,2.529507993999994 L 23.04299910940001,2.464845193999995 L 23.06285140940001,2.339700193999995 L 23.10013430940001,2.195489193999995 L 22.96008830940001,2.249385093999995 L 22.72386530940001,2.198049793999995 C 22.72386530940001,2.198049793999995 22.70311830940001,2.144169293999995 22.73463210940001,2.113503893999995 C 22.76613050940001,2.082838393999995 22.86804510940001,1.994142893999995 22.86804510940001,1.994142893999995 C 22.86804510940001,1.994142893999995 23.04457210940001,1.938581093999995 23.10340410940001,1.946848993999995 C 23.16225150940001,1.955132363999995 23.5194551094,1.935172093999995 23.5194551094,1.935172093999995 C 23.5194551094,1.935172093999995 23.78547910940001,1.919391993999995 23.8526261094,1.949209093999995 C 23.9197723094,1.979041593999995 24.2454621094,1.909365593999995 24.2454621094,1.909365593999995 L 24.7377751094,2.047683593999995 L 25.0776091094,2.207581593999995 L 25.3279461094,2.408094593999995 C 25.3279461094,2.408094593999995 25.5359871094,2.563041593999995 25.5045041094,2.593706593999995 C 25.4730211094,2.624387493999995 25.3984241094,2.671650493999995 25.3984241094,2.671650493999995 L 25.1033691094,2.612016393999995 L 25.1265996094,2.720595393999996 L 25.2849096094,2.746263093999996 L 25.3951386094,2.839879093999996 L 25.5252666094,2.808365293999996 L 25.6437786094,2.762768193999995 L 25.8037386094,2.824901193999996 L 25.8377051094,2.768537193999996 C 25.8377051094,2.768537193999996 26.0689141094,2.710476493999996 26.1252781094,2.744442893999996 C 26.1816575094,2.778424793999996 26.4435791094,2.912639893999996 26.4435791094,2.912639893999996 C 26.4435791094,2.912639893999996 26.4079467094,3.012934893999996 26.5413754094,2.973955393999996 C 26.6748044094,2.934975693999996 26.8488784094,3.065890093999996 26.8488784094,3.065890093999996 L 26.9176751094,3.132187893999996 C 26.9176751094,3.132187893999996 26.8438806094,3.036890493999996 26.8156981094,2.979708893999996 C 26.7875161094,2.922527393999996 26.6872051094,2.726116893999996 26.6872051094,2.726116893999996 L 26.8720311094,2.852896893999997 L 26.9076481094,2.752601893999996 C 26.9076481094,2.752601893999996 26.8032341094,2.706202693999996 26.8637323094,2.670554893999996 C 26.8730800294,2.665048073999996 26.8836001094,2.656857293999996 26.8949068094,2.647015893999996 z M 19.43835,19.23042 C 18.809431,19.097685 18.18474,18.89799 17.57368,18.626536 C 16.795012,18.280624 16.08747,17.840742 15.45818,17.326336 C 16.20083,16.892037 14.97304,16.856513 16.55367,17.132903 L 16.88519,17.1908712 L 16.7974356,17.6699032 L 17.2201346,17.8041032 L 17.9694486,18.3692082 L 17.7722366,18.5316822 L 18.5347546,18.7453682 L 19.2210256,19.0502492 L 19.4383526,19.2304162 z M 12.0586,10.63885 C 11.9823837,9.286949999999999 12.201099,7.899260000000002 12.751025,6.569830000000004 C 12.7638588,6.597456700000003 12.7731448,6.613205900000004 12.7775719,6.613020800000001 L 12.8456745,7.464989800000005 L 13.0530365,8.2435808 C 13.0530365,8.2435808 12.8230615,8.802823800000002 12.7385615,8.872438800000001 C 12.6540618,8.942068500000001 12.4779665,9.016526800000001 12.3851835,9.225399800000001 C 12.292385,9.434273800000001 12.2096125,10.0227168 12.2096125,10.0227168 L 12.1467236,10.5664118 C 12.1467236,10.5664118 12.1114923,10.5961055 12.058599,10.6388489 z M 29.7499,14.12928 C 29.7100565,13.965309 29.67949899999999,13.804316 29.67949899999999,13.804316 C 29.67949899999999,13.804316 29.58989359999999,13.121424 29.53519599999999,13.204304 C 29.480498,13.2871994 29.42755799999999,13.888878 29.44995589999999,13.979224 C 29.47235339999999,14.0695698 29.31493889999999,14.38369 29.27765589999999,14.44752 C 29.24037299999999,14.5113498 29.16162689999999,14.547815 29.12352689999999,14.593412 C 29.08541099999999,14.6389937 29.13685429999999,14.965531 29.12112055999999,15.021062 C 29.11350046999999,15.0479328 29.14489095999999,15.1046824 29.17932015999999,15.15611 M 28.65651115999999,12.28699 L 28.60769015999999,12.658292 C 28.60769015999999,12.658292 28.44776115999999,12.7569521 28.39803015999999,12.78845 C 28.34831445999999,12.8199484 28.28945115999999,12.7312839 28.28945115999999,12.7312839 L 28.42781615999999,12.4801299 L 28.55458115999999,12.2952889 L 28.65651115999999,12.2869901 z M 23.00541115999999,14.41213 L 22.94085635999999,14.919359 L 22.77178035999999,14.9782373 L 22.66574735999999,15.1365473 L 22.01026535999999,15.7474653 L 21.67632335999999,16.0367813 L 21.55446335999999,15.9290663 L 21.40861735999999,15.93571459 L 21.21714335999999,15.82385059 L 21.25186565999999,15.38376759 L 21.40766065999999,15.27435659 L 21.57258765999999,15.28509259 L 21.71096765999999,15.03393859 C 21.71096765999999,15.03393859 21.67280555999999,14.91875759 21.71922017999999,14.89470959 C 21.76563487999999,14.87067699 21.98936317999999,14.64852259 21.98936317999999,14.64852259 L 22.22475317999999,14.76202159 L 22.61843717999999,14.74039539 L 22.64327187999999,14.64424959 L 23.00541087999999,14.41212959 z M 22.35574515999999,1.257430000000001 L 22.19330115999999,1.301392000000001 L 21.91482815999999,1.284871500000001 L 21.80790015999999,1.183774500000001 C 21.80790015999999,1.183774500000001 21.92889615999999,1.112478900000001 21.98027715999999,1.117445800000001 C 22.03165875999999,1.122412740000001 22.19910015999999,1.187846800000001 22.19910015999999,1.187846800000001 L 22.35574415999999,1.257430200000001 z M 21.97295115999999,1.837652000000001 L 21.96219975999999,2.002594000000001 L 21.81303775999999,2.097089200000001 L 21.72935565999999,2.265348200000001 C 21.72935565999999,2.265348200000001 21.67384005999999,2.410407200000001 21.63490665999999,2.437756200000001 C 21.59595785999999,2.465105200000001 21.36888265999999,2.453536300000001 21.36888265999999,2.453536300000001 L 21.18652465999999,2.381469400000001 C 21.18652465999999,2.381469400000001 20.92960165999999,2.356650100000001 20.94616765999999,2.319351800000001 C 20.96273435999999,2.282053500000001 21.11356265999999,2.224008200000001 21.11356265999999,2.224008200000001 L 21.31743865999999,2.207395200000001 L 21.39615385999999,2.090533200000001 L 21.61161385999999,2.007622300000001 L 21.58259895999999,1.851811300000001 L 21.73176095999999,1.837681700000001 L 21.78314255999999,1.762267500000001 L 21.97295055999999,1.837650800000001 z M 21.37040915999999,1.846876320000001 L 21.37540694999999,1.956272320000001 L 21.04640094999999,2.033414120000001 L 20.87070694999999,2.107193220000001 L 20.78036114999999,2.049194220000001 L 20.93697414999999,1.877619220000001 L 21.09776714999999,1.877588369400001 L 21.27512714999999,1.920655769400001 C 21.27512714999999,1.920655769400001 21.38367514999999,1.817028769400001 21.37040904999999,1.846876669400001 z M 21.75377315999999,4.401936320000001 C 21.70984195999999,4.400301240000001 21.61206115999999,4.419382320000003 21.61206115999999,4.419382320000003 C 21.61206115999999,4.419382320000003 21.58883065999999,4.310803320000001 21.52915025999999,4.284303320000002 C 21.46946985999999,4.25778722 21.41062225999999,4.249503920000003 21.41062225999999,4.249503920000003 L 21.37085585999999,4.339016820000002 L 21.55074585999999,4.597574820000001 L 21.79687185999999,4.465750820000002 L 21.75377365999999,4.401936420000001 z M 21.19505415999999,3.689288320000001 L 21.46721815999999,3.820542320000001 L 21.34094715999999,3.923814320000001 L 21.04010815999999,3.977725620000001 C 21.04010815999999,3.977725620000001 20.98127616,3.969442250000001 21.01109325999999,3.902311420000001 C 21.04091035999999,3.835180620000001 21.19505526,3.689288420000001 21.19505526,3.689288420000001 z M 22.89518415999999,5.391318320000001 L 22.80567126,5.431933120000001 L 22.58023126,5.376463820000001 L 22.56363366,5.252968820000003 L 22.68216166,5.287752820000001 L 22.89518466,5.391317820000002 z M 26.37688415999999,5.374967520000001 L 26.21943815999999,5.447929120000003 L 26.33552916,5.829967120000001 L 26.30489456,6.039658120000003 C 26.30489456,6.039658120000003 26.35633786,6.285799120000001 26.36213775999999,6.333031120000002 C 26.36793765999999,6.380278720000005 26.37793325999999,6.679467120000001 26.33731845999999,6.670366120000005 C 26.29671915999999,6.661249780000003 26.11684546,6.563484120000002 26.11684546,6.563484120000002 L 25.89552345999999,6.277592120000003 L 26.02145545999999,5.994137120000003 L 25.90536445999999,5.692465120000004 L 25.85726845999999,5.519270120000006 L 25.81164045999999,5.320361120000003 L 25.87460645999999,5.178634120000003 L 26.00555145999999,5.165337520000004 L 26.20694345999999,5.094041920000003 L 26.32298745999999,5.234905920000002 L 26.37688335999999,5.374967920000004 z M 23.66132415999999,2.641267520000001 L 23.58424405999999,2.714213620000001 L 23.46573206,2.679445020000001 L 23.66132505999999,2.641267420000001 z M 26.39129415999999,2.407096520000001 L 26.17166915999999,2.479240520000002 L 26.06560515999999,2.557169020000002 L 26.02995735999999,2.496671120000002 L 26.13437135999999,2.382277120000002 L 26.39129435999999,2.407096420000002 z M 25.12907415999999,5.298506520000002 L 24.86045815999999,4.857652520000002 L 24.60515415999999,4.628108520000004 L 24.23303515999999,4.561039420000002 L 23.88658315999999,4.496469220000002 C 23.88658315999999,4.496469220000002 23.80040215999999,4.449252420000004 23.76890415999999,4.479917920000002 C 23.73740575999999,4.510583420000005 23.63299215999999,4.624976920000002 23.63299215999999,4.624976920000002 L 23.75239915999999,4.919167920000004 L 24.00352315999999,4.977136120000002 C 24.00352315999999,4.977136120000002 24.18586515999999,4.968837320000003 24.23476315999999,4.999487320000002 C 24.28366125999999,5.030137320000005 24.40137115999999,5.127085320000002 24.40137115999999,5.127085320000002 L 24.61606015999999,5.347497320000003 L 24.92936315999999,5.486679320000003 C 24.92936315999999,5.486679320000003 25.13239015999999,5.291056320000001 25.12907415999999,5.298506320000003 z"
             id="path16464" />
        </g>
        <g
           style="stroke:#323232;stroke-width:3.9271960258;stroke-miterlimit:4;stroke-opacity:1;stroke-dasharray:none"
           id="g6721"
           transform="matrix(0.3776792432297461,0,0,0.3862729361161018,372.072728703326,705.601873880028)">
          <g
             style="stroke:#323232;stroke-width:5.4888687134;stroke-miterlimit:4;stroke-opacity:1;stroke-dasharray:none"
             transform="matrix(0.7154836587216339,0,0,0.715483658721637,92.04103186166662,132.2358112302409)"
             id="g7251">
            <path
               id="path3796"
               transform="matrix(1.147883782529538,0,0,1.147881630053388,1485.526713616892,-230.2536414869568)"
               d="M -1312.78125,674.78125 C -1327.300335081253,674.78125 -1339.1875,685.6595850876614 -1339.1875,699.1875 C -1339.1875,712.3694910426936 -1327.916976109311,723.0253415426152 -1313.90625,723.5625 A 1.250123872944614,1.250126217142613 0 0 0 -1314.0625,724.125 L -1314.0625,749.875 L -1359.9375,736.15625 A 1.250123872944614,1.250126217142613 0 0 0 -1360.4375,736.09375 A 1.250123872944614,1.250126217142613 0 0 0 -1360.65625,738.5625 L -1314.0625,752.5 L -1314.0625,779.84375 L -1341.125,831.78125 A 1.264852664208854,1.264855036025878 0 0 0 -1338.875,832.9375 L -1312.8125,782.78125 L -1286.25,832.71875 A 1.250123872944614,1.250126217142613 0 1 0 -1284.0625,831.5625 L -1311.5625,779.8125 L -1311.5625,752.15625 L -1264.9375,738.5625 A 1.25564912599183,1.255651480550632 0 1 0 -1265.65625,736.15625 L -1311.5625,749.5625 L -1311.5625,724.125 A 1.250123872944614,1.250126217142613 0 0 0 -1311.6875,723.5625 C -1297.674139373871,723.0280135368307 -1286.375,712.371275725548 -1286.375,699.1875 C -1286.375,685.6595850876615 -1298.262164918748,674.7812500000003 -1312.78125,674.78125 z M -1312.78125,677.25 C -1299.50695722934,677.25 -1288.874999999999,687.1260721999591 -1288.875,699.1875 C -1288.875,711.2489278000406 -1299.50695722934,721.1250000000001 -1312.78125,721.125 C -1326.05554277066,721.125 -1336.71875,711.2489278000406 -1336.71875,699.1875 C -1336.71875,687.1260721999592 -1326.05554277066,677.2499999999995 -1312.78125,677.25 z"
               style="font-size:medium;font-style:normal;font-variant:normal;font-weight:normal;font-stretch:normal;text-indent:0;text-align:start;text-decoration:none;line-height:normal;letter-spacing:normal;word-spacing:normal;text-transform:none;direction:ltr;block-progression:tb;writing-mode:lr-tb;text-anchor:start;baseline-shift:baseline;color:#000000;fill:#2f3b46;fill-opacity:1;stroke:#323232;stroke-width:4.7817325592;stroke-miterlimit:4;stroke-opacity:1;stroke-dasharray:none;marker:none;visibility:visible;display:inline;overflow:visible;enable-background:accumulate;font-family:Sans;-inkscape-font-specification:Sans"
               inkscape:connector-curvature="0" />
          </g>
        </g>
        <g
           inkscape:export-ydpi="90.00933074951172"
           inkscape:export-xdpi="90.00933074951172"
           inkscape:export-filename="/home/marcus/HistoGlobe/master/presentations/5-intermediate_presentation/architecture.png"
           transform="matrix(0.8194444448016874,0,0,0.8095238099664733,158.7847221998946,867.9812301814993)"
           id="g5174"
           style="fill:#b4b4b4;fill-opacity:1;stroke:#323232;stroke-width:1.2277938128;stroke-miterlimit:4;stroke-opacity:1;stroke-dasharray:none">
          <path
             id="path4992"
             transform="matrix(20,0,0,20,-391.5,-83.5)"
             d="M 20.9,9.15 C 21.619922,8.887499999999999 21.980078,8.8 22.7,8.8 C 23.419922,8.8 23.780078,8.887499999999999 24.5,9.15 L 24.5,10.55 C 23.780078,10.8125 23.419922,10.9 22.7,10.9 C 21.980078,10.9 21.619922,10.8125 20.9,10.55 L 20.9,9.15"
             style="fill:#b4b4b4;fill-opacity:1;fill-rule:evenodd;stroke:#323232;stroke-width:0.0613896884;stroke-linecap:butt;stroke-linejoin:miter;stroke-miterlimit:4;stroke-opacity:1;stroke-dasharray:none"
             inkscape:connector-curvature="0" />
          <path
             id="path4994"
             transform="matrix(20,0,0,20,-391.5,-83.5)"
             d="M 20.9,9.15 C 21.619922,9.412499999999999 21.980078,9.5 22.7,9.5 C 23.419922,9.5 23.780078,9.412499999999999 24.5,9.15"
             style="fill:#b4b4b4;fill-opacity:1;stroke:#323232;stroke-width:0.0613896884;stroke-linecap:butt;stroke-linejoin:miter;stroke-miterlimit:4;stroke-opacity:1;stroke-dasharray:none"
             inkscape:connector-curvature="0" />
        </g>
        <g
           transform="matrix(0.9833375954647019,0,0,0.9677419758939963,-30.91755727026611,28.28586351222952)"
           id="g5878"
           style="fill:#b4b4b4;fill-opacity:1">
          <rect
             inkscape:export-ydpi="90.00933074951172"
             inkscape:export-xdpi="90.00933074951172"
             inkscape:export-filename="/home/marcus/HistoGlobe/master/presentations/5-intermediate_presentation/architecture.png"
             transform="matrix(0.1133786241350036,0,0,0.1920583592023345,-279.3848040271461,214.5801210927464)"
             y="3372.839599609375"
             x="4360.47607421875"
             height="156.2025146484375"
             width="529.200439453125"
             id="rect5871"
             style="fill:#b4b4b4;fill-opacity:1;fill-rule:nonzero;stroke:#323232;stroke-width:6.9468307495;stroke-miterlimit:4;stroke-opacity:1;stroke-dasharray:none" />
          <rect
             style="fill:#b4b4b4;fill-opacity:1;fill-rule:nonzero;stroke:#323232;stroke-width:7.8060412407;stroke-miterlimit:4;stroke-opacity:1;stroke-dasharray:none"
             id="rect5876"
             width="529.200439453125"
             height="156.2025146484375"
             x="4360.47607421875"
             y="3372.839599609375"
             transform="matrix(0.1047888987304345,0,0,0.1645738572278449,-239.6566686869737,309.4275118889846)"
             inkscape:export-filename="/home/marcus/HistoGlobe/master/presentations/5-intermediate_presentation/architecture.png"
             inkscape:export-xdpi="90.00933074951172"
             inkscape:export-ydpi="90.00933074951172" />
        </g>
        <path
           transform="matrix(1,0,0,0.9056603760322925,5.000136606643768,585.3631176984888)"
           inkscape:connector-curvature="0"
           id="path5901"
           d="M 205,340 L 205,393.580152683968"
           style="fill:none;stroke:#141414;stroke-width:0.8406347036;stroke-linecap:butt;stroke-linejoin:miter;stroke-miterlimit:4;stroke-opacity:1;stroke-dasharray:none;marker-start:url(#Arrow1MstartK);marker-end:url(#Arrow1MendF)"
           sodipodi:nodetypes="cc" />
        <text
           transform="matrix(1.03304245967904,0,0,1.03304245967904,1582.174332112554,287.3322264983656)"
           sodipodi:linespacing="125%"
           id="text13698"
           y="573.45593"
           x="-1328.5034"
           style="font-size:9.68014431px;font-style:normal;font-variant:normal;font-weight:normal;font-stretch:normal;text-indent:0;text-align:center;text-decoration:none;line-height:125%;letter-spacing:0px;word-spacing:0px;text-transform:none;direction:ltr;block-progression:tb;writing-mode:lr-tb;text-anchor:middle;baseline-shift:baseline;color:#000000;fill:#333333;fill-opacity:1;fill-rule:nonzero;stroke:none;stroke-width:1px;marker:none;visibility:visible;display:inline;overflow:visible;enable-background:accumulate;font-family:Latin Modern Sans;-inkscape-font-specification:Latin Modern Sans"
           xml:space="preserve"><tspan
             style="font-size:6.7761011124px;font-style:normal;font-variant:normal;font-weight:normal;font-stretch:normal;text-align:center;text-anchor:middle;fill:#333333;fill-opacity:1;font-family:Latin Modern Sans;-inkscape-font-specification:Latin Modern Sans"
             y="573.45593"
             x="-1328.5034"
             id="tspan13700"
             sodipodi:role="line">user interface</tspan></text>
        <text
           transform="matrix(1.03304245967904,0,0,1.03304245967904,1582.174332112554,374.9578554687903)"
           sodipodi:linespacing="125%"
           id="text13832"
           y="573.45593"
           x="-1328.5034"
           style="font-size:9.68014431px;font-style:normal;font-variant:normal;font-weight:normal;font-stretch:normal;text-indent:0;text-align:center;text-decoration:none;line-height:125%;letter-spacing:0px;word-spacing:0px;text-transform:none;direction:ltr;block-progression:tb;writing-mode:lr-tb;text-anchor:middle;baseline-shift:baseline;color:#000000;fill:#333333;fill-opacity:1;fill-rule:nonzero;stroke:none;stroke-width:1px;marker:none;visibility:visible;display:inline;overflow:visible;enable-background:accumulate;font-family:Latin Modern Sans;-inkscape-font-specification:Latin Modern Sans"
           xml:space="preserve"><tspan
             style="font-size:6.7761011124px;font-style:normal;font-variant:normal;font-weight:normal;font-stretch:normal;text-align:center;text-anchor:middle;fill:#333333;fill-opacity:1;font-family:Latin Modern Sans;-inkscape-font-specification:Latin Modern Sans"
             y="573.45593"
             x="-1328.5034"
             id="tspan13834"
             sodipodi:role="line">database</tspan></text>
        <path
           sodipodi:type="arc"
           style="fill:#fafafa;fill-opacity:1;fill-rule:nonzero;stroke:#323232;stroke-width:1;stroke-linecap:round;stroke-linejoin:round;stroke-miterlimit:4;stroke-opacity:1;stroke-dasharray:none;stroke-dashoffset:0"
           id="path13838"
           sodipodi:cx="370"
           sodipodi:cy="342.5"
           sodipodi:rx="5"
           sodipodi:ry="3.762690782546997"
           d="M 375,342.5 C 375,344.5780767375296 372.761423749154,346.262690782547 370,346.262690782547 C 367.2385762508461,346.262690782547 365,344.5780767375296 365,342.5 C 365,340.4219232624704 367.2385762508461,338.737309217453 370,338.737309217453 C 372.761423749154,338.737309217453 375,340.4219232624704 375,342.5 z"
           transform="translate(17.07698040875272,557.313342994061)" />
        <path
           transform="matrix(1.71685036724333,0,0,1.738280040319517,-259.9489366211599,296.1695638664044)"
           d="M 375,342.5 C 375,344.5780767375296 372.761423749154,346.262690782547 370,346.262690782547 C 367.2385762508461,346.262690782547 365,344.5780767375296 365,342.5 C 365,340.4219232624704 367.2385762508461,338.737309217453 370,338.737309217453 C 372.761423749154,338.737309217453 375,340.4219232624704 375,342.5 z"
           sodipodi:ry="3.762690782546997"
           sodipodi:rx="5"
           sodipodi:cy="342.5"
           sodipodi:cx="370"
           id="path13840"
           style="fill:#ebebeb;fill-opacity:1;fill-rule:nonzero;stroke:#323232;stroke-width:0.723575592;stroke-linecap:round;stroke-linejoin:round;stroke-miterlimit:4;stroke-opacity:1;stroke-dasharray:none;stroke-dashoffset:0"
           sodipodi:type="arc" />
        <path
           sodipodi:type="arc"
           style="fill:#dcdcdc;fill-opacity:1;fill-rule:nonzero;stroke:#323232;stroke-width:0.3726460934;stroke-linecap:round;stroke-linejoin:round;stroke-miterlimit:4;stroke-opacity:1;stroke-dasharray:none;stroke-dashoffset:0"
           id="path13842"
           sodipodi:cx="370"
           sodipodi:cy="342.5"
           sodipodi:rx="5"
           sodipodi:ry="3.762690782546997"
           d="M 375,342.5 C 375,344.5780767375296 372.761423749154,346.262690782547 370,346.262690782547 C 367.2385762508461,346.262690782547 365,344.5780767375296 365,342.5 C 365,340.4219232624704 367.2385762508461,338.737309217453 370,338.737309217453 C 372.761423749154,338.737309217453 375,340.4219232624704 375,342.5 z"
           transform="matrix(4.696800379175513,0,0,3.449747406514751,-1387.820624240948,-304.1924331392316)" />
        <text
           xml:space="preserve"
           style="font-size:9.68014431px;font-style:normal;font-variant:normal;font-weight:normal;font-stretch:normal;text-indent:0;text-align:center;text-decoration:none;line-height:125%;letter-spacing:0px;word-spacing:0px;text-transform:none;direction:ltr;block-progression:tb;writing-mode:lr-tb;text-anchor:middle;baseline-shift:baseline;color:#000000;fill:#141414;fill-opacity:1;fill-rule:nonzero;stroke:none;stroke-width:1px;marker:none;visibility:visible;display:inline;overflow:visible;enable-background:accumulate;font-family:Latin Modern Sans;-inkscape-font-specification:Latin Modern Sans"
           x="-1328.5034"
           y="573.45593"
           id="text13844"
           sodipodi:linespacing="125%"
           transform="matrix(1.03304245967904,0,0,1.03304245967904,1722.400438652023,282.9572263982707)"><tspan
             sodipodi:role="line"
             id="tspan13846"
             x="-1328.5034"
             y="573.45593"
             style="font-size:6.7761011124px;font-style:normal;font-variant:normal;font-weight:bold;font-stretch:normal;text-align:center;text-anchor:middle;fill:#141414;fill-opacity:1;font-family:Latin Modern Sans;-inkscape-font-specification:Latin Modern Sans Bold">mental</tspan><tspan
             sodipodi:role="line"
             x="-1328.5034"
             y="581.92609"
             style="font-size:6.7761011124px;font-style:normal;font-variant:normal;font-weight:bold;font-stretch:normal;text-align:center;text-anchor:middle;fill:#141414;fill-opacity:1;font-family:Latin Modern Sans;-inkscape-font-specification:Latin Modern Sans Bold"
             id="tspan13848">model</tspan></text>
        <path
           transform="matrix(4.696800379175513,0,0,3.449747406514751,-1467.143018911348,-304.1924331392313)"
           d="M 375,342.5 C 375,344.5780767375296 372.761423749154,346.262690782547 370,346.262690782547 C 367.2385762508461,346.262690782547 365,344.5780767375296 365,342.5 C 365,340.4219232624704 367.2385762508461,338.737309217453 370,338.737309217453 C 372.761423749154,338.737309217453 375,340.4219232624704 375,342.5 z"
           sodipodi:ry="3.762690782546997"
           sodipodi:rx="5"
           sodipodi:cy="342.5"
           sodipodi:cx="370"
           id="path13858"
           style="fill:#dcdcdc;fill-opacity:1;fill-rule:nonzero;stroke:#323232;stroke-width:0.3726460934;stroke-linecap:round;stroke-linejoin:round;stroke-miterlimit:4;stroke-opacity:1;stroke-dasharray:none;stroke-dashoffset:0"
           sodipodi:type="arc" />
        <text
           transform="matrix(1.03304245967904,0,0,1.03304245967904,1643.078043981623,282.9572263982706)"
           sodipodi:linespacing="125%"
           id="text13860"
           y="573.45593"
           x="-1328.5034"
           style="font-size:9.68014431px;font-style:normal;font-variant:normal;font-weight:normal;font-stretch:normal;text-indent:0;text-align:center;text-decoration:none;line-height:125%;letter-spacing:0px;word-spacing:0px;text-transform:none;direction:ltr;block-progression:tb;writing-mode:lr-tb;text-anchor:middle;baseline-shift:baseline;color:#000000;fill:#333333;fill-opacity:1;fill-rule:nonzero;stroke:none;stroke-width:1px;marker:none;visibility:visible;display:inline;overflow:visible;enable-background:accumulate;font-family:Latin Modern Sans;-inkscape-font-specification:Latin Modern Sans"
           xml:space="preserve"><tspan
             style="font-size:6.7761011124px;font-style:normal;font-variant:normal;font-weight:bold;font-stretch:normal;text-align:center;text-anchor:middle;fill:#333333;fill-opacity:1;font-family:Latin Modern Sans;-inkscape-font-specification:Latin Modern Sans Bold"
             y="573.45593"
             x="-1328.5034"
             id="tspan13862"
             sodipodi:role="line">conceptual</tspan><tspan
             id="tspan13864"
             style="font-size:6.7761011124px;font-style:normal;font-variant:normal;font-weight:bold;font-stretch:normal;text-align:center;text-anchor:middle;fill:#333333;fill-opacity:1;font-family:Latin Modern Sans;-inkscape-font-specification:Latin Modern Sans Bold"
             y="581.92609"
             x="-1328.5034"
             sodipodi:role="line">model</tspan></text>
        <g
           id="g3166"
           transform="translate(0,-10)">
          <path
             transform="matrix(4.696800379175513,0,0,3.449747406514751,-1637.820624479547,-247.191811658524)"
             d="M 375,342.5 C 375,344.5780767375296 372.761423749154,346.262690782547 370,346.262690782547 C 367.2385762508461,346.262690782547 365,344.5780767375296 365,342.5 C 365,340.4219232624704 367.2385762508461,338.737309217453 370,338.737309217453 C 372.761423749154,338.737309217453 375,340.4219232624704 375,342.5 z"
             sodipodi:ry="3.762690782546997"
             sodipodi:rx="5"
             sodipodi:cy="342.5"
             sodipodi:cx="370"
             id="path13877"
             style="fill:#dcdcdc;fill-opacity:1;fill-rule:nonzero;stroke:#323232;stroke-width:0.3726460934;stroke-linecap:round;stroke-linejoin:round;stroke-miterlimit:4;stroke-opacity:1;stroke-dasharray:none;stroke-dashoffset:0"
             sodipodi:type="arc" />
          <text
             transform="matrix(1.03304245967904,0,0,1.03304245967904,1472.400438413424,339.9578478789782)"
             sodipodi:linespacing="125%"
             id="text13879"
             y="573.45593"
             x="-1328.5034"
             style="font-size:9.68014431px;font-style:normal;font-variant:normal;font-weight:normal;font-stretch:normal;text-indent:0;text-align:center;text-decoration:none;line-height:125%;letter-spacing:0px;word-spacing:0px;text-transform:none;direction:ltr;block-progression:tb;writing-mode:lr-tb;text-anchor:middle;baseline-shift:baseline;color:#000000;fill:#333333;fill-opacity:1;fill-rule:nonzero;stroke:none;stroke-width:1px;marker:none;visibility:visible;display:inline;overflow:visible;enable-background:accumulate;font-family:Latin Modern Sans;-inkscape-font-specification:Latin Modern Sans"
             xml:space="preserve"><tspan
               style="font-size:6.7761011124px;font-style:normal;font-variant:normal;font-weight:bold;font-stretch:normal;text-align:center;text-anchor:middle;fill:#333333;fill-opacity:1;font-family:Latin Modern Sans;-inkscape-font-specification:Latin Modern Sans Bold"
               y="573.45593"
               x="-1328.5034"
               id="tspan13881"
               sodipodi:role="line">data</tspan><tspan
               id="tspan13883"
               style="font-size:6.7761011124px;font-style:normal;font-variant:normal;font-weight:bold;font-stretch:normal;text-align:center;text-anchor:middle;fill:#333333;fill-opacity:1;font-family:Latin Modern Sans;-inkscape-font-specification:Latin Modern Sans Bold"
               y="581.92609"
               x="-1328.5034"
               sodipodi:role="line">model</tspan></text>
        </g>
        <g
           id="g13987"
           transform="translate(0,3.660967315231687)">
          <circle
             id="circle13889"
             r="9.076740264892578"
             transform="matrix(1.179679099667898,0.6615168544020767,-0.661526545681628,1.179661817519495,29.34263553878708,939.8338661581216)"
             class="fil3"
             cx="0"
             cy="0"
             sodipodi:cx="0"
             sodipodi:cy="0"
             sodipodi:rx="9.076740264892578"
             sodipodi:ry="9.076740264892578"
             style="fill:#b4b4b4;fill-opacity:1;fill-rule:evenodd;stroke:#323232;stroke-width:0.3696880937;stroke-miterlimit:4;stroke-opacity:1;stroke-dasharray:none"
             d="M 9.076740264892578,0 C 9.076740264892578,5.012945226475287 5.012945226475288,9.076740264892578 0,9.076740264892578 C -5.012945226475285,9.076740264892578 -9.076740264892578,5.012945226475288 -9.076740264892578,0 C -9.076740264892578,-5.012945226475285 -5.012945226475289,-9.076740264892576 0,-9.076740264892578 C 5.012945226475284,-9.076740264892579 9.076740264892576,-5.012945226475289 9.076740264892578,0 z" />
          <path
             sodipodi:nodetypes="ccc"
             transform="matrix(0.4961008617496258,0,0,0.4960935940631276,7.018096760053915,743.8768965000215)"
             inkscape:connector-curvature="0"
             id="path13893"
             d="M 40.00000000000001,374.9999999999998 L 45.00000000000001,395 L 58.40926484595858,393.3585021112049"
             style="fill:none;stroke:#141414;stroke-width:2.0157337189px;stroke-linecap:butt;stroke-linejoin:miter;stroke-opacity:1" />
          <text
             transform="matrix(0.4961008617496258,0,0,0.4960935940631276,8.255242424940686,748.3870683681407)"
             sodipodi:linespacing="125%"
             id="text13895"
             y="403.78296"
             x="42.322262"
             style="font-size:20px;font-style:normal;font-variant:normal;font-weight:normal;font-stretch:normal;text-indent:0;text-align:center;text-decoration:none;line-height:125%;letter-spacing:0px;word-spacing:0px;text-transform:none;direction:ltr;block-progression:tb;writing-mode:lr-tb;text-anchor:middle;baseline-shift:baseline;color:#000000;fill:#1a1a1a;fill-opacity:1;fill-rule:nonzero;stroke:none;stroke-width:1px;marker:none;visibility:visible;display:inline;overflow:visible;enable-background:accumulate;font-family:Latin Modern Sans;-inkscape-font-specification:Latin Modern Sans"
             xml:space="preserve"><tspan
               style="font-size:11.6183156967px;text-align:center;text-anchor:middle;fill:#1a1a1a"
               y="403.78296"
               x="42.322262"
               id="tspan13897"
               sodipodi:role="line">1989</tspan></text>
        </g>
        <path
           sodipodi:type="arc"
           style="fill:#dcdcdc;fill-opacity:1;fill-rule:nonzero;stroke:#323232;stroke-width:0.3726460934;stroke-linecap:round;stroke-linejoin:round;stroke-miterlimit:4;stroke-opacity:1;stroke-dasharray:none;stroke-dashoffset:0"
           id="path13909"
           sodipodi:cx="370"
           sodipodi:cy="342.5"
           sodipodi:rx="5"
           sodipodi:ry="3.762690782546997"
           d="M 375,342.5 C 375,344.5780767375296 372.761423749154,346.262690782547 370,346.262690782547 C 367.2385762508461,346.262690782547 365,344.5780767375296 365,342.5 C 365,340.4219232624704 367.2385762508461,338.737309217453 370,338.737309217453 C 372.761423749154,338.737309217453 375,340.4219232624704 375,342.5 z"
           transform="matrix(4.696800379175513,0,0,3.449747406514751,-1587.820624718147,-222.1918040687117)" />
        <text
           xml:space="preserve"
           style="font-size:9.68014431px;font-style:normal;font-variant:normal;font-weight:normal;font-stretch:normal;text-indent:0;text-align:center;text-decoration:none;line-height:125%;letter-spacing:0px;word-spacing:0px;text-transform:none;direction:ltr;block-progression:tb;writing-mode:lr-tb;text-anchor:middle;baseline-shift:baseline;color:#000000;fill:#333333;fill-opacity:1;fill-rule:nonzero;stroke:none;stroke-width:1px;marker:none;visibility:visible;display:inline;overflow:visible;enable-background:accumulate;font-family:Latin Modern Sans;-inkscape-font-specification:Latin Modern Sans"
           x="-1328.5034"
           y="573.45593"
           id="text13911"
           sodipodi:linespacing="125%"
           transform="matrix(1.03304245967904,0,0,1.03304245967904,1522.400438174824,364.9578554687902)"><tspan
             sodipodi:role="line"
             id="tspan13913"
             x="-1328.5034"
             y="573.45593"
             style="font-size:6.7761011124px;font-style:normal;font-variant:normal;font-weight:bold;font-stretch:normal;text-align:center;text-anchor:middle;fill:#333333;fill-opacity:1;font-family:Latin Modern Sans;-inkscape-font-specification:Latin Modern Sans Bold">database</tspan><tspan
             sodipodi:role="line"
             x="-1328.5034"
             y="581.92609"
             style="font-size:6.7761011124px;font-style:normal;font-variant:normal;font-weight:bold;font-stretch:normal;text-align:center;text-anchor:middle;fill:#333333;fill-opacity:1;font-family:Latin Modern Sans;-inkscape-font-specification:Latin Modern Sans Bold"
             id="tspan13915">model</tspan></text>
        <path
           sodipodi:nodetypes="cc"
           transform="matrix(1,0,0,0.9056603760322925,5.000136606643768,620.3989843296983)"
           inkscape:connector-curvature="0"
           id="path13905"
           d="M 109.8166572866876,347.3504192478536 L 125.3786705984627,365.5667439701505"
           style="fill:none;stroke:#141414;stroke-width:0.8406347036;stroke-linecap:butt;stroke-linejoin:miter;stroke-miterlimit:4;stroke-opacity:1;stroke-dasharray:none;marker-start:url(#Arrow1MstartK);marker-end:url(#Arrow1MendF)" />
        <g
           id="g13982"
           style="stroke:#141414;stroke-opacity:1"
           transform="translate(-0.7328244266743126,7.691501659813753)">
          <path
             sodipodi:nodetypes="ccc"
             transform="matrix(0.8426172185580671,0,0,0.918673128044746,9.111129876429153,583.189618544231)"
             inkscape:connector-curvature="0"
             id="path13972"
             d="M 55.05331377976453,347.9720417641365 L 65.73432027939857,363.835577064991 L 55.05331377976453,379.5393088396896"
             style="fill:none;stroke:#141414;stroke-width:1.1365913153px;stroke-linecap:round;stroke-linejoin:miter;stroke-opacity:1" />
          <path
             style="fill:none;stroke:#141414;stroke-width:1.3030790091px;stroke-linecap:round;stroke-linejoin:miter;stroke-opacity:1"
             d="M 55.05331377976453,347.9720417641365 L 65.73432027939857,363.835577064991 L 55.05331377976453,379.5393088396896"
             id="path13978"
             inkscape:connector-curvature="0"
             transform="matrix(0.7311258816093223,0,0,0.8055014975839521,20.84451727981405,624.3564414075156)"
             sodipodi:nodetypes="ccc" />
          <path
             sodipodi:nodetypes="ccc"
             transform="matrix(0.545306986721746,0,0,0.6168821135100341,37.06682961829339,692.9678128363542)"
             inkscape:connector-curvature="0"
             id="path13980"
             d="M 55.05331377976453,347.9720417641365 L 65.73432027939857,363.835577064991 L 55.05331377976453,379.5393088396896"
             style="fill:none;stroke:#141414;stroke-width:1.7241632938px;stroke-linecap:round;stroke-linejoin:miter;stroke-opacity:1" />
        </g>
        <path
           style="fill:none;stroke:#141414;stroke-width:0.8406347036;stroke-linecap:butt;stroke-linejoin:miter;stroke-miterlimit:4;stroke-opacity:1;stroke-dasharray:none;marker-start:url(#Arrow1MstartK);marker-end:url(#Arrow1MendF)"
           d="M 109.6369530983704,326.6535818248436 L 139.3586423134498,326.9293393759464"
           id="path13997"
           inkscape:connector-curvature="0"
           transform="matrix(1,0,0,0.9056603760322925,185.6413576865502,581.5592897364524)"
           sodipodi:nodetypes="cc" />
        <g
           id="g14007"
           transform="translate(3.664122131438262,-1.258055589286414)">
          <g
             id="g14015"
             transform="translate(-64.33710690838694,0)">
            <path
               sodipodi:type="arc"
               style="fill:#dcdcdc;fill-opacity:1;fill-rule:nonzero;stroke:#323232;stroke-width:0.3425653875;stroke-linecap:round;stroke-linejoin:round;stroke-miterlimit:4;stroke-opacity:1;stroke-dasharray:none;stroke-dashoffset:0"
               id="path13999"
               sodipodi:cx="370"
               sodipodi:cy="342.5"
               sodipodi:rx="5"
               sodipodi:ry="3.762690782546997"
               d="M 375,342.5 C 375,344.5780767375296 372.761423749154,346.262690782547 370,346.262690782547 C 367.2385762508461,346.262690782547 365,344.5780767375296 365,342.5 C 365,340.4219232624704 367.2385762508461,338.737309217453 370,338.737309217453 C 372.761423749154,338.737309217453 375,340.4219232624704 375,342.5 z"
               transform="matrix(5.557869080972174,0,0,3.449747406514751,-1785.738438576112,-261.6763041014033)" />
            <text
               xml:space="preserve"
               style="font-size:9.68014431px;font-style:normal;font-variant:normal;font-weight:normal;font-stretch:normal;text-indent:0;text-align:center;text-decoration:none;line-height:125%;letter-spacing:0px;word-spacing:0px;text-transform:none;direction:ltr;block-progression:tb;writing-mode:lr-tb;text-anchor:middle;baseline-shift:baseline;color:#000000;fill:#333333;fill-opacity:1;fill-rule:nonzero;stroke:none;stroke-width:1px;marker:none;visibility:visible;display:inline;overflow:visible;enable-background:accumulate;font-family:Latin Modern Sans;-inkscape-font-specification:Latin Modern Sans"
               x="-1328.5034"
               y="573.45593"
               id="text14001"
               sodipodi:linespacing="125%"
               transform="matrix(1.03304245967904,0,0,1.03304245967904,1643.160567374831,325.4733554360987)"><tspan
                 sodipodi:role="line"
                 id="tspan14003"
                 x="-1328.5034"
                 y="573.45593"
                 style="font-size:6.7761011124px;font-style:normal;font-variant:normal;font-weight:bold;font-stretch:normal;text-align:center;text-anchor:middle;fill:#333333;fill-opacity:1;font-family:Latin Modern Sans;-inkscape-font-specification:Latin Modern Sans Bold">computational</tspan><tspan
                 sodipodi:role="line"
                 x="-1328.5034"
                 y="581.92609"
                 style="font-size:6.7761011124px;font-style:normal;font-variant:normal;font-weight:bold;font-stretch:normal;text-align:center;text-anchor:middle;fill:#333333;fill-opacity:1;font-family:Latin Modern Sans;-inkscape-font-specification:Latin Modern Sans Bold"
                 id="tspan14005">model</tspan></text>
          </g>
        </g>
        <path
           sodipodi:nodetypes="cc"
           transform="matrix(1,0,0,0.9056603760322925,166.7276007560397,604.6185276380333)"
           inkscape:connector-curvature="0"
           id="path14013"
           d="M 89.45252102254821,314.521770884525 L 67.38165146112328,337.471221108091"
           style="fill:none;stroke:#141414;stroke-width:0.8406347036;stroke-linecap:butt;stroke-linejoin:miter;stroke-miterlimit:4;stroke-opacity:1;stroke-dasharray:none;marker-start:url(#Arrow1MstartK);marker-end:url(#Arrow1MendF)" />
        <path
           style="fill:none;stroke:#141414;stroke-width:0.8406347036;stroke-linecap:butt;stroke-linejoin:miter;stroke-miterlimit:4;stroke-opacity:1;stroke-dasharray:none;marker-start:url(#Arrow1MstartK);marker-end:url(#Arrow1MendF)"
           d="M 90.18534544922249,315.7355113429816 L 69.21371252780902,338.4826714901382"
           id="path14021"
           inkscape:connector-curvature="0"
           transform="matrix(1,0,0,0.9056603760322925,96.37645579530499,641.809367291755)"
           sodipodi:nodetypes="cc" />
        <text
           xml:space="preserve"
           style="font-size:9.68014431px;font-style:normal;font-variant:normal;font-weight:normal;font-stretch:normal;text-indent:0;text-align:center;text-decoration:none;line-height:125%;letter-spacing:0px;word-spacing:0px;text-transform:none;direction:ltr;block-progression:tb;writing-mode:lr-tb;text-anchor:middle;baseline-shift:baseline;color:#000000;fill:#333333;fill-opacity:1;fill-rule:nonzero;stroke:none;stroke-width:1px;marker:none;visibility:visible;display:inline;overflow:visible;enable-background:accumulate;font-family:Latin Modern Sans;-inkscape-font-specification:Latin Modern Sans"
           x="-1328.5034"
           y="573.45593"
           id="text14023"
           sodipodi:linespacing="125%"
           transform="matrix(1.03304245967904,0,0,1.03304245967904,1401.516831044697,404.9578554687903)"><tspan
             sodipodi:role="line"
             id="tspan14025"
             x="-1328.5034"
             y="573.45593"
             style="font-size:9.68014431px;font-style:normal;font-variant:normal;font-weight:normal;font-stretch:normal;text-align:center;text-anchor:middle;fill:#333333;fill-opacity:1;font-family:Latin Modern Sans;-inkscape-font-specification:Latin Modern Sans">real world</tspan></text>
        <text
           transform="matrix(1.03304245967904,0,0,1.03304245967904,1582.356961504536,404.9578554687903)"
           sodipodi:linespacing="125%"
           id="text14027"
           y="573.45593"
           x="-1328.5034"
           style="font-size:9.68014431px;font-style:normal;font-variant:normal;font-weight:normal;font-stretch:normal;text-indent:0;text-align:center;text-decoration:none;line-height:125%;letter-spacing:0px;word-spacing:0px;text-transform:none;direction:ltr;block-progression:tb;writing-mode:lr-tb;text-anchor:middle;baseline-shift:baseline;color:#000000;fill:#333333;fill-opacity:1;fill-rule:nonzero;stroke:none;stroke-width:1px;marker:none;visibility:visible;display:inline;overflow:visible;enable-background:accumulate;font-family:Latin Modern Sans;-inkscape-font-specification:Latin Modern Sans"
           xml:space="preserve"><tspan
             style="font-size:9.68014431px;font-style:normal;font-variant:normal;font-weight:normal;font-stretch:normal;text-align:center;text-anchor:middle;fill:#333333;fill-opacity:1;font-family:Latin Modern Sans;-inkscape-font-specification:Latin Modern Sans"
             y="573.45593"
             x="-1328.5034"
             id="tspan14029"
             sodipodi:role="line">application</tspan></text>
        <text
           xml:space="preserve"
           style="font-size:9.68014431px;font-style:normal;font-variant:normal;font-weight:normal;font-stretch:normal;text-indent:0;text-align:center;text-decoration:none;line-height:125%;letter-spacing:0px;word-spacing:0px;text-transform:none;direction:ltr;block-progression:tb;writing-mode:lr-tb;text-anchor:middle;baseline-shift:baseline;color:#000000;fill:#333333;fill-opacity:1;fill-rule:nonzero;stroke:none;stroke-width:1px;marker:none;visibility:visible;display:inline;overflow:visible;enable-background:accumulate;font-family:Latin Modern Sans;-inkscape-font-specification:Latin Modern Sans"
           x="-1328.5034"
           y="573.45593"
           id="text14031"
           sodipodi:linespacing="125%"
           transform="matrix(1.03304245967904,0,0,1.03304245967904,1773.040793209097,404.9578554687903)"><tspan
             sodipodi:role="line"
             id="tspan14033"
             x="-1328.5034"
             y="573.45593"
             style="font-size:9.68014431px;font-style:normal;font-variant:normal;font-weight:normal;font-stretch:normal;text-align:center;text-anchor:middle;fill:#333333;fill-opacity:1;font-family:Latin Modern Sans;-inkscape-font-specification:Latin Modern Sans">user</tspan></text>
      </g>
    </g>
  </g>
</svg>
